<svg width="123" height="48" viewBox="0 0 123 48" fill="none" xmlns="http://www.w3.org/2000/svg">
<path d="M14.4692 5.9309C13.5823 6.78557 12.6181 7.82032 11.8868 8.91378C10.5891 10.8538 9.34187 13.003 8.31643 15.1141C7.6237 16.5402 6.77402 18.6688 6.37381 20.1949C5.84125 22.2259 5.56168 23.6323 5.45152 25.7799C5.29637 28.8055 5.91466 31.7735 7.08908 34.4672C8.81693 38.4302 12.6217 41.3302 16.3093 43.5785C19.1941 45.3372 22.8049 46.1838 25.9409 46.7204L26.1034 45.8597C22.9962 45.3286 19.6519 44.4769 16.8868 42.7889C13.3296 40.6171 9.9025 37.8081 7.98038 34.0796C6.80992 31.81 6.17196 29.206 6.11406 26.5856C6.06335 24.29 6.53163 21.8979 7.01344 19.713C7.40957 17.9169 7.98568 16.4706 8.7267 14.9236C9.66623 12.9621 10.7366 11.022 11.9194 9.21426C12.685 8.04412 13.7859 6.91549 14.6782 6.05552L14.4692 5.9309Z" fill="#0D152A" fill-opacity="0.64"/>
<path d="M20.0773 45.2109C20.0773 45.2109 17.8897 44.9198 16.2797 45.4031C13.7235 46.1703 13.7692 47.8365 13.7692 47.8365C13.7692 47.8365 14.9313 48.3033 17.1337 47.6597C19.7138 46.9058 20.0773 45.2109 20.0773 45.2109Z" fill="#0D152A" fill-opacity="0.64"/>
<path d="M16.1214 43.4081C16.1214 43.4081 14.2291 42.8861 12.5758 43.1903C9.7137 43.7169 9.81083 45.2725 9.81083 45.2725C9.81083 45.2725 10.9804 45.8395 13.2702 45.404C15.9109 44.9017 16.1214 43.4081 16.1214 43.4081Z" fill="#0D152A" fill-opacity="0.64"/>
<path d="M13.0617 41.3181C13.0617 41.3181 11.1445 40.1529 9.46756 40.0328C6.56448 39.825 5.92949 41.6083 5.92949 41.6083C5.92949 41.6083 7.18192 42.6683 9.50805 42.8208C12.1905 42.9965 13.0617 41.3181 13.0617 41.3181Z" fill="#0D152A" fill-opacity="0.64"/>
<path d="M9.4216 37.9098C9.4216 37.9098 7.73739 36.6605 5.68833 36.4048C3.01424 36.0712 2.09237 37.8145 2.06434 37.859C2.06434 37.859 3.33479 38.9865 5.60449 39.1788C8.6489 39.4368 9.4216 37.9098 9.4216 37.9098Z" fill="#0D152A" fill-opacity="0.64"/>
<path d="M7.46656 35.031C7.46656 35.031 5.78851 33.2465 3.64835 32.6419C1.56928 32.054 0.308647 33.0891 0.279356 33.1261C0.279356 33.1261 1.58129 34.7548 3.54422 35.2991C6.21121 36.0387 7.46656 35.031 7.46656 35.031Z" fill="#0D152A" fill-opacity="0.64"/>
<path d="M6.55677 32.3627C5.73371 31.8219 5.36228 30.0229 4.09478 28.7334C2.32653 26.9344 0.0313332 27.4922 0 27.5176C0 27.5176 0.698226 30.0242 2.72986 31.2554C4.88899 32.5638 6.55677 32.3627 6.55677 32.3627Z" fill="#0D152A" fill-opacity="0.64"/>
<path d="M5.60386 28.0986C5.60386 28.0986 5.2815 25.8698 4.40129 24.2892C3.1734 22.0845 0.870497 22.0152 0.833531 22.0312C0.833531 22.0312 0.916007 24.6057 2.54845 26.3333C4.28337 28.1693 5.60386 28.0986 5.60386 28.0986Z" fill="#0D152A" fill-opacity="0.64"/>
<path d="M5.8122 23.778C5.8122 23.778 5.9272 21.8389 5.39101 20.1108C4.58287 17.5062 2.41437 17.307 2.37552 17.3178C2.37552 17.3178 2.10135 19.9106 3.48291 21.8453C4.95116 23.9015 5.8122 23.778 5.8122 23.778Z" fill="#0D152A" fill-opacity="0.64"/>
<path d="M6.84843 18.9964C6.84843 18.9964 7.27217 17.186 6.86607 15.4227C6.30244 12.9756 4.44836 12.2267 4.40847 12.2322C4.40847 12.2322 3.05468 13.9711 4.53176 16.9397C5.42775 18.7404 6.84843 18.9964 6.84843 18.9964Z" fill="#0D152A" fill-opacity="0.64"/>
<path d="M8.52055 14.92C8.52055 14.92 9.29992 13.0784 9.28633 11.2691C9.27358 9.5705 8.28881 7.89114 8.11059 7.75227C8.11059 7.75227 6.50351 8.82683 7.088 11.7602C7.48113 13.7331 8.52055 14.92 8.52055 14.92Z" fill="#0D152A" fill-opacity="0.64"/>
<path d="M10.7455 10.879C10.7455 10.879 11.782 9.29148 11.7861 7.37002C11.7892 5.77778 11.216 4.14917 10.852 3.78164C10.852 3.78164 9.36951 5.11208 9.71084 7.75546C9.96848 9.75056 10.5631 10.6167 10.7455 10.879Z" fill="#0D152A" fill-opacity="0.64"/>
<path d="M12.4295 8.34418C12.4295 8.34418 14.8783 8.00323 15.9635 7.08644C17.1783 6.06023 18.2053 4.11664 18.2221 3.59915C18.2221 3.59915 15.9259 3.03852 14.2404 5.09935C12.9683 6.65474 12.4947 8.03139 12.4295 8.34418Z" fill="#0D152A" fill-opacity="0.64"/>
<path d="M10.2671 11.7583C10.2671 11.7583 11.1902 10.1877 13.1279 9.48228C14.6215 8.93858 15.8509 8.98065 16.6901 9.29074C16.6901 9.29074 15.782 11.0047 13.5688 11.6091C11.6321 12.138 10.578 11.8302 10.2671 11.7583Z" fill="#0D152A" fill-opacity="0.64"/>
<path d="M8.41704 15.3309C8.41704 15.3309 9.2943 13.8258 11.2321 13.1204C12.7257 12.5767 13.5151 12.7251 14.3543 13.0352C14.3543 13.0352 13.6703 14.6379 11.457 15.2423C9.52032 15.7712 8.72794 15.4028 8.41704 15.3309Z" fill="#0D152A" fill-opacity="0.64"/>
<path d="M6.80647 19.8492C6.80647 19.8492 7.55709 18.0524 9.28992 16.9335C11.0655 15.7869 12.1188 15.9992 12.9982 16.1623C12.8049 16.6042 12.0188 18.4424 10.3604 19.245C8.55311 20.1198 7.12497 19.8672 6.80647 19.8492Z" fill="#0D152A" fill-opacity="0.64"/>
<path d="M6.06393 23.7412C6.06393 23.7412 6.68433 21.8951 8.33269 20.6548C10.0218 19.3838 11.0875 19.5201 11.9763 19.6198C11.8149 20.0744 11.1622 21.9643 9.56548 22.8838C7.82527 23.8859 6.38288 23.7363 6.06393 23.7412Z" fill="#0D152A" fill-opacity="0.64"/>
<path d="M6.1005 28.2042C6.71456 27.0443 6.95282 25.8717 7.98188 24.5651C9.2497 22.9552 10.6166 23.1561 11.5083 23.0884C11.22 23.9765 10.7987 25.3751 9.63067 26.5789C8.2316 28.0207 6.41296 28.14 6.1005 28.2042Z" fill="#0D152A" fill-opacity="0.64"/>
<path d="M6.90322 32.1808C7.38386 30.9593 7.55268 30.0434 8.42925 28.6294C9.50922 26.8874 10.8318 26.9297 11.7102 26.7625C11.523 27.6773 11.1788 29.0571 10.1526 30.3844C8.92342 31.9741 7.20646 32.082 6.90322 32.1808Z" fill="#0D152A" fill-opacity="0.64"/>
<path d="M8.33293 35.2121C9.0715 33.4619 8.88064 33.1289 9.64495 31.651C10.4658 30.0637 11.821 29.8644 12.6831 29.627C12.5697 30.554 12.3784 31.8147 11.4516 33.2135C10.4633 34.7053 9.17189 34.7633 8.33293 35.2121Z" fill="#0D152A" fill-opacity="0.64"/>
<path d="M10.5518 38.0384C10.947 36.5355 10.6834 35.687 11.0967 34.5982C11.7728 32.8174 12.7018 32.5818 13.564 32.3446C13.2187 34.4756 13.3823 34.4563 12.828 35.8149C12.2888 37.137 11.2991 37.4765 10.5518 38.0384Z" fill="#0D152A" fill-opacity="0.64"/>
<path d="M13.0261 40.3081C13.1288 38.7571 12.6781 38.3675 12.8773 37.2196C13.2031 35.3423 14.0704 34.9341 14.8717 34.5369C14.9835 35.7389 15.2627 36.4647 14.8264 37.8659C14.5183 38.8553 13.6531 39.614 13.0261 40.3081Z" fill="#0D152A" fill-opacity="0.64"/>
<path d="M16.566 36.6743C16.566 36.6743 17.5474 37.961 17.5937 39.6447C17.6592 42.0302 16.4808 42.5971 16.4808 42.5971C16.4808 42.5971 15.5883 41.665 15.2821 39.5083C14.9549 37.2046 16.566 36.6743 16.566 36.6743Z" fill="#0D152A" fill-opacity="0.64"/>
<path d="M19.625 38.5765C19.625 38.5765 20.6101 39.8807 20.741 41.56C20.9087 43.7121 19.8457 44.4454 19.8457 44.4454C19.8457 44.4454 18.909 43.3927 18.5636 41.6155C18.0362 38.9017 19.625 38.5765 19.625 38.5765Z" fill="#0D152A" fill-opacity="0.64"/>
<path d="M107.866 5.92999C108.753 6.78465 109.717 7.81939 110.448 8.91284C111.746 10.8529 112.993 13.002 114.019 15.1131C114.711 16.5393 115.561 18.6678 115.961 20.1939C116.494 22.2249 116.773 23.6312 116.884 25.7789C117.039 28.8045 116.42 31.7724 115.246 34.4661C113.518 38.4291 109.713 41.329 106.026 43.5773C103.141 45.336 99.5303 46.1826 96.3943 46.7192L96.2338 45.8594C99.3415 45.3277 102.686 44.4762 105.451 42.788C109.008 40.6166 112.435 37.8077 114.357 34.0788C115.528 31.8092 116.166 29.2049 116.223 26.5848C116.274 24.2893 115.806 21.8971 115.324 19.7123C114.928 17.9162 114.352 16.4699 113.611 14.9229C112.671 12.9614 111.601 11.0213 110.418 9.21363C109.653 8.04349 108.552 6.91487 107.659 6.05491L107.866 5.92999Z" fill="#0D152A" fill-opacity="0.64"/>
<path d="M102.262 45.2108C102.262 45.2108 104.45 44.9198 106.06 45.403C108.616 46.1702 108.57 47.8364 108.57 47.8364C108.57 47.8364 107.408 48.3032 105.206 47.6596C102.626 46.9056 102.262 45.2108 102.262 45.2108Z" fill="#0D152A" fill-opacity="0.64"/>
<path d="M106.213 43.4069C106.213 43.4069 108.106 42.8849 109.759 43.1891C112.621 43.7157 112.524 45.2713 112.524 45.2713C112.524 45.2713 111.354 45.8383 109.064 45.4028C106.424 44.9005 106.213 43.4069 106.213 43.4069Z" fill="#0D152A" fill-opacity="0.64"/>
<path d="M109.278 41.3179C109.278 41.3179 111.195 40.1527 112.872 40.0326C115.775 39.8248 116.41 41.6081 116.41 41.6081C116.41 41.6081 115.158 42.6681 112.831 42.8206C110.149 42.9963 109.278 41.3179 109.278 41.3179Z" fill="#0D152A" fill-opacity="0.64"/>
<path d="M112.916 37.9091C112.916 37.9091 114.6 36.6598 116.649 36.4041C119.323 36.0705 120.245 37.8138 120.273 37.8583C120.273 37.8583 119.002 38.9858 116.733 39.1781C113.688 39.4361 112.916 37.9091 112.916 37.9091Z" fill="#0D152A" fill-opacity="0.64"/>
<path d="M114.871 35.0302C114.871 35.0302 116.549 33.2457 118.689 32.6412C120.768 32.0537 122.029 33.0885 122.058 33.1257C122.058 33.1257 120.756 34.7544 118.793 35.2987C116.126 36.0383 114.871 35.0302 114.871 35.0302Z" fill="#0D152A" fill-opacity="0.64"/>
<path d="M115.778 32.3619C116.601 31.8211 116.973 30.0222 118.24 28.7326C120.008 26.9335 122.304 27.4913 122.335 27.5166C122.335 27.5166 121.637 30.0232 119.605 31.2544C117.446 32.5628 115.778 32.3619 115.778 32.3619Z" fill="#0D152A" fill-opacity="0.64"/>
<path d="M116.735 28.0979C116.735 28.0979 117.057 25.869 117.937 24.2885C119.165 22.0838 121.468 22.0145 121.505 22.0305C121.505 22.0305 121.422 24.605 119.79 26.3326C118.055 28.1685 116.735 28.0979 116.735 28.0979Z" fill="#0D152A" fill-opacity="0.64"/>
<path d="M116.526 23.7775C116.526 23.7775 116.411 21.8384 116.947 20.1103C117.755 17.5057 119.923 17.3066 119.962 17.3174C119.962 17.3174 120.236 19.9101 118.855 21.8448C117.387 23.901 116.526 23.7775 116.526 23.7775Z" fill="#0D152A" fill-opacity="0.64"/>
<path d="M115.49 18.9958C115.49 18.9958 115.066 17.1854 115.472 15.4221C116.036 12.975 117.89 12.2261 117.93 12.2317C117.93 12.2317 119.284 13.9705 117.807 16.9391C116.911 18.7399 115.49 18.9958 115.49 18.9958Z" fill="#0D152A" fill-opacity="0.64"/>
<path d="M113.813 14.9186C113.813 14.9186 113.034 13.077 113.048 11.2677C113.06 9.56911 114.045 7.88976 114.223 7.75089C114.223 7.75089 115.83 8.82544 115.246 11.7588C114.853 13.7317 113.813 14.9186 113.813 14.9186Z" fill="#0D152A" fill-opacity="0.64"/>
<path d="M111.591 10.8783C111.591 10.8783 110.555 9.29082 110.551 7.36937C110.547 5.77681 111.121 4.14822 111.485 3.78075C111.485 3.78075 112.967 5.11118 112.626 7.75454C112.368 9.74963 111.774 10.616 111.591 10.8783Z" fill="#0D152A" fill-opacity="0.64"/>
<path d="M109.91 8.34402C109.91 8.34402 107.461 8.00307 106.376 7.08629C105.161 6.06009 104.134 4.11652 104.117 3.59903C104.117 3.59903 106.413 3.03841 108.099 5.09922C109.371 6.65459 109.844 8.03124 109.91 8.34402Z" fill="#0D152A" fill-opacity="0.64"/>
<path d="M112.072 11.7583C112.072 11.7583 111.149 10.1876 109.211 9.48223C107.717 8.93853 106.488 8.9806 105.649 9.29068C105.649 9.29068 106.557 11.0046 108.77 11.6091C110.707 12.138 111.761 11.8301 112.072 11.7583Z" fill="#0D152A" fill-opacity="0.64"/>
<path d="M113.917 15.3296C113.917 15.3296 113.04 13.8245 111.102 13.1192C109.608 12.5755 108.819 12.7238 107.98 13.0339C107.98 13.0339 108.664 14.6366 110.877 15.241C112.814 15.7699 113.606 15.4015 113.917 15.3296Z" fill="#0D152A" fill-opacity="0.64"/>
<path d="M115.532 19.8492C115.532 19.8492 114.782 18.0524 113.049 16.9335C111.273 15.7869 110.22 15.9992 109.341 16.1623C109.534 16.6042 110.32 18.4424 111.979 19.245C113.786 20.1197 115.214 19.8672 115.532 19.8492Z" fill="#0D152A" fill-opacity="0.64"/>
<path d="M116.271 23.7401C116.271 23.7401 115.651 21.8941 114.002 20.6538C112.313 19.3828 111.248 19.5191 110.359 19.6187C110.52 20.0733 111.173 21.9633 112.77 22.8828C114.51 23.8848 115.952 23.7352 116.271 23.7401Z" fill="#0D152A" fill-opacity="0.64"/>
<path d="M116.233 28.2031C115.619 27.0432 115.381 25.8706 114.352 24.5639C113.084 22.9541 111.717 23.155 110.826 23.0873C111.114 23.9753 111.535 25.374 112.703 26.5778C114.102 28.0195 115.921 28.1389 116.233 28.2031Z" fill="#0D152A" fill-opacity="0.64"/>
<path d="M115.436 32.1802C114.955 30.9587 114.786 30.0428 113.91 28.6289C112.83 26.8869 111.507 26.9292 110.629 26.762C110.816 27.6768 111.16 29.0566 112.186 30.3838C113.416 31.9735 115.132 32.0814 115.436 32.1802Z" fill="#0D152A" fill-opacity="0.64"/>
<path d="M114.004 35.2113C113.266 33.4612 113.457 33.1282 112.692 31.6502C111.872 30.0629 110.516 29.8636 109.654 29.6263C109.768 30.5533 109.959 31.8139 110.886 33.2128C111.874 34.7045 113.165 34.7626 114.004 35.2113Z" fill="#0D152A" fill-opacity="0.64"/>
<path d="M111.786 38.038C111.391 36.5351 111.655 35.6866 111.241 34.5978C110.565 32.817 109.636 32.5814 108.774 32.3441C109.119 34.4752 108.956 34.4559 109.51 35.8145C110.049 37.1365 111.039 37.4761 111.786 38.038Z" fill="#0D152A" fill-opacity="0.64"/>
<path d="M109.308 40.3068C109.206 38.7558 109.656 38.3662 109.457 37.2184C109.131 35.3411 108.264 34.9329 107.463 34.5357C107.351 35.7377 107.072 36.4635 107.508 37.8646C107.816 38.854 108.681 39.6128 109.308 40.3068Z" fill="#0D152A" fill-opacity="0.64"/>
<path d="M105.771 36.6738C105.771 36.6738 104.79 37.9605 104.744 39.6441C104.678 42.0296 105.857 42.5965 105.857 42.5965C105.857 42.5965 106.749 41.6644 107.055 39.5077C107.382 37.204 105.771 36.6738 105.771 36.6738Z" fill="#0D152A" fill-opacity="0.64"/>
<path d="M102.711 38.5759C102.711 38.5759 101.726 39.8801 101.595 41.5594C101.428 43.7115 102.491 44.4448 102.491 44.4448C102.491 44.4448 103.427 43.392 103.773 41.6149C104.3 38.9011 102.711 38.5759 102.711 38.5759Z" fill="#0D152A" fill-opacity="0.64"/>
<path d="M37.6209 0.866281C37.7655 0.518775 38.2578 0.518776 38.4023 0.866281L39.4512 3.38822C39.5122 3.53472 39.6499 3.63481 39.8081 3.64749L42.5307 3.86576C42.9059 3.89584 43.058 4.36403 42.7722 4.60888L40.6978 6.38579C40.5773 6.48901 40.5247 6.65097 40.5615 6.80531L41.1953 9.46214C41.2826 9.82824 40.8843 10.1176 40.5631 9.92141L38.2322 8.49767C38.0968 8.41496 37.9265 8.41496 37.7911 8.49767L35.4601 9.92141C35.1389 10.1176 34.7407 9.82824 34.828 9.46214L35.4617 6.80531C35.4985 6.65097 35.4459 6.48901 35.3254 6.38579L33.2511 4.60887C32.9652 4.36403 33.1173 3.89584 33.4925 3.86576L36.2151 3.64749C36.3733 3.63481 36.5111 3.53472 36.572 3.38822L37.6209 0.866281Z" fill="url(#paint0_linear_12_1633)"/>
<path d="M49.319 0.866281C49.4635 0.518775 49.9558 0.518776 50.1004 0.866281L51.1493 3.38822C51.2102 3.53472 51.348 3.63481 51.5061 3.64749L54.2288 3.86576C54.604 3.89584 54.7561 4.36403 54.4702 4.60888L52.3959 6.38579C52.2754 6.48901 52.2228 6.65097 52.2596 6.80531L52.8933 9.46214C52.9806 9.82824 52.5824 10.1176 52.2612 9.92141L49.9302 8.49767C49.7948 8.41496 49.6245 8.41496 49.4891 8.49767L47.1582 9.92141C46.837 10.1176 46.4387 9.82824 46.526 9.46214L47.1598 6.80531C47.1966 6.65097 47.144 6.48901 47.0235 6.38579L44.9491 4.60887C44.6633 4.36403 44.8154 3.89584 45.1906 3.86576L47.9132 3.64749C48.0714 3.63481 48.2091 3.53472 48.2701 3.38822L49.319 0.866281Z" fill="url(#paint1_linear_12_1633)"/>
<path d="M61.0171 0.866281C61.1617 0.518775 61.6539 0.518776 61.7985 0.866281L62.8474 3.38822C62.9083 3.53472 63.0461 3.63481 63.2043 3.64749L65.9269 3.86576C66.3021 3.89584 66.4542 4.36403 66.1684 4.60888L64.094 6.38579C63.9735 6.48901 63.9209 6.65097 63.9577 6.80531L64.5914 9.46214C64.6788 9.82824 64.2805 10.1176 63.9593 9.92141L61.6284 8.49767C61.4929 8.41496 61.3226 8.41496 61.1872 8.49767L58.8563 9.92141C58.5351 10.1176 58.1368 9.82824 58.2242 9.46214L58.8579 6.80531C58.8947 6.65097 58.8421 6.48901 58.7216 6.38579L56.6472 4.60887C56.3614 4.36403 56.5135 3.89584 56.8887 3.86576L59.6113 3.64749C59.7695 3.63481 59.9073 3.53472 59.9682 3.38822L61.0171 0.866281Z" fill="url(#paint2_linear_12_1633)"/>
<path d="M72.7152 0.866281C72.8598 0.518775 73.3521 0.518776 73.4966 0.866281L74.5455 3.38822C74.6065 3.53472 74.7442 3.63481 74.9024 3.64749L77.625 3.86576C78.0002 3.89584 78.1523 4.36403 77.8665 4.60888L75.7921 6.38579C75.6716 6.48901 75.619 6.65097 75.6558 6.80531L76.2896 9.46214C76.3769 9.82824 75.9786 10.1176 75.6574 9.92141L73.3265 8.49767C73.1911 8.41496 73.0208 8.41496 72.8854 8.49767L70.5544 9.92141C70.2332 10.1176 69.835 9.82824 69.9223 9.46214L70.556 6.80531C70.5928 6.65097 70.5402 6.48901 70.4197 6.38579L68.3454 4.60887C68.0595 4.36403 68.2116 3.89584 68.5868 3.86576L71.3094 3.64749C71.4676 3.63481 71.6054 3.53472 71.6663 3.38822L72.7152 0.866281Z" fill="url(#paint3_linear_12_1633)"/>
<path d="M84.4133 0.866281C84.5578 0.518775 85.0501 0.518776 85.1947 0.866281L86.2436 3.38822C86.3045 3.53472 86.4423 3.63481 86.6004 3.64749L89.3231 3.86576C89.6982 3.89584 89.8504 4.36403 89.5645 4.60888L87.4902 6.38579C87.3697 6.48901 87.3171 6.65097 87.3539 6.80531L87.9876 9.46214C88.0749 9.82824 87.6767 10.1176 87.3555 9.92141L85.0245 8.49767C84.8891 8.41496 84.7188 8.41496 84.5834 8.49767L82.2525 9.92141C81.9313 10.1176 81.533 9.82824 81.6203 9.46214L82.2541 6.80531C82.2909 6.65097 82.2383 6.48901 82.1178 6.38579L80.0434 4.60887C79.7576 4.36403 79.9097 3.89584 80.2849 3.86576L83.0075 3.64749C83.1657 3.63481 83.3034 3.53472 83.3644 3.38822L84.4133 0.866281Z" fill="url(#paint4_linear_12_1633)"/>
<path d="M37.171 24.6318L37.9613 18.2728H38.6063L37.8159 24.6318H37.171ZM36.1172 22.9967V22.3335H41.7222V22.9967H36.1172ZM39.5329 24.6318L40.3141 18.2728H40.9591L40.1779 24.6318H39.5329ZM36.4079 20.5712V19.908H42.0129V20.5712H36.4079ZM43.7219 24.6318V18.6362L44.1125 19.0632H42.2865V18.2728H44.6212V24.6318H43.7219ZM51.7221 24.7045C51.2376 24.7045 50.7895 24.6258 50.3777 24.4683C49.9719 24.3048 49.6176 24.0777 49.3148 23.787C49.018 23.4902 48.7849 23.145 48.6153 22.7514C48.4457 22.3577 48.3609 21.9247 48.3609 21.4523C48.3609 20.98 48.4457 20.5469 48.6153 20.1533C48.7849 19.7596 49.0211 19.4175 49.3239 19.1268C49.6267 18.83 49.981 18.6029 50.3867 18.4454C50.7986 18.2819 51.2467 18.2002 51.7312 18.2002C52.2218 18.2002 52.6729 18.285 53.0848 18.4545C53.5026 18.618 53.8569 18.8633 54.1476 19.1904L53.5572 19.7627C53.3149 19.5083 53.0424 19.3206 52.7396 19.1994C52.4368 19.0723 52.1128 19.0087 51.7675 19.0087C51.4102 19.0087 51.0771 19.0692 50.7683 19.1904C50.4655 19.3115 50.202 19.4811 49.9779 19.6991C49.7539 19.9171 49.5782 20.1775 49.4511 20.4803C49.3299 20.7771 49.2694 21.1011 49.2694 21.4523C49.2694 21.8036 49.3299 22.1306 49.4511 22.4334C49.5782 22.7302 49.7539 22.9876 49.9779 23.2056C50.202 23.4236 50.4655 23.5932 50.7683 23.7143C51.0771 23.8354 51.4102 23.896 51.7675 23.896C52.1128 23.896 52.4368 23.8354 52.7396 23.7143C53.0424 23.5871 53.3149 23.3933 53.5572 23.1329L54.1476 23.7052C53.8569 24.0323 53.5026 24.2806 53.0848 24.4502C52.6729 24.6197 52.2187 24.7045 51.7221 24.7045ZM59.8697 24.6318V18.2728H60.7782V24.6318H59.8697ZM55.3094 24.6318V18.2728H56.2179V24.6318H55.3094ZM56.127 21.7975V21.0072H59.9515V21.7975H56.127ZM65.5067 24.7045C65.0222 24.7045 64.5711 24.6228 64.1532 24.4592C63.7414 24.2957 63.384 24.0686 63.0812 23.7779C62.7784 23.4812 62.5422 23.136 62.3727 22.7423C62.2031 22.3487 62.1183 21.9187 62.1183 21.4523C62.1183 20.986 62.2031 20.556 62.3727 20.1624C62.5422 19.7687 62.7784 19.4265 63.0812 19.1358C63.384 18.8391 63.7414 18.609 64.1532 18.4454C64.565 18.2819 65.0162 18.2002 65.5067 18.2002C65.9912 18.2002 66.4364 18.2819 66.8421 18.4454C67.2539 18.6029 67.6113 18.83 67.9141 19.1268C68.2229 19.4175 68.4591 19.7596 68.6226 20.1533C68.7922 20.5469 68.877 20.98 68.877 21.4523C68.877 21.9247 68.7922 22.3577 68.6226 22.7514C68.4591 23.145 68.2229 23.4902 67.9141 23.787C67.6113 24.0777 67.2539 24.3048 66.8421 24.4683C66.4364 24.6258 65.9912 24.7045 65.5067 24.7045ZM65.5067 23.896C65.858 23.896 66.182 23.8354 66.4788 23.7143C66.7816 23.5932 67.042 23.4236 67.26 23.2056C67.4841 22.9815 67.6567 22.7211 67.7778 22.4244C67.905 22.1276 67.9686 21.8036 67.9686 21.4523C67.9686 21.1011 67.905 20.7771 67.7778 20.4803C67.6567 20.1836 67.4841 19.9262 67.26 19.7082C67.042 19.4841 66.7816 19.3115 66.4788 19.1904C66.182 19.0692 65.858 19.0087 65.5067 19.0087C65.1494 19.0087 64.8194 19.0692 64.5166 19.1904C64.2198 19.3115 63.9594 19.4841 63.7353 19.7082C63.5112 19.9262 63.3356 20.1836 63.2084 20.4803C63.0873 20.7771 63.0267 21.1011 63.0267 21.4523C63.0267 21.8036 63.0873 22.1276 63.2084 22.4244C63.3356 22.7211 63.5112 22.9815 63.7353 23.2056C63.9594 23.4236 64.2198 23.5932 64.5166 23.7143C64.8194 23.8354 65.1494 23.896 65.5067 23.896ZM70.2201 24.6318V18.2728H71.1285V24.6318H70.2201ZM75.8302 24.7045C75.3457 24.7045 74.8976 24.6258 74.4858 24.4683C74.08 24.3048 73.7257 24.0777 73.4229 23.787C73.1262 23.4902 72.893 23.145 72.7234 22.7514C72.5538 22.3577 72.4691 21.9247 72.4691 21.4523C72.4691 20.98 72.5538 20.5469 72.7234 20.1533C72.893 19.7596 73.1292 19.4175 73.432 19.1268C73.7348 18.83 74.0891 18.6029 74.4949 18.4454C74.9067 18.2819 75.3548 18.2002 75.8393 18.2002C76.3299 18.2002 76.7811 18.285 77.1929 18.4545C77.6108 18.618 77.965 18.8633 78.2557 19.1904L77.6653 19.7627C77.423 19.5083 77.1505 19.3206 76.8477 19.1994C76.5449 19.0723 76.2209 19.0087 75.8757 19.0087C75.5183 19.0087 75.1853 19.0692 74.8764 19.1904C74.5736 19.3115 74.3101 19.4811 74.0861 19.6991C73.862 19.9171 73.6864 20.1775 73.5592 20.4803C73.438 20.7771 73.3775 21.1011 73.3775 21.4523C73.3775 21.8036 73.438 22.1306 73.5592 22.4334C73.6864 22.7302 73.862 22.9876 74.0861 23.2056C74.3101 23.4236 74.5736 23.5932 74.8764 23.7143C75.1853 23.8354 75.5183 23.896 75.8757 23.896C76.2209 23.896 76.5449 23.8354 76.8477 23.7143C77.1505 23.5871 77.423 23.3933 77.6653 23.1329L78.2557 23.7052C77.965 24.0323 77.6108 24.2806 77.1929 24.4502C76.7811 24.6197 76.3268 24.7045 75.8302 24.7045ZM79.4175 24.6318V18.2728H83.9052V19.0632H80.326V23.8415H84.0323V24.6318H79.4175ZM80.2442 21.7885V21.0163H83.5145V21.7885H80.2442ZM26.607 36.6318V30.2728H31.0946V31.0632H27.5154V36.6318H26.607ZM27.4246 34.061V33.2797H30.704V34.061H27.4246ZM35.1276 36.7045C34.6431 36.7045 34.192 36.6228 33.7741 36.4592C33.3623 36.2957 33.0049 36.0686 32.7021 35.7779C32.3993 35.4812 32.1631 35.136 31.9936 34.7423C31.824 34.3487 31.7392 33.9187 31.7392 33.4523C31.7392 32.986 31.824 32.556 31.9936 32.1624C32.1631 31.7687 32.3993 31.4265 32.7021 31.1358C33.0049 30.8391 33.3623 30.609 33.7741 30.4454C34.1859 30.2819 34.6371 30.2002 35.1276 30.2002C35.6121 30.2002 36.0573 30.2819 36.463 30.4454C36.8748 30.6029 37.2322 30.83 37.535 31.1268C37.8438 31.4175 38.08 31.7596 38.2435 32.1533C38.4131 32.5469 38.4979 32.98 38.4979 33.4523C38.4979 33.9247 38.4131 34.3577 38.2435 34.7514C38.08 35.145 37.8438 35.4902 37.535 35.787C37.2322 36.0777 36.8748 36.3048 36.463 36.4683C36.0573 36.6258 35.6121 36.7045 35.1276 36.7045ZM35.1276 35.896C35.4789 35.896 35.8029 35.8354 36.0997 35.7143C36.4025 35.5932 36.6629 35.4236 36.8809 35.2056C37.105 34.9815 37.2776 34.7211 37.3987 34.4244C37.5259 34.1276 37.5895 33.8036 37.5895 33.4523C37.5895 33.1011 37.5259 32.7771 37.3987 32.4803C37.2776 32.1836 37.105 31.9262 36.8809 31.7082C36.6629 31.4841 36.4025 31.3115 36.0997 31.1904C35.8029 31.0692 35.4789 31.0087 35.1276 31.0087C34.7703 31.0087 34.4403 31.0692 34.1374 31.1904C33.8407 31.3115 33.5803 31.4841 33.3562 31.7082C33.1321 31.9262 32.9565 32.1836 32.8293 32.4803C32.7082 32.7771 32.6476 33.1011 32.6476 33.4523C32.6476 33.8036 32.7082 34.1276 32.8293 34.4244C32.9565 34.7211 33.1321 34.9815 33.3562 35.2056C33.5803 35.4236 33.8407 35.5932 34.1374 35.7143C34.4403 35.8354 34.7703 35.896 35.1276 35.896ZM39.841 36.6318V30.2728H42.321C43.1446 30.2728 43.7926 30.4697 44.265 30.8633C44.7374 31.2509 44.9736 31.7929 44.9736 32.4894C44.9736 32.9497 44.8676 33.3464 44.6556 33.6794C44.4437 34.0065 44.1408 34.2578 43.7472 34.4334C43.3535 34.6091 42.8781 34.6969 42.321 34.6969H40.3406L40.7494 34.279V36.6318H39.841ZM44.0924 36.6318L42.4754 34.3244H43.4474L45.0826 36.6318H44.0924ZM40.7494 34.3699L40.3406 33.9247H42.2937C42.8751 33.9247 43.3142 33.8006 43.6109 33.5523C43.9137 33.2979 44.0651 32.9436 44.0651 32.4894C44.0651 32.0352 43.9137 31.6839 43.6109 31.4356C43.3142 31.1873 42.8751 31.0632 42.2937 31.0632H40.3406L40.7494 30.609V34.3699ZM50.6432 36.7045C50.1587 36.7045 49.6954 36.6318 49.2533 36.4865C48.8112 36.3351 48.463 36.1413 48.2086 35.9051L48.5448 35.1965C48.787 35.4085 49.0959 35.5841 49.4714 35.7234C49.8468 35.8627 50.2375 35.9323 50.6432 35.9323C51.0127 35.9323 51.3124 35.89 51.5426 35.8052C51.7727 35.7204 51.9423 35.6053 52.0513 35.46C52.1603 35.3086 52.2148 35.139 52.2148 34.9512C52.2148 34.7332 52.1421 34.5576 51.9968 34.4244C51.8575 34.2911 51.6728 34.1851 51.4426 34.1064C51.2186 34.0216 50.9703 33.9489 50.6977 33.8884C50.4252 33.8278 50.1496 33.7582 49.8711 33.6794C49.5985 33.5947 49.3472 33.4887 49.1171 33.3615C48.893 33.2343 48.7113 33.0647 48.572 32.8528C48.4327 32.6348 48.3631 32.3562 48.3631 32.017C48.3631 31.69 48.4479 31.3902 48.6174 31.1177C48.7931 30.8391 49.0595 30.618 49.4168 30.4545C49.7802 30.285 50.2405 30.2002 50.7977 30.2002C51.1671 30.2002 51.5335 30.2486 51.8969 30.3455C52.2602 30.4424 52.5751 30.5817 52.8416 30.7634L52.5418 31.4901C52.2693 31.3084 51.9816 31.1782 51.6788 31.0995C51.376 31.0147 51.0823 30.9723 50.7977 30.9723C50.4403 30.9723 50.1466 31.0178 49.9165 31.1086C49.6863 31.1994 49.5168 31.3206 49.4078 31.472C49.3048 31.6234 49.2533 31.7929 49.2533 31.9807C49.2533 32.2048 49.323 32.3834 49.4623 32.5167C49.6076 32.6499 49.7923 32.7559 50.0164 32.8346C50.2465 32.9133 50.4979 32.986 50.7704 33.0526C51.0429 33.1132 51.3155 33.1828 51.588 33.2616C51.8666 33.3403 52.1179 33.4433 52.342 33.5704C52.5721 33.6976 52.7568 33.8672 52.8961 34.0792C53.0354 34.2911 53.1051 34.5636 53.1051 34.8967C53.1051 35.2177 53.0172 35.5175 52.8416 35.7961C52.666 36.0686 52.3935 36.2897 52.024 36.4592C51.6607 36.6228 51.2004 36.7045 50.6432 36.7045ZM53.4239 36.6318L56.3036 30.2728H57.2029L60.0917 36.6318H59.1379L56.567 30.7816H56.9304L54.3595 36.6318H53.4239ZM54.6502 35.0421L54.8955 34.3153H58.4747L58.7382 35.0421H54.6502ZM60.9949 36.6318V30.2728H65.4825V31.0632H61.9033V36.6318H60.9949ZM61.8125 34.061V33.2797H65.0919V34.061H61.8125ZM66.7159 36.6318V30.2728H71.2035V31.0632H67.6243V35.8415H71.3307V36.6318H66.7159ZM67.5425 33.7885V33.0163H70.8129V33.7885H67.5425ZM76.613 36.6318L74.4873 30.2728H75.4229L77.3761 36.1413H76.9037L78.9295 30.2728H79.7652L81.7456 36.1413H81.2914L83.2717 30.2728H84.1348L82.009 36.6318H81.0552L79.202 31.1904H79.4473L77.585 36.6318H76.613ZM85.2006 36.6318V30.2728H89.6882V31.0632H86.109V35.8415H89.8154V36.6318H85.2006ZM86.0273 33.7885V33.0163H89.2976V33.7885H86.0273ZM91.2409 36.6318V30.2728H94.0934C94.8262 30.2728 95.3894 30.4212 95.7831 30.718C96.1767 31.0087 96.3735 31.4084 96.3735 31.9171C96.3735 32.2623 96.2948 32.553 96.1374 32.7892C95.9859 33.0254 95.78 33.2071 95.5196 33.3342C95.2592 33.4614 94.9776 33.525 94.6748 33.525L94.8383 33.2525C95.2017 33.2525 95.5227 33.3161 95.8012 33.4433C96.0798 33.5704 96.3009 33.7582 96.4644 34.0065C96.6279 34.2487 96.7097 34.5515 96.7097 34.9149C96.7097 35.46 96.5038 35.8839 96.0919 36.1867C95.6862 36.4835 95.0805 36.6318 94.2751 36.6318H91.2409ZM92.1494 35.896H94.2387C94.7414 35.896 95.126 35.8112 95.3924 35.6416C95.6589 35.4721 95.7922 35.2056 95.7922 34.8422C95.7922 34.4728 95.6589 34.2033 95.3924 34.0337C95.126 33.8642 94.7414 33.7794 94.2387 33.7794H92.0676V33.0435H94.0116C94.4719 33.0435 94.8292 32.9588 95.0836 32.7892C95.3379 32.6196 95.4651 32.3653 95.4651 32.0261C95.4651 31.687 95.3379 31.4326 95.0836 31.263C94.8292 31.0935 94.4719 31.0087 94.0116 31.0087H92.1494V35.896Z" fill="#0D152A" fill-opacity="0.64"/>
<defs>
<linearGradient id="paint0_linear_12_1633" x1="38.0116" y1="0.605652" x2="38.0116" y2="9.98475" gradientUnits="userSpaceOnUse">
<stop stop-color="#FFCE0B"/>
<stop offset="1" stop-color="#FFAE00"/>
</linearGradient>
<linearGradient id="paint1_linear_12_1633" x1="49.7097" y1="0.605652" x2="49.7097" y2="9.98475" gradientUnits="userSpaceOnUse">
<stop stop-color="#FFCE0B"/>
<stop offset="1" stop-color="#FFAE00"/>
</linearGradient>
<linearGradient id="paint2_linear_12_1633" x1="61.4078" y1="0.605652" x2="61.4078" y2="9.98475" gradientUnits="userSpaceOnUse">
<stop stop-color="#FFCE0B"/>
<stop offset="1" stop-color="#FFAE00"/>
</linearGradient>
<linearGradient id="paint3_linear_12_1633" x1="73.1059" y1="0.605652" x2="73.1059" y2="9.98475" gradientUnits="userSpaceOnUse">
<stop stop-color="#FFCE0B"/>
<stop offset="1" stop-color="#FFAE00"/>
</linearGradient>
<linearGradient id="paint4_linear_12_1633" x1="84.804" y1="0.605652" x2="84.804" y2="9.98475" gradientUnits="userSpaceOnUse">
<stop stop-color="#FFCE0B"/>
<stop offset="1" stop-color="#FFAE00"/>
</linearGradient>
</defs>
</svg>
