<svg width="46" height="42" viewBox="0 0 46 42" fill="none" xmlns="http://www.w3.org/2000/svg">
<g filter="url(#filter0_d_3_183)">
<path d="M19.4588 3.36629C17.3301 5.10662 14.6449 6.3972 11.9694 6.97405C10.495 7.29669 9.32324 7.37491 6.10096 7.37491H3.00562L3.07397 9.15435C3.29855 15.1575 4.48005 20.2709 6.69659 24.8271C9.07913 29.7156 12.7311 33.8123 17.1739 36.5792C18.2089 37.2245 20.113 38.212 20.1814 38.1435C20.2009 38.124 20.2107 30.1556 20.2009 20.4469L20.1716 2.77966L19.4588 3.36629Z" fill="url(#paint0_linear_3_183)"/>
<path d="M23.2369 6.30416V10.4584C23.4359 10.4734 23.6848 10.4891 24.0021 10.5077C25.5894 10.5934 26.463 10.6963 27.6564 10.9307C31.5962 11.714 35.2334 13.4806 38.2482 16.0705C38.5451 16.3278 38.9162 16.6022 39.0704 16.6823C40.0867 17.2025 41.36 16.7566 41.8796 15.6932C42.0281 15.3902 42.0452 15.2987 42.0452 14.8127C42.0452 14.3096 42.0281 14.2353 41.8568 13.8808C41.6969 13.555 41.5713 13.412 41.1031 13.0004C39.8812 11.9427 38.134 10.6906 36.7921 9.91879C33.726 8.15789 30.1859 6.96871 26.6971 6.52276C25.4944 6.37111 24.031 6.28557 23.2369 6.30416Z" fill="url(#paint1_linear_3_183)"/>
<path d="M23.2369 18.8613C23.3206 18.8667 23.4133 18.8721 23.5168 18.8777C27.4508 19.0949 30.4771 20.3299 33.2235 22.8397C33.5204 23.1142 33.9087 23.4057 34.08 23.4915C34.3598 23.6287 34.4568 23.6459 34.965 23.6459C35.496 23.6459 35.5588 23.6344 35.8786 23.4629C36.3011 23.2457 36.6666 22.8626 36.8664 22.4281C36.9977 22.148 37.0206 22.0279 37.0206 21.5877C37.0206 20.8501 36.8378 20.49 36.1184 19.8096C32.801 16.6823 28.3758 14.8413 23.8594 14.7213C23.604 14.7155 23.401 14.713 23.2369 14.7145L23.2369 18.8613Z" fill="url(#paint2_linear_3_183)"/>
<path d="M23.237 23.1105C23.237 23.3107 23.2369 27.2716 23.2369 27.2716C23.2802 27.2751 23.3258 27.2786 23.374 27.282C24.4931 27.3621 25.1898 27.5393 26.0519 27.9738C26.6286 28.2654 26.897 28.4483 27.4794 28.9515C28.1303 29.5175 28.4329 29.649 29.0839 29.649C29.5292 29.649 29.6434 29.6261 29.946 29.4889C30.3629 29.2945 30.7568 28.9114 30.9795 28.4769C31.1223 28.1968 31.1394 28.1053 31.1394 27.5908C31.1394 26.8189 31.0081 26.5502 30.3172 25.8927C28.4729 24.1433 25.8464 23.0913 23.374 23.1085C23.3285 23.1085 23.2826 23.1092 23.237 23.1105Z" fill="url(#paint3_linear_3_183)"/>
<path d="M23.2313 35.6521C23.2313 35.6521 23.237 31.9702 23.237 31.5014C23.5727 31.5098 23.9164 31.5879 24.1335 31.7015C25.7208 32.519 25.7094 34.7087 24.1106 35.4863C23.8137 35.6292 23.711 35.6463 23.2313 35.6521Z" fill="url(#paint4_linear_3_183)"/>
</g>
<defs>
<filter id="filter0_d_3_183" x="-3.45707e-05" y="-3.04431e-05" width="45.0509" height="41.3786" filterUnits="userSpaceOnUse" color-interpolation-filters="sRGB">
<feFlood flood-opacity="0" result="BackgroundImageFix"/>
<feColorMatrix in="SourceAlpha" type="matrix" values="0 0 0 0 0 0 0 0 0 0 0 0 0 0 0 0 0 0 127 0" result="hardAlpha"/>
<feOffset dy="0.225989"/>
<feGaussianBlur stdDeviation="1.50282"/>
<feComposite in2="hardAlpha" operator="out"/>
<feColorMatrix type="matrix" values="0 0 0 0 0 0 0 0 0 0 0 0 0 0 0 0 0 0 0.25 0"/>
<feBlend mode="normal" in2="BackgroundImageFix" result="effect1_dropShadow_3_183"/>
<feBlend mode="normal" in="SourceGraphic" in2="effect1_dropShadow_3_183" result="shape"/>
</filter>
<linearGradient id="paint0_linear_3_183" x1="11.6052" y1="2.77966" x2="13.8813" y2="56.8192" gradientUnits="userSpaceOnUse">
<stop stop-color="white"/>
<stop offset="1" stop-color="#14896D"/>
</linearGradient>
<linearGradient id="paint1_linear_3_183" x1="32.6411" y1="6.30164" x2="32.8283" y2="22.5216" gradientUnits="userSpaceOnUse">
<stop stop-color="white"/>
<stop offset="1" stop-color="#14896D"/>
</linearGradient>
<linearGradient id="paint2_linear_3_183" x1="30.1288" y1="14.7141" x2="30.3102" y2="28.3833" gradientUnits="userSpaceOnUse">
<stop stop-color="white"/>
<stop offset="1" stop-color="#14896D"/>
</linearGradient>
<linearGradient id="paint3_linear_3_183" x1="27.1882" y1="23.1082" x2="27.3578" y2="33.117" gradientUnits="userSpaceOnUse">
<stop stop-color="white"/>
<stop offset="1" stop-color="#14896D"/>
</linearGradient>
<linearGradient id="paint4_linear_3_183" x1="25.3221" y1="33.5706" x2="24.5501" y2="37.8434" gradientUnits="userSpaceOnUse">
<stop stop-color="white"/>
<stop offset="1" stop-color="#14896D"/>
</linearGradient>
</defs>
</svg>
