<svg width="215" height="196" viewBox="0 0 215 196" fill="none" xmlns="http://www.w3.org/2000/svg">
<g clip-path="url(#clip0_25_7699)">
<rect x="5.27344" y="5.36157" width="204.293" height="442.362" rx="17.433" fill="#0D152A"/>
<path d="M34.303 17.9554C34.6527 17.9554 34.9843 18.0202 35.2978 18.1498C35.6114 18.2764 35.8887 18.4754 36.1299 18.7467C36.3741 19.015 36.5655 19.3602 36.7042 19.7823C36.8429 20.2013 36.9122 20.7063 36.9122 21.2972V21.3062C36.9122 22.0388 36.8067 22.6659 36.5957 23.1874C36.3846 23.709 36.0817 24.1099 35.6867 24.3903C35.2948 24.6677 34.826 24.8064 34.2803 24.8064C33.8794 24.8064 33.5176 24.734 33.195 24.5893C32.8755 24.4416 32.6102 24.2396 32.3992 23.9833C32.1911 23.7241 32.051 23.4286 31.9786 23.097L31.9696 23.0473H33.1136L33.1317 23.0925C33.189 23.2432 33.2704 23.3759 33.3759 23.4904C33.4845 23.605 33.6141 23.6939 33.7648 23.7572C33.9186 23.8175 34.0904 23.8477 34.2803 23.8477C34.624 23.8477 34.9044 23.7467 35.1215 23.5447C35.3415 23.3397 35.5058 23.0668 35.6144 22.7262C35.7259 22.3825 35.7892 22.0026 35.8043 21.5866C35.8073 21.5414 35.8088 21.4977 35.8088 21.4555C35.8088 21.4103 35.8088 21.3665 35.8088 21.3243L35.6053 20.2345C35.6053 19.9873 35.548 19.7627 35.4335 19.5607C35.3189 19.3587 35.1637 19.1989 34.9677 19.0814C34.7748 18.9638 34.5562 18.905 34.312 18.905C34.0769 18.905 33.8613 18.9623 33.6653 19.0768C33.4694 19.1914 33.3126 19.3482 33.195 19.5471C33.0775 19.7431 33.0187 19.9632 33.0187 20.2074V20.2164C33.0187 20.4697 33.0745 20.6943 33.186 20.8902C33.2975 21.0832 33.4498 21.2354 33.6427 21.3469C33.8357 21.4585 34.0558 21.5143 34.303 21.5143C34.5502 21.5143 34.7718 21.46 34.9677 21.3515C35.1637 21.2429 35.3189 21.0922 35.4335 20.8993C35.548 20.7063 35.6053 20.4877 35.6053 20.2435V20.2345H35.8767V21.4374H35.7184C35.64 21.6092 35.5239 21.769 35.3702 21.9167C35.2164 22.0644 35.0265 22.1835 34.8004 22.274C34.5773 22.3644 34.315 22.4096 34.0135 22.4096C33.5975 22.4096 33.2297 22.3162 32.9102 22.1293C32.5906 21.9424 32.3389 21.6861 32.155 21.3605C31.9741 21.0349 31.8836 20.6671 31.8836 20.2571V20.2481C31.8836 19.8049 31.9861 19.4115 32.1911 19.0678C32.3992 18.7211 32.6856 18.4498 33.0503 18.2538C33.4181 18.0548 33.8357 17.9554 34.303 17.9554ZM38.9652 23.7663C38.7602 23.7663 38.5884 23.6984 38.4497 23.5628C38.3141 23.4241 38.2462 23.2553 38.2462 23.0563C38.2462 22.8543 38.3141 22.6855 38.4497 22.5498C38.5884 22.4111 38.7602 22.3418 38.9652 22.3418C39.1733 22.3418 39.3451 22.4111 39.4808 22.5498C39.6164 22.6855 39.6843 22.8543 39.6843 23.0563C39.6843 23.2553 39.6164 23.4241 39.4808 23.5628C39.3451 23.6984 39.1733 23.7663 38.9652 23.7663ZM38.9652 20.4109C38.7602 20.4109 38.5884 20.343 38.4497 20.2074C38.3141 20.0687 38.2462 19.8999 38.2462 19.7009C38.2462 19.4989 38.3141 19.3301 38.4497 19.1944C38.5884 19.0557 38.7602 18.9864 38.9652 18.9864C39.1733 18.9864 39.3451 19.0557 39.4808 19.1944C39.6164 19.3301 39.6843 19.4989 39.6843 19.7009C39.6843 19.8999 39.6164 20.0687 39.4808 20.2074C39.3451 20.343 39.1733 20.4109 38.9652 20.4109ZM44.1838 24.6436V23.3909H40.9912V22.4368C41.163 22.1443 41.3348 21.8504 41.5067 21.555C41.6815 21.2595 41.8579 20.9656 42.0358 20.6731C42.2166 20.3777 42.396 20.0868 42.5739 19.8004C42.7548 19.511 42.9341 19.2261 43.112 18.9457C43.2929 18.6623 43.4738 18.3865 43.6547 18.1182H45.2962V22.4277H46.178V23.3909H45.2962V24.6436H44.1838ZM42.0765 22.4549H44.2018V19.0497H44.134C44.0014 19.2547 43.8642 19.4657 43.7225 19.6828C43.5838 19.8999 43.4436 20.1215 43.3019 20.3476C43.1603 20.5737 43.0201 20.8013 42.8814 21.0304C42.7427 21.2565 42.6055 21.4841 42.4699 21.7132C42.3342 21.9393 42.2031 22.1639 42.0765 22.387V22.4549ZM48.8777 24.6436V19.2668H48.7963L47.1729 20.4109V19.3165L48.8777 18.1182H50.0399V24.6436H48.8777Z" fill="white"/>
<rect opacity="0.35" x="178.496" y="18.455" width="13.0747" height="6.53737" rx="2.07017" stroke="white" stroke-width="0.544781"/>
<path opacity="0.4" d="M192.387 20.7874V23.0076C192.826 22.8196 193.111 22.3821 193.111 21.8975C193.111 21.4128 192.826 20.9754 192.387 20.7874Z" fill="white"/>
<rect x="179.313" y="19.2722" width="11.4404" height="4.90303" rx="1.36195" fill="white"/>
<path fill-rule="evenodd" clip-rule="evenodd" d="M169.654 19.8736C171.009 19.8737 172.312 20.376 173.294 21.2768C173.368 21.3463 173.486 21.3455 173.559 21.2748L174.266 20.5865C174.303 20.5507 174.323 20.5022 174.323 20.4517C174.323 20.4012 174.302 20.3529 174.264 20.3175C171.687 17.9342 167.621 17.9342 165.043 20.3175C165.006 20.3529 164.985 20.4011 164.985 20.4516C164.984 20.5021 165.005 20.5507 165.042 20.5865L165.749 21.2748C165.821 21.3456 165.94 21.3464 166.014 21.2768C166.996 20.3759 168.299 19.8736 169.654 19.8736ZM169.652 22.1727C170.392 22.1727 171.105 22.4515 171.653 22.9549C171.727 23.0264 171.844 23.0248 171.916 22.9514L172.617 22.2327C172.654 22.195 172.675 22.1439 172.674 22.0907C172.674 22.0376 172.652 21.9869 172.615 21.9499C170.945 20.3751 168.361 20.3751 166.691 21.9499C166.654 21.9869 166.632 22.0376 166.632 22.0908C166.631 22.1439 166.652 22.1951 166.689 22.2327L167.39 22.9514C167.462 23.0248 167.579 23.0264 167.653 22.9549C168.201 22.4518 168.913 22.173 169.652 22.1727ZM171.028 23.6946C171.029 23.752 171.008 23.8073 170.972 23.8475L169.786 25.1848C169.751 25.2241 169.704 25.2463 169.654 25.2463C169.605 25.2463 169.557 25.2241 169.523 25.1848L168.337 23.8475C168.3 23.8073 168.28 23.752 168.281 23.6946C168.282 23.6372 168.304 23.5828 168.342 23.5443C169.1 22.8286 170.209 22.8286 170.966 23.5443C171.004 23.5828 171.026 23.6372 171.028 23.6946Z" fill="white"/>
<path fill-rule="evenodd" clip-rule="evenodd" d="M160.899 19.0988C160.899 18.7539 160.639 18.4744 160.318 18.4744H159.737C159.416 18.4744 159.156 18.7539 159.156 19.0988V24.5106C159.156 24.8555 159.416 25.1351 159.737 25.1351H160.318C160.639 25.1351 160.899 24.8555 160.899 24.5106V19.0988ZM156.849 19.8065H157.43C157.751 19.8065 158.011 20.0928 158.011 20.4459V24.4956C158.011 24.8488 157.751 25.1351 157.43 25.1351H156.849C156.528 25.1351 156.268 24.8488 156.268 24.4956V20.4459C156.268 20.0928 156.528 19.8065 156.849 19.8065ZM154.489 21.2497H153.908C153.587 21.2497 153.327 21.5396 153.327 21.8972V24.4875C153.327 24.8451 153.587 25.1351 153.908 25.1351H154.489C154.81 25.1351 155.071 24.8451 155.071 24.4875V21.8972C155.071 21.5396 154.81 21.2497 154.489 21.2497ZM151.602 22.5818H151.021C150.7 22.5818 150.439 22.8676 150.439 23.2201V24.4968C150.439 24.8493 150.7 25.1351 151.021 25.1351H151.602C151.923 25.1351 152.183 24.8493 152.183 24.4968V23.2201C152.183 22.8676 151.923 22.5818 151.602 22.5818Z" fill="white"/>
<g opacity="0.67" filter="url(#filter0_d_25_7699)">
<path d="M13.99 52.1382C13.99 44.9585 19.8103 39.1382 26.99 39.1382H93.99C101.17 39.1382 106.99 44.9585 106.99 52.1382C106.99 59.3179 101.17 65.1382 93.99 65.1382H26.99C19.8103 65.1382 13.99 59.3179 13.99 52.1382Z" fill="#CCCCCC" fill-opacity="0.5" style="mix-blend-mode:color-burn" shape-rendering="crispEdges"/>
<path d="M13.99 52.1382C13.99 44.9585 19.8103 39.1382 26.99 39.1382H93.99C101.17 39.1382 106.99 44.9585 106.99 52.1382C106.99 59.3179 101.17 65.1382 93.99 65.1382H26.99C19.8103 65.1382 13.99 59.3179 13.99 52.1382Z" fill="black" fill-opacity="0.6" shape-rendering="crispEdges"/>
<path d="M13.99 52.1382C13.99 44.9585 19.8103 39.1382 26.99 39.1382H93.99C101.17 39.1382 106.99 44.9585 106.99 52.1382C106.99 59.3179 101.17 65.1382 93.99 65.1382H26.99C19.8103 65.1382 13.99 59.3179 13.99 52.1382Z" fill="white" fill-opacity="0.06" shape-rendering="crispEdges"/>
</g>
<rect x="13.99" y="39.1382" width="93" height="26" rx="13" fill="black" fill-opacity="0.2" style="mix-blend-mode:screen"/>
<path d="M28.9495 48.457L25.1937 52.2129L28.9495 55.9688C29.1091 56.1283 29.1091 56.387 28.9495 56.5466C28.79 56.7062 28.5313 56.7062 28.3718 56.5466L24.3269 52.5018C24.2503 52.4252 24.2073 52.3213 24.2073 52.2129C24.2073 52.1045 24.2503 52.0006 24.3269 51.924L28.3718 47.8792C28.3917 47.8593 28.4132 47.8418 28.4358 47.8268C28.5944 47.7221 28.8099 47.7396 28.9495 47.8792C29.1091 48.0388 29.1091 48.2975 28.9495 48.457Z" fill="white"/>
<path d="M45.8202 54.3875V55.2131H41.9216V49.0716H45.8202V49.893H42.8749V51.6891H45.6627V52.4807H42.8749V54.3875H45.8202ZM46.6884 55.2131V50.7357H47.5652V51.489H47.5864C47.7865 50.9911 48.2547 50.6591 48.859 50.6591C49.4804 50.6591 49.9316 50.9783 50.1103 51.5359H50.1316C50.3614 50.9911 50.8892 50.6591 51.5276 50.6591C52.4129 50.6591 52.9917 51.2465 52.9917 52.136V55.2131H52.0681V52.3573C52.0681 51.7785 51.7574 51.4465 51.2126 51.4465C50.6679 51.4465 50.2891 51.8508 50.2891 52.4169V55.2131H49.3868V52.2892C49.3868 51.7742 49.0591 51.4465 48.5398 51.4465C47.995 51.4465 47.6077 51.8721 47.6077 52.4467V55.2131H46.6884ZM55.4475 54.562C56.0901 54.562 56.5923 54.1193 56.5923 53.5362V53.183L55.49 53.2511C54.941 53.2894 54.6303 53.532 54.6303 53.915C54.6303 54.3066 54.9538 54.562 55.4475 54.562ZM55.1921 55.2897C54.3153 55.2897 53.7025 54.745 53.7025 53.9406C53.7025 53.1574 54.3026 52.6765 55.3666 52.6169L56.5923 52.5446V52.1998C56.5923 51.7019 56.2561 51.4039 55.6943 51.4039C55.1623 51.4039 54.8303 51.6593 54.7495 52.0594H53.8812C53.9323 51.2507 54.6218 50.6549 55.7284 50.6549C56.8137 50.6549 57.5074 51.2294 57.5074 52.1275V55.2131H56.6264V54.4768H56.6051C56.3455 54.9748 55.7794 55.2897 55.1921 55.2897ZM58.431 55.2131V50.7357H59.3503V55.2131H58.431ZM58.8906 50.0803C58.597 50.0803 58.3586 49.8462 58.3586 49.5568C58.3586 49.2631 58.597 49.029 58.8906 49.029C59.1886 49.029 59.4269 49.2631 59.4269 49.5568C59.4269 49.8462 59.1886 50.0803 58.8906 50.0803ZM60.3249 55.2131V49.0716H61.2443V55.2131H60.3249ZM67.8838 54.3875V55.2131H64.0703V49.0716H65.0237V54.3875H67.8838ZM70.3608 51.3954C69.7182 51.3954 69.267 51.8849 69.2202 52.5616H71.4589C71.4376 51.8764 71.0035 51.3954 70.3608 51.3954ZM71.4546 53.898H72.3271C72.1995 54.7152 71.4249 55.2983 70.3991 55.2983C69.084 55.2983 68.2881 54.4087 68.2881 52.9957C68.2881 51.5912 69.0968 50.6549 70.3608 50.6549C71.6036 50.6549 72.3782 51.5316 72.3782 52.8893V53.2043H69.2159V53.2596C69.2159 54.0385 69.6841 54.5534 70.4204 54.5534C70.9439 54.5534 71.3312 54.2896 71.4546 53.898ZM74.6595 54.562C75.3022 54.562 75.8044 54.1193 75.8044 53.5362V53.183L74.702 53.2511C74.153 53.2894 73.8423 53.532 73.8423 53.915C73.8423 54.3066 74.1658 54.562 74.6595 54.562ZM74.4041 55.2897C73.5274 55.2897 72.9145 54.745 72.9145 53.9406C72.9145 53.1574 73.5146 52.6765 74.5786 52.6169L75.8044 52.5446V52.1998C75.8044 51.7019 75.4681 51.4039 74.9063 51.4039C74.3743 51.4039 74.0424 51.6593 73.9615 52.0594H73.0932C73.1443 51.2507 73.8338 50.6549 74.9404 50.6549C76.0257 50.6549 76.7194 51.2294 76.7194 52.1275V55.2131H75.8384V54.4768H75.8171C75.5575 54.9748 74.9915 55.2897 74.4041 55.2897ZM78.5751 52.6552L80.3839 50.7357H81.465L79.6093 52.6637L81.5373 55.2131H80.4691L78.9496 53.2255L78.5666 53.6043V55.2131H77.6473V49.0716H78.5666V52.6552H78.5751ZM83.5803 54.562C84.2229 54.562 84.7252 54.1193 84.7252 53.5362V53.183L83.6228 53.2511C83.0738 53.2894 82.7631 53.532 82.7631 53.915C82.7631 54.3066 83.0866 54.562 83.5803 54.562ZM83.3249 55.2897C82.4481 55.2897 81.8353 54.745 81.8353 53.9406C81.8353 53.1574 82.4354 52.6765 83.4994 52.6169L84.7252 52.5446V52.1998C84.7252 51.7019 84.3889 51.4039 83.8271 51.4039C83.2951 51.4039 82.9631 51.6593 82.8823 52.0594H82.014C82.0651 51.2507 82.7546 50.6549 83.8612 50.6549C84.9465 50.6549 85.6402 51.2294 85.6402 52.1275V55.2131H84.7592V54.4768H84.7379C84.4783 54.9748 83.9122 55.2897 83.3249 55.2897ZM88.4407 54.4683C89.16 54.4683 89.6324 53.8852 89.6324 52.9617C89.6324 52.0423 89.16 51.438 88.4407 51.438C87.7342 51.438 87.2746 52.0296 87.2746 52.9617C87.2746 53.898 87.7342 54.4683 88.4407 54.4683ZM88.4492 56.8985C87.3937 56.8985 86.6106 56.3367 86.4957 55.5621H87.4193C87.5512 55.9367 87.9598 56.1835 88.4833 56.1835C89.2026 56.1835 89.6282 55.7749 89.6282 55.1621V54.4258H89.6112C89.36 54.911 88.8323 55.2302 88.1939 55.2302C87.0703 55.2302 86.334 54.3534 86.334 52.9574C86.334 51.5486 87.066 50.6634 88.2152 50.6634C88.8493 50.6634 89.3686 50.9826 89.641 51.5018H89.658V50.7357H90.5518V55.1323C90.5518 56.2005 89.7261 56.8985 88.4492 56.8985ZM93.3352 51.3954C92.6926 51.3954 92.2414 51.8849 92.1946 52.5616H94.4333C94.412 51.8764 93.9779 51.3954 93.3352 51.3954ZM94.4291 53.898H95.3016C95.1739 54.7152 94.3993 55.2983 93.3736 55.2983C92.0584 55.2983 91.2625 54.4087 91.2625 52.9957C91.2625 51.5912 92.0712 50.6549 93.3352 50.6549C94.578 50.6549 95.3526 51.5316 95.3526 52.8893V53.2043H92.1904V53.2596C92.1904 54.0385 92.6585 54.5534 93.3948 54.5534C93.9183 54.5534 94.3056 54.2896 94.4291 53.898Z" fill="white"/>
<rect x="13.99" y="71.825" width="186.86" height="37.433" rx="9.80605" fill="url(#paint0_linear_25_7699)"/>
<rect x="14.8072" y="72.6421" width="185.225" height="35.7986" rx="8.98888" stroke="#7BEDCD" stroke-opacity="0.72" stroke-width="1.63434"/>
<path d="M25.1877 86.8516H25.958C26.0304 87.5155 26.6603 87.9539 27.537 87.9539C28.367 87.9539 28.9714 87.5155 28.9714 86.9112C28.9714 86.3919 28.6096 86.0727 27.7839 85.8599L26.9965 85.6556C25.8644 85.3662 25.3622 84.8682 25.3622 84.0341C25.3622 83.0126 26.256 82.2976 27.5328 82.2976C28.7543 82.2976 29.6396 83.0211 29.6736 84.0511H28.9075C28.8394 83.3914 28.3074 82.9871 27.5073 82.9871C26.7114 82.9871 26.1581 83.3999 26.1581 84C26.1581 84.4639 26.4986 84.7406 27.3328 84.9576L27.9754 85.1279C29.248 85.4471 29.763 85.9365 29.763 86.8175C29.763 87.9411 28.8777 88.6434 27.4647 88.6434C26.1623 88.6434 25.26 87.9369 25.1877 86.8516ZM34.2191 85.5662H33.4956C33.3892 85.0853 33.0146 84.6895 32.3635 84.6895C31.5974 84.6895 31.0781 85.3236 31.0781 86.3281C31.0781 87.3581 31.6059 87.9667 32.372 87.9667C32.9763 87.9667 33.3722 87.6475 33.4998 87.1155H34.2276C34.1127 87.9965 33.3722 88.6179 32.3677 88.6179C31.142 88.6179 30.3248 87.7539 30.3248 86.3281C30.3248 84.9321 31.1377 84.0383 32.3592 84.0383C33.4658 84.0383 34.1255 84.7704 34.2191 85.5662ZM36.3685 87.988C37.0665 87.988 37.6027 87.4985 37.6027 86.8601V86.4983L36.4195 86.5707C35.8237 86.609 35.4832 86.8729 35.4832 87.29C35.4832 87.7113 35.8364 87.988 36.3685 87.988ZM36.2025 88.6179C35.3215 88.6179 34.7299 88.0859 34.7299 87.29C34.7299 86.5324 35.3129 86.0557 36.3344 85.9961L37.6027 85.9238V85.5535C37.6027 85.013 37.2452 84.6895 36.6323 84.6895C36.062 84.6895 35.7045 84.9576 35.6109 85.3917H34.8958C34.9469 84.6256 35.6024 84.0383 36.6494 84.0383C37.6878 84.0383 38.3433 84.6001 38.3433 85.4811V88.5413H37.641V87.7794H37.624C37.3601 88.2859 36.7983 88.6179 36.2025 88.6179ZM39.2839 88.5413V84.1149H39.9819V84.8214H39.9989C40.2458 84.3447 40.7182 84.0383 41.4034 84.0383C42.3738 84.0383 42.9356 84.664 42.9356 85.6684V88.5413H42.195V85.8003C42.195 85.0853 41.8588 84.6937 41.1778 84.6937C40.4798 84.6937 40.0244 85.1875 40.0244 85.9365V88.5413H39.2839ZM46.034 90.1969C45.9447 90.1969 45.7957 90.1884 45.7148 90.1713V89.55C45.7957 89.567 45.9106 89.5712 46.0043 89.5712C46.4171 89.5712 46.6469 89.3712 46.8172 88.8562L46.9193 88.5455L45.285 84.1149H46.0766L47.3024 87.8007H47.3151L48.5409 84.1149H49.3198L47.579 88.852C47.2002 89.8862 46.8342 90.1969 46.034 90.1969ZM51.6138 88.6179C50.388 88.6179 49.5624 87.7369 49.5624 86.3281C49.5624 84.9151 50.388 84.0383 51.6138 84.0383C52.8353 84.0383 53.661 84.9151 53.661 86.3281C53.661 87.7369 52.8353 88.6179 51.6138 88.6179ZM51.6138 87.9667C52.3969 87.9667 52.9076 87.3708 52.9076 86.3281C52.9076 85.2853 52.3969 84.6895 51.6138 84.6895C50.8307 84.6895 50.3157 85.2853 50.3157 86.3281C50.3157 87.3708 50.8307 87.9667 51.6138 87.9667ZM58.0448 84.1149V88.5413H57.3425V87.822H57.3255C57.0616 88.3327 56.6019 88.6179 55.921 88.6179C54.9548 88.6179 54.3888 87.9922 54.3888 86.9878V84.1149H55.1293V86.8558C55.1293 87.5751 55.4656 87.9624 56.1508 87.9624C56.8701 87.9624 57.3042 87.4687 57.3042 86.7154V84.1149H58.0448ZM59.0066 88.5413V84.1149H59.7046V84.8385H59.7217C59.8664 84.349 60.275 84.0383 60.7942 84.0383C60.9219 84.0383 61.0325 84.0596 61.0921 84.0681V84.7874C61.0325 84.7661 60.8751 84.7448 60.6963 84.7448C60.1217 84.7448 59.7472 85.1577 59.7472 85.7833V88.5413H59.0066ZM65.2588 84.681C64.5651 84.681 64.0799 85.213 64.0331 85.9493H66.4378C66.4208 85.2087 65.9568 84.681 65.2588 84.681ZM66.4208 87.2729H67.1486C67.0209 88.0476 66.2718 88.6179 65.3057 88.6179C64.0373 88.6179 63.267 87.7369 63.267 86.3451C63.267 84.9704 64.0501 84.0383 65.2716 84.0383C66.4676 84.0383 67.2039 84.9066 67.2039 86.2472V86.5281H64.0288V86.5707C64.0288 87.4176 64.5268 87.9752 65.3227 87.9752C65.8845 87.9752 66.2973 87.69 66.4208 87.2729ZM67.953 88.5413V84.1149H68.651V84.8214H68.668C68.8765 84.3533 69.3277 84.0383 69.9235 84.0383C70.5279 84.0383 70.9748 84.3447 71.1663 84.881H71.1833C71.4302 84.3533 71.9494 84.0383 72.5708 84.0383C73.4476 84.0383 74.0136 84.6086 74.0136 85.4854V88.5413H73.2731V85.6556C73.2731 85.0513 72.9368 84.6937 72.3538 84.6937C71.7664 84.6937 71.3536 85.1279 71.3536 85.728V88.5413H70.613V85.5748C70.613 85.0427 70.2555 84.6937 69.7065 84.6937C69.1191 84.6937 68.6935 85.1534 68.6935 85.7663V88.5413H67.953ZM76.4183 87.988C77.1163 87.988 77.6526 87.4985 77.6526 86.8601V86.4983L76.4694 86.5707C75.8736 86.609 75.5331 86.8729 75.5331 87.29C75.5331 87.7113 75.8863 87.988 76.4183 87.988ZM76.2523 88.6179C75.3713 88.6179 74.7797 88.0859 74.7797 87.29C74.7797 86.5324 75.3628 86.0557 76.3843 85.9961L77.6526 85.9238V85.5535C77.6526 85.013 77.2951 84.6895 76.6822 84.6895C76.1119 84.6895 75.7544 84.9576 75.6607 85.3917H74.9457C74.9968 84.6256 75.6522 84.0383 76.6992 84.0383C77.7377 84.0383 78.3932 84.6001 78.3932 85.4811V88.5413H77.6909V87.7794H77.6739C77.41 88.2859 76.8482 88.6179 76.2523 88.6179ZM79.3721 88.5413V84.1149H80.1126V88.5413H79.3721ZM79.7423 83.3701C79.4912 83.3701 79.2827 83.1616 79.2827 82.9104C79.2827 82.6551 79.4912 82.4508 79.7423 82.4508C79.9977 82.4508 80.2063 82.6551 80.2063 82.9104C80.2063 83.1616 79.9977 83.3701 79.7423 83.3701ZM81.1511 88.5413V82.3997H81.8917V88.5413H81.1511ZM84.9178 83.0466H85.6583V84.1149H86.5181V84.7235H85.6583V87.3538C85.6583 87.7581 85.8286 87.9411 86.2074 87.9411C86.2925 87.9411 86.4627 87.9284 86.5138 87.9199V88.5413C86.4244 88.5625 86.2201 88.5753 86.0456 88.5753C85.2327 88.5753 84.9178 88.2433 84.9178 87.3921V84.7235H84.2581V84.1149H84.9178V83.0466ZM89.0164 88.6179C87.7906 88.6179 86.9649 87.7369 86.9649 86.3281C86.9649 84.9151 87.7906 84.0383 89.0164 84.0383C90.2379 84.0383 91.0636 84.9151 91.0636 86.3281C91.0636 87.7369 90.2379 88.6179 89.0164 88.6179ZM89.0164 87.9667C89.7995 87.9667 90.3102 87.3708 90.3102 86.3281C90.3102 85.2853 89.7995 84.6895 89.0164 84.6895C88.2333 84.6895 87.7183 85.2853 87.7183 86.3281C87.7183 87.3708 88.2333 87.9667 89.0164 87.9667ZM93.8385 88.5413V84.7235H93.2214V84.1149H93.8385V83.6212C93.8385 82.77 94.2344 82.3657 95.0515 82.3657C95.2175 82.3657 95.3963 82.3827 95.5027 82.3997V82.9998C95.4133 82.9871 95.2899 82.9743 95.1664 82.9743C94.7664 82.9743 94.5748 83.1871 94.5748 83.6255V84.1149H95.4814V84.7235H94.5791V88.5413H93.8385ZM96.2858 88.5413V84.1149H97.0264V88.5413H96.2858ZM96.6561 83.3701C96.405 83.3701 96.1964 83.1616 96.1964 82.9104C96.1964 82.6551 96.405 82.4508 96.6561 82.4508C96.9114 82.4508 97.12 82.6551 97.12 82.9104C97.12 83.1616 96.9114 83.3701 96.6561 83.3701ZM98.0265 88.5413V84.1149H98.7245V84.8214H98.7416C98.9884 84.3447 99.4608 84.0383 100.146 84.0383C101.116 84.0383 101.678 84.664 101.678 85.6684V88.5413H100.938V85.8003C100.938 85.0853 100.601 84.6937 99.9205 84.6937C99.2225 84.6937 98.7671 85.1875 98.7671 85.9365V88.5413H98.0265ZM104.3 88.6179C103.172 88.6179 102.406 87.7156 102.406 86.3281C102.406 84.9406 103.168 84.0383 104.283 84.0383C104.917 84.0383 105.428 84.349 105.692 84.8342H105.709V82.3997H106.449V88.5413H105.743V87.7922H105.73C105.445 88.3029 104.938 88.6179 104.3 88.6179ZM104.44 84.6895C103.657 84.6895 103.164 85.3279 103.164 86.3281C103.164 87.3325 103.657 87.9667 104.44 87.9667C105.202 87.9667 105.713 87.3198 105.713 86.3281C105.713 85.3407 105.202 84.6895 104.44 84.6895ZM110.914 88.6179C109.786 88.6179 109.02 87.7156 109.02 86.3281C109.02 84.9406 109.782 84.0383 110.897 84.0383C111.531 84.0383 112.042 84.349 112.306 84.8342H112.323V82.3997H113.063V88.5413H112.357V87.7922H112.344C112.059 88.3029 111.552 88.6179 110.914 88.6179ZM111.054 84.6895C110.271 84.6895 109.778 85.3279 109.778 86.3281C109.778 87.3325 110.271 87.9667 111.054 87.9667C111.816 87.9667 112.327 87.3198 112.327 86.3281C112.327 85.3407 111.816 84.6895 111.054 84.6895ZM115.523 87.988C116.221 87.988 116.758 87.4985 116.758 86.8601V86.4983L115.574 86.5707C114.979 86.609 114.638 86.8729 114.638 87.29C114.638 87.7113 114.991 87.988 115.523 87.988ZM115.357 88.6179C114.476 88.6179 113.885 88.0859 113.885 87.29C113.885 86.5324 114.468 86.0557 115.489 85.9961L116.758 85.9238V85.5535C116.758 85.013 116.4 84.6895 115.787 84.6895C115.217 84.6895 114.859 84.9576 114.766 85.3917H114.051C114.102 84.6256 114.757 84.0383 115.804 84.0383C116.843 84.0383 117.498 84.6001 117.498 85.4811V88.5413H116.796V87.7794H116.779C116.515 88.2859 115.953 88.6179 115.357 88.6179ZM118.677 83.0466H119.418V84.1149H120.277V84.7235H119.418V87.3538C119.418 87.7581 119.588 87.9411 119.967 87.9411C120.052 87.9411 120.222 87.9284 120.273 87.9199V88.5413C120.184 88.5625 119.979 88.5753 119.805 88.5753C118.992 88.5753 118.677 88.2433 118.677 87.3921V84.7235H118.017V84.1149H118.677V83.0466ZM122.444 87.988C123.142 87.988 123.678 87.4985 123.678 86.8601V86.4983L122.495 86.5707C121.899 86.609 121.559 86.8729 121.559 87.29C121.559 87.7113 121.912 87.988 122.444 87.988ZM122.278 88.6179C121.397 88.6179 120.805 88.0859 120.805 87.29C120.805 86.5324 121.388 86.0557 122.41 85.9961L123.678 85.9238V85.5535C123.678 85.013 123.321 84.6895 122.708 84.6895C122.137 84.6895 121.78 84.9576 121.686 85.3917H120.971C121.022 84.6256 121.678 84.0383 122.725 84.0383C123.763 84.0383 124.419 84.6001 124.419 85.4811V88.5413H123.716V87.7794H123.699C123.435 88.2859 122.874 88.6179 122.278 88.6179ZM127.185 88.5413V82.3997H127.926V88.5413H127.185ZM130.701 84.681C130.007 84.681 129.522 85.213 129.475 85.9493H131.88C131.863 85.2087 131.399 84.681 130.701 84.681ZM131.863 87.2729H132.59C132.463 88.0476 131.714 88.6179 130.747 88.6179C129.479 88.6179 128.709 87.7369 128.709 86.3451C128.709 84.9704 129.492 84.0383 130.713 84.0383C131.909 84.0383 132.646 84.9066 132.646 86.2472V86.5281H129.471V86.5707C129.471 87.4176 129.969 87.9752 130.764 87.9752C131.326 87.9752 131.739 87.69 131.863 87.2729ZM134.855 87.988C135.553 87.988 136.089 87.4985 136.089 86.8601V86.4983L134.906 86.5707C134.31 86.609 133.969 86.8729 133.969 87.29C133.969 87.7113 134.323 87.988 134.855 87.988ZM134.689 88.6179C133.808 88.6179 133.216 88.0859 133.216 87.29C133.216 86.5324 133.799 86.0557 134.821 85.9961L136.089 85.9238V85.5535C136.089 85.013 135.731 84.6895 135.118 84.6895C134.548 84.6895 134.191 84.9576 134.097 85.3917H133.382C133.433 84.6256 134.088 84.0383 135.135 84.0383C136.174 84.0383 136.829 84.6001 136.829 85.4811V88.5413H136.127V87.7794H136.11C135.846 88.2859 135.284 88.6179 134.689 88.6179ZM138.549 86.0812L140.507 84.1149H141.405L139.485 86.0259L141.464 88.5413H140.605L138.962 86.4813L138.549 86.8729V88.5413H137.808V82.3997H138.549V86.0812ZM141.754 85.3364C141.754 84.5788 142.43 84.0383 143.405 84.0383C144.32 84.0383 144.993 84.5831 145.027 85.3322H144.32C144.269 84.9066 143.924 84.6427 143.38 84.6427C142.839 84.6427 142.481 84.9108 142.481 85.2981C142.481 85.6046 142.716 85.8088 143.218 85.9365L143.903 86.1025C144.797 86.3281 145.12 86.6516 145.12 87.3027C145.12 88.0731 144.392 88.6179 143.358 88.6179C142.388 88.6179 141.711 88.0901 141.635 87.307H142.375C142.456 87.7666 142.805 88.0135 143.405 88.0135C144.005 88.0135 144.375 87.7581 144.375 87.3581C144.375 87.0431 144.192 86.8729 143.694 86.7409L142.916 86.5409C142.137 86.3409 141.754 85.9408 141.754 85.3364ZM149.138 87.988C149.836 87.988 150.372 87.4985 150.372 86.8601V86.4983L149.189 86.5707C148.593 86.609 148.253 86.8729 148.253 87.29C148.253 87.7113 148.606 87.988 149.138 87.988ZM148.972 88.6179C148.091 88.6179 147.499 88.0859 147.499 87.29C147.499 86.5324 148.083 86.0557 149.104 85.9961L150.372 85.9238V85.5535C150.372 85.013 150.015 84.6895 149.402 84.6895C148.832 84.6895 148.474 84.9576 148.38 85.3917H147.665C147.716 84.6256 148.372 84.0383 149.419 84.0383C150.457 84.0383 151.113 84.6001 151.113 85.4811V88.5413H150.411V87.7794H150.394C150.13 88.2859 149.568 88.6179 148.972 88.6179ZM152.053 88.5413V84.1149H152.751V84.8214H152.768C153.015 84.3447 153.488 84.0383 154.173 84.0383C155.143 84.0383 155.705 84.664 155.705 85.6684V88.5413H154.965V85.8003C154.965 85.0853 154.628 84.6937 153.947 84.6937C153.249 84.6937 152.794 85.1875 152.794 85.9365V88.5413H152.053ZM158.327 88.6179C157.199 88.6179 156.433 87.7156 156.433 86.3281C156.433 84.9406 157.195 84.0383 158.31 84.0383C158.944 84.0383 159.455 84.349 159.719 84.8342H159.736V82.3997H160.476V88.5413H159.77V87.7922H159.757C159.472 88.3029 158.965 88.6179 158.327 88.6179ZM158.467 84.6895C157.684 84.6895 157.191 85.3279 157.191 86.3281C157.191 87.3325 157.684 87.9667 158.467 87.9667C159.229 87.9667 159.74 87.3198 159.74 86.3281C159.74 85.3407 159.229 84.6895 158.467 84.6895ZM164.043 86.0812L166.001 84.1149H166.899L164.979 86.0259L166.958 88.5413H166.099L164.456 86.4813L164.043 86.8729V88.5413H163.302V82.3997H164.043V86.0812ZM169.057 84.681C168.363 84.681 167.878 85.213 167.831 85.9493H170.235C170.218 85.2087 169.755 84.681 169.057 84.681ZM170.218 87.2729H170.946C170.819 88.0476 170.07 88.6179 169.103 88.6179C167.835 88.6179 167.065 87.7369 167.065 86.3451C167.065 84.9704 167.848 84.0383 169.069 84.0383C170.265 84.0383 171.002 84.9066 171.002 86.2472V86.5281H167.827V86.5707C167.827 87.4176 168.325 87.9752 169.12 87.9752C169.682 87.9752 170.095 87.69 170.218 87.2729ZM173.525 84.681C172.832 84.681 172.347 85.213 172.3 85.9493H174.704C174.687 85.2087 174.223 84.681 173.525 84.681ZM174.687 87.2729H175.415C175.287 88.0476 174.538 88.6179 173.572 88.6179C172.304 88.6179 171.534 87.7369 171.534 86.3451C171.534 84.9704 172.317 84.0383 173.538 84.0383C174.734 84.0383 175.47 84.9066 175.47 86.2472V86.5281H172.295V86.5707C172.295 87.4176 172.793 87.9752 173.589 87.9752C174.151 87.9752 174.564 87.69 174.687 87.2729ZM178.369 84.0383C179.497 84.0383 180.263 84.9406 180.263 86.3281C180.263 87.7156 179.501 88.6179 178.386 88.6179C177.752 88.6179 177.241 88.3072 176.977 87.822H176.96V90.0181H176.22V84.1149H176.922V84.864H176.939C177.211 84.366 177.726 84.0383 178.369 84.0383ZM178.224 87.9667C179.012 87.9667 179.505 87.3325 179.505 86.3281C179.505 85.3279 179.012 84.6895 178.224 84.6895C177.467 84.6895 176.956 85.3449 176.956 86.3281C176.956 87.3155 177.467 87.9667 178.224 87.9667ZM25.7325 100.197C25.6431 100.197 25.4941 100.188 25.4133 100.171V99.55C25.4941 99.567 25.609 99.5712 25.7027 99.5712C26.1155 99.5712 26.3453 99.3712 26.5156 98.8562L26.6177 98.5455L24.9834 94.1149H25.775L27.0008 97.8007H27.0135L28.2393 94.1149H29.0182L27.2774 98.852C26.8986 99.8862 26.5326 100.197 25.7325 100.197ZM31.3122 98.6179C30.0864 98.6179 29.2608 97.7369 29.2608 96.3281C29.2608 94.9151 30.0864 94.0383 31.3122 94.0383C32.5337 94.0383 33.3594 94.9151 33.3594 96.3281C33.3594 97.7369 32.5337 98.6179 31.3122 98.6179ZM31.3122 97.9667C32.0953 97.9667 32.6061 97.3708 32.6061 96.3281C32.6061 95.2853 32.0953 94.6895 31.3122 94.6895C30.5291 94.6895 30.0141 95.2853 30.0141 96.3281C30.0141 97.3708 30.5291 97.9667 31.3122 97.9667ZM37.7432 94.1149V98.5413H37.0409V97.822H37.0239C36.76 98.3327 36.3004 98.6179 35.6194 98.6179C34.6532 98.6179 34.0872 97.9922 34.0872 96.9878V94.1149H34.8277V96.8558C34.8277 97.5751 35.164 97.9624 35.8492 97.9624C36.5685 97.9624 37.0026 97.4687 37.0026 96.7154V94.1149H37.7432ZM38.705 98.5413V94.1149H39.403V94.8385H39.4201C39.5648 94.349 39.9734 94.0383 40.4926 94.0383C40.6203 94.0383 40.731 94.0596 40.7905 94.0681V94.7874C40.731 94.7661 40.5735 94.7448 40.3947 94.7448C39.8201 94.7448 39.4456 95.1577 39.4456 95.7833V98.5413H38.705ZM45.3318 94.0383C46.4597 94.0383 47.2258 94.9406 47.2258 96.3281C47.2258 97.7156 46.4639 98.6179 45.3488 98.6179C44.7147 98.6179 44.2039 98.3072 43.94 97.822H43.923V100.018H43.1825V94.1149H43.8847V94.864H43.9017C44.1741 94.366 44.6891 94.0383 45.3318 94.0383ZM45.1871 97.9667C45.9745 97.9667 46.4682 97.3325 46.4682 96.3281C46.4682 95.3279 45.9745 94.6895 45.1871 94.6895C44.4295 94.6895 43.9188 95.3449 43.9188 96.3281C43.9188 97.3155 44.4295 97.9667 45.1871 97.9667ZM47.9748 98.5413V94.1149H48.6728V94.8385H48.6899C48.8346 94.349 49.2431 94.0383 49.7624 94.0383C49.8901 94.0383 50.0007 94.0596 50.0603 94.0681V94.7874C50.0007 94.7661 49.8433 94.7448 49.6645 94.7448C49.0899 94.7448 48.7154 95.1577 48.7154 95.7833V98.5413H47.9748ZM50.703 98.5413V94.1149H51.4435V98.5413H50.703ZM51.0733 93.3701C50.8222 93.3701 50.6136 93.1616 50.6136 92.9104C50.6136 92.6551 50.8222 92.4508 51.0733 92.4508C51.3286 92.4508 51.5372 92.6551 51.5372 92.9104C51.5372 93.1616 51.3286 93.3701 51.0733 93.3701ZM56.0742 94.1149L54.4484 98.5413H53.6908L52.0607 94.1149H52.8395L54.061 97.7539H54.0781L55.3038 94.1149H56.0742ZM58.032 97.988C58.73 97.988 59.2663 97.4985 59.2663 96.8601V96.4983L58.0831 96.5707C57.4872 96.609 57.1467 96.8729 57.1467 97.29C57.1467 97.7113 57.5 97.988 58.032 97.988ZM57.866 98.6179C56.985 98.6179 56.3934 98.0859 56.3934 97.29C56.3934 96.5324 56.9765 96.0557 57.9979 95.9961L59.2663 95.9238V95.5535C59.2663 95.013 58.9087 94.6895 58.2959 94.6895C57.7256 94.6895 57.368 94.9576 57.2744 95.3917H56.5594C56.6105 94.6256 57.2659 94.0383 58.3129 94.0383C59.3514 94.0383 60.0068 94.6001 60.0068 95.4811V98.5413H59.3046V97.7794H59.2875C59.0237 98.2859 58.4619 98.6179 57.866 98.6179ZM61.1858 93.0466H61.9263V94.1149H62.786V94.7235H61.9263V97.3538C61.9263 97.7581 62.0966 97.9411 62.4754 97.9411C62.5605 97.9411 62.7307 97.9284 62.7818 97.9199V98.5413C62.6924 98.5625 62.4881 98.5753 62.3136 98.5753C61.5007 98.5753 61.1858 98.2433 61.1858 97.3921V94.7235H60.5261V94.1149H61.1858V93.0466ZM65.2248 94.681C64.5311 94.681 64.0459 95.213 63.999 95.9493H66.4037C66.3867 95.2087 65.9228 94.681 65.2248 94.681ZM66.3867 97.2729H67.1145C66.9868 98.0476 66.2377 98.6179 65.2716 98.6179C64.0033 98.6179 63.2329 97.7369 63.2329 96.3451C63.2329 94.9704 64.0161 94.0383 65.2376 94.0383C66.4335 94.0383 67.1698 94.9066 67.1698 96.2472V96.5281H63.9948V96.5707C63.9948 97.4176 64.4927 97.9752 65.2886 97.9752C65.8504 97.9752 66.2633 97.69 66.3867 97.2729ZM71.3834 98.6179C70.2555 98.6179 69.4894 97.7156 69.4894 96.3281C69.4894 94.9406 70.2512 94.0383 71.3663 94.0383C72.0005 94.0383 72.5112 94.349 72.7751 94.8342H72.7921V92.3997H73.5327V98.5413H72.8262V97.7922H72.8134C72.5283 98.3029 72.0218 98.6179 71.3834 98.6179ZM71.5238 94.6895C70.7407 94.6895 70.247 95.3279 70.247 96.3281C70.247 97.3325 70.7407 97.9667 71.5238 97.9667C72.2857 97.9667 72.7964 97.3198 72.7964 96.3281C72.7964 95.3407 72.2857 94.6895 71.5238 94.6895ZM76.3077 94.681C75.6139 94.681 75.1287 95.213 75.0819 95.9493H77.4866C77.4696 95.2087 77.0057 94.681 76.3077 94.681ZM77.4696 97.2729H78.1974C78.0697 98.0476 77.3206 98.6179 76.3545 98.6179C75.0862 98.6179 74.3158 97.7369 74.3158 96.3451C74.3158 94.9704 75.0989 94.0383 76.3204 94.0383C77.5164 94.0383 78.2527 94.9066 78.2527 96.2472V96.5281H75.0777V96.5707C75.0777 97.4176 75.5756 97.9752 76.3715 97.9752C76.9333 97.9752 77.3462 97.69 77.4696 97.2729ZM79.2401 93.0466H79.9807V94.1149H80.8404V94.7235H79.9807V97.3538C79.9807 97.7581 80.1509 97.9411 80.5297 97.9411C80.6148 97.9411 80.7851 97.9284 80.8362 97.9199V98.5413C80.7468 98.5625 80.5425 98.5753 80.368 98.5753C79.5551 98.5753 79.2401 98.2433 79.2401 97.3921V94.7235H78.5804V94.1149H79.2401V93.0466ZM83.0068 97.988C83.7048 97.988 84.241 97.4985 84.241 96.8601V96.4983L83.0578 96.5707C82.462 96.609 82.1215 96.8729 82.1215 97.29C82.1215 97.7113 82.4748 97.988 83.0068 97.988ZM82.8408 98.6179C81.9598 98.6179 81.3682 98.0859 81.3682 97.29C81.3682 96.5324 81.9513 96.0557 82.9727 95.9961L84.241 95.9238V95.5535C84.241 95.013 83.8835 94.6895 83.2707 94.6895C82.7003 94.6895 82.3428 94.9576 82.2492 95.3917H81.5342C81.5852 94.6256 82.2407 94.0383 83.2877 94.0383C84.3262 94.0383 84.9816 94.6001 84.9816 95.4811V98.5413H84.2793V97.7794H84.2623C83.9984 98.2859 83.4366 98.6179 82.8408 98.6179ZM85.9605 98.5413V94.1149H86.7011V98.5413H85.9605ZM86.3308 93.3701C86.0797 93.3701 85.8711 93.1616 85.8711 92.9104C85.8711 92.6551 86.0797 92.4508 86.3308 92.4508C86.5862 92.4508 86.7947 92.6551 86.7947 92.9104C86.7947 93.1616 86.5862 93.3701 86.3308 93.3701ZM87.7396 98.5413V92.3997H88.4801V98.5413H87.7396ZM89.4037 95.3364C89.4037 94.5788 90.0804 94.0383 91.0551 94.0383C91.9701 94.0383 92.6426 94.5831 92.6766 95.3322H91.9701C91.919 94.9066 91.5743 94.6427 91.0295 94.6427C90.489 94.6427 90.1315 94.9108 90.1315 95.2981C90.1315 95.6046 90.3656 95.8088 90.8678 95.9365L91.553 96.1025C92.4468 96.3281 92.7703 96.6516 92.7703 97.3027C92.7703 98.0731 92.0425 98.6179 91.0082 98.6179C90.0378 98.6179 89.3611 98.0901 89.2845 97.307H90.0251C90.1059 97.7666 90.4549 98.0135 91.0551 98.0135C91.6552 98.0135 92.0254 97.7581 92.0254 97.3581C92.0254 97.0431 91.8424 96.8729 91.3445 96.7409L90.5656 96.5409C89.7867 96.3409 89.4037 95.9408 89.4037 95.3364ZM95.2516 95.3364C95.2516 94.5788 95.9283 94.0383 96.9029 94.0383C97.818 94.0383 98.4905 94.5831 98.5245 95.3322H97.818C97.7669 94.9066 97.4222 94.6427 96.8774 94.6427C96.3369 94.6427 95.9794 94.9108 95.9794 95.2981C95.9794 95.6046 96.2134 95.8088 96.7157 95.9365L97.4009 96.1025C98.2947 96.3281 98.6181 96.6516 98.6181 97.3027C98.6181 98.0731 97.8903 98.6179 96.8561 98.6179C95.8857 98.6179 95.209 98.0901 95.1324 97.307H95.873C95.9538 97.7666 96.3028 98.0135 96.9029 98.0135C97.503 98.0135 97.8733 97.7581 97.8733 97.3581C97.8733 97.0431 97.6903 96.8729 97.1923 96.7409L96.4135 96.5409C95.6346 96.3409 95.2516 95.9408 95.2516 95.3364ZM100.848 97.988C101.546 97.988 102.083 97.4985 102.083 96.8601V96.4983L100.899 96.5707C100.304 96.609 99.9631 96.8729 99.9631 97.29C99.9631 97.7113 100.316 97.988 100.848 97.988ZM100.682 98.6179C99.8013 98.6179 99.2097 98.0859 99.2097 97.29C99.2097 96.5324 99.7928 96.0557 100.814 95.9961L102.083 95.9238V95.5535C102.083 95.013 101.725 94.6895 101.112 94.6895C100.542 94.6895 100.184 94.9576 100.091 95.3917H99.3757C99.4268 94.6256 100.082 94.0383 101.129 94.0383C102.168 94.0383 102.823 94.6001 102.823 95.4811V98.5413H102.121V97.7794H102.104C101.84 98.2859 101.278 98.6179 100.682 98.6179ZM104.002 98.5413V94.7235H103.385V94.1149H104.002V93.6212C104.002 92.77 104.398 92.3657 105.215 92.3657C105.381 92.3657 105.56 92.3827 105.666 92.3997V92.9998C105.577 92.9871 105.453 92.9743 105.33 92.9743C104.93 92.9743 104.738 93.1871 104.738 93.6255V94.1149H105.645V94.7235H104.743V98.5413H104.002ZM107.973 94.681C107.279 94.681 106.794 95.213 106.747 95.9493H109.152C109.135 95.2087 108.671 94.681 107.973 94.681ZM109.135 97.2729H109.863C109.735 98.0476 108.986 98.6179 108.02 98.6179C106.752 98.6179 105.981 97.7369 105.981 96.3451C105.981 94.9704 106.764 94.0383 107.986 94.0383C109.182 94.0383 109.918 94.9066 109.918 96.2472V96.5281H106.743V96.5707C106.743 97.4176 107.241 97.9752 108.037 97.9752C108.599 97.9752 109.012 97.69 109.135 97.2729ZM111.293 98.5838C111.02 98.5838 110.808 98.371 110.808 98.0986C110.808 97.8262 111.02 97.6134 111.293 97.6134C111.565 97.6134 111.778 97.8262 111.778 98.0986C111.778 98.371 111.565 98.5838 111.293 98.5838Z" fill="white"/>
<rect x="13.99" y="127.392" width="186.86" height="32.6868" rx="8.71649" fill="#1D2634"/>
<rect x="14.3986" y="127.801" width="186.043" height="31.8697" rx="8.3079" stroke="white" stroke-opacity="0.16" stroke-width="0.817171"/>
<path d="M23.8279 138.584V139.101H20.9742V134.495H23.8279V135.012H21.5488V136.49H23.7098V137.001H21.5488V138.584H23.8279ZM24.5015 139.101V135.782H25.025V136.311H25.0377C25.1942 135.96 25.5325 135.724 25.9794 135.724C26.4327 135.724 26.7678 135.954 26.9115 136.356H26.9243C27.1094 135.96 27.4988 135.724 27.9649 135.724C28.6224 135.724 29.047 136.152 29.047 136.809V139.101H28.4916V136.937C28.4916 136.484 28.2394 136.216 27.8021 136.216C27.3616 136.216 27.0519 136.541 27.0519 136.991V139.101H26.4965V136.876C26.4965 136.477 26.2284 136.216 25.8166 136.216C25.3761 136.216 25.0569 136.56 25.0569 137.02V139.101H24.5015ZM30.8505 138.686C31.374 138.686 31.7762 138.319 31.7762 137.84V137.569L30.8888 137.623C30.4419 137.652 30.1866 137.85 30.1866 138.163C30.1866 138.479 30.4515 138.686 30.8505 138.686ZM30.726 139.159C30.0653 139.159 29.6216 138.76 29.6216 138.163C29.6216 137.595 30.0589 137.237 30.825 137.192L31.7762 137.138V136.86C31.7762 136.455 31.5081 136.212 31.0484 136.212C30.6207 136.212 30.3525 136.414 30.2823 136.739H29.7461C29.7844 136.165 30.2759 135.724 31.0612 135.724C31.8401 135.724 32.3316 136.145 32.3316 136.806V139.101H31.8049V138.53H31.7922C31.5943 138.91 31.1729 139.159 30.726 139.159ZM33.0658 139.101V135.782H33.6212V139.101H33.0658ZM33.3435 135.223C33.1552 135.223 32.9988 135.067 32.9988 134.878C32.9988 134.687 33.1552 134.533 33.3435 134.533C33.535 134.533 33.6915 134.687 33.6915 134.878C33.6915 135.067 33.535 135.223 33.3435 135.223ZM34.4001 139.101V134.495H34.9555V139.101H34.4001Z" fill="white" fill-opacity="0.72"/>
<path d="M24.992 151.544V152.37H21.0934V146.229H24.992V147.05H22.0468V148.846H24.8345V149.638H22.0468V151.544H24.992ZM25.8602 152.37V147.893H26.737V148.642H26.7583C27.0009 148.131 27.4776 147.816 28.167 147.816C29.1545 147.816 29.7205 148.446 29.7205 149.472V152.37H28.7969V149.65C28.7969 148.978 28.482 148.608 27.8436 148.608C27.1966 148.608 26.7796 149.067 26.7796 149.761V152.37H25.8602ZM30.8782 146.833H31.8017V147.893H32.653V148.62H31.8017V151.089C31.8017 151.476 31.972 151.651 32.3465 151.651C32.4402 151.651 32.5891 151.642 32.6487 151.63V152.357C32.5466 152.383 32.3423 152.4 32.138 152.4C31.2314 152.4 30.8782 152.055 30.8782 151.191V148.62H30.227V147.893H30.8782V146.833ZM35.1811 148.552C34.5384 148.552 34.0873 149.042 34.0405 149.719H36.2792C36.2579 149.033 35.8238 148.552 35.1811 148.552ZM36.2749 151.055H37.1474C37.0197 151.872 36.2451 152.455 35.2194 152.455C33.9043 152.455 33.1084 151.566 33.1084 150.153C33.1084 148.748 33.917 147.812 35.1811 147.812C36.4239 147.812 37.1985 148.689 37.1985 150.046V150.361H34.0362V150.417C34.0362 151.195 34.5044 151.71 35.2407 151.71C35.7642 151.71 36.1515 151.447 36.2749 151.055ZM37.9135 152.37V147.893H38.7903V148.655H38.8115C38.9605 148.131 39.3606 147.82 39.8883 147.82C40.0203 147.82 40.1352 147.842 40.2033 147.854V148.71C40.1309 148.68 39.9692 148.659 39.7904 148.659C39.1988 148.659 38.8328 149.055 38.8328 149.689V152.37H37.9135ZM42.9868 154.039C42.9144 154.039 42.6803 154.03 42.6122 154.017V153.272C42.6803 153.289 42.8336 153.289 42.9102 153.289C43.34 153.289 43.5656 153.111 43.7061 152.651C43.7061 152.643 43.7869 152.379 43.7869 152.374L42.1696 147.893H43.1655L44.3019 151.536H44.3147L45.4511 147.893H46.4214L44.7403 152.604C44.3572 153.69 43.9189 154.039 42.9868 154.039ZM48.758 152.455C47.477 152.455 46.6342 151.574 46.6342 150.131C46.6342 148.693 47.4812 147.812 48.758 147.812C50.0349 147.812 50.8818 148.693 50.8818 150.131C50.8818 151.574 50.0391 152.455 48.758 152.455ZM48.758 151.698C49.4816 151.698 49.9455 151.127 49.9455 150.131C49.9455 149.14 49.4773 148.569 48.758 148.569C48.0388 148.569 47.5706 149.14 47.5706 150.131C47.5706 151.127 48.0388 151.698 48.758 151.698ZM55.4316 147.893V152.37H54.5506V151.613H54.5293C54.2825 152.149 53.8271 152.451 53.1418 152.451C52.1672 152.451 51.5713 151.817 51.5713 150.791V147.893H52.4906V150.612C52.4906 151.293 52.8141 151.659 53.4483 151.659C54.1122 151.659 54.5123 151.2 54.5123 150.502V147.893H55.4316ZM56.3424 152.37V147.893H57.2192V148.655H57.2404C57.3894 148.131 57.7895 147.82 58.3172 147.82C58.4492 147.82 58.5641 147.842 58.6322 147.854V148.71C58.5598 148.68 58.3981 148.659 58.2193 148.659C57.6277 148.659 57.2617 149.055 57.2617 149.689V152.37H56.3424ZM62.8457 148.552C62.2031 148.552 61.7519 149.042 61.7051 149.719H63.9438C63.9225 149.033 63.4884 148.552 62.8457 148.552ZM63.9395 151.055H64.812C64.6844 151.872 63.9098 152.455 62.884 152.455C61.5689 152.455 60.773 151.566 60.773 150.153C60.773 148.748 61.5817 147.812 62.8457 147.812C64.0885 147.812 64.8631 148.689 64.8631 150.046V150.361H61.7008V150.417C61.7008 151.195 62.169 151.71 62.9053 151.71C63.4288 151.71 63.8161 151.447 63.9395 151.055ZM65.5781 152.37V147.893H66.4549V148.646H66.4762C66.6762 148.148 67.1444 147.816 67.7488 147.816C68.3701 147.816 68.8213 148.135 69 148.693H69.0213C69.2512 148.148 69.7789 147.816 70.4173 147.816C71.3026 147.816 71.8814 148.403 71.8814 149.293V152.37H70.9578V149.514C70.9578 148.935 70.6472 148.603 70.1024 148.603C69.5576 148.603 69.1788 149.008 69.1788 149.574V152.37H68.2765V149.446C68.2765 148.931 67.9488 148.603 67.4295 148.603C66.8848 148.603 66.4975 149.029 66.4975 149.604V152.37H65.5781ZM74.3372 151.719C74.9799 151.719 75.4821 151.276 75.4821 150.693V150.34L74.3798 150.408C73.8307 150.446 73.52 150.689 73.52 151.072C73.52 151.464 73.8435 151.719 74.3372 151.719ZM74.0818 152.447C73.2051 152.447 72.5922 151.902 72.5922 151.098C72.5922 150.314 73.1923 149.833 74.2563 149.774L75.4821 149.702V149.357C75.4821 148.859 75.1458 148.561 74.584 148.561C74.052 148.561 73.7201 148.816 73.6392 149.216H72.7709C72.822 148.408 73.5115 147.812 74.6181 147.812C75.7034 147.812 76.3971 148.386 76.3971 149.284V152.37H75.5161V151.634H75.4948C75.2352 152.132 74.6692 152.447 74.0818 152.447ZM77.3207 152.37V147.893H78.24V152.37H77.3207ZM77.7804 147.237C77.4867 147.237 77.2484 147.003 77.2484 146.714C77.2484 146.42 77.4867 146.186 77.7804 146.186C78.0783 146.186 78.3166 146.42 78.3166 146.714C78.3166 147.003 78.0783 147.237 77.7804 147.237ZM79.2147 152.37V146.229H80.134V152.37H79.2147Z" fill="white" fill-opacity="0.72"/>
<path d="M15.5094 180.171V182.38H16.8458C17.5821 182.38 18.0035 181.975 18.0035 181.273C18.0035 180.588 17.5566 180.171 16.8203 180.171H15.5094ZM15.5094 183.15V185.512H14.5561V179.371H16.9352C18.1993 179.371 18.9866 180.103 18.9866 181.248C18.9866 182.078 18.544 182.75 17.7949 183.001L19.1697 185.512H18.0716L16.8203 183.15H15.5094ZM21.6552 181.694C21.0126 181.694 20.5614 182.184 20.5146 182.861H22.7533C22.732 182.175 22.2979 181.694 21.6552 181.694ZM22.749 184.197H23.6215C23.4939 185.014 22.7192 185.597 21.6935 185.597C20.3784 185.597 19.5825 184.708 19.5825 183.295C19.5825 181.89 20.3912 180.954 21.6552 180.954C22.898 180.954 23.6726 181.831 23.6726 183.188V183.503H20.5103V183.559C20.5103 184.338 20.9785 184.853 21.7148 184.853C22.2383 184.853 22.6256 184.589 22.749 184.197ZM24.3068 182.303C24.3068 181.503 25.0133 180.954 26.0603 180.954C27.0562 180.954 27.7542 181.511 27.784 182.307H26.92C26.8775 181.903 26.5497 181.652 26.0347 181.652C25.5368 181.652 25.2048 181.895 25.2048 182.248C25.2048 182.524 25.4261 182.712 25.89 182.827L26.6434 183.001C27.5457 183.218 27.8862 183.559 27.8862 184.218C27.8862 185.036 27.1243 185.597 26.0262 185.597C24.9665 185.597 24.2642 185.048 24.1919 184.227H25.1027C25.175 184.657 25.507 184.895 26.0688 184.895C26.6221 184.895 26.9626 184.665 26.9626 184.303C26.9626 184.018 26.7923 183.861 26.3242 183.742L25.524 183.546C24.7154 183.35 24.3068 182.929 24.3068 182.303ZM30.4739 181.694C29.8312 181.694 29.38 182.184 29.3332 182.861H31.5719C31.5507 182.175 31.1165 181.694 30.4739 181.694ZM31.5677 184.197H32.4402C32.3125 185.014 31.5379 185.597 30.5122 185.597C29.197 185.597 28.4011 184.708 28.4011 183.295C28.4011 181.89 29.2098 180.954 30.4739 180.954C31.7166 180.954 32.4912 181.831 32.4912 183.188V183.503H29.329V183.559C29.329 184.338 29.7971 184.853 30.5334 184.853C31.0569 184.853 31.4442 184.589 31.5677 184.197ZM33.2063 185.512V181.035H34.083V181.784H34.1043C34.3469 181.273 34.8236 180.958 35.5131 180.958C36.5005 180.958 37.0666 181.588 37.0666 182.614V185.512H36.143V182.793C36.143 182.12 35.828 181.75 35.1896 181.75C34.5427 181.75 34.1256 182.209 34.1256 182.903V185.512H33.2063ZM38.2242 179.975H39.1478V181.035H39.999V181.763H39.1478V184.231C39.1478 184.618 39.318 184.793 39.6926 184.793C39.7862 184.793 39.9352 184.784 39.9947 184.772V185.499C39.8926 185.525 39.6883 185.542 39.484 185.542C38.5775 185.542 38.2242 185.197 38.2242 184.333V181.763H37.573V181.035H38.2242V179.975ZM46.3704 182.575H45.4936C45.4 182.099 45.0425 181.72 44.4424 181.72C43.7316 181.72 43.2634 182.312 43.2634 183.273C43.2634 184.257 43.7359 184.827 44.4509 184.827C45.0169 184.827 45.3872 184.516 45.4936 183.997H46.3789C46.281 184.95 45.5192 185.597 44.4424 185.597C43.1613 185.597 42.3271 184.721 42.3271 183.273C42.3271 181.852 43.1613 180.954 44.4339 180.954C45.5873 180.954 46.2895 181.694 46.3704 182.575ZM47.0641 185.512V179.371H47.9749V181.784H47.9962C48.2431 181.26 48.7325 180.958 49.4135 180.958C50.3967 180.958 50.984 181.614 50.984 182.627V185.512H50.0604V182.805C50.0604 182.146 49.7284 181.75 49.0815 181.75C48.4005 181.75 47.9834 182.218 47.9834 182.924V185.512H47.0641ZM53.7462 181.694C53.1035 181.694 52.6524 182.184 52.6056 182.861H54.8443C54.823 182.175 54.3889 181.694 53.7462 181.694ZM54.84 184.197H55.7125C55.5848 185.014 54.8102 185.597 53.7845 185.597C52.4694 185.597 51.6735 184.708 51.6735 183.295C51.6735 181.89 52.4821 180.954 53.7462 180.954C54.989 180.954 55.7636 181.831 55.7636 183.188V183.503H52.6013V183.559C52.6013 184.338 53.0695 184.853 53.8058 184.853C54.3293 184.853 54.7166 184.589 54.84 184.197ZM60.3219 182.575H59.4451C59.3515 182.099 58.994 181.72 58.3939 181.72C57.6831 181.72 57.2149 182.312 57.2149 183.273C57.2149 184.257 57.6874 184.827 58.4024 184.827C58.9684 184.827 59.3387 184.516 59.4451 183.997H60.3304C60.2325 184.95 59.4707 185.597 58.3939 185.597C57.1128 185.597 56.2786 184.721 56.2786 183.273C56.2786 181.852 57.1128 180.954 58.3854 180.954C59.5388 180.954 60.241 181.694 60.3219 182.575ZM61.9434 182.954L63.7523 181.035H64.8333L62.9777 182.963L64.9057 185.512H63.8374L62.318 183.525L61.9349 183.903V185.512H61.0156V179.371H61.9349V182.954H61.9434ZM66.0719 185.559C65.7612 185.559 65.5143 185.312 65.5143 185.001C65.5143 184.691 65.7612 184.444 66.0719 184.444C66.3826 184.444 66.6294 184.691 66.6294 185.001C66.6294 185.312 66.3826 185.559 66.0719 185.559ZM66.0719 182.456C65.7612 182.456 65.5143 182.214 65.5143 181.899C65.5143 181.588 65.7612 181.341 66.0719 181.341C66.3826 181.341 66.6294 181.588 66.6294 181.899C66.6294 182.214 66.3826 182.456 66.0719 182.456Z" fill="white"/>
<path d="M174.663 182.733V181.984H175.403C176.067 181.984 176.523 181.567 176.523 180.988C176.523 180.418 176.131 180.039 175.403 180.039C174.739 180.039 174.297 180.422 174.241 181.026H173.343C173.416 179.949 174.229 179.256 175.446 179.256C176.608 179.256 177.455 179.915 177.455 180.86C177.455 181.626 176.952 182.175 176.191 182.312V182.329C177.114 182.392 177.71 182.959 177.71 183.818C177.71 184.891 176.735 185.627 175.454 185.627C174.131 185.627 173.279 184.899 173.22 183.84H174.135C174.195 184.427 174.68 184.831 175.454 184.831C176.203 184.831 176.74 184.406 176.74 183.806C176.74 183.142 176.237 182.733 175.429 182.733H174.663ZM181.417 185.512H180.464V179.371H181.417V185.512ZM182.707 179.975H183.63V181.035H184.482V181.763H183.63V184.231C183.63 184.618 183.801 184.793 184.175 184.793C184.269 184.793 184.418 184.784 184.477 184.772V185.499C184.375 185.525 184.171 185.542 183.967 185.542C183.06 185.542 182.707 185.197 182.707 184.333V181.763H182.056V181.035H182.707V179.975ZM187.01 181.694C186.367 181.694 185.916 182.184 185.869 182.861H188.108C188.086 182.175 187.652 181.694 187.01 181.694ZM188.103 184.197H188.976C188.848 185.014 188.074 185.597 187.048 185.597C185.733 185.597 184.937 184.708 184.937 183.295C184.937 181.89 185.746 180.954 187.01 180.954C188.252 180.954 189.027 181.831 189.027 183.188V183.503H185.865V183.559C185.865 184.338 186.333 184.853 187.069 184.853C187.593 184.853 187.98 184.589 188.103 184.197ZM189.742 185.512V181.035H190.619V181.788H190.64C190.84 181.29 191.308 180.958 191.913 180.958C192.534 180.958 192.985 181.277 193.164 181.835H193.185C193.415 181.29 193.943 180.958 194.581 180.958C195.467 180.958 196.045 181.546 196.045 182.435V185.512H195.122V182.656C195.122 182.078 194.811 181.746 194.266 181.746C193.722 181.746 193.343 182.15 193.343 182.716V185.512H192.44V182.588C192.44 182.073 192.113 181.746 191.593 181.746C191.049 181.746 190.661 182.171 190.661 182.746V185.512H189.742ZM196.854 182.303C196.854 181.503 197.561 180.954 198.608 180.954C199.603 180.954 200.301 181.511 200.331 182.307H199.467C199.425 181.903 199.097 181.652 198.582 181.652C198.084 181.652 197.752 181.895 197.752 182.248C197.752 182.524 197.973 182.712 198.437 182.827L199.191 183.001C200.093 183.218 200.433 183.559 200.433 184.218C200.433 185.036 199.672 185.597 198.573 185.597C197.514 185.597 196.811 185.048 196.739 184.227H197.65C197.722 184.657 198.054 184.895 198.616 184.895C199.169 184.895 199.51 184.665 199.51 184.303C199.51 184.018 199.34 183.861 198.871 183.742L198.071 183.546C197.263 183.35 196.854 182.929 196.854 182.303Z" fill="white" fill-opacity="0.72"/>
</g>
<rect x="4.04452" y="4.0433" width="206.165" height="444.515" rx="30.8854" stroke="black" stroke-width="3.03791"/>
<rect x="1.26582" y="1.2657" width="211.723" height="450.071" rx="33.6702" stroke="#424242" stroke-width="2.53159"/>
<rect x="72.5146" y="11.2854" width="63.1615" height="18.5229" rx="9.26143" fill="black"/>
<defs>
<filter id="filter0_d_25_7699" x="-7.80123" y="21.7052" width="136.582" height="69.5824" filterUnits="userSpaceOnUse" color-interpolation-filters="sRGB">
<feFlood flood-opacity="0" result="BackgroundImageFix"/>
<feColorMatrix in="SourceAlpha" type="matrix" values="0 0 0 0 0 0 0 0 0 0 0 0 0 0 0 0 0 0 127 0" result="hardAlpha"/>
<feOffset dy="4.35824"/>
<feGaussianBlur stdDeviation="10.8956"/>
<feComposite in2="hardAlpha" operator="out"/>
<feColorMatrix type="matrix" values="0 0 0 0 0 0 0 0 0 0 0 0 0 0 0 0 0 0 0.12 0"/>
<feBlend mode="normal" in2="BackgroundImageFix" result="effect1_dropShadow_25_7699"/>
<feBlend mode="normal" in="SourceGraphic" in2="effect1_dropShadow_25_7699" result="shape"/>
</filter>
<linearGradient id="paint0_linear_25_7699" x1="103.879" y1="126.307" x2="103.248" y2="68.2961" gradientUnits="userSpaceOnUse">
<stop stop-color="#2BB58B"/>
<stop offset="0.504808" stop-color="#1B936F"/>
<stop offset="1" stop-color="#41C89F"/>
</linearGradient>
<clipPath id="clip0_25_7699">
<rect x="5.27344" y="5.36157" width="204.293" height="442.362" rx="17.433" fill="white"/>
</clipPath>
</defs>
</svg>
