<svg width="215" height="196" viewBox="0 0 215 196" fill="none" xmlns="http://www.w3.org/2000/svg">
<g clip-path="url(#clip0_25_7557)">
<rect x="4.5719" y="5.44507" width="204.29" height="442.356" rx="20" fill="#F2F2F2"/>
<path d="M33.6013 18.0391C33.951 18.0391 34.2826 18.1039 34.5961 18.2335C34.9096 18.3601 35.187 18.5591 35.4282 18.8304C35.6724 19.0987 35.8638 19.4439 36.0025 19.866C36.1412 20.285 36.2105 20.79 36.2105 21.3809V21.3899C36.2105 22.1225 36.105 22.7495 35.8939 23.2711C35.6829 23.7926 35.3799 24.1936 34.985 24.4739C34.5931 24.7513 34.1243 24.89 33.5787 24.89C33.1777 24.89 32.8159 24.8176 32.4934 24.6729C32.1738 24.5252 31.9085 24.3232 31.6975 24.067C31.4895 23.8077 31.3493 23.5123 31.2769 23.1806L31.2679 23.1309H32.412L32.4301 23.1761C32.4873 23.3268 32.5687 23.4595 32.6743 23.5741C32.7828 23.6886 32.9124 23.7775 33.0631 23.8409C33.2169 23.9011 33.3887 23.9313 33.5787 23.9313C33.9223 23.9313 34.2027 23.8303 34.4198 23.6283C34.6398 23.4233 34.8041 23.1505 34.9127 22.8098C35.0242 22.4662 35.0875 22.0863 35.1026 21.6703C35.1056 21.6251 35.1071 21.5813 35.1071 21.5391C35.1071 21.4939 35.1071 21.4502 35.1071 21.408L34.9036 20.3182C34.9036 20.071 34.8463 19.8464 34.7318 19.6444C34.6172 19.4424 34.462 19.2826 34.266 19.1651C34.0731 19.0475 33.8545 18.9887 33.6103 18.9887C33.3752 18.9887 33.1596 19.046 32.9637 19.1605C32.7677 19.2751 32.6109 19.4319 32.4934 19.6308C32.3758 19.8268 32.317 20.0469 32.317 20.291V20.3001C32.317 20.5533 32.3728 20.7779 32.4843 20.9739C32.5959 21.1668 32.7481 21.3191 32.9411 21.4306C33.134 21.5421 33.3541 21.5979 33.6013 21.5979C33.8485 21.5979 34.0701 21.5437 34.266 21.4351C34.462 21.3266 34.6172 21.1759 34.7318 20.9829C34.8463 20.79 34.9036 20.5714 34.9036 20.3272V20.3182H35.1749V21.521H35.0167C34.9383 21.6929 34.8222 21.8527 34.6685 22.0004C34.5147 22.1481 34.3248 22.2672 34.0987 22.3576C33.8756 22.4481 33.6133 22.4933 33.3119 22.4933C32.8958 22.4933 32.528 22.3998 32.2085 22.2129C31.8889 22.026 31.6372 21.7698 31.4533 21.4442C31.2724 21.1186 31.182 20.7508 31.182 20.3408V20.3317C31.182 19.8886 31.2845 19.4952 31.4895 19.1515C31.6975 18.8048 31.9839 18.5335 32.3487 18.3375C32.7165 18.1386 33.134 18.0391 33.6013 18.0391ZM38.2635 23.8499C38.0585 23.8499 37.8867 23.7821 37.748 23.6464C37.6123 23.5077 37.5445 23.3389 37.5445 23.1399C37.5445 22.938 37.6123 22.7691 37.748 22.6335C37.8867 22.4948 38.0585 22.4255 38.2635 22.4255C38.4715 22.4255 38.6433 22.4948 38.779 22.6335C38.9147 22.7691 38.9825 22.938 38.9825 23.1399C38.9825 23.3389 38.9147 23.5077 38.779 23.6464C38.6433 23.7821 38.4715 23.8499 38.2635 23.8499ZM38.2635 20.4945C38.0585 20.4945 37.8867 20.4267 37.748 20.291C37.6123 20.1524 37.5445 19.9835 37.5445 19.7846C37.5445 19.5826 37.6123 19.4138 37.748 19.2781C37.8867 19.1394 38.0585 19.0701 38.2635 19.0701C38.4715 19.0701 38.6433 19.1394 38.779 19.2781C38.9147 19.4138 38.9825 19.5826 38.9825 19.7846C38.9825 19.9835 38.9147 20.1524 38.779 20.291C38.6433 20.4267 38.4715 20.4945 38.2635 20.4945ZM43.4819 24.7272V23.4746H40.2894V22.5204C40.4612 22.228 40.633 21.9341 40.8049 21.6386C40.9797 21.3432 41.1561 21.0492 41.334 20.7568C41.5148 20.4614 41.6942 20.1705 41.8721 19.8841C42.053 19.5947 42.2323 19.3098 42.4102 19.0294C42.5911 18.746 42.772 18.4702 42.9529 18.2019H44.5944V22.5114H45.4762V23.4746H44.5944V24.7272H43.4819ZM41.3747 22.5385H43.5V19.1334H43.4322C43.2995 19.3384 43.1624 19.5494 43.0207 19.7665C42.882 19.9835 42.7418 20.2051 42.6001 20.4312C42.4584 20.6573 42.3183 20.8849 42.1796 21.1141C42.0409 21.3402 41.9037 21.5678 41.7681 21.7969C41.6324 22.023 41.5013 22.2476 41.3747 22.4707V22.5385ZM48.1758 24.7272V19.3505H48.0944L46.471 20.4945V19.4002L48.1758 18.2019H49.338V24.7272H48.1758Z" fill="#20283B"/>
<rect opacity="0.35" x="177.792" y="18.5384" width="13.0746" height="6.53728" rx="2.07014" stroke="#20283B" stroke-width="0.544773"/>
<path opacity="0.4" d="M191.684 20.8706V23.0908C192.122 22.9028 192.408 22.4653 192.408 21.9807C192.408 21.4961 192.122 21.0586 191.684 20.8706Z" fill="#20283B"/>
<rect x="178.609" y="19.3556" width="11.4402" height="4.90296" rx="1.36193" fill="#20283B"/>
<path fill-rule="evenodd" clip-rule="evenodd" d="M168.951 19.957C170.306 19.957 171.609 20.4594 172.591 21.3601C172.665 21.4297 172.783 21.4288 172.856 21.3582L173.563 20.6699C173.6 20.634 173.62 20.5855 173.62 20.535C173.62 20.4845 173.598 20.4362 173.561 20.4008C170.984 18.0176 166.918 18.0176 164.34 20.4008C164.303 20.4362 164.282 20.4845 164.281 20.535C164.281 20.5855 164.302 20.634 164.339 20.6699L165.046 21.3582C165.118 21.4289 165.237 21.4298 165.311 21.3601C166.293 20.4593 167.596 19.957 168.951 19.957ZM168.949 22.2561C169.689 22.256 170.402 22.5348 170.95 23.0382C171.024 23.1097 171.141 23.1081 171.213 23.0347L171.914 22.316C171.951 22.2783 171.972 22.2272 171.971 22.174C171.97 22.1209 171.949 22.0702 171.911 22.0333C170.242 20.4584 167.657 20.4584 165.988 22.0333C165.951 22.0702 165.929 22.1209 165.929 22.1741C165.928 22.2272 165.949 22.2784 165.986 22.316L166.687 23.0347C166.759 23.1081 166.876 23.1097 166.95 23.0382C167.498 22.5351 168.21 22.2564 168.949 22.2561ZM170.324 23.7779C170.325 23.8353 170.305 23.8906 170.269 23.9308L169.083 25.2681C169.048 25.3074 169.001 25.3295 168.951 25.3295C168.902 25.3295 168.854 25.3074 168.82 25.2681L167.634 23.9308C167.597 23.8906 167.577 23.8353 167.578 23.7779C167.579 23.7205 167.601 23.6661 167.639 23.6277C168.397 22.9119 169.506 22.9119 170.263 23.6277C170.301 23.6662 170.323 23.7205 170.324 23.7779Z" fill="#20283B"/>
<path fill-rule="evenodd" clip-rule="evenodd" d="M160.196 19.1823C160.196 18.8374 159.936 18.5579 159.615 18.5579H159.034C158.713 18.5579 158.453 18.8374 158.453 19.1823V24.5941C158.453 24.9389 158.713 25.2185 159.034 25.2185H159.615C159.936 25.2185 160.196 24.9389 160.196 24.5941V19.1823ZM156.146 19.89H156.727C157.048 19.89 157.308 20.1763 157.308 20.5294V24.5791C157.308 24.9322 157.048 25.2185 156.727 25.2185H156.146C155.825 25.2185 155.565 24.9322 155.565 24.5791V20.5294C155.565 20.1763 155.825 19.89 156.146 19.89ZM153.786 21.3331H153.205C152.884 21.3331 152.624 21.623 152.624 21.9807V24.5709C152.624 24.9286 152.884 25.2185 153.205 25.2185H153.786C154.107 25.2185 154.367 24.9286 154.367 24.5709V21.9807C154.367 21.623 154.107 21.3331 153.786 21.3331ZM150.899 22.6652H150.317C149.996 22.6652 149.736 22.951 149.736 23.3036V24.5802C149.736 24.9327 149.996 25.2185 150.317 25.2185H150.899C151.219 25.2185 151.48 24.9327 151.48 24.5802V23.3036C151.48 22.951 151.219 22.6652 150.899 22.6652Z" fill="#20283B"/>
<g filter="url(#filter0_d_25_7557)">
<path d="M13.2883 52.2211C13.2883 45.0414 19.1086 39.2211 26.2883 39.2211H75.2883C82.468 39.2211 88.2883 45.0414 88.2883 52.2211C88.2883 59.4008 82.468 65.2211 75.2883 65.2211H26.2883C19.1086 65.2211 13.2883 59.4008 13.2883 52.2211Z" fill="white" fill-opacity="0.65" shape-rendering="crispEdges"/>
<path d="M13.2883 52.2211C13.2883 45.0414 19.1086 39.2211 26.2883 39.2211H75.2883C82.468 39.2211 88.2883 45.0414 88.2883 52.2211C88.2883 59.4008 82.468 65.2211 75.2883 65.2211H26.2883C19.1086 65.2211 13.2883 59.4008 13.2883 52.2211Z" fill="#DDDDDD" style="mix-blend-mode:color-burn" shape-rendering="crispEdges"/>
<path d="M13.2883 52.2211C13.2883 45.0414 19.1086 39.2211 26.2883 39.2211H75.2883C82.468 39.2211 88.2883 45.0414 88.2883 52.2211C88.2883 59.4008 82.468 65.2211 75.2883 65.2211H26.2883C19.1086 65.2211 13.2883 59.4008 13.2883 52.2211Z" fill="#F7F7F7" style="mix-blend-mode:darken" shape-rendering="crispEdges"/>
</g>
<path d="M13.2883 52.2211C13.2883 45.0414 19.1086 39.2211 26.2883 39.2211H75.2883C82.468 39.2211 88.2883 45.0414 88.2883 52.2211C88.2883 59.4008 82.468 65.2211 75.2883 65.2211H26.2883C19.1086 65.2211 13.2883 59.4008 13.2883 52.2211Z" fill="black" fill-opacity="0.01"/>
<path d="M28.2477 48.5398L24.4919 52.2956L28.2477 56.0515C28.4073 56.211 28.4073 56.4697 28.2477 56.6292C28.0881 56.7888 27.8295 56.7888 27.6699 56.6292L23.6252 52.5845C23.5485 52.5079 23.5055 52.404 23.5055 52.2956C23.5055 52.1872 23.5485 52.0833 23.6252 52.0067L27.6699 47.962C27.6899 47.942 27.7113 47.9246 27.734 47.9096C27.8926 47.8049 28.1081 47.8223 28.2477 47.962C28.4073 48.1215 28.4073 48.3802 28.2477 48.5398Z" fill="#20283B"/>
<path d="M41.0554 49.1542H43.358C44.5497 49.1542 45.3796 49.9756 45.3796 51.1715C45.3796 52.3718 44.5326 53.1974 43.3282 53.1974H42.0088V55.2957H41.0554V49.1542ZM42.0088 49.9586V52.3973H43.1026C43.9325 52.3973 44.405 51.9504 44.405 51.1758C44.405 50.4012 43.9325 49.9586 43.1069 49.9586H42.0088ZM47.3203 54.6445C47.963 54.6445 48.4652 54.2019 48.4652 53.6188V53.2655L47.3629 53.3336C46.8139 53.3719 46.5032 53.6145 46.5032 53.9976C46.5032 54.3891 46.8266 54.6445 47.3203 54.6445ZM47.065 55.3723C46.1882 55.3723 45.5754 54.8275 45.5754 54.0231C45.5754 53.24 46.1755 52.7591 47.2395 52.6995L48.4652 52.6271V52.2824C48.4652 51.7844 48.129 51.4865 47.5672 51.4865C47.0352 51.4865 46.7032 51.7419 46.6223 52.1419H45.7541C45.8052 51.3333 46.4947 50.7374 47.6012 50.7374C48.6865 50.7374 49.3803 51.312 49.3803 52.21V55.2957H48.4993V54.5594H48.478C48.2184 55.0573 47.6523 55.3723 47.065 55.3723ZM50.1932 52.0866C50.1932 51.2865 50.8997 50.7374 51.9467 50.7374C52.9426 50.7374 53.6406 51.295 53.6704 52.0909H52.8064C52.7638 51.6865 52.4361 51.4354 51.9211 51.4354C51.4232 51.4354 51.0912 51.678 51.0912 52.0313C51.0912 52.3079 51.3125 52.4952 51.7764 52.6101L52.5297 52.7846C53.432 53.0016 53.7725 53.3421 53.7725 54.0018C53.7725 54.819 53.0107 55.3808 51.9126 55.3808C50.8529 55.3808 50.1506 54.8317 50.0783 54.0103H50.989C51.0614 54.4402 51.3934 54.6785 51.9552 54.6785C52.5085 54.6785 52.8489 54.4487 52.8489 54.0869C52.8489 53.8018 52.6787 53.6443 52.2105 53.5251L51.4104 53.3294C50.6017 53.1336 50.1932 52.7122 50.1932 52.0866ZM54.4066 52.0866C54.4066 51.2865 55.1132 50.7374 56.1601 50.7374C57.1561 50.7374 57.854 51.295 57.8838 52.0909H57.0199C56.9773 51.6865 56.6496 51.4354 56.1346 51.4354C55.6366 51.4354 55.3047 51.678 55.3047 52.0313C55.3047 52.3079 55.526 52.4952 55.9899 52.6101L56.7432 52.7846C57.6455 53.0016 57.986 53.3421 57.986 54.0018C57.986 54.819 57.2241 55.3808 56.1261 55.3808C55.0663 55.3808 54.3641 54.8317 54.2917 54.0103H55.2025C55.2749 54.4402 55.6069 54.6785 56.1687 54.6785C56.7219 54.6785 57.0624 54.4487 57.0624 54.0869C57.0624 53.8018 56.8922 53.6443 56.424 53.5251L55.6239 53.3294C54.8152 53.1336 54.4066 52.7122 54.4066 52.0866ZM62.5442 52.359H61.6675C61.5738 51.8823 61.2163 51.5035 60.6162 51.5035C59.9055 51.5035 59.4373 52.0951 59.4373 53.057C59.4373 54.0401 59.9097 54.6104 60.6247 54.6104C61.1908 54.6104 61.5611 54.2997 61.6675 53.7805H62.5527C62.4548 54.7339 61.693 55.3808 60.6162 55.3808C59.3351 55.3808 58.501 54.504 58.501 53.057C58.501 51.6355 59.3351 50.7374 60.6077 50.7374C61.7611 50.7374 62.4633 51.478 62.5442 52.359ZM65.1276 55.3808C63.8466 55.3808 63.0039 54.4998 63.0039 53.057C63.0039 51.6184 63.8508 50.7374 65.1276 50.7374C66.4044 50.7374 67.2514 51.6184 67.2514 53.057C67.2514 54.4998 66.4087 55.3808 65.1276 55.3808ZM65.1276 54.6232C65.8511 54.6232 66.3151 54.0529 66.3151 53.057C66.3151 52.0653 65.8469 51.495 65.1276 51.495C64.4083 51.495 63.9402 52.0653 63.9402 53.057C63.9402 54.0529 64.4083 54.6232 65.1276 54.6232ZM69.6433 55.3723C68.5112 55.3723 67.7621 54.47 67.7621 53.057C67.7621 51.644 68.5112 50.7459 69.6348 50.7459C70.2774 50.7459 70.7882 51.0694 71.0393 51.5631H71.0563V49.1542H71.9798V55.2957H71.0861V54.5338H71.0691C70.8052 55.0445 70.2945 55.3723 69.6433 55.3723ZM69.8859 51.5205C69.1581 51.5205 68.7027 52.1164 68.7027 53.057C68.7027 54.0018 69.1581 54.5934 69.8859 54.5934C70.5924 54.5934 71.0648 53.9933 71.0648 53.057C71.0648 52.1292 70.5924 51.5205 69.8859 51.5205ZM74.7973 51.478C74.1547 51.478 73.7035 51.9674 73.6567 52.6441H75.8954C75.8741 51.9589 75.44 51.478 74.7973 51.478ZM75.8911 53.9805H76.7636C76.636 54.7977 75.8614 55.3808 74.8357 55.3808C73.5205 55.3808 72.7247 54.4913 72.7247 53.0783C72.7247 51.6738 73.5333 50.7374 74.7973 50.7374C76.0401 50.7374 76.8147 51.6142 76.8147 52.9719V53.2868H73.6525V53.3421C73.6525 54.121 74.1206 54.636 74.8569 54.636C75.3804 54.636 75.7677 54.3721 75.8911 53.9805Z" fill="#20283B" style="mix-blend-mode:plus-darker"/>
<rect x="13.2883" y="71.9075" width="186.857" height="57.4327" rx="9.80592" fill="url(#paint0_linear_25_7557)"/>
<rect x="14.1055" y="72.7246" width="185.223" height="55.7984" rx="8.98876" stroke="#7BEDCD" stroke-opacity="0.72" stroke-width="1.63432"/>
<path d="M24.7797 82.4823H26.9715C28.1249 82.4823 28.9378 83.291 28.9378 84.4529C28.9378 85.619 28.1164 86.4319 26.963 86.4319H25.5458V88.6238H24.7797V82.4823ZM25.5458 83.1633V85.751H26.7715C27.6483 85.751 28.1505 85.27 28.1505 84.4529C28.1505 83.64 27.6525 83.1633 26.7715 83.1633H25.5458ZM29.7039 88.6238V84.1975H30.4019V84.921H30.4189C30.5636 84.4316 30.9722 84.1209 31.4915 84.1209C31.6191 84.1209 31.7298 84.1422 31.7894 84.1507V84.87C31.7298 84.8487 31.5723 84.8274 31.3936 84.8274C30.819 84.8274 30.4445 85.2402 30.4445 85.8659V88.6238H29.7039ZM34.0153 88.7004C32.7896 88.7004 31.9639 87.8194 31.9639 86.4106C31.9639 84.9976 32.7896 84.1209 34.0153 84.1209C35.2368 84.1209 36.0625 84.9976 36.0625 86.4106C36.0625 87.8194 35.2368 88.7004 34.0153 88.7004ZM34.0153 88.0492C34.7984 88.0492 35.3091 87.4534 35.3091 86.4106C35.3091 85.3679 34.7984 84.7721 34.0153 84.7721C33.2322 84.7721 32.7172 85.3679 32.7172 86.4106C32.7172 87.4534 33.2322 88.0492 34.0153 88.0492ZM37.0499 83.1292H37.7904V84.1975H38.6501V84.8061H37.7904V87.4363C37.7904 87.8407 37.9606 88.0237 38.3394 88.0237C38.4246 88.0237 38.5948 88.0109 38.6459 88.0024V88.6238C38.5565 88.6451 38.3522 88.6578 38.1777 88.6578C37.3648 88.6578 37.0499 88.3259 37.0499 87.4746V84.8061H36.3902V84.1975H37.0499V83.1292ZM41.0888 84.7635C40.3951 84.7635 39.9099 85.2956 39.8631 86.0318H42.2678C42.2507 85.2913 41.7868 84.7635 41.0888 84.7635ZM42.2507 87.3555H42.9785C42.8508 88.1301 42.1018 88.7004 41.1357 88.7004C39.8674 88.7004 39.097 87.8194 39.097 86.4277C39.097 85.053 39.8801 84.1209 41.1016 84.1209C42.2976 84.1209 43.0338 84.9891 43.0338 86.3298V86.6107H39.8588V86.6532C39.8588 87.5002 40.3568 88.0577 41.1527 88.0577C41.7145 88.0577 42.1273 87.7726 42.2507 87.3555ZM47.4601 85.6488H46.7366C46.6302 85.1679 46.2557 84.7721 45.6045 84.7721C44.8384 84.7721 44.3192 85.4062 44.3192 86.4106C44.3192 87.4406 44.8469 88.0492 45.613 88.0492C46.2174 88.0492 46.6132 87.73 46.7409 87.198H47.4686C47.3537 88.079 46.6132 88.7004 45.6088 88.7004C44.383 88.7004 43.5659 87.8364 43.5659 86.4106C43.5659 85.0147 44.3788 84.1209 45.6002 84.1209C46.7068 84.1209 47.3665 84.8529 47.4601 85.6488ZM48.3879 83.1292H49.1285V84.1975H49.9882V84.8061H49.1285V87.4363C49.1285 87.8407 49.2987 88.0237 49.6775 88.0237C49.7626 88.0237 49.9329 88.0109 49.984 88.0024V88.6238C49.8946 88.6451 49.6903 88.6578 49.5158 88.6578C48.7029 88.6578 48.3879 88.3259 48.3879 87.4746V84.8061H47.7283V84.1975H48.3879V83.1292ZM52.9334 90.2794C52.844 90.2794 52.6951 90.2709 52.6142 90.2538V89.6325C52.6951 89.6495 52.81 89.6537 52.9036 89.6537C53.3164 89.6537 53.5463 89.4537 53.7165 88.9387L53.8187 88.628L52.1843 84.1975H52.976L54.2017 87.8832H54.2145L55.4402 84.1975H56.2191L54.4783 88.9345C54.0996 89.9687 53.7335 90.2794 52.9334 90.2794ZM58.5131 88.7004C57.2873 88.7004 56.4617 87.8194 56.4617 86.4106C56.4617 84.9976 57.2873 84.1209 58.5131 84.1209C59.7346 84.1209 60.5602 84.9976 60.5602 86.4106C60.5602 87.8194 59.7346 88.7004 58.5131 88.7004ZM58.5131 88.0492C59.2962 88.0492 59.8069 87.4534 59.8069 86.4106C59.8069 85.3679 59.2962 84.7721 58.5131 84.7721C57.73 84.7721 57.215 85.3679 57.215 86.4106C57.215 87.4534 57.73 88.0492 58.5131 88.0492ZM64.944 84.1975V88.6238H64.2417V87.9045H64.2247C63.9608 88.4152 63.5012 88.7004 62.8202 88.7004C61.8541 88.7004 61.288 88.0747 61.288 87.0703V84.1975H62.0286V86.9384C62.0286 87.6577 62.3648 88.045 63.05 88.045C63.7693 88.045 64.2034 87.5513 64.2034 86.7979V84.1975H64.944ZM65.9058 88.6238V84.1975H66.6038V84.921H66.6208C66.7655 84.4316 67.1741 84.1209 67.6934 84.1209C67.821 84.1209 67.9317 84.1422 67.9913 84.1507V84.87C67.9317 84.8487 67.7742 84.8274 67.5955 84.8274C67.0209 84.8274 66.6464 85.2402 66.6464 85.8659V88.6238H65.9058ZM72.0601 88.7004C70.9322 88.7004 70.1661 87.7981 70.1661 86.4106C70.1661 85.0232 70.9279 84.1209 72.043 84.1209C72.6772 84.1209 73.1879 84.4316 73.4518 84.9168H73.4688V82.4823H74.2094V88.6238H73.5028V87.8747H73.4901C73.2049 88.3854 72.6985 88.7004 72.0601 88.7004ZM72.2005 84.7721C71.4174 84.7721 70.9237 85.4105 70.9237 86.4106C70.9237 87.4151 71.4174 88.0492 72.2005 88.0492C72.9623 88.0492 73.4731 87.4023 73.4731 86.4106C73.4731 85.4232 72.9623 84.7721 72.2005 84.7721ZM76.9843 84.7635C76.2906 84.7635 75.8054 85.2956 75.7586 86.0318H78.1632C78.1462 85.2913 77.6823 84.7635 76.9843 84.7635ZM78.1462 87.3555H78.874C78.7463 88.1301 77.9972 88.7004 77.0311 88.7004C75.7628 88.7004 74.9925 87.8194 74.9925 86.4277C74.9925 85.053 75.7756 84.1209 76.9971 84.1209C78.193 84.1209 78.9293 84.9891 78.9293 86.3298V86.6107H75.7543V86.6532C75.7543 87.5002 76.2523 88.0577 77.0481 88.0577C77.6099 88.0577 78.0228 87.7726 78.1462 87.3555ZM83.3088 84.1975L81.683 88.6238H80.9254L79.2953 84.1975H80.0742L81.2957 87.8364H81.3127L82.5384 84.1975H83.3088ZM83.9302 88.6238V84.1975H84.6707V88.6238H83.9302ZM84.3004 83.4527C84.0493 83.4527 83.8408 83.2441 83.8408 82.993C83.8408 82.7377 84.0493 82.5334 84.3004 82.5334C84.5558 82.5334 84.7643 82.7377 84.7643 82.993C84.7643 83.2441 84.5558 83.4527 84.3004 83.4527ZM89.3481 85.6488H88.6246C88.5182 85.1679 88.1436 84.7721 87.4925 84.7721C86.7264 84.7721 86.2071 85.4062 86.2071 86.4106C86.2071 87.4406 86.7349 88.0492 87.501 88.0492C88.1053 88.0492 88.5011 87.73 88.6288 87.198H89.3566C89.2417 88.079 88.5011 88.7004 87.4967 88.7004C86.271 88.7004 85.4538 87.8364 85.4538 86.4106C85.4538 85.0147 86.2667 84.1209 87.4882 84.1209C88.5948 84.1209 89.2545 84.8529 89.3481 85.6488ZM91.8123 84.7635C91.1186 84.7635 90.6334 85.2956 90.5866 86.0318H92.9913C92.9742 85.2913 92.5103 84.7635 91.8123 84.7635ZM92.9742 87.3555H93.702C93.5743 88.1301 92.8253 88.7004 91.8592 88.7004C90.5909 88.7004 89.8205 87.8194 89.8205 86.4277C89.8205 85.053 90.6036 84.1209 91.8251 84.1209C93.0211 84.1209 93.7574 84.9891 93.7574 86.3298V86.6107H90.5823V86.6532C90.5823 87.5002 91.0803 88.0577 91.8762 88.0577C92.438 88.0577 92.8508 87.7726 92.9742 87.3555ZM98.4943 88.7004C97.8474 88.7004 97.3409 88.3854 97.0558 87.8747H97.0388V88.6238H96.3323V82.4823H97.0728V84.938H97.0898C97.3665 84.4316 97.8815 84.1209 98.5071 84.1209C99.6222 84.1209 100.375 85.0232 100.375 86.4106C100.375 87.8024 99.6264 88.7004 98.4943 88.7004ZM98.3496 84.7721C97.6006 84.7721 97.0686 85.4275 97.0686 86.4106C97.0686 87.398 97.6006 88.0492 98.3496 88.0492C99.1327 88.0492 99.6179 87.4236 99.6179 86.4106C99.6179 85.4062 99.1327 84.7721 98.3496 84.7721ZM101.367 90.2794C101.278 90.2794 101.129 90.2709 101.048 90.2538V89.6325C101.129 89.6495 101.244 89.6537 101.337 89.6537C101.75 89.6537 101.98 89.4537 102.15 88.9387L102.252 88.628L100.618 84.1975H101.41L102.635 87.8832H102.648L103.874 84.1975H104.653L102.912 88.9345C102.533 89.9687 102.167 90.2794 101.367 90.2794ZM106.951 85.419C106.951 84.6614 107.628 84.1209 108.602 84.1209C109.517 84.1209 110.19 84.6657 110.224 85.4147H109.517C109.466 84.9891 109.122 84.7252 108.577 84.7252C108.036 84.7252 107.679 84.9934 107.679 85.3807C107.679 85.6871 107.913 85.8914 108.415 86.0191L109.1 86.1851C109.994 86.4106 110.318 86.7341 110.318 87.3853C110.318 88.1556 109.59 88.7004 108.556 88.7004C107.585 88.7004 106.909 88.1726 106.832 87.3895H107.572C107.653 87.8492 108.002 88.096 108.602 88.096C109.203 88.096 109.573 87.8407 109.573 87.4406C109.573 87.1257 109.39 86.9554 108.892 86.8235L108.113 86.6234C107.334 86.4234 106.951 86.0233 106.951 85.419ZM112.863 84.7635C112.169 84.7635 111.684 85.2956 111.637 86.0318H114.042C114.025 85.2913 113.561 84.7635 112.863 84.7635ZM114.025 87.3555H114.752C114.625 88.1301 113.876 88.7004 112.91 88.7004C111.641 88.7004 110.871 87.8194 110.871 86.4277C110.871 85.053 111.654 84.1209 112.875 84.1209C114.071 84.1209 114.808 84.9891 114.808 86.3298V86.6107H111.633V86.6532C111.633 87.5002 112.131 88.0577 112.927 88.0577C113.488 88.0577 113.901 87.7726 114.025 87.3555ZM115.795 83.1292H116.536V84.1975H117.395V84.8061H116.536V87.4363C116.536 87.8407 116.706 88.0237 117.085 88.0237C117.17 88.0237 117.34 88.0109 117.391 88.0024V88.6238C117.302 88.6451 117.097 88.6578 116.923 88.6578C116.11 88.6578 115.795 88.3259 115.795 87.4746V84.8061H115.135V84.1975H115.795V83.1292ZM118.425 83.1292H119.166V84.1975H120.026V84.8061H119.166V87.4363C119.166 87.8407 119.336 88.0237 119.715 88.0237C119.8 88.0237 119.97 88.0109 120.021 88.0024V88.6238C119.932 88.6451 119.728 88.6578 119.553 88.6578C118.74 88.6578 118.425 88.3259 118.425 87.4746V84.8061H117.766V84.1975H118.425V83.1292ZM120.856 88.6238V84.1975H121.596V88.6238H120.856ZM121.226 83.4527C120.975 83.4527 120.766 83.2441 120.766 82.993C120.766 82.7377 120.975 82.5334 121.226 82.5334C121.481 82.5334 121.69 82.7377 121.69 82.993C121.69 83.2441 121.481 83.4527 121.226 83.4527ZM122.596 88.6238V84.1975H123.294V84.904H123.311C123.558 84.4273 124.031 84.1209 124.716 84.1209C125.686 84.1209 126.248 84.7465 126.248 85.751V88.6238H125.507V85.8829C125.507 85.1679 125.171 84.7763 124.49 84.7763C123.792 84.7763 123.337 85.27 123.337 86.0191V88.6238H122.596ZM128.993 88.0067C129.763 88.0067 130.278 87.3682 130.278 86.3936C130.278 85.419 129.763 84.7721 128.993 84.7721C128.231 84.7721 127.733 85.402 127.733 86.3936C127.733 87.3853 128.231 88.0067 128.993 88.0067ZM129.019 90.2921C128.044 90.2921 127.274 89.7431 127.15 88.9898H127.912C128.057 89.3941 128.495 89.6623 129.048 89.6623C129.815 89.6623 130.278 89.2196 130.278 88.5599V87.8619H130.261C129.989 88.3429 129.466 88.6578 128.844 88.6578C127.716 88.6578 126.976 87.7683 126.976 86.3936C126.976 85.0061 127.716 84.1209 128.861 84.1209C129.487 84.1209 130.006 84.4273 130.3 84.9423H130.312V84.1975H131.019V88.5344C131.019 89.5899 130.24 90.2921 129.019 90.2921ZM137.407 84.1975V88.6238H136.705V87.9045H136.688C136.424 88.4152 135.965 88.7004 135.284 88.7004C134.317 88.7004 133.751 88.0747 133.751 87.0703V84.1975H134.492V86.9384C134.492 87.6577 134.828 88.045 135.513 88.045C136.233 88.045 136.667 87.5513 136.667 86.7979V84.1975H137.407ZM140.518 84.1209C141.646 84.1209 142.412 85.0232 142.412 86.4106C142.412 87.7981 141.651 88.7004 140.536 88.7004C139.901 88.7004 139.391 88.3897 139.127 87.9045H139.11V90.1006H138.369V84.1975H139.071V84.9466H139.088C139.361 84.4486 139.876 84.1209 140.518 84.1209ZM140.374 88.0492C141.161 88.0492 141.655 87.4151 141.655 86.4106C141.655 85.4105 141.161 84.7721 140.374 84.7721C139.616 84.7721 139.105 85.4275 139.105 86.4106C139.105 87.398 139.616 88.0492 140.374 88.0492ZM146.409 88.0705C147.107 88.0705 147.643 87.581 147.643 86.9426V86.5809L146.46 86.6532C145.864 86.6915 145.524 86.9554 145.524 87.3725C145.524 87.7939 145.877 88.0705 146.409 88.0705ZM146.243 88.7004C145.362 88.7004 144.77 88.1684 144.77 87.3725C144.77 86.6149 145.353 86.1383 146.375 86.0787L147.643 86.0063V85.636C147.643 85.0955 147.286 84.7721 146.673 84.7721C146.102 84.7721 145.745 85.0402 145.651 85.4743H144.936C144.987 84.7082 145.643 84.1209 146.69 84.1209C147.728 84.1209 148.384 84.6827 148.384 85.5637V88.6238H147.681V87.8619H147.664C147.4 88.3684 146.839 88.7004 146.243 88.7004ZM153.261 84.1209C154.389 84.1209 155.155 85.0232 155.155 86.4106C155.155 87.7981 154.393 88.7004 153.278 88.7004C152.644 88.7004 152.133 88.3897 151.869 87.9045H151.852V90.1006H151.112V84.1975H151.814V84.9466H151.831C152.103 84.4486 152.618 84.1209 153.261 84.1209ZM153.116 88.0492C153.904 88.0492 154.397 87.4151 154.397 86.4106C154.397 85.4105 153.904 84.7721 153.116 84.7721C152.359 84.7721 151.848 85.4275 151.848 86.4106C151.848 87.398 152.359 88.0492 153.116 88.0492ZM157.364 88.0705C158.062 88.0705 158.598 87.581 158.598 86.9426V86.5809L157.415 86.6532C156.819 86.6915 156.479 86.9554 156.479 87.3725C156.479 87.7939 156.832 88.0705 157.364 88.0705ZM157.198 88.7004C156.317 88.7004 155.725 88.1684 155.725 87.3725C155.725 86.6149 156.308 86.1383 157.33 86.0787L158.598 86.0063V85.636C158.598 85.0955 158.241 84.7721 157.628 84.7721C157.057 84.7721 156.7 85.0402 156.606 85.4743H155.891C155.942 84.7082 156.598 84.1209 157.645 84.1209C158.683 84.1209 159.339 84.6827 159.339 85.5637V88.6238H158.636V87.8619H158.619C158.356 88.3684 157.794 88.7004 157.198 88.7004ZM160.203 85.419C160.203 84.6614 160.879 84.1209 161.854 84.1209C162.769 84.1209 163.442 84.6657 163.476 85.4147H162.769C162.718 84.9891 162.373 84.7252 161.828 84.7252C161.288 84.7252 160.93 84.9934 160.93 85.3807C160.93 85.6871 161.165 85.8914 161.667 86.0191L162.352 86.1851C163.246 86.4106 163.569 86.7341 163.569 87.3853C163.569 88.1556 162.841 88.7004 161.807 88.7004C160.837 88.7004 160.16 88.1726 160.084 87.3895H160.824C160.905 87.8492 161.254 88.096 161.854 88.096C162.454 88.096 162.824 87.8407 162.824 87.4406C162.824 87.1257 162.641 86.9554 162.143 86.8235L161.365 86.6234C160.586 86.4234 160.203 86.0233 160.203 85.419ZM164.263 85.419C164.263 84.6614 164.94 84.1209 165.914 84.1209C166.829 84.1209 167.502 84.6657 167.536 85.4147H166.829C166.778 84.9891 166.434 84.7252 165.889 84.7252C165.348 84.7252 164.991 84.9934 164.991 85.3807C164.991 85.6871 165.225 85.8914 165.727 86.0191L166.412 86.1851C167.306 86.4106 167.629 86.7341 167.629 87.3853C167.629 88.1556 166.902 88.7004 165.867 88.7004C164.897 88.7004 164.22 88.1726 164.144 87.3895H164.884C164.965 87.8492 165.314 88.096 165.914 88.096C166.514 88.096 166.885 87.8407 166.885 87.4406C166.885 87.1257 166.702 86.9554 166.204 86.8235L165.425 86.6234C164.646 86.4234 164.263 86.0233 164.263 85.419ZM172.077 85.6488H171.354C171.247 85.1679 170.873 84.7721 170.221 84.7721C169.455 84.7721 168.936 85.4062 168.936 86.4106C168.936 87.4406 169.464 88.0492 170.23 88.0492C170.834 88.0492 171.23 87.73 171.358 87.198H172.086C171.971 88.079 171.23 88.7004 170.226 88.7004C169 88.7004 168.183 87.8364 168.183 86.4106C168.183 85.0147 168.996 84.1209 170.217 84.1209C171.324 84.1209 171.983 84.8529 172.077 85.6488ZM174.601 88.7004C173.375 88.7004 172.549 87.8194 172.549 86.4106C172.549 84.9976 173.375 84.1209 174.601 84.1209C175.822 84.1209 176.648 84.9976 176.648 86.4106C176.648 87.8194 175.822 88.7004 174.601 88.7004ZM174.601 88.0492C175.384 88.0492 175.895 87.4534 175.895 86.4106C175.895 85.3679 175.384 84.7721 174.601 84.7721C173.818 84.7721 173.303 85.3679 173.303 86.4106C173.303 87.4534 173.818 88.0492 174.601 88.0492ZM179.074 88.7004C177.946 88.7004 177.18 87.7981 177.18 86.4106C177.18 85.0232 177.942 84.1209 179.057 84.1209C179.691 84.1209 180.202 84.4316 180.466 84.9168H180.483V82.4823H181.223V88.6238H180.517V87.8747H180.504C180.219 88.3854 179.712 88.7004 179.074 88.7004ZM179.214 84.7721C178.431 84.7721 177.938 85.4105 177.938 86.4106C177.938 87.4151 178.431 88.0492 179.214 88.0492C179.976 88.0492 180.487 87.4023 180.487 86.4106C180.487 85.4232 179.976 84.7721 179.214 84.7721ZM183.998 84.7635C183.304 84.7635 182.819 85.2956 182.772 86.0318H185.177C185.16 85.2913 184.696 84.7635 183.998 84.7635ZM185.16 87.3555H185.888C185.76 88.1301 185.011 88.7004 184.045 88.7004C182.777 88.7004 182.006 87.8194 182.006 86.4277C182.006 85.053 182.789 84.1209 184.011 84.1209C185.207 84.1209 185.943 84.9891 185.943 86.3298V86.6107H182.768V86.6532C182.768 87.5002 183.266 88.0577 184.062 88.0577C184.624 88.0577 185.037 87.7726 185.16 87.3555ZM24.9031 93.1292H25.6437V94.1975H26.5034V94.8061H25.6437V97.4363C25.6437 97.8407 25.8139 98.0237 26.1927 98.0237C26.2778 98.0237 26.4481 98.0109 26.4991 98.0024V98.6238C26.4097 98.6451 26.2055 98.6578 26.031 98.6578C25.2181 98.6578 24.9031 98.3259 24.9031 97.4746V94.8061H24.2434V94.1975H24.9031V93.1292ZM29.0017 98.7004C27.7759 98.7004 26.9503 97.8194 26.9503 96.4106C26.9503 94.9976 27.7759 94.1209 29.0017 94.1209C30.2232 94.1209 31.0488 94.9976 31.0488 96.4106C31.0488 97.8194 30.2232 98.7004 29.0017 98.7004ZM29.0017 98.0492C29.7848 98.0492 30.2955 97.4534 30.2955 96.4106C30.2955 95.3679 29.7848 94.7721 29.0017 94.7721C28.2186 94.7721 27.7036 95.3679 27.7036 96.4106C27.7036 97.4534 28.2186 98.0492 29.0017 98.0492ZM35.3602 94.7635C34.6665 94.7635 34.1813 95.2956 34.1345 96.0318H36.5391C36.5221 95.2913 36.0582 94.7635 35.3602 94.7635ZM36.5221 97.3555H37.2499C37.1222 98.1301 36.3731 98.7004 35.407 98.7004C34.1387 98.7004 33.3684 97.8194 33.3684 96.4277C33.3684 95.053 34.1515 94.1209 35.373 94.1209C36.5689 94.1209 37.3052 94.9891 37.3052 96.3298V96.6107H34.1302V96.6532C34.1302 97.5002 34.6282 98.0577 35.424 98.0577C35.9858 98.0577 36.3987 97.7726 36.5221 97.3555ZM38.0543 98.6238V94.1975H38.7523V94.904H38.7693C39.0161 94.4273 39.4886 94.1209 40.1738 94.1209C41.1442 94.1209 41.706 94.7465 41.706 95.751V98.6238H40.9654V95.8829C40.9654 95.1679 40.6292 94.7763 39.9482 94.7763C39.2502 94.7763 38.7948 95.27 38.7948 96.0191V98.6238H38.0543ZM42.5742 95.419C42.5742 94.6614 43.2509 94.1209 44.2255 94.1209C45.1406 94.1209 45.813 94.6657 45.8471 95.4147H45.1406C45.0895 94.9891 44.7448 94.7252 44.2 94.7252C43.6595 94.7252 43.302 94.9934 43.302 95.3807C43.302 95.6871 43.5361 95.8914 44.0383 96.0191L44.7235 96.1851C45.6173 96.4106 45.9407 96.7341 45.9407 97.3853C45.9407 98.1556 45.2129 98.7004 44.1787 98.7004C43.2083 98.7004 42.5316 98.1726 42.455 97.3895H43.1956C43.2764 97.8492 43.6254 98.096 44.2255 98.096C44.8256 98.096 45.1959 97.8407 45.1959 97.4406C45.1959 97.1257 45.0129 96.9554 44.5149 96.8235L43.7361 96.6234C42.9572 96.4234 42.5742 96.0233 42.5742 95.419ZM50.3457 94.1975V98.6238H49.6435V97.9045H49.6265C49.3626 98.4152 48.9029 98.7004 48.222 98.7004C47.2558 98.7004 46.6898 98.0747 46.6898 97.0703V94.1975H47.4303V96.9384C47.4303 97.6577 47.7666 98.045 48.4518 98.045C49.1711 98.045 49.6052 97.5513 49.6052 96.7979V94.1975H50.3457ZM51.3076 98.6238V94.1975H52.0056V94.921H52.0226C52.1673 94.4316 52.5759 94.1209 53.0951 94.1209C53.2228 94.1209 53.3335 94.1422 53.3931 94.1507V94.87C53.3335 94.8487 53.176 94.8274 52.9972 94.8274C52.4227 94.8274 52.0481 95.2402 52.0481 95.8659V98.6238H51.3076ZM55.5594 94.7635C54.8656 94.7635 54.3805 95.2956 54.3336 96.0318H56.7383C56.7213 95.2913 56.2574 94.7635 55.5594 94.7635ZM56.7213 97.3555H57.4491C57.3214 98.1301 56.5723 98.7004 55.6062 98.7004C54.3379 98.7004 53.5675 97.8194 53.5675 96.4277C53.5675 95.053 54.3507 94.1209 55.5721 94.1209C56.7681 94.1209 57.5044 94.9891 57.5044 96.3298V96.6107H54.3294V96.6532C54.3294 97.5002 54.8273 98.0577 55.6232 98.0577C56.185 98.0577 56.5979 97.7726 56.7213 97.3555ZM61.8753 98.7004C60.6496 98.7004 59.8239 97.8194 59.8239 96.4106C59.8239 94.9976 60.6496 94.1209 61.8753 94.1209C63.0968 94.1209 63.9225 94.9976 63.9225 96.4106C63.9225 97.8194 63.0968 98.7004 61.8753 98.7004ZM61.8753 98.0492C62.6585 98.0492 63.1692 97.4534 63.1692 96.4106C63.1692 95.3679 62.6585 94.7721 61.8753 94.7721C61.0922 94.7721 60.5773 95.3679 60.5773 96.4106C60.5773 97.4534 61.0922 98.0492 61.8753 98.0492ZM64.6716 98.6238V94.1975H65.3696V94.904H65.3866C65.6334 94.4273 66.1059 94.1209 66.7911 94.1209C67.7615 94.1209 68.3232 94.7465 68.3232 95.751V98.6238H67.5827V95.8829C67.5827 95.1679 67.2465 94.7763 66.5655 94.7763C65.8675 94.7763 65.4121 95.27 65.4121 96.0191V98.6238H64.6716ZM69.3064 98.6238V92.4823H70.0469V98.6238H69.3064ZM71.4131 100.279C71.3238 100.279 71.1748 100.271 71.0939 100.254V99.6325C71.1748 99.6495 71.2897 99.6537 71.3833 99.6537C71.7962 99.6537 72.026 99.4537 72.1962 98.9387L72.2984 98.628L70.6641 94.1975H71.4557L72.6814 97.8832H72.6942L73.9199 94.1975H74.6988L72.9581 98.9345C72.5793 99.9687 72.2133 100.279 71.4131 100.279ZM77.4397 100.279C77.3503 100.279 77.2013 100.271 77.1205 100.254V99.6325C77.2013 99.6495 77.3163 99.6537 77.4099 99.6537C77.8227 99.6537 78.0526 99.4537 78.2228 98.9387L78.3249 98.628L76.6906 94.1975H77.4822L78.708 97.8832H78.7208L79.9465 94.1975H80.7254L78.9846 98.9345C78.6058 99.9687 78.2398 100.279 77.4397 100.279ZM83.0194 98.7004C81.7936 98.7004 80.9679 97.8194 80.9679 96.4106C80.9679 94.9976 81.7936 94.1209 83.0194 94.1209C84.2408 94.1209 85.0665 94.9976 85.0665 96.4106C85.0665 97.8194 84.2408 98.7004 83.0194 98.7004ZM83.0194 98.0492C83.8025 98.0492 84.3132 97.4534 84.3132 96.4106C84.3132 95.3679 83.8025 94.7721 83.0194 94.7721C82.2362 94.7721 81.7213 95.3679 81.7213 96.4106C81.7213 97.4534 82.2362 98.0492 83.0194 98.0492ZM89.4502 94.1975V98.6238H88.748V97.9045H88.731C88.4671 98.4152 88.0074 98.7004 87.3265 98.7004C86.3604 98.7004 85.7943 98.0747 85.7943 97.0703V94.1975H86.5348V96.9384C86.5348 97.6577 86.8711 98.045 87.5563 98.045C88.2756 98.045 88.7097 97.5513 88.7097 96.7979V94.1975H89.4502ZM95.8769 95.6488H95.1533C95.0469 95.1679 94.6724 94.7721 94.0212 94.7721C93.2551 94.7721 92.7359 95.4062 92.7359 96.4106C92.7359 97.4406 93.2637 98.0492 94.0297 98.0492C94.6341 98.0492 95.0299 97.73 95.1576 97.198H95.8854C95.7705 98.079 95.0299 98.7004 94.0255 98.7004C92.7997 98.7004 91.9826 97.8364 91.9826 96.4106C91.9826 95.0147 92.7955 94.1209 94.017 94.1209C95.1235 94.1209 95.7832 94.8529 95.8769 95.6488ZM98.0262 98.0705C98.7241 98.0705 99.2604 97.581 99.2604 96.9426V96.5809L98.0772 96.6532C97.4814 96.6915 97.1409 96.9554 97.1409 97.3725C97.1409 97.7939 97.4942 98.0705 98.0262 98.0705ZM97.8602 98.7004C96.9792 98.7004 96.3876 98.1684 96.3876 97.3725C96.3876 96.6149 96.9707 96.1383 97.9921 96.0787L99.2604 96.0063V95.636C99.2604 95.0955 98.9029 94.7721 98.29 94.7721C97.7197 94.7721 97.3622 95.0402 97.2686 95.4743H96.5536C96.6046 94.7082 97.2601 94.1209 98.3071 94.1209C99.3455 94.1209 100.001 94.6827 100.001 95.5637V98.6238H99.2987V97.8619H99.2817C99.0178 98.3684 98.456 98.7004 97.8602 98.7004ZM100.942 98.6238V94.1975H101.64V94.904H101.657C101.903 94.4273 102.376 94.1209 103.061 94.1209C104.031 94.1209 104.593 94.7465 104.593 95.751V98.6238H103.853V95.8829C103.853 95.1679 103.516 94.7763 102.835 94.7763C102.137 94.7763 101.682 95.27 101.682 96.0191V98.6238H100.942ZM108.785 98.0705C109.483 98.0705 110.02 97.581 110.02 96.9426V96.5809L108.837 96.6532C108.241 96.6915 107.9 96.9554 107.9 97.3725C107.9 97.7939 108.253 98.0705 108.785 98.0705ZM108.619 98.7004C107.738 98.7004 107.147 98.1684 107.147 97.3725C107.147 96.6149 107.73 96.1383 108.751 96.0787L110.02 96.0063V95.636C110.02 95.0955 109.662 94.7721 109.049 94.7721C108.479 94.7721 108.121 95.0402 108.028 95.4743H107.313C107.364 94.7082 108.019 94.1209 109.066 94.1209C110.105 94.1209 110.76 94.6827 110.76 95.5637V98.6238H110.058V97.8619H110.041C109.777 98.3684 109.215 98.7004 108.619 98.7004ZM115.378 95.6488H114.655C114.548 95.1679 114.174 94.7721 113.522 94.7721C112.756 94.7721 112.237 95.4062 112.237 96.4106C112.237 97.4406 112.765 98.0492 113.531 98.0492C114.135 98.0492 114.531 97.73 114.659 97.198H115.387C115.272 98.079 114.531 98.7004 113.527 98.7004C112.301 98.7004 111.484 97.8364 111.484 96.4106C111.484 95.0147 112.297 94.1209 113.518 94.1209C114.625 94.1209 115.284 94.8529 115.378 95.6488ZM119.745 95.6488H119.021C118.915 95.1679 118.54 94.7721 117.889 94.7721C117.123 94.7721 116.604 95.4062 116.604 96.4106C116.604 97.4406 117.132 98.0492 117.898 98.0492C118.502 98.0492 118.898 97.73 119.025 97.198H119.753C119.638 98.079 118.898 98.7004 117.893 98.7004C116.668 98.7004 115.85 97.8364 115.85 96.4106C115.85 95.0147 116.663 94.1209 117.885 94.1209C118.991 94.1209 119.651 94.8529 119.745 95.6488ZM122.209 94.7635C121.515 94.7635 121.03 95.2956 120.983 96.0318H123.388C123.371 95.2913 122.907 94.7635 122.209 94.7635ZM123.371 97.3555H124.099C123.971 98.1301 123.222 98.7004 122.256 98.7004C120.988 98.7004 120.217 97.8194 120.217 96.4277C120.217 95.053 121 94.1209 122.222 94.1209C123.418 94.1209 124.154 94.9891 124.154 96.3298V96.6107H120.979V96.6532C120.979 97.5002 121.477 98.0577 122.273 98.0577C122.835 98.0577 123.247 97.7726 123.371 97.3555ZM124.826 95.419C124.826 94.6614 125.503 94.1209 126.478 94.1209C127.393 94.1209 128.065 94.6657 128.099 95.4147H127.393C127.342 94.9891 126.997 94.7252 126.452 94.7252C125.912 94.7252 125.554 94.9934 125.554 95.3807C125.554 95.6871 125.788 95.8914 126.291 96.0191L126.976 96.1851C127.87 96.4106 128.193 96.7341 128.193 97.3853C128.193 98.1556 127.465 98.7004 126.431 98.7004C125.461 98.7004 124.784 98.1726 124.707 97.3895H125.448C125.529 97.8492 125.878 98.096 126.478 98.096C127.078 98.096 127.448 97.8407 127.448 97.4406C127.448 97.1257 127.265 96.9554 126.767 96.8235L125.988 96.6234C125.21 96.4234 124.826 96.0233 124.826 95.419ZM128.887 95.419C128.887 94.6614 129.563 94.1209 130.538 94.1209C131.453 94.1209 132.126 94.6657 132.16 95.4147H131.453C131.402 94.9891 131.057 94.7252 130.513 94.7252C129.972 94.7252 129.615 94.9934 129.615 95.3807C129.615 95.6871 129.849 95.8914 130.351 96.0191L131.036 96.1851C131.93 96.4106 132.253 96.7341 132.253 97.3853C132.253 98.1556 131.525 98.7004 130.491 98.7004C129.521 98.7004 128.844 98.1726 128.768 97.3895H129.508C129.589 97.8492 129.938 98.096 130.538 98.096C131.138 98.096 131.508 97.8407 131.508 97.4406C131.508 97.1257 131.325 96.9554 130.827 96.8235L130.049 96.6234C129.27 96.4234 128.887 96.0233 128.887 95.419ZM135.177 100.279C135.088 100.279 134.939 100.271 134.858 100.254V99.6325C134.939 99.6495 135.054 99.6537 135.147 99.6537C135.56 99.6537 135.79 99.4537 135.96 98.9387L136.062 98.628L134.428 94.1975H135.22L136.445 97.8832H136.458L137.684 94.1975H138.463L136.722 98.9345C136.343 99.9687 135.977 100.279 135.177 100.279ZM140.757 98.7004C139.531 98.7004 138.705 97.8194 138.705 96.4106C138.705 94.9976 139.531 94.1209 140.757 94.1209C141.978 94.1209 142.804 94.9976 142.804 96.4106C142.804 97.8194 141.978 98.7004 140.757 98.7004ZM140.757 98.0492C141.54 98.0492 142.051 97.4534 142.051 96.4106C142.051 95.3679 141.54 94.7721 140.757 94.7721C139.974 94.7721 139.459 95.3679 139.459 96.4106C139.459 97.4534 139.974 98.0492 140.757 98.0492ZM147.188 94.1975V98.6238H146.485V97.9045H146.468C146.205 98.4152 145.745 98.7004 145.064 98.7004C144.098 98.7004 143.532 98.0747 143.532 97.0703V94.1975H144.272V96.9384C144.272 97.6577 144.609 98.045 145.294 98.045C146.013 98.045 146.447 97.5513 146.447 96.7979V94.1975H147.188ZM148.15 98.6238V94.1975H148.848V94.921H148.865C149.009 94.4316 149.418 94.1209 149.937 94.1209C150.065 94.1209 150.175 94.1422 150.235 94.1507V94.87C150.175 94.8487 150.018 94.8274 149.839 94.8274C149.265 94.8274 148.89 95.2402 148.89 95.8659V98.6238H148.15ZM154.776 94.1209C155.904 94.1209 156.67 95.0232 156.67 96.4106C156.67 97.7981 155.908 98.7004 154.793 98.7004C154.159 98.7004 153.648 98.3897 153.384 97.9045H153.367V100.101H152.627V94.1975H153.329V94.9466H153.346C153.619 94.4486 154.134 94.1209 154.776 94.1209ZM154.632 98.0492C155.419 98.0492 155.913 97.4151 155.913 96.4106C155.913 95.4105 155.419 94.7721 154.632 94.7721C153.874 94.7721 153.363 95.4275 153.363 96.4106C153.363 97.398 153.874 98.0492 154.632 98.0492ZM159.194 94.7635C158.5 94.7635 158.015 95.2956 157.968 96.0318H160.373C160.356 95.2913 159.892 94.7635 159.194 94.7635ZM160.356 97.3555H161.084C160.956 98.1301 160.207 98.7004 159.241 98.7004C157.973 98.7004 157.202 97.8194 157.202 96.4277C157.202 95.053 157.985 94.1209 159.207 94.1209C160.403 94.1209 161.139 94.9891 161.139 96.3298V96.6107H157.964V96.6532C157.964 97.5002 158.462 98.0577 159.258 98.0577C159.82 98.0577 160.232 97.7726 160.356 97.3555ZM161.888 98.6238V94.1975H162.586V94.921H162.603C162.748 94.4316 163.156 94.1209 163.676 94.1209C163.803 94.1209 163.914 94.1422 163.974 94.1507V94.87C163.914 94.8487 163.756 94.8274 163.578 94.8274C163.003 94.8274 162.629 95.2402 162.629 95.8659V98.6238H161.888ZM164.501 95.419C164.501 94.6614 165.178 94.1209 166.153 94.1209C167.068 94.1209 167.74 94.6657 167.774 95.4147H167.068C167.017 94.9891 166.672 94.7252 166.127 94.7252C165.587 94.7252 165.229 94.9934 165.229 95.3807C165.229 95.6871 165.463 95.8914 165.965 96.0191L166.651 96.1851C167.544 96.4106 167.868 96.7341 167.868 97.3853C167.868 98.1556 167.14 98.7004 166.106 98.7004C165.135 98.7004 164.459 98.1726 164.382 97.3895H165.123C165.204 97.8492 165.553 98.096 166.153 98.096C166.753 98.096 167.123 97.8407 167.123 97.4406C167.123 97.1257 166.94 96.9554 166.442 96.8235L165.663 96.6234C164.884 96.4234 164.501 96.0233 164.501 95.419ZM170.472 98.7004C169.247 98.7004 168.421 97.8194 168.421 96.4106C168.421 94.9976 169.247 94.1209 170.472 94.1209C171.694 94.1209 172.52 94.9976 172.52 96.4106C172.52 97.8194 171.694 98.7004 170.472 98.7004ZM170.472 98.0492C171.256 98.0492 171.766 97.4534 171.766 96.4106C171.766 95.3679 171.256 94.7721 170.472 94.7721C169.689 94.7721 169.174 95.3679 169.174 96.4106C169.174 97.4534 169.689 98.0492 170.472 98.0492ZM173.269 98.6238V94.1975H173.967V94.904H173.984C174.231 94.4273 174.703 94.1209 175.388 94.1209C176.359 94.1209 176.92 94.7465 176.92 95.751V98.6238H176.18V95.8829C176.18 95.1679 175.844 94.7763 175.163 94.7763C174.465 94.7763 174.009 95.27 174.009 96.0191V98.6238H173.269ZM179.325 98.0705C180.023 98.0705 180.559 97.581 180.559 96.9426V96.5809L179.376 96.6532C178.78 96.6915 178.44 96.9554 178.44 97.3725C178.44 97.7939 178.793 98.0705 179.325 98.0705ZM179.159 98.7004C178.278 98.7004 177.687 98.1684 177.687 97.3725C177.687 96.6149 178.27 96.1383 179.291 96.0787L180.559 96.0063V95.636C180.559 95.0955 180.202 94.7721 179.589 94.7721C179.019 94.7721 178.661 95.0402 178.568 95.4743H177.852C177.904 94.7082 178.559 94.1209 179.606 94.1209C180.644 94.1209 181.3 94.6827 181.3 95.5637V98.6238H180.598V97.8619H180.581C180.317 98.3684 179.755 98.7004 179.159 98.7004ZM182.279 98.6238V92.4823H183.019V98.6238H182.279ZM26.3417 108.7C25.2138 108.7 24.4477 107.798 24.4477 106.411C24.4477 105.023 25.2095 104.121 26.3246 104.121C26.9588 104.121 27.4695 104.432 27.7334 104.917H27.7504V102.482H28.491V108.624H27.7844V107.875H27.7717C27.4865 108.385 26.9801 108.7 26.3417 108.7ZM26.4821 104.772C25.699 104.772 25.2053 105.41 25.2053 106.411C25.2053 107.415 25.699 108.049 26.4821 108.049C27.2439 108.049 27.7547 107.402 27.7547 106.411C27.7547 105.423 27.2439 104.772 26.4821 104.772ZM30.9509 108.07C31.6489 108.07 32.1852 107.581 32.1852 106.943V106.581L31.002 106.653C30.4062 106.692 30.0657 106.955 30.0657 107.373C30.0657 107.794 30.4189 108.07 30.9509 108.07ZM30.785 108.7C29.904 108.7 29.3124 108.168 29.3124 107.373C29.3124 106.615 29.8954 106.138 30.9169 106.079L32.1852 106.006V105.636C32.1852 105.096 31.8277 104.772 31.2148 104.772C30.6445 104.772 30.287 105.04 30.1934 105.474H29.4784C29.5294 104.708 30.1849 104.121 31.2318 104.121C32.2703 104.121 32.9257 104.683 32.9257 105.564V108.624H32.2235V107.862H32.2065C31.9426 108.368 31.3808 108.7 30.785 108.7ZM34.1047 103.129H34.8452V104.197H35.7049V104.806H34.8452V107.436C34.8452 107.841 35.0155 108.024 35.3943 108.024C35.4794 108.024 35.6496 108.011 35.7007 108.002V108.624C35.6113 108.645 35.407 108.658 35.2325 108.658C34.4196 108.658 34.1047 108.326 34.1047 107.475V104.806H33.445V104.197H34.1047V103.129ZM37.8713 108.07C38.5693 108.07 39.1055 107.581 39.1055 106.943V106.581L37.9223 106.653C37.3265 106.692 36.986 106.955 36.986 107.373C36.986 107.794 37.3393 108.07 37.8713 108.07ZM37.7053 108.7C36.8243 108.7 36.2327 108.168 36.2327 107.373C36.2327 106.615 36.8158 106.138 37.8372 106.079L39.1055 106.006V105.636C39.1055 105.096 38.748 104.772 38.1351 104.772C37.5648 104.772 37.2073 105.04 37.1137 105.474H36.3987C36.4497 104.708 37.1052 104.121 38.1522 104.121C39.1906 104.121 39.8461 104.683 39.8461 105.564V108.624H39.1438V107.862H39.1268C38.8629 108.368 38.3011 108.7 37.7053 108.7ZM44.034 108.07C44.732 108.07 45.2683 107.581 45.2683 106.943V106.581L44.0851 106.653C43.4892 106.692 43.1488 106.955 43.1488 107.373C43.1488 107.794 43.502 108.07 44.034 108.07ZM43.868 108.7C42.987 108.7 42.3954 108.168 42.3954 107.373C42.3954 106.615 42.9785 106.138 44 106.079L45.2683 106.006V105.636C45.2683 105.096 44.9108 104.772 44.2979 104.772C43.7276 104.772 43.3701 105.04 43.2764 105.474H42.5614C42.6125 104.708 43.2679 104.121 44.3149 104.121C45.3534 104.121 46.0088 104.683 46.0088 105.564V108.624H45.3066V107.862H45.2895C45.0257 108.368 44.4639 108.7 43.868 108.7ZM46.9494 108.624V104.197H47.6474V104.904H47.6644C47.9113 104.427 48.3837 104.121 49.0689 104.121C50.0393 104.121 50.6011 104.747 50.6011 105.751V108.624H49.8605V105.883C49.8605 105.168 49.5243 104.776 48.8433 104.776C48.1454 104.776 47.69 105.27 47.69 106.019V108.624H46.9494ZM53.2228 108.7C52.095 108.7 51.3289 107.798 51.3289 106.411C51.3289 105.023 52.0907 104.121 53.2058 104.121C53.8399 104.121 54.3507 104.432 54.6145 104.917H54.6316V102.482H55.3721V108.624H54.6656V107.875H54.6528C54.3677 108.385 53.8612 108.7 53.2228 108.7ZM53.3633 104.772C52.5801 104.772 52.0864 105.41 52.0864 106.411C52.0864 107.415 52.5801 108.049 53.3633 108.049C54.1251 108.049 54.6358 107.402 54.6358 106.411C54.6358 105.423 54.1251 104.772 53.3633 104.772ZM58.9387 106.164L60.8965 104.197H61.7945L59.875 106.108L61.8541 108.624H60.9943L59.3515 106.564L58.9387 106.955V108.624H58.1981V102.482H58.9387V106.164ZM63.9523 104.764C63.2586 104.764 62.7734 105.296 62.7266 106.032H65.1312C65.1142 105.291 64.6503 104.764 63.9523 104.764ZM65.1142 107.355H65.842C65.7143 108.13 64.9652 108.7 63.9991 108.7C62.7308 108.7 61.9605 107.819 61.9605 106.428C61.9605 105.053 62.7436 104.121 63.9651 104.121C65.161 104.121 65.8973 104.989 65.8973 106.33V106.611H62.7223V106.653C62.7223 107.5 63.2203 108.058 64.0161 108.058C64.5779 108.058 64.9908 107.773 65.1142 107.355ZM68.4211 104.764C67.7274 104.764 67.2422 105.296 67.1954 106.032H69.6001C69.583 105.291 69.1191 104.764 68.4211 104.764ZM69.583 107.355H70.3108C70.1831 108.13 69.4341 108.7 68.468 108.7C67.1997 108.7 66.4293 107.819 66.4293 106.428C66.4293 105.053 67.2124 104.121 68.4339 104.121C69.6298 104.121 70.3661 104.989 70.3661 106.33V106.611H67.1911V106.653C67.1911 107.5 67.6891 108.058 68.485 108.058C69.0468 108.058 69.4596 107.773 69.583 107.355ZM73.2645 104.121C74.3924 104.121 75.1584 105.023 75.1584 106.411C75.1584 107.798 74.3966 108.7 73.2815 108.7C72.6474 108.7 72.1367 108.39 71.8728 107.905H71.8558V110.101H71.1152V104.197H71.8175V104.947H71.8345C72.1069 104.449 72.6218 104.121 73.2645 104.121ZM73.1198 108.049C73.9072 108.049 74.4009 107.415 74.4009 106.411C74.4009 105.41 73.9072 104.772 73.1198 104.772C72.3622 104.772 71.8515 105.427 71.8515 106.411C71.8515 107.398 72.3622 108.049 73.1198 108.049ZM77.7334 108.624V104.197H78.4739V108.624H77.7334ZM78.1036 103.453C77.8525 103.453 77.644 103.244 77.644 102.993C77.644 102.738 77.8525 102.533 78.1036 102.533C78.359 102.533 78.5675 102.738 78.5675 102.993C78.5675 103.244 78.359 103.453 78.1036 103.453ZM79.7124 103.129H80.453V104.197H81.3127V104.806H80.453V107.436C80.453 107.841 80.6232 108.024 81.002 108.024C81.0871 108.024 81.2574 108.011 81.3084 108.002V108.624C81.2191 108.645 81.0148 108.658 80.8403 108.658C80.0274 108.658 79.7124 108.326 79.7124 107.475V104.806H79.0527V104.197H79.7124V103.129ZM83.8152 105.419C83.8152 104.661 84.4919 104.121 85.4666 104.121C86.3816 104.121 87.0541 104.666 87.0881 105.415H86.3816C86.3306 104.989 85.9858 104.725 85.441 104.725C84.9005 104.725 84.543 104.993 84.543 105.381C84.543 105.687 84.7771 105.891 85.2793 106.019L85.9645 106.185C86.8583 106.411 87.1818 106.734 87.1818 107.385C87.1818 108.156 86.454 108.7 85.4198 108.7C84.4494 108.7 83.7727 108.173 83.6961 107.39H84.4366C84.5175 107.849 84.8665 108.096 85.4666 108.096C86.0667 108.096 86.437 107.841 86.437 107.441C86.437 107.126 86.254 106.955 85.756 106.823L84.9771 106.623C84.1983 106.423 83.8152 106.023 83.8152 105.419ZM89.7269 104.764C89.0331 104.764 88.548 105.296 88.5011 106.032H90.9058C90.8888 105.291 90.4249 104.764 89.7269 104.764ZM90.8888 107.355H91.6166C91.4889 108.13 90.7398 108.7 89.7737 108.7C88.5054 108.7 87.7351 107.819 87.7351 106.428C87.7351 105.053 88.5182 104.121 89.7397 104.121C90.9356 104.121 91.6719 104.989 91.6719 106.33V106.611H88.4969V106.653C88.4969 107.5 88.9948 108.058 89.7907 108.058C90.3525 108.058 90.7654 107.773 90.8888 107.355ZM96.0982 105.649H95.3747C95.2682 105.168 94.8937 104.772 94.2425 104.772C93.4765 104.772 92.9572 105.406 92.9572 106.411C92.9572 107.441 93.485 108.049 94.2511 108.049C94.8554 108.049 95.2512 107.73 95.3789 107.198H96.1067C95.9918 108.079 95.2512 108.7 94.2468 108.7C93.0211 108.7 92.2039 107.836 92.2039 106.411C92.2039 105.015 93.0168 104.121 94.2383 104.121C95.3449 104.121 96.0045 104.853 96.0982 105.649ZM100.422 104.197V108.624H99.7201V107.905H99.703C99.4392 108.415 98.9795 108.7 98.2986 108.7C97.3324 108.7 96.7664 108.075 96.7664 107.07V104.197H97.5069V106.938C97.5069 107.658 97.8432 108.045 98.5284 108.045C99.2476 108.045 99.6818 107.551 99.6818 106.798V104.197H100.422ZM101.384 108.624V104.197H102.082V104.921H102.099C102.244 104.432 102.652 104.121 103.172 104.121C103.299 104.121 103.41 104.142 103.47 104.151V104.87C103.41 104.849 103.253 104.827 103.074 104.827C102.499 104.827 102.125 105.24 102.125 105.866V108.624H101.384ZM105.636 104.764C104.942 104.764 104.457 105.296 104.41 106.032H106.815C106.798 105.291 106.334 104.764 105.636 104.764ZM106.798 107.355H107.526C107.398 108.13 106.649 108.7 105.683 108.7C104.414 108.7 103.644 107.819 103.644 106.428C103.644 105.053 104.427 104.121 105.649 104.121C106.845 104.121 107.581 104.989 107.581 106.33V106.611H104.406V106.653C104.406 107.5 104.904 108.058 105.7 108.058C106.262 108.058 106.674 107.773 106.798 107.355ZM110.356 108.624V104.806H109.739V104.197H110.356V103.704C110.356 102.853 110.752 102.448 111.569 102.448C111.735 102.448 111.914 102.465 112.02 102.482V103.082C111.931 103.07 111.807 103.057 111.684 103.057C111.284 103.057 111.092 103.27 111.092 103.708V104.197H111.999V104.806H111.096V108.624H110.356ZM112.765 108.624V104.197H113.463V104.921H113.48C113.625 104.432 114.033 104.121 114.552 104.121C114.68 104.121 114.791 104.142 114.85 104.151V104.87C114.791 104.849 114.633 104.827 114.454 104.827C113.88 104.827 113.505 105.24 113.505 105.866V108.624H112.765ZM117.076 108.7C115.85 108.7 115.025 107.819 115.025 106.411C115.025 104.998 115.85 104.121 117.076 104.121C118.298 104.121 119.123 104.998 119.123 106.411C119.123 107.819 118.298 108.7 117.076 108.7ZM117.076 108.049C117.859 108.049 118.37 107.453 118.37 106.411C118.37 105.368 117.859 104.772 117.076 104.772C116.293 104.772 115.778 105.368 115.778 106.411C115.778 107.453 116.293 108.049 117.076 108.049ZM119.872 108.624V104.197H120.57V104.904H120.587C120.796 104.436 121.247 104.121 121.843 104.121C122.447 104.121 122.894 104.427 123.086 104.964H123.103C123.35 104.436 123.869 104.121 124.49 104.121C125.367 104.121 125.933 104.691 125.933 105.568V108.624H125.192V105.738C125.192 105.134 124.856 104.776 124.273 104.776C123.686 104.776 123.273 105.21 123.273 105.811V108.624H122.532V105.657C122.532 105.125 122.175 104.776 121.626 104.776C121.039 104.776 120.613 105.236 120.613 105.849V108.624H119.872ZM132.3 104.197V108.624H131.598V107.905H131.581C131.317 108.415 130.857 108.7 130.176 108.7C129.21 108.7 128.644 108.075 128.644 107.07V104.197H129.385V106.938C129.385 107.658 129.721 108.045 130.406 108.045C131.125 108.045 131.56 107.551 131.56 106.798V104.197H132.3ZM133.262 108.624V104.197H133.96V104.904H133.977C134.224 104.427 134.696 104.121 135.381 104.121C136.352 104.121 136.914 104.747 136.914 105.751V108.624H136.173V105.883C136.173 105.168 135.837 104.776 135.156 104.776C134.458 104.776 134.002 105.27 134.002 106.019V108.624H133.262ZM139.318 108.07C140.016 108.07 140.553 107.581 140.553 106.943V106.581L139.369 106.653C138.774 106.692 138.433 106.955 138.433 107.373C138.433 107.794 138.786 108.07 139.318 108.07ZM139.152 108.7C138.271 108.7 137.68 108.168 137.68 107.373C137.68 106.615 138.263 106.138 139.284 106.079L140.553 106.006V105.636C140.553 105.096 140.195 104.772 139.582 104.772C139.012 104.772 138.654 105.04 138.561 105.474H137.846C137.897 104.708 138.552 104.121 139.599 104.121C140.638 104.121 141.293 104.683 141.293 105.564V108.624H140.591V107.862H140.574C140.31 108.368 139.748 108.7 139.152 108.7ZM145.868 104.197V108.624H145.166V107.905H145.149C144.885 108.415 144.426 108.7 143.745 108.7C142.778 108.7 142.212 108.075 142.212 107.07V104.197H142.953V106.938C142.953 107.658 143.289 108.045 143.974 108.045C144.694 108.045 145.128 107.551 145.128 106.798V104.197H145.868ZM147.069 103.129H147.809V104.197H148.669V104.806H147.809V107.436C147.809 107.841 147.979 108.024 148.358 108.024C148.443 108.024 148.613 108.011 148.665 108.002V108.624C148.575 108.645 148.371 108.658 148.196 108.658C147.383 108.658 147.069 108.326 147.069 107.475V104.806H146.409V104.197H147.069V103.129ZM149.499 108.624V102.482H150.239V104.904H150.256C150.503 104.41 150.988 104.121 151.661 104.121C152.631 104.121 153.219 104.776 153.219 105.764V108.624H152.478V105.9C152.478 105.198 152.125 104.776 151.431 104.776C150.695 104.776 150.239 105.279 150.239 106.045V108.624H149.499ZM155.993 108.7C154.768 108.7 153.942 107.819 153.942 106.411C153.942 104.998 154.768 104.121 155.993 104.121C157.215 104.121 158.041 104.998 158.041 106.411C158.041 107.819 157.215 108.7 155.993 108.7ZM155.993 108.049C156.777 108.049 157.287 107.453 157.287 106.411C157.287 105.368 156.777 104.772 155.993 104.772C155.21 104.772 154.695 105.368 154.695 106.411C154.695 107.453 155.21 108.049 155.993 108.049ZM158.79 108.624V104.197H159.488V104.921H159.505C159.649 104.432 160.058 104.121 160.577 104.121C160.705 104.121 160.816 104.142 160.875 104.151V104.87C160.816 104.849 160.658 104.827 160.479 104.827C159.905 104.827 159.53 105.24 159.53 105.866V108.624H158.79ZM161.518 108.624V104.197H162.258V108.624H161.518ZM161.888 103.453C161.637 103.453 161.428 103.244 161.428 102.993C161.428 102.738 161.637 102.533 161.888 102.533C162.143 102.533 162.352 102.738 162.352 102.993C162.352 103.244 162.143 103.453 161.888 103.453ZM163.165 108.624V108.096L165.616 104.819V104.806H163.169V104.197H166.455V104.738L164.02 108.002V108.015H166.468V108.624H163.165ZM168.94 104.764C168.247 104.764 167.761 105.296 167.715 106.032H170.119C170.102 105.291 169.638 104.764 168.94 104.764ZM170.102 107.355H170.83C170.702 108.13 169.953 108.7 168.987 108.7C167.719 108.7 166.949 107.819 166.949 106.428C166.949 105.053 167.732 104.121 168.953 104.121C170.149 104.121 170.885 104.989 170.885 106.33V106.611H167.71V106.653C167.71 107.5 168.208 108.058 169.004 108.058C169.566 108.058 169.979 107.773 170.102 107.355ZM173.311 108.7C172.183 108.7 171.417 107.798 171.417 106.411C171.417 105.023 172.179 104.121 173.294 104.121C173.928 104.121 174.439 104.432 174.703 104.917H174.72V102.482H175.461V108.624H174.754V107.875H174.741C174.456 108.385 173.95 108.7 173.311 108.7ZM173.452 104.772C172.669 104.772 172.175 105.41 172.175 106.411C172.175 107.415 172.669 108.049 173.452 108.049C174.214 108.049 174.724 107.402 174.724 106.411C174.724 105.423 174.214 104.772 173.452 104.772ZM26.1246 118.07C26.8226 118.07 27.3588 117.581 27.3588 116.943V116.581L26.1757 116.653C25.5798 116.692 25.2393 116.955 25.2393 117.373C25.2393 117.794 25.5926 118.07 26.1246 118.07ZM25.9586 118.7C25.0776 118.7 24.486 118.168 24.486 117.373C24.486 116.615 25.0691 116.138 26.0905 116.079L27.3588 116.006V115.636C27.3588 115.096 27.0013 114.772 26.3885 114.772C25.8182 114.772 25.4607 115.04 25.367 115.474H24.652C24.7031 114.708 25.3585 114.121 26.4055 114.121C27.444 114.121 28.0994 114.683 28.0994 115.564V118.624H27.3971V117.862H27.3801C27.1163 118.368 26.5545 118.7 25.9586 118.7ZM32.7172 115.649H31.9937C31.8873 115.168 31.5127 114.772 30.8616 114.772C30.0955 114.772 29.5762 115.406 29.5762 116.411C29.5762 117.441 30.104 118.049 30.8701 118.049C31.4744 118.049 31.8702 117.73 31.9979 117.198H32.7257C32.6108 118.079 31.8702 118.7 30.8658 118.7C29.6401 118.7 28.8229 117.836 28.8229 116.411C28.8229 115.015 29.6358 114.121 30.8573 114.121C31.9639 114.121 32.6236 114.853 32.7172 115.649ZM37.0839 115.649H36.3604C36.254 115.168 35.8794 114.772 35.2283 114.772C34.4622 114.772 33.9429 115.406 33.9429 116.411C33.9429 117.441 34.4707 118.049 35.2368 118.049C35.8411 118.049 36.2369 117.73 36.3646 117.198H37.0924C36.9775 118.079 36.2369 118.7 35.2325 118.7C34.0068 118.7 33.1896 117.836 33.1896 116.411C33.1896 115.015 34.0025 114.121 35.224 114.121C36.3306 114.121 36.9903 114.853 37.0839 115.649ZM39.5481 114.764C38.8544 114.764 38.3692 115.296 38.3224 116.032H40.7271C40.71 115.291 40.2461 114.764 39.5481 114.764ZM40.71 117.355H41.4378C41.3101 118.13 40.5611 118.7 39.595 118.7C38.3267 118.7 37.5563 117.819 37.5563 116.428C37.5563 115.053 38.3394 114.121 39.5609 114.121C40.7569 114.121 41.4932 114.989 41.4932 116.33V116.611H38.3182V116.653C38.3182 117.5 38.8161 118.058 39.612 118.058C40.1738 118.058 40.5866 117.773 40.71 117.355ZM42.1656 115.419C42.1656 114.661 42.8423 114.121 43.817 114.121C44.732 114.121 45.4045 114.666 45.4385 115.415H44.732C44.6809 114.989 44.3362 114.725 43.7914 114.725C43.2509 114.725 42.8934 114.993 42.8934 115.381C42.8934 115.687 43.1275 115.891 43.6297 116.019L44.3149 116.185C45.2087 116.411 45.5321 116.734 45.5321 117.385C45.5321 118.156 44.8044 118.7 43.7701 118.7C42.7998 118.7 42.1231 118.173 42.0464 117.39H42.787C42.8679 117.849 43.2169 118.096 43.817 118.096C44.4171 118.096 44.7873 117.841 44.7873 117.441C44.7873 117.126 44.6043 116.955 44.1064 116.823L43.3275 116.623C42.5487 116.423 42.1656 116.023 42.1656 115.419ZM46.2259 115.419C46.2259 114.661 46.9026 114.121 47.8772 114.121C48.7923 114.121 49.4647 114.666 49.4988 115.415H48.7923C48.7412 114.989 48.3965 114.725 47.8517 114.725C47.3112 114.725 46.9537 114.993 46.9537 115.381C46.9537 115.687 47.1877 115.891 47.69 116.019L48.3752 116.185C49.2689 116.411 49.5924 116.734 49.5924 117.385C49.5924 118.156 48.8646 118.7 47.8304 118.7C46.86 118.7 46.1833 118.173 46.1067 117.39H46.8473C46.9281 117.849 47.2771 118.096 47.8772 118.096C48.4773 118.096 48.8476 117.841 48.8476 117.441C48.8476 117.126 48.6646 116.955 48.1666 116.823L47.3878 116.623C46.6089 116.423 46.2259 116.023 46.2259 115.419ZM50.9884 118.666C50.716 118.666 50.5032 118.454 50.5032 118.181C50.5032 117.909 50.716 117.696 50.9884 117.696C51.2608 117.696 51.4736 117.909 51.4736 118.181C51.4736 118.454 51.2608 118.666 50.9884 118.666Z" fill="white"/>
<path d="M18.9148 156.176H17.9615V153.456H14.8077V156.176H13.8544V150.034H14.8077V152.63H17.9615V150.034H18.9148V156.176ZM21.8557 156.261C20.5747 156.261 19.732 155.38 19.732 153.937C19.732 152.499 20.5789 151.618 21.8557 151.618C23.1326 151.618 23.9795 152.499 23.9795 153.937C23.9795 155.38 23.1368 156.261 21.8557 156.261ZM21.8557 155.503C22.5793 155.503 23.0432 154.933 23.0432 153.937C23.0432 152.945 22.575 152.375 21.8557 152.375C21.1365 152.375 20.6683 152.945 20.6683 153.937C20.6683 154.933 21.1365 155.503 21.8557 155.503ZM30.5806 151.698L29.3549 156.176H28.3973L27.4567 152.822H27.4354L26.5033 156.176H25.5542L24.3242 151.698H25.2436L26.0607 155.222H26.0777L27.0098 151.698H27.8951L28.8314 155.222H28.8527L29.6698 151.698H30.5806ZM33.1811 150.639H34.1046V151.698H34.9558V152.426H34.1046V154.895C34.1046 155.282 34.2749 155.457 34.6494 155.457C34.743 155.457 34.892 155.448 34.9516 155.435V156.163C34.8494 156.189 34.6451 156.206 34.4409 156.206C33.5343 156.206 33.1811 155.861 33.1811 154.997V152.426H32.5299V151.698H33.1811V150.639ZM37.535 156.261C36.2539 156.261 35.4112 155.38 35.4112 153.937C35.4112 152.499 36.2582 151.618 37.535 151.618C38.8118 151.618 39.6588 152.499 39.6588 153.937C39.6588 155.38 38.8161 156.261 37.535 156.261ZM37.535 155.503C38.2585 155.503 38.7224 154.933 38.7224 153.937C38.7224 152.945 38.2543 152.375 37.535 152.375C36.8157 152.375 36.3476 152.945 36.3476 153.937C36.3476 154.933 36.8157 155.503 37.535 155.503ZM42.0592 152.967C42.0592 152.167 42.7657 151.618 43.8127 151.618C44.8086 151.618 45.5066 152.175 45.5364 152.971H44.6724C44.6298 152.567 44.3021 152.316 43.7871 152.316C43.2892 152.316 42.9572 152.558 42.9572 152.911C42.9572 153.188 43.1785 153.375 43.6424 153.49L44.3957 153.665C45.298 153.882 45.6385 154.222 45.6385 154.882C45.6385 155.699 44.8767 156.261 43.7786 156.261C42.7189 156.261 42.0166 155.712 41.9443 154.89H42.8551C42.9274 155.32 43.2594 155.559 43.8212 155.559C44.3745 155.559 44.7149 155.329 44.7149 154.967C44.7149 154.682 44.5447 154.524 44.0765 154.405L43.2764 154.209C42.4678 154.014 42.0592 153.592 42.0592 152.967ZM48.2262 152.358C47.5835 152.358 47.1324 152.848 47.0856 153.524H49.3242C49.303 152.839 48.8688 152.358 48.2262 152.358ZM49.32 154.861H50.1925C50.0648 155.678 49.2902 156.261 48.2645 156.261C46.9494 156.261 46.1535 155.371 46.1535 153.958C46.1535 152.554 46.9621 151.618 48.2262 151.618C49.4689 151.618 50.2435 152.494 50.2435 153.852V154.167H47.0813V154.222C47.0813 155.001 47.5495 155.516 48.2858 155.516C48.8093 155.516 49.1966 155.252 49.32 154.861ZM51.2267 150.639H52.1502V151.698H53.0015V152.426H52.1502V154.895C52.1502 155.282 52.3205 155.457 52.695 155.457C52.7887 155.457 52.9376 155.448 52.9972 155.435V156.163C52.8951 156.189 52.6908 156.206 52.4865 156.206C51.5799 156.206 51.2267 155.861 51.2267 154.997V152.426H50.5755V151.698H51.2267V150.639ZM57.0958 155.525C57.7384 155.525 58.2406 155.082 58.2406 154.499V154.146L57.1383 154.214C56.5893 154.252 56.2786 154.495 56.2786 154.878C56.2786 155.269 56.6021 155.525 57.0958 155.525ZM56.8404 156.252C55.9637 156.252 55.3508 155.708 55.3508 154.903C55.3508 154.12 55.9509 153.639 57.0149 153.58L58.2406 153.507V153.163C58.2406 152.665 57.9044 152.367 57.3426 152.367C56.8106 152.367 56.4786 152.622 56.3978 153.022H55.5295C55.5806 152.213 56.2701 151.618 57.3767 151.618C58.462 151.618 59.1557 152.192 59.1557 153.09V156.176H58.2747V155.439H58.2534C57.9938 155.937 57.4277 156.252 56.8404 156.252ZM64.1523 151.626C65.2886 151.626 66.0377 152.52 66.0377 153.937C66.0377 155.354 65.2929 156.252 64.1693 156.252C63.5266 156.252 63.0159 155.937 62.7606 155.439H62.7393V157.657H61.82V151.698H62.7095V152.469H62.7265C62.9904 151.954 63.5054 151.626 64.1523 151.626ZM63.9097 155.474C64.6375 155.474 65.0929 154.878 65.0929 153.937C65.0929 153.001 64.6375 152.401 63.9097 152.401C63.2074 152.401 62.735 153.014 62.735 153.937C62.735 154.869 63.2032 155.474 63.9097 155.474ZM68.3147 155.525C68.9574 155.525 69.4596 155.082 69.4596 154.499V154.146L68.3573 154.214C67.8082 154.252 67.4975 154.495 67.4975 154.878C67.4975 155.269 67.821 155.525 68.3147 155.525ZM68.0593 156.252C67.1826 156.252 66.5697 155.708 66.5697 154.903C66.5697 154.12 67.1698 153.639 68.2338 153.58L69.4596 153.507V153.163C69.4596 152.665 69.1233 152.367 68.5615 152.367C68.0295 152.367 67.6976 152.622 67.6167 153.022H66.7485C66.7995 152.213 67.489 151.618 68.5956 151.618C69.6809 151.618 70.3746 152.192 70.3746 153.09V156.176H69.4936V155.439H69.4723C69.2127 155.937 68.6467 156.252 68.0593 156.252ZM71.1875 152.967C71.1875 152.167 71.894 151.618 72.941 151.618C73.9369 151.618 74.6349 152.175 74.6647 152.971H73.8007C73.7582 152.567 73.4305 152.316 72.9155 152.316C72.4175 152.316 72.0855 152.558 72.0855 152.911C72.0855 153.188 72.3069 153.375 72.7708 153.49L73.5241 153.665C74.4264 153.882 74.7669 154.222 74.7669 154.882C74.7669 155.699 74.005 156.261 72.907 156.261C71.8472 156.261 71.145 155.712 71.0726 154.89H71.9834C72.0558 155.32 72.3877 155.559 72.9495 155.559C73.5028 155.559 73.8433 155.329 73.8433 154.967C73.8433 154.682 73.6731 154.524 73.2049 154.405L72.4048 154.209C71.5961 154.014 71.1875 153.592 71.1875 152.967ZM75.401 152.967C75.401 152.167 76.1075 151.618 77.1545 151.618C78.1504 151.618 78.8484 152.175 78.8782 152.971H78.0142C77.9717 152.567 77.6439 152.316 77.129 152.316C76.631 152.316 76.299 152.558 76.299 152.911C76.299 153.188 76.5203 153.375 76.9842 153.49L77.7376 153.665C78.6398 153.882 78.9803 154.222 78.9803 154.882C78.9803 155.699 78.2185 156.261 77.1204 156.261C76.0607 156.261 75.3584 155.712 75.2861 154.89H76.1969C76.2692 155.32 76.6012 155.559 77.163 155.559C77.7163 155.559 78.0568 155.329 78.0568 154.967C78.0568 154.682 77.8865 154.524 77.4184 154.405L76.6182 154.209C75.8096 154.014 75.401 153.592 75.401 152.967ZM83.5386 153.239H82.6618C82.5682 152.762 82.2107 152.384 81.6106 152.384C80.8998 152.384 80.4316 152.975 80.4316 153.937C80.4316 154.92 80.9041 155.491 81.6191 155.491C82.1851 155.491 82.5554 155.18 82.6618 154.661H83.5471C83.4492 155.614 82.6873 156.261 81.6106 156.261C80.3295 156.261 79.4953 155.384 79.4953 153.937C79.4953 152.516 80.3295 151.618 81.6021 151.618C82.7554 151.618 83.4577 152.358 83.5386 153.239ZM86.122 156.261C84.8409 156.261 83.9982 155.38 83.9982 153.937C83.9982 152.499 84.8452 151.618 86.122 151.618C87.3988 151.618 88.2457 152.499 88.2457 153.937C88.2457 155.38 87.403 156.261 86.122 156.261ZM86.122 155.503C86.8455 155.503 87.3094 154.933 87.3094 153.937C87.3094 152.945 86.8412 152.375 86.122 152.375C85.4027 152.375 84.9345 152.945 84.9345 153.937C84.9345 154.933 85.4027 155.503 86.122 155.503ZM90.6376 156.252C89.5055 156.252 88.7565 155.35 88.7565 153.937C88.7565 152.524 89.5055 151.626 90.6291 151.626C91.2718 151.626 91.7825 151.95 92.0336 152.443H92.0506V150.034H92.9742V156.176H92.0804V155.414H92.0634C91.7995 155.925 91.2888 156.252 90.6376 156.252ZM90.8802 152.401C90.1524 152.401 89.697 152.997 89.697 153.937C89.697 154.882 90.1524 155.474 90.8802 155.474C91.5867 155.474 92.0591 154.873 92.0591 153.937C92.0591 153.009 91.5867 152.401 90.8802 152.401ZM95.7917 152.358C95.149 152.358 94.6979 152.848 94.6511 153.524H96.8898C96.8685 152.839 96.4344 152.358 95.7917 152.358ZM96.8855 154.861H97.758C97.6303 155.678 96.8557 156.261 95.83 156.261C94.5149 156.261 93.719 155.371 93.719 153.958C93.719 152.554 94.5277 151.618 95.7917 151.618C97.0345 151.618 97.8091 152.494 97.8091 153.852V154.167H94.6468V154.222C94.6468 155.001 95.115 155.516 95.8513 155.516C96.3748 155.516 96.7621 155.252 96.8855 154.861ZM99.2136 156.223C98.9029 156.223 98.656 155.976 98.656 155.665C98.656 155.354 98.9029 155.108 99.2136 155.108C99.5242 155.108 99.7711 155.354 99.7711 155.665C99.7711 155.976 99.5242 156.223 99.2136 156.223ZM99.2136 153.12C98.9029 153.12 98.656 152.877 98.656 152.562C98.656 152.252 98.9029 152.005 99.2136 152.005C99.5242 152.005 99.7711 152.252 99.7711 152.562C99.7711 152.877 99.5242 153.12 99.2136 153.12Z" fill="#20283B"/>
<g clip-path="url(#clip1_25_7557)">
<rect x="13.2883" y="166.892" width="186.857" height="139.462" rx="13.0746" fill="#E1E9E6"/>
<path d="M34.4924 183.247C34.4924 184.907 33.5262 185.89 31.8877 185.89C30.1725 185.89 29.0744 184.638 29.0744 182.685C29.0744 180.765 30.1682 179.544 31.8877 179.544C33.2156 179.544 34.2242 180.331 34.4541 181.553H33.6497C33.3943 180.723 32.7516 180.25 31.8877 180.25C30.6236 180.25 29.8618 181.161 29.8618 182.681C29.8618 184.226 30.6364 185.183 31.8877 185.183C32.9772 185.183 33.7263 184.477 33.7263 183.447V183.336H31.9941V182.664H34.4924V183.247ZM37.195 185.864C35.9692 185.864 35.1435 184.983 35.1435 183.574C35.1435 182.161 35.9692 181.285 37.195 181.285C38.4164 181.285 39.2421 182.161 39.2421 183.574C39.2421 184.983 38.4164 185.864 37.195 185.864ZM37.195 185.213C37.9781 185.213 38.4888 184.617 38.4888 183.574C38.4888 182.532 37.9781 181.936 37.195 181.936C36.4118 181.936 35.8969 182.532 35.8969 183.574C35.8969 184.617 36.4118 185.213 37.195 185.213ZM42.017 180.293H42.7576V181.361H43.6173V181.97H42.7576V184.6C42.7576 185.004 42.9278 185.187 43.3066 185.187C43.3918 185.187 43.562 185.175 43.6131 185.166V185.788C43.5237 185.809 43.3194 185.822 43.1449 185.822C42.332 185.822 42.017 185.49 42.017 184.638V181.97H41.3574V181.361H42.017V180.293ZM46.1156 185.864C44.8899 185.864 44.0642 184.983 44.0642 183.574C44.0642 182.161 44.8899 181.285 46.1156 181.285C47.3371 181.285 48.1628 182.161 48.1628 183.574C48.1628 184.983 47.3371 185.864 46.1156 185.864ZM46.1156 185.213C46.8987 185.213 47.4095 184.617 47.4095 183.574C47.4095 182.532 46.8987 181.936 46.1156 181.936C45.3325 181.936 44.8175 182.532 44.8175 183.574C44.8175 184.617 45.3325 185.213 46.1156 185.213ZM50.5206 184.098H51.291C51.3633 184.762 51.9932 185.2 52.87 185.2C53.6999 185.2 54.3042 184.762 54.3042 184.158C54.3042 183.638 53.9425 183.319 53.1168 183.106L52.3294 182.902C51.1973 182.613 50.6951 182.115 50.6951 181.28C50.6951 180.259 51.5889 179.544 52.8657 179.544C54.0872 179.544 54.9724 180.268 55.0065 181.297H54.2404C54.1723 180.638 53.6403 180.233 52.8402 180.233C52.0443 180.233 51.491 180.646 51.491 181.246C51.491 181.71 51.8315 181.987 52.6657 182.204L53.3083 182.374C54.5809 182.693 55.0959 183.183 55.0959 184.064C55.0959 185.187 54.2106 185.89 52.7976 185.89C51.4953 185.89 50.593 185.183 50.5206 184.098ZM57.6495 181.927C56.9558 181.927 56.4706 182.459 56.4237 183.196H58.8284C58.8114 182.455 58.3475 181.927 57.6495 181.927ZM58.8114 184.519H59.5392C59.4115 185.294 58.6624 185.864 57.6963 185.864C56.428 185.864 55.6577 184.983 55.6577 183.591C55.6577 182.217 56.4408 181.285 57.6623 181.285C58.8582 181.285 59.5945 182.153 59.5945 183.494V183.774H56.4195V183.817C56.4195 184.664 56.9175 185.222 57.7133 185.222C58.2751 185.222 58.688 184.936 58.8114 184.519ZM60.5819 180.293H61.3225V181.361H62.1822V181.97H61.3225V184.6C61.3225 185.004 61.4927 185.187 61.8715 185.187C61.9566 185.187 62.1268 185.175 62.1779 185.166V185.788C62.0885 185.809 61.8843 185.822 61.7098 185.822C60.8969 185.822 60.5819 185.49 60.5819 184.638V181.97H59.9222V181.361H60.5819V180.293ZM63.2121 180.293H63.9527V181.361H64.8124V181.97H63.9527V184.6C63.9527 185.004 64.1229 185.187 64.5017 185.187C64.5868 185.187 64.7571 185.175 64.8082 185.166V185.788C64.7188 185.809 64.5145 185.822 64.34 185.822C63.5271 185.822 63.2121 185.49 63.2121 184.638V181.97H62.5525V181.361H63.2121V180.293ZM65.6423 185.788V181.361H66.3829V185.788H65.6423ZM66.0126 180.617C65.7615 180.617 65.553 180.408 65.553 180.157C65.553 179.901 65.7615 179.697 66.0126 179.697C66.268 179.697 66.4765 179.901 66.4765 180.157C66.4765 180.408 66.268 180.617 66.0126 180.617ZM67.3831 185.788V181.361H68.081V182.068H68.0981C68.3449 181.591 68.8173 181.285 69.5026 181.285C70.4729 181.285 71.0347 181.91 71.0347 182.915V185.788H70.2942V183.047C70.2942 182.332 69.958 181.94 69.277 181.94C68.579 181.94 68.1236 182.434 68.1236 183.183V185.788H67.3831ZM73.7799 185.17C74.5502 185.17 75.0652 184.532 75.0652 183.557C75.0652 182.583 74.5502 181.936 73.7799 181.936C73.0181 181.936 72.5201 182.566 72.5201 183.557C72.5201 184.549 73.0181 185.17 73.7799 185.17ZM73.8054 187.456C72.8308 187.456 72.0604 186.907 71.937 186.154H72.6989C72.8436 186.558 73.2819 186.826 73.8352 186.826C74.6013 186.826 75.0652 186.383 75.0652 185.724V185.026H75.0482C74.7758 185.507 74.2523 185.822 73.6309 185.822C72.5031 185.822 71.7625 184.932 71.7625 183.557C71.7625 182.17 72.5031 181.285 73.648 181.285C74.2736 181.285 74.7928 181.591 75.0865 182.106H75.0993V181.361H75.8058V185.698C75.8058 186.754 75.0269 187.456 73.8054 187.456ZM76.6953 182.583C76.6953 181.825 77.372 181.285 78.3466 181.285C79.2617 181.285 79.9341 181.829 79.9682 182.579H79.2617C79.2106 182.153 78.8659 181.889 78.3211 181.889C77.7806 181.889 77.4231 182.157 77.4231 182.544C77.4231 182.851 77.6571 183.055 78.1594 183.183L78.8446 183.349C79.7383 183.574 80.0618 183.898 80.0618 184.549C80.0618 185.319 79.334 185.864 78.2998 185.864C77.3294 185.864 76.6527 185.336 76.5761 184.553H77.3167C77.3975 185.013 77.7465 185.26 78.3466 185.26C78.9467 185.26 79.317 185.004 79.317 184.604C79.317 184.289 79.134 184.119 78.636 183.987L77.8572 183.787C77.0783 183.587 76.6953 183.187 76.6953 182.583ZM84.0795 185.234C84.7775 185.234 85.3138 184.745 85.3138 184.106V183.745L84.1306 183.817C83.5347 183.855 83.1943 184.119 83.1943 184.536C83.1943 184.958 83.5475 185.234 84.0795 185.234ZM83.9135 185.864C83.0325 185.864 82.4409 185.332 82.4409 184.536C82.4409 183.779 83.024 183.302 84.0455 183.242L85.3138 183.17V182.8C85.3138 182.259 84.9563 181.936 84.3434 181.936C83.7731 181.936 83.4156 182.204 83.3219 182.638H82.6069C82.658 181.872 83.3134 181.285 84.3604 181.285C85.3989 181.285 86.0543 181.847 86.0543 182.728V185.788H85.3521V185.026H85.335C85.0712 185.532 84.5094 185.864 83.9135 185.864ZM86.9949 185.788V181.361H87.6929V182.068H87.7099C87.9568 181.591 88.4292 181.285 89.1144 181.285C90.0848 181.285 90.6466 181.91 90.6466 182.915V185.788H89.906V183.047C89.906 182.332 89.5698 181.94 88.8888 181.94C88.1908 181.94 87.7354 182.434 87.7354 183.183V185.788H86.9949ZM93.2683 185.864C92.1405 185.864 91.3744 184.962 91.3744 183.574C91.3744 182.187 92.1362 181.285 93.2513 181.285C93.8854 181.285 94.3962 181.595 94.66 182.081H94.6771V179.646H95.4176V185.788H94.7111V185.039H94.6983C94.4132 185.549 93.9067 185.864 93.2683 185.864ZM93.4088 181.936C92.6256 181.936 92.1319 182.574 92.1319 183.574C92.1319 184.579 92.6256 185.213 93.4088 185.213C94.1706 185.213 94.6813 184.566 94.6813 183.574C94.6813 182.587 94.1706 181.936 93.4088 181.936ZM100.64 185.788H99.8737V180.336H97.9372V179.646H102.576V180.336H100.64V185.788ZM103.581 185.234C104.279 185.234 104.815 184.745 104.815 184.106V183.745L103.632 183.817C103.036 183.855 102.695 184.119 102.695 184.536C102.695 184.958 103.049 185.234 103.581 185.234ZM103.415 185.864C102.534 185.864 101.942 185.332 101.942 184.536C101.942 183.779 102.525 183.302 103.547 183.242L104.815 183.17V182.8C104.815 182.259 104.457 181.936 103.845 181.936C103.274 181.936 102.917 182.204 102.823 182.638H102.108C102.159 181.872 102.815 181.285 103.862 181.285C104.9 181.285 105.555 181.847 105.555 182.728V185.788H104.853V185.026H104.836C104.572 185.532 104.011 185.864 103.415 185.864ZM108.645 181.285C109.773 181.285 110.539 182.187 110.539 183.574C110.539 184.962 109.777 185.864 108.662 185.864C108.028 185.864 107.518 185.554 107.254 185.068H107.237V187.264H106.496V181.361H107.198V182.11H107.215C107.488 181.612 108.003 181.285 108.645 181.285ZM108.501 185.213C109.288 185.213 109.782 184.579 109.782 183.574C109.782 182.574 109.288 181.936 108.501 181.936C107.743 181.936 107.232 182.591 107.232 183.574C107.232 184.562 107.743 185.213 108.501 185.213ZM113.957 185.788H113.191V179.646H116.919V180.336H113.957V182.447H116.677V183.128H113.957V185.788ZM118.843 185.234C119.541 185.234 120.077 184.745 120.077 184.106V183.745L118.894 183.817C118.298 183.855 117.958 184.119 117.958 184.536C117.958 184.958 118.311 185.234 118.843 185.234ZM118.677 185.864C117.796 185.864 117.204 185.332 117.204 184.536C117.204 183.779 117.787 183.302 118.809 183.242L120.077 183.17V182.8C120.077 182.259 119.72 181.936 119.107 181.936C118.536 181.936 118.179 182.204 118.085 182.638H117.37C117.421 181.872 118.077 181.285 119.124 181.285C120.162 181.285 120.818 181.847 120.818 182.728V185.788H120.115V185.026H120.098C119.835 185.532 119.273 185.864 118.677 185.864ZM125.435 182.813H124.712C124.606 182.332 124.231 181.936 123.58 181.936C122.814 181.936 122.295 182.57 122.295 183.574C122.295 184.604 122.822 185.213 123.588 185.213C124.193 185.213 124.589 184.894 124.716 184.362H125.444C125.329 185.243 124.589 185.864 123.584 185.864C122.358 185.864 121.541 185 121.541 183.574C121.541 182.178 122.354 181.285 123.576 181.285C124.682 181.285 125.342 182.017 125.435 182.813ZM127.9 181.927C127.206 181.927 126.721 182.459 126.674 183.196H129.079C129.062 182.455 128.598 181.927 127.9 181.927ZM129.062 184.519H129.789C129.662 185.294 128.913 185.864 127.947 185.864C126.678 185.864 125.908 184.983 125.908 183.591C125.908 182.217 126.691 181.285 127.912 181.285C129.108 181.285 129.845 182.153 129.845 183.494V183.774H126.67V183.817C126.67 184.664 127.168 185.222 127.964 185.222C128.525 185.222 128.938 184.936 129.062 184.519ZM133.262 185.788H132.496V179.646H133.262V185.788ZM134.454 179.646H136.518C138.34 179.646 139.417 180.782 139.417 182.715C139.417 184.651 138.344 185.788 136.518 185.788H134.454V179.646ZM135.22 180.336V185.098H136.467C137.859 185.098 138.633 184.247 138.633 182.723C138.633 181.187 137.863 180.336 136.467 180.336H135.22ZM146.503 185.788L145.933 185.17C145.413 185.63 144.698 185.89 143.971 185.89C142.758 185.89 141.911 185.175 141.911 184.153C141.911 183.434 142.302 182.881 143.115 182.451C143.238 182.387 143.315 182.344 143.349 182.332C142.8 181.749 142.587 181.353 142.587 180.906C142.587 180.127 143.251 179.544 144.137 179.544C145.039 179.544 145.69 180.119 145.69 180.914C145.69 181.54 145.311 181.995 144.375 182.489L145.894 184.128C146.094 183.753 146.188 183.251 146.188 182.493V182.31H146.894V182.498C146.894 183.434 146.724 184.115 146.388 184.643L147.465 185.788H146.503ZM143.553 182.898C142.919 183.285 142.668 183.63 142.668 184.102C142.668 184.787 143.221 185.251 144.039 185.251C144.588 185.251 145.158 185.03 145.486 184.681L143.758 182.787C143.702 182.813 143.592 182.872 143.553 182.898ZM143.966 182.059C144.703 181.685 144.975 181.378 144.975 180.94C144.975 180.472 144.639 180.144 144.141 180.144C143.656 180.144 143.311 180.48 143.311 180.948C143.311 181.285 143.49 181.583 143.966 182.059ZM149.776 179.646H151.968C153.121 179.646 153.934 180.455 153.934 181.617C153.934 182.783 153.113 183.596 151.959 183.596H150.542V185.788H149.776V179.646ZM150.542 180.327V182.915H151.768C152.644 182.915 153.147 182.434 153.147 181.617C153.147 180.804 152.649 180.327 151.768 180.327H150.542ZM155.777 185.234C156.475 185.234 157.011 184.745 157.011 184.106V183.745L155.828 183.817C155.232 183.855 154.892 184.119 154.892 184.536C154.892 184.958 155.245 185.234 155.777 185.234ZM155.611 185.864C154.73 185.864 154.138 185.332 154.138 184.536C154.138 183.779 154.721 183.302 155.743 183.242L157.011 183.17V182.8C157.011 182.259 156.654 181.936 156.041 181.936C155.47 181.936 155.113 182.204 155.019 182.638H154.304C154.355 181.872 155.011 181.285 156.058 181.285C157.096 181.285 157.752 181.847 157.752 182.728V185.788H157.049V185.026H157.032C156.768 185.532 156.207 185.864 155.611 185.864ZM158.616 182.583C158.616 181.825 159.292 181.285 160.267 181.285C161.182 181.285 161.854 181.829 161.888 182.579H161.182C161.131 182.153 160.786 181.889 160.241 181.889C159.701 181.889 159.343 182.157 159.343 182.544C159.343 182.851 159.577 183.055 160.08 183.183L160.765 183.349C161.659 183.574 161.982 183.898 161.982 184.549C161.982 185.319 161.254 185.864 160.22 185.864C159.25 185.864 158.573 185.336 158.496 184.553H159.237C159.318 185.013 159.667 185.26 160.267 185.26C160.867 185.26 161.237 185.004 161.237 184.604C161.237 184.289 161.054 184.119 160.556 183.987L159.777 183.787C158.999 183.587 158.616 183.187 158.616 182.583ZM162.676 182.583C162.676 181.825 163.353 181.285 164.327 181.285C165.242 181.285 165.915 181.829 165.949 182.579H165.242C165.191 182.153 164.846 181.889 164.302 181.889C163.761 181.889 163.404 182.157 163.404 182.544C163.404 182.851 163.638 183.055 164.14 183.183L164.825 183.349C165.719 183.574 166.042 183.898 166.042 184.549C166.042 185.319 165.315 185.864 164.28 185.864C163.31 185.864 162.633 185.336 162.557 184.553H163.297C163.378 185.013 163.727 185.26 164.327 185.26C164.927 185.26 165.298 185.004 165.298 184.604C165.298 184.289 165.115 184.119 164.617 183.987L163.838 183.787C163.059 183.587 162.676 183.187 162.676 182.583ZM170.49 182.813H169.766C169.66 182.332 169.285 181.936 168.634 181.936C167.868 181.936 167.349 182.57 167.349 183.574C167.349 184.604 167.877 185.213 168.643 185.213C169.247 185.213 169.643 184.894 169.771 184.362H170.498C170.384 185.243 169.643 185.864 168.639 185.864C167.413 185.864 166.596 185 166.596 183.574C166.596 182.178 167.409 181.285 168.63 181.285C169.737 181.285 170.396 182.017 170.49 182.813ZM173.014 185.864C171.788 185.864 170.962 184.983 170.962 183.574C170.962 182.161 171.788 181.285 173.014 181.285C174.235 181.285 175.061 182.161 175.061 183.574C175.061 184.983 174.235 185.864 173.014 185.864ZM173.014 185.213C173.797 185.213 174.308 184.617 174.308 183.574C174.308 182.532 173.797 181.936 173.014 181.936C172.231 181.936 171.716 182.532 171.716 183.574C171.716 184.617 172.231 185.213 173.014 185.213ZM177.487 185.864C176.359 185.864 175.593 184.962 175.593 183.574C175.593 182.187 176.355 181.285 177.47 181.285C178.104 181.285 178.615 181.595 178.879 182.081H178.896V179.646H179.636V185.788H178.93V185.039H178.917C178.632 185.549 178.125 185.864 177.487 185.864ZM177.627 181.936C176.844 181.936 176.35 182.574 176.35 183.574C176.35 184.579 176.844 185.213 177.627 185.213C178.389 185.213 178.9 184.566 178.9 183.574C178.9 182.587 178.389 181.936 177.627 181.936ZM182.411 181.927C181.717 181.927 181.232 182.459 181.185 183.196H183.59C183.573 182.455 183.109 181.927 182.411 181.927ZM183.573 184.519H184.301C184.173 185.294 183.424 185.864 182.458 185.864C181.19 185.864 180.419 184.983 180.419 183.591C180.419 182.217 181.202 181.285 182.424 181.285C183.62 181.285 184.356 182.153 184.356 183.494V183.774H181.181V183.817C181.181 184.664 181.679 185.222 182.475 185.222C183.037 185.222 183.45 184.936 183.573 184.519Z" fill="#20283B"/>
</g>
<rect x="13.6969" y="167.301" width="186.04" height="138.645" rx="12.666" stroke="#0D152A" stroke-opacity="0.08" stroke-width="0.81716"/>
</g>
<rect x="4.04452" y="4.0433" width="206.165" height="444.515" rx="30.8854" stroke="black" stroke-width="3.03791"/>
<rect x="1.26582" y="1.26582" width="211.723" height="450.071" rx="33.6702" stroke="#424242" stroke-width="2.53159"/>
<rect x="72.5146" y="11.2854" width="63.1615" height="18.5229" rx="9.26143" fill="black"/>
<defs>
<filter id="filter0_d_25_7557" x="-8.5026" y="21.7883" width="118.582" height="69.5819" filterUnits="userSpaceOnUse" color-interpolation-filters="sRGB">
<feFlood flood-opacity="0" result="BackgroundImageFix"/>
<feColorMatrix in="SourceAlpha" type="matrix" values="0 0 0 0 0 0 0 0 0 0 0 0 0 0 0 0 0 0 127 0" result="hardAlpha"/>
<feOffset dy="4.35819"/>
<feGaussianBlur stdDeviation="10.8955"/>
<feComposite in2="hardAlpha" operator="out"/>
<feColorMatrix type="matrix" values="0 0 0 0 0 0 0 0 0 0 0 0 0 0 0 0 0 0 0.12 0"/>
<feBlend mode="normal" in2="BackgroundImageFix" result="effect1_dropShadow_25_7557"/>
<feBlend mode="normal" in="SourceGraphic" in2="effect1_dropShadow_25_7557" result="shape"/>
</filter>
<linearGradient id="paint0_linear_25_7557" x1="103.176" y1="155.498" x2="101.692" y2="66.5074" gradientUnits="userSpaceOnUse">
<stop stop-color="#2BB58B"/>
<stop offset="0.504808" stop-color="#1B936F"/>
<stop offset="1" stop-color="#41C89F"/>
</linearGradient>
<clipPath id="clip0_25_7557">
<rect x="4.5719" y="5.44507" width="204.29" height="442.356" rx="20" fill="white"/>
</clipPath>
<clipPath id="clip1_25_7557">
<rect x="13.2883" y="166.892" width="186.857" height="139.462" rx="13.0746" fill="white"/>
</clipPath>
</defs>
</svg>
