<svg width="133" height="42" viewBox="0 0 133 42" fill="none" xmlns="http://www.w3.org/2000/svg">
<g filter="url(#filter0_d_3_182)">
<path d="M19.4588 3.36629C17.3301 5.10662 14.6449 6.3972 11.9694 6.97405C10.495 7.29669 9.32324 7.37491 6.10096 7.37491H3.00562L3.07397 9.15435C3.29855 15.1575 4.48005 20.2709 6.69659 24.8271C9.07913 29.7156 12.7311 33.8123 17.1739 36.5792C18.2089 37.2245 20.113 38.212 20.1814 38.1435C20.2009 38.124 20.2107 30.1556 20.2009 20.4469L20.1716 2.77966L19.4588 3.36629Z" fill="url(#paint0_linear_3_182)"/>
<path d="M23.2369 6.30416V10.4584C23.4359 10.4734 23.6848 10.4891 24.0021 10.5077C25.5894 10.5934 26.463 10.6963 27.6564 10.9307C31.5962 11.714 35.2334 13.4806 38.2482 16.0705C38.5451 16.3278 38.9162 16.6022 39.0704 16.6823C40.0867 17.2025 41.36 16.7566 41.8796 15.6932C42.0281 15.3902 42.0452 15.2987 42.0452 14.8127C42.0452 14.3096 42.0281 14.2353 41.8568 13.8808C41.6969 13.555 41.5713 13.412 41.1031 13.0004C39.8812 11.9427 38.134 10.6906 36.7921 9.91879C33.726 8.15789 30.1859 6.96871 26.6971 6.52276C25.4944 6.37111 24.031 6.28557 23.2369 6.30416Z" fill="url(#paint1_linear_3_182)"/>
<path d="M23.2369 18.8613C23.3206 18.8667 23.4133 18.8721 23.5168 18.8777C27.4508 19.0949 30.4771 20.3299 33.2235 22.8397C33.5204 23.1142 33.9087 23.4057 34.08 23.4915C34.3598 23.6287 34.4568 23.6459 34.965 23.6459C35.496 23.6459 35.5588 23.6344 35.8786 23.4629C36.3011 23.2457 36.6666 22.8626 36.8664 22.4281C36.9977 22.148 37.0206 22.0279 37.0206 21.5877C37.0206 20.8501 36.8378 20.49 36.1184 19.8096C32.801 16.6823 28.3758 14.8413 23.8594 14.7213C23.604 14.7155 23.401 14.713 23.2369 14.7145L23.2369 18.8613Z" fill="url(#paint2_linear_3_182)"/>
<path d="M23.237 23.1105C23.237 23.3107 23.2369 27.2716 23.2369 27.2716C23.2802 27.2751 23.3258 27.2786 23.374 27.282C24.4931 27.3621 25.1898 27.5393 26.0519 27.9738C26.6286 28.2654 26.897 28.4483 27.4794 28.9515C28.1303 29.5175 28.4329 29.649 29.0839 29.649C29.5292 29.649 29.6434 29.6261 29.946 29.4889C30.3629 29.2945 30.7568 28.9114 30.9795 28.4769C31.1223 28.1968 31.1394 28.1053 31.1394 27.5908C31.1394 26.8189 31.0081 26.5502 30.3172 25.8927C28.4729 24.1433 25.8464 23.0913 23.374 23.1085C23.3285 23.1085 23.2826 23.1092 23.237 23.1105Z" fill="url(#paint3_linear_3_182)"/>
<path d="M23.2313 35.6521C23.2313 35.6521 23.237 31.9702 23.237 31.5014C23.5727 31.5098 23.9164 31.5879 24.1335 31.7015C25.7208 32.519 25.7094 34.7087 24.1106 35.4863C23.8137 35.6292 23.711 35.6463 23.2313 35.6521Z" fill="url(#paint4_linear_3_182)"/>
</g>
<path d="M60.0206 11.1439H67.4728C71.2306 11.1439 73.8204 13.6449 73.8204 17.4154C73.8204 21.1732 71.1417 23.6869 67.2823 23.6869H63.8546V29.4632H60.0206V11.1439ZM63.8546 14.1781V20.6908H66.4445C68.6407 20.6908 69.923 19.5228 69.923 17.4281C69.923 15.3461 68.6534 14.1781 66.4572 14.1781H63.8546ZM75.7755 29.4632V15.8539H79.3556V18.3041H79.4318C79.9142 16.5775 81.0695 15.6381 82.6691 15.6381C83.1007 15.6381 83.4689 15.7015 83.7228 15.7777V19.0404C83.4181 18.9134 82.9103 18.8246 82.3771 18.8246C80.549 18.8246 79.4825 19.9418 79.4825 21.8588V29.4632H75.7755ZM91.0607 29.7552C86.9474 29.7552 84.3195 27.1146 84.3195 22.6459C84.3195 18.2406 86.9855 15.5619 91.0607 15.5619C95.1359 15.5619 97.8019 18.2279 97.8019 22.6459C97.8019 27.1273 95.174 29.7552 91.0607 29.7552ZM91.0607 26.9242C92.8761 26.9242 94.0314 25.3881 94.0314 22.6586C94.0314 19.9545 92.8634 18.3929 91.0607 18.3929C89.2579 18.3929 88.0773 19.9545 88.0773 22.6586C88.0773 25.3881 89.2325 26.9242 91.0607 26.9242ZM105.013 24.7406H104.937L102.385 29.4632H98.4874L102.753 22.684L98.5128 15.8539H102.69L105.14 20.4496H105.216L107.628 15.8539H111.665L107.412 22.5824L111.627 29.4632H107.603L105.013 24.7406ZM113.239 29.4632V11.1439H116.946V29.4632H113.239ZM121.187 34.5033C121.06 34.5033 119.904 34.4906 119.79 34.4652V31.6088C119.904 31.6341 120.577 31.6341 120.717 31.6341C122.075 31.6341 122.748 31.2025 123.002 30.1234C123.002 30.0726 123.142 29.5267 123.116 29.4759L118.381 15.8539H122.456L125.351 26.4925H125.414L128.309 15.8539H132.219L127.534 29.7679C126.366 33.2591 124.665 34.5033 121.187 34.5033Z" fill="url(#paint5_linear_3_182)"/>
<defs>
<filter id="filter0_d_3_182" x="-3.45707e-05" y="-3.04431e-05" width="45.0509" height="41.3786" filterUnits="userSpaceOnUse" color-interpolation-filters="sRGB">
<feFlood flood-opacity="0" result="BackgroundImageFix"/>
<feColorMatrix in="SourceAlpha" type="matrix" values="0 0 0 0 0 0 0 0 0 0 0 0 0 0 0 0 0 0 127 0" result="hardAlpha"/>
<feOffset dy="0.225989"/>
<feGaussianBlur stdDeviation="1.50282"/>
<feComposite in2="hardAlpha" operator="out"/>
<feColorMatrix type="matrix" values="0 0 0 0 0 0 0 0 0 0 0 0 0 0 0 0 0 0 0.25 0"/>
<feBlend mode="normal" in2="BackgroundImageFix" result="effect1_dropShadow_3_182"/>
<feBlend mode="normal" in="SourceGraphic" in2="effect1_dropShadow_3_182" result="shape"/>
</filter>
<linearGradient id="paint0_linear_3_182" x1="11.6052" y1="2.77966" x2="13.8813" y2="56.8192" gradientUnits="userSpaceOnUse">
<stop stop-color="white"/>
<stop offset="1" stop-color="#14896D"/>
</linearGradient>
<linearGradient id="paint1_linear_3_182" x1="32.6411" y1="6.30164" x2="32.8283" y2="22.5216" gradientUnits="userSpaceOnUse">
<stop stop-color="white"/>
<stop offset="1" stop-color="#14896D"/>
</linearGradient>
<linearGradient id="paint2_linear_3_182" x1="30.1288" y1="14.7141" x2="30.3102" y2="28.3833" gradientUnits="userSpaceOnUse">
<stop stop-color="white"/>
<stop offset="1" stop-color="#14896D"/>
</linearGradient>
<linearGradient id="paint3_linear_3_182" x1="27.1882" y1="23.1082" x2="27.3578" y2="33.117" gradientUnits="userSpaceOnUse">
<stop stop-color="white"/>
<stop offset="1" stop-color="#14896D"/>
</linearGradient>
<linearGradient id="paint4_linear_3_182" x1="25.3221" y1="33.5706" x2="24.5501" y2="37.8434" gradientUnits="userSpaceOnUse">
<stop stop-color="white"/>
<stop offset="1" stop-color="#14896D"/>
</linearGradient>
<linearGradient id="paint5_linear_3_182" x1="94.9972" y1="9.96325" x2="94.9972" y2="29.9632" gradientUnits="userSpaceOnUse">
<stop stop-color="#8BCDBB"/>
<stop offset="0.528846" stop-color="#E3F5F1"/>
<stop offset="0.956731" stop-color="#8AC4B6"/>
</linearGradient>
</defs>
</svg>
