<svg width="40" height="40" viewBox="0 0 40 40" fill="none" xmlns="http://www.w3.org/2000/svg">
<path d="M8 12.5C8 12.1022 8.15804 11.7206 8.43934 11.4393C8.72064 11.158 9.10218 11 9.5 11H30.5C30.8978 11 31.2794 11.158 31.5607 11.4393C31.842 11.7206 32 12.1022 32 12.5C32 12.8978 31.842 13.2794 31.5607 13.5607C31.2794 13.842 30.8978 14 30.5 14H9.5C9.10218 14 8.72064 13.842 8.43934 13.5607C8.15804 13.2794 8 12.8978 8 12.5ZM8 20C8 19.6022 8.15804 19.2206 8.43934 18.9393C8.72064 18.658 9.10218 18.5 9.5 18.5H30.5C30.8978 18.5 31.2794 18.658 31.5607 18.9393C31.842 19.2206 32 19.6022 32 20C32 20.3978 31.842 20.7794 31.5607 21.0607C31.2794 21.342 30.8978 21.5 30.5 21.5H9.5C9.10218 21.5 8.72064 21.342 8.43934 21.0607C8.15804 20.7794 8 20.3978 8 20ZM8 27.5C8 27.1022 8.15804 26.7206 8.43934 26.4393C8.72064 26.158 9.10218 26 9.5 26H30.5C30.8978 26 31.2794 26.158 31.5607 26.4393C31.842 26.7206 32 27.1022 32 27.5C32 27.8978 31.842 28.2794 31.5607 28.5607C31.2794 28.842 30.8978 29 30.5 29H9.5C9.10218 29 8.72064 28.842 8.43934 28.5607C8.15804 28.2794 8 27.8978 8 27.5Z" fill="white"/>
</svg>
