<svg width="40" height="40" viewBox="0 0 40 40" fill="none" xmlns="http://www.w3.org/2000/svg">
<path d="M14.3856 12.3927L20 18.0068L25.5853 12.4218C25.7087 12.2905 25.8573 12.1854 26.0222 12.113C26.1872 12.0405 26.3651 12.0021 26.5453 12C26.931 12 27.301 12.1532 27.5738 12.426C27.8465 12.6988 27.9998 13.0687 27.9998 13.4544C28.0032 13.6328 27.9701 13.8099 27.9025 13.975C27.835 14.14 27.7345 14.2896 27.607 14.4144L21.949 19.9994L27.607 25.6572C27.8468 25.8917 27.9873 26.2093 27.9998 26.5444C27.9998 26.9302 27.8465 27.3001 27.5738 27.5729C27.301 27.8456 26.931 27.9989 26.5453 27.9989C26.3599 28.0065 26.1749 27.9756 26.0022 27.908C25.8294 27.8404 25.6726 27.7376 25.5417 27.6062L20 21.992L14.4002 27.5916C14.2773 27.7185 14.1304 27.8199 13.9682 27.8898C13.8059 27.9597 13.6314 27.9967 13.4547 27.9989C13.069 27.9989 12.699 27.8456 12.4263 27.5729C12.1535 27.3001 12.0002 26.9302 12.0002 26.5444C11.9968 26.3661 12.0299 26.189 12.0975 26.0239C12.165 25.8588 12.2655 25.7093 12.393 25.5845L18.051 19.9994L12.393 14.3416C12.1532 14.1071 12.0127 13.7896 12.0002 13.4544C12.0002 13.0687 12.1535 12.6988 12.4263 12.426C12.699 12.1532 13.069 12 13.4547 12C13.8038 12.0044 14.1384 12.1454 14.3856 12.3927Z" fill="white"/>
</svg>
