<svg width="241" height="295" viewBox="0 0 241 295" fill="none" xmlns="http://www.w3.org/2000/svg">
<g clip-path="url(#clip0_18_3079)">
<rect x="19.0302" y="23" width="204.29" height="442.356" rx="24" fill="#F2F2F2"/>
<path d="M48.0595 35.5939C48.4092 35.5939 48.7408 35.6587 49.0543 35.7883C49.3678 35.9149 49.6452 36.1139 49.8864 36.3852C50.1306 36.6535 50.322 36.9987 50.4607 37.4208C50.5993 37.8398 50.6687 38.3448 50.6687 38.9357V38.9447C50.6687 39.6773 50.5632 40.3043 50.3521 40.8259C50.1411 41.3474 49.8381 41.7484 49.4432 42.0287C49.0513 42.3061 48.5825 42.4448 48.0369 42.4448C47.6359 42.4448 47.2741 42.3724 46.9516 42.2277C46.632 42.08 46.3667 41.878 46.1557 41.6218C45.9477 41.3625 45.8075 41.0671 45.7351 40.7354L45.7261 40.6857H46.8702L46.8883 40.7309C46.9455 40.8817 47.0269 41.0143 47.1324 41.1289C47.241 41.2434 47.3706 41.3324 47.5213 41.3957C47.6751 41.456 47.8469 41.4861 48.0369 41.4861C48.3805 41.4861 48.6609 41.3851 48.878 41.1831C49.098 40.9781 49.2623 40.7053 49.3709 40.3646C49.4824 40.021 49.5457 39.6411 49.5608 39.2251C49.5638 39.1799 49.5653 39.1361 49.5653 39.0939C49.5653 39.0487 49.5653 39.005 49.5653 38.9628L49.3618 37.873C49.3618 37.6258 49.3045 37.4012 49.19 37.1992C49.0754 36.9972 48.9202 36.8374 48.7242 36.7199C48.5313 36.6023 48.3127 36.5435 48.0685 36.5435C47.8334 36.5435 47.6178 36.6008 47.4219 36.7153C47.2259 36.8299 47.0691 36.9867 46.9516 37.1856C46.834 37.3816 46.7752 37.6017 46.7752 37.8459V37.8549C46.7752 38.1081 46.831 38.3327 46.9425 38.5287C47.0541 38.7216 47.2063 38.8739 47.3992 38.9854C47.5922 39.097 47.8123 39.1527 48.0595 39.1527C48.3067 39.1527 48.5282 39.0985 48.7242 38.9899C48.9202 38.8814 49.0754 38.7307 49.19 38.5377C49.3045 38.3448 49.3618 38.1262 49.3618 37.882V37.873H49.6331V39.0759H49.4749C49.3965 39.2477 49.2804 39.4075 49.1267 39.5552C48.9729 39.7029 48.783 39.822 48.5569 39.9124C48.3338 40.0029 48.0715 40.0481 47.7701 40.0481C47.354 40.0481 46.9862 39.9546 46.6667 39.7677C46.3471 39.5808 46.0954 39.3246 45.9115 38.999C45.7306 38.6734 45.6402 38.3056 45.6402 37.8956V37.8866C45.6402 37.4434 45.7427 37.05 45.9477 36.7063C46.1557 36.3596 46.4421 36.0883 46.8069 35.8923C47.1746 35.6934 47.5922 35.5939 48.0595 35.5939ZM52.7217 41.4047C52.5167 41.4047 52.3449 41.3369 52.2062 41.2012C52.0705 41.0625 52.0027 40.8937 52.0027 40.6947C52.0027 40.4928 52.0705 40.3239 52.2062 40.1883C52.3449 40.0496 52.5167 39.9803 52.7217 39.9803C52.9297 39.9803 53.1015 40.0496 53.2372 40.1883C53.3729 40.3239 53.4407 40.4928 53.4407 40.6947C53.4407 40.8937 53.3729 41.0625 53.2372 41.2012C53.1015 41.3369 52.9297 41.4047 52.7217 41.4047ZM52.7217 38.0493C52.5167 38.0493 52.3449 37.9815 52.2062 37.8459C52.0705 37.7072 52.0027 37.5384 52.0027 37.3394C52.0027 37.1374 52.0705 36.9686 52.2062 36.8329C52.3449 36.6942 52.5167 36.6249 52.7217 36.6249C52.9297 36.6249 53.1015 36.6942 53.2372 36.8329C53.3729 36.9686 53.4407 37.1374 53.4407 37.3394C53.4407 37.5384 53.3729 37.7072 53.2372 37.8459C53.1015 37.9815 52.9297 38.0493 52.7217 38.0493ZM57.9401 42.282V41.0294H54.7476V40.0752C54.9194 39.7828 55.0912 39.4889 55.2631 39.1934C55.4379 38.898 55.6143 38.6041 55.7922 38.3116C55.973 38.0162 56.1524 37.7253 56.3303 37.4389C56.5112 37.1495 56.6905 36.8646 56.8684 36.5842C57.0493 36.3008 57.2302 36.025 57.411 35.7567H59.0526V40.0662H59.9343V41.0294H59.0526V42.282H57.9401ZM55.8329 40.0933H57.9582V36.6882H57.8904C57.7577 36.8932 57.6206 37.1042 57.4789 37.3213C57.3402 37.5384 57.2 37.7599 57.0583 37.986C56.9166 38.2121 56.7765 38.4398 56.6378 38.6689C56.4991 38.895 56.3619 39.1226 56.2263 39.3517C56.0906 39.5778 55.9595 39.8024 55.8329 40.0255V40.0933ZM62.634 42.282V36.9053H62.5526L60.9292 38.0493V36.955L62.634 35.7567H63.7962V42.282H62.634Z" fill="#20283B"/>
<rect opacity="0.35" x="192.251" y="36.0932" width="13.0746" height="6.53728" rx="2.07014" stroke="#20283B" stroke-width="0.544773"/>
<path opacity="0.4" d="M206.142 38.4255V40.6457C206.581 40.4577 206.866 40.0203 206.866 39.5356C206.866 39.051 206.581 38.6136 206.142 38.4255Z" fill="#20283B"/>
<rect x="193.068" y="36.9104" width="11.4402" height="4.90296" rx="1.36193" fill="#20283B"/>
<path fill-rule="evenodd" clip-rule="evenodd" d="M183.409 37.5118C184.764 37.5118 186.067 38.0142 187.049 38.9149C187.123 38.9845 187.241 38.9836 187.314 38.913L188.021 38.2247C188.058 38.1888 188.078 38.1403 188.078 38.0898C188.078 38.0393 188.057 37.991 188.019 37.9556C185.442 35.5724 181.376 35.5724 178.799 37.9556C178.761 37.991 178.74 38.0393 178.74 38.0898C178.739 38.1403 178.76 38.1888 178.797 38.2247L179.504 38.913C179.577 38.9837 179.695 38.9846 179.769 38.9149C180.751 38.0141 182.054 37.5118 183.409 37.5118ZM183.407 39.8109C184.147 39.8108 184.86 40.0896 185.408 40.593C185.482 40.6645 185.599 40.6629 185.671 40.5896L186.372 39.8708C186.409 39.8331 186.43 39.782 186.429 39.7288C186.429 39.6757 186.407 39.625 186.369 39.5881C184.7 38.0132 182.116 38.0132 180.446 39.5881C180.409 39.625 180.387 39.6757 180.387 39.7289C180.386 39.7821 180.407 39.8332 180.444 39.8708L181.145 40.5896C181.217 40.6629 181.334 40.6645 181.408 40.593C181.956 40.0899 182.668 39.8112 183.407 39.8109ZM184.783 41.3327C184.784 41.3901 184.763 41.4454 184.727 41.4857L183.541 42.8229C183.506 42.8622 183.459 42.8843 183.409 42.8843C183.36 42.8843 183.312 42.8622 183.278 42.8229L182.092 41.4857C182.055 41.4454 182.035 41.3901 182.036 41.3327C182.037 41.2753 182.059 41.2209 182.097 41.1825C182.855 40.4667 183.964 40.4667 184.721 41.1825C184.759 41.221 184.781 41.2753 184.783 41.3327Z" fill="#20283B"/>
<path fill-rule="evenodd" clip-rule="evenodd" d="M174.654 36.7372C174.654 36.3924 174.394 36.1128 174.073 36.1128H173.492C173.171 36.1128 172.911 36.3924 172.911 36.7372V42.149C172.911 42.4938 173.171 42.7734 173.492 42.7734H174.073C174.394 42.7734 174.654 42.4938 174.654 42.149V36.7372ZM170.604 37.4449H171.185C171.506 37.4449 171.767 37.7312 171.767 38.0843V42.134C171.767 42.4871 171.506 42.7734 171.185 42.7734H170.604C170.283 42.7734 170.023 42.4871 170.023 42.134V38.0843C170.023 37.7312 170.283 37.4449 170.604 37.4449ZM168.245 38.888H167.663C167.343 38.888 167.082 39.178 167.082 39.5356V42.1259C167.082 42.4835 167.343 42.7734 167.663 42.7734H168.245C168.565 42.7734 168.826 42.4835 168.826 42.1259V39.5356C168.826 39.178 168.565 38.888 168.245 38.888ZM165.357 40.2202H164.776C164.455 40.2202 164.195 40.506 164.195 40.8585V42.1351C164.195 42.4876 164.455 42.7734 164.776 42.7734H165.357C165.678 42.7734 165.938 42.4876 165.938 42.1351V40.8585C165.938 40.506 165.678 40.2202 165.357 40.2202Z" fill="#20283B"/>
<g filter="url(#filter0_d_18_3079)">
<path d="M27.7465 69.7759C27.7465 62.5962 33.5668 56.7759 40.7465 56.7759H106.747C113.926 56.7759 119.747 62.5962 119.747 69.7759C119.747 76.9556 113.926 82.7759 106.747 82.7759H40.7465C33.5668 82.7759 27.7465 76.9556 27.7465 69.7759Z" fill="white" fill-opacity="0.65" shape-rendering="crispEdges"/>
<path d="M27.7465 69.7759C27.7465 62.5962 33.5668 56.7759 40.7465 56.7759H106.747C113.926 56.7759 119.747 62.5962 119.747 69.7759C119.747 76.9556 113.926 82.7759 106.747 82.7759H40.7465C33.5668 82.7759 27.7465 76.9556 27.7465 69.7759Z" fill="#DDDDDD" style="mix-blend-mode:color-burn" shape-rendering="crispEdges"/>
<path d="M27.7465 69.7759C27.7465 62.5962 33.5668 56.7759 40.7465 56.7759H106.747C113.926 56.7759 119.747 62.5962 119.747 69.7759C119.747 76.9556 113.926 82.7759 106.747 82.7759H40.7465C33.5668 82.7759 27.7465 76.9556 27.7465 69.7759Z" fill="#F7F7F7" style="mix-blend-mode:darken" shape-rendering="crispEdges"/>
</g>
<path d="M27.7465 69.7759C27.7465 62.5962 33.5668 56.7759 40.7465 56.7759H106.747C113.926 56.7759 119.747 62.5962 119.747 69.7759C119.747 76.9556 113.926 82.7759 106.747 82.7759H40.7465C33.5668 82.7759 27.7465 76.9556 27.7465 69.7759Z" fill="black" fill-opacity="0.01"/>
<path d="M42.7059 66.0947L38.9501 69.8506L42.7059 73.6064C42.8655 73.7659 42.8655 74.0246 42.7059 74.1842C42.5463 74.3437 42.2877 74.3437 42.1281 74.1842L38.0834 70.1394C38.0067 70.0628 37.9637 69.9589 37.9637 69.8506C37.9637 69.7421 38.0067 69.6383 38.0834 69.5616L42.1281 65.5169C42.148 65.4969 42.1695 65.4795 42.1922 65.4645C42.3508 65.3598 42.5663 65.3773 42.7059 65.5169C42.8655 65.6764 42.8655 65.9351 42.7059 66.0947Z" fill="#20283B"/>
<path d="M59.1575 68.2198L57.8339 72.8503H56.9316L55.276 66.7089H56.2676L57.404 71.5182H57.4381L58.7361 66.7089H59.6214L60.9238 71.5182H60.9578L62.0942 66.7089H63.0858L61.426 72.8503H60.5279L59.2001 68.2198H59.1575ZM63.7625 72.8503V68.373H64.6818V72.8503H63.7625ZM64.2222 67.7176C63.9285 67.7176 63.6902 67.4835 63.6902 67.1941C63.6902 66.9004 63.9285 66.6663 64.2222 66.6663C64.5201 66.6663 64.7584 66.9004 64.7584 67.1941C64.7584 67.4835 64.5201 67.7176 64.2222 67.7176ZM68.4527 70.7734H65.6607V69.9435H68.4527V70.7734ZM70.4658 72.8503H69.5124V66.7089H73.3471V67.5303H70.4658V69.4753H73.1045V70.2797H70.4658V72.8503ZM74.0962 72.8503V68.373H75.0155V72.8503H74.0962ZM74.5559 67.7176C74.2622 67.7176 74.0238 67.4835 74.0238 67.1941C74.0238 66.9004 74.2622 66.6663 74.5559 66.6663C74.8538 66.6663 75.0921 66.9004 75.0921 67.1941C75.0921 67.4835 74.8538 67.7176 74.5559 67.7176ZM77.5649 71.1394H78.5055C78.5736 71.748 79.1651 72.1481 79.9738 72.1481C80.7484 72.1481 81.3059 71.748 81.3059 71.199C81.3059 70.7223 80.9697 70.4372 80.1738 70.2414L79.3779 70.0499C78.2501 69.7775 77.7266 69.2497 77.7266 68.3943C77.7266 67.3345 78.6502 66.6067 79.961 66.6067C81.2591 66.6067 82.1486 67.3345 82.1784 68.3943H81.2506C81.1953 67.7814 80.6888 67.4111 79.9483 67.4111C79.2077 67.4111 78.7012 67.7857 78.7012 68.3304C78.7012 68.7645 79.0247 69.0199 79.8163 69.2157L80.493 69.3817C81.7528 69.6796 82.2763 70.1861 82.2763 71.0841C82.2763 72.2332 81.3613 72.9525 79.9057 72.9525C78.5438 72.9525 77.6245 72.2502 77.5649 71.1394ZM84.8938 69.0327C84.2511 69.0327 83.8 69.5221 83.7532 70.1988H85.9918C85.9706 69.5136 85.5364 69.0327 84.8938 69.0327ZM85.9876 71.5352H86.8601C86.7324 72.3524 85.9578 72.9355 84.9321 72.9355C83.617 72.9355 82.8211 72.0459 82.8211 70.6329C82.8211 69.2285 83.6297 68.2921 84.8938 68.2921C86.1365 68.2921 86.9111 69.1689 86.9111 70.5265V70.8415H83.7489V70.8968C83.7489 71.6757 84.2171 72.1907 84.9534 72.1907C85.4769 72.1907 85.8642 71.9268 85.9876 71.5352ZM91.4694 69.9137H90.5926C90.499 69.437 90.1415 69.0582 89.5414 69.0582C88.8306 69.0582 88.3625 69.6498 88.3625 70.6117C88.3625 71.5948 88.8349 72.1651 89.5499 72.1651C90.1159 72.1651 90.4862 71.8544 90.5926 71.3352H91.4779C91.38 72.2885 90.6182 72.9355 89.5414 72.9355C88.2603 72.9355 87.4261 72.0587 87.4261 70.6117C87.4261 69.1901 88.2603 68.2921 89.5329 68.2921C90.6863 68.2921 91.3885 69.0327 91.4694 69.9137ZM95.968 68.373V72.8503H95.087V72.0928H95.0657C94.8189 72.629 94.3635 72.9312 93.6782 72.9312C92.7036 72.9312 92.1078 72.2971 92.1078 71.2714V68.373H93.0271V71.0926C93.0271 71.7736 93.3505 72.1396 93.9847 72.1396C94.6486 72.1396 95.0487 71.6799 95.0487 70.9819V68.373H95.968ZM96.8788 72.8503V68.373H97.7555V69.1348H97.7768C97.9258 68.6113 98.3258 68.3006 98.8536 68.3006C98.9855 68.3006 99.1004 68.3219 99.1685 68.3347V69.1901C99.0962 69.1604 98.9345 69.1391 98.7557 69.1391C98.1641 69.1391 97.7981 69.5349 97.7981 70.169V72.8503H96.8788ZM99.7686 72.8503V68.373H100.688V72.8503H99.7686ZM100.228 67.7176C99.9346 67.7176 99.6963 67.4835 99.6963 67.1941C99.6963 66.9004 99.9346 66.6663 100.228 66.6663C100.526 66.6663 100.765 66.9004 100.765 67.1941C100.765 67.4835 100.526 67.7176 100.228 67.7176ZM101.897 67.3132H102.82V68.373H103.671V69.1008H102.82V71.5693C102.82 71.9566 102.99 72.1311 103.365 72.1311C103.459 72.1311 103.608 72.1226 103.667 72.1098V72.8376C103.565 72.8631 103.361 72.8801 103.156 72.8801C102.25 72.8801 101.897 72.5354 101.897 71.6714V69.1008H101.245V68.373H101.897V67.3132ZM104.872 74.5187C104.799 74.5187 104.565 74.5102 104.497 74.4974V73.7526C104.565 73.7696 104.718 73.7696 104.795 73.7696C105.225 73.7696 105.45 73.5909 105.591 73.1312C105.591 73.1227 105.672 72.8589 105.672 72.8546L104.054 68.373H105.05L106.187 72.0162H106.2L107.336 68.373H108.306L106.625 73.0844C106.242 74.1697 105.804 74.5187 104.872 74.5187Z" fill="#20283B" style="mix-blend-mode:plus-darker"/>
<path d="M103.555 227.028L102.669 230.073H102.217L101.172 226.235H101.672L102.441 229.369H102.462L103.326 226.235H103.81L104.675 229.369H104.696L105.465 226.235H105.965L104.92 230.073H104.468L103.582 227.028H103.555ZM106.409 230.073V227.307H106.872V230.073H106.409ZM106.641 226.842C106.484 226.842 106.353 226.711 106.353 226.554C106.353 226.395 106.484 226.267 106.641 226.267C106.8 226.267 106.931 226.395 106.931 226.554C106.931 226.711 106.8 226.842 106.641 226.842ZM109.237 228.733H107.492V228.302H109.237V228.733ZM110.383 230.073H109.905V226.235H112.235V226.666H110.383V227.985H112.083V228.411H110.383V230.073ZM112.735 230.073V227.307H113.198V230.073H112.735ZM112.966 226.842C112.809 226.842 112.679 226.711 112.679 226.554C112.679 226.395 112.809 226.267 112.966 226.267C113.126 226.267 113.256 226.395 113.256 226.554C113.256 226.711 113.126 226.842 112.966 226.842ZM116.592 230.137C115.533 230.137 114.863 229.369 114.863 228.153C114.863 226.948 115.541 226.171 116.592 226.171C117.427 226.171 118.063 226.679 118.185 227.445H117.701C117.579 226.943 117.14 226.613 116.592 226.613C115.842 226.613 115.355 227.219 115.355 228.153C115.355 229.095 115.836 229.696 116.595 229.696C117.158 229.696 117.563 229.424 117.701 228.956H118.185C118.01 229.714 117.44 230.137 116.592 230.137ZM119.826 230.121C119.06 230.121 118.544 229.571 118.544 228.69C118.544 227.807 119.06 227.259 119.826 227.259C120.59 227.259 121.106 227.807 121.106 228.69C121.106 229.571 120.59 230.121 119.826 230.121ZM119.826 229.714C120.316 229.714 120.635 229.342 120.635 228.69C120.635 228.039 120.316 227.666 119.826 227.666C119.337 227.666 119.015 228.039 119.015 228.69C119.015 229.342 119.337 229.714 119.826 229.714ZM121.574 230.073V227.307H122.01V227.749H122.021C122.175 227.451 122.471 227.259 122.899 227.259C123.505 227.259 123.856 227.65 123.856 228.278V230.073H123.394V228.36C123.394 227.914 123.183 227.669 122.758 227.669C122.322 227.669 122.037 227.977 122.037 228.446V230.073H121.574ZM124.447 230.073V227.307H124.883V227.749H124.894C125.048 227.451 125.343 227.259 125.772 227.259C126.378 227.259 126.729 227.65 126.729 228.278V230.073H126.266V228.36C126.266 227.914 126.056 227.669 125.631 227.669C125.194 227.669 124.91 227.977 124.91 228.446V230.073H124.447ZM128.429 227.661C127.995 227.661 127.692 227.993 127.663 228.454H129.166C129.155 227.991 128.865 227.661 128.429 227.661ZM129.155 229.281H129.61C129.53 229.765 129.062 230.121 128.458 230.121C127.666 230.121 127.184 229.571 127.184 228.701C127.184 227.842 127.674 227.259 128.437 227.259C129.184 227.259 129.645 227.802 129.645 228.64V228.815H127.66V228.842C127.66 229.371 127.972 229.72 128.469 229.72C128.82 229.72 129.078 229.541 129.155 229.281ZM132.411 228.214H131.959C131.892 227.914 131.658 227.666 131.251 227.666C130.773 227.666 130.448 228.063 130.448 228.69C130.448 229.334 130.778 229.714 131.257 229.714C131.634 229.714 131.882 229.515 131.962 229.182H132.416C132.345 229.733 131.882 230.121 131.254 230.121C130.488 230.121 129.977 229.581 129.977 228.69C129.977 227.818 130.485 227.259 131.249 227.259C131.94 227.259 132.353 227.717 132.411 228.214ZM132.991 226.639H133.454V227.307H133.991V227.687H133.454V229.331C133.454 229.584 133.56 229.698 133.797 229.698C133.85 229.698 133.957 229.69 133.988 229.685V230.073C133.933 230.087 133.805 230.095 133.696 230.095C133.188 230.095 132.991 229.887 132.991 229.355V227.687H132.579V227.307H132.991V226.639ZM135.515 227.661C135.082 227.661 134.779 227.993 134.749 228.454H136.252C136.242 227.991 135.952 227.661 135.515 227.661ZM136.242 229.281H136.696C136.617 229.765 136.148 230.121 135.545 230.121C134.752 230.121 134.27 229.571 134.27 228.701C134.27 227.842 134.76 227.259 135.523 227.259C136.271 227.259 136.731 227.802 136.731 228.64V228.815H134.747V228.842C134.747 229.371 135.058 229.72 135.555 229.72C135.906 229.72 136.164 229.541 136.242 229.281ZM138.247 230.121C137.542 230.121 137.063 229.557 137.063 228.69C137.063 227.823 137.54 227.259 138.237 227.259C138.633 227.259 138.952 227.453 139.117 227.757H139.128V226.235H139.59V230.073H139.149V229.605H139.141C138.963 229.925 138.646 230.121 138.247 230.121ZM138.335 227.666C137.846 227.666 137.537 228.065 137.537 228.69C137.537 229.318 137.846 229.714 138.335 229.714C138.811 229.714 139.13 229.31 139.13 228.69C139.13 228.073 138.811 227.666 138.335 227.666ZM140.607 230.1C140.436 230.1 140.303 229.967 140.303 229.797C140.303 229.627 140.436 229.494 140.607 229.494C140.777 229.494 140.91 229.627 140.91 229.797C140.91 229.967 140.777 230.1 140.607 230.1ZM140.607 228.142C140.436 228.142 140.303 228.009 140.303 227.839C140.303 227.669 140.436 227.536 140.607 227.536C140.777 227.536 140.91 227.669 140.91 227.839C140.91 228.009 140.777 228.142 140.607 228.142Z" fill="#20283B"/>
<path d="M91.4094 238.755V243.633C91.4094 244.729 92.101 245.501 93.3247 245.501C94.5483 245.501 95.2452 244.729 95.2452 243.633V238.755H96.4316V243.734C96.4316 245.389 95.2505 246.559 93.3247 246.559C91.3988 246.559 90.2177 245.389 90.2177 243.734V238.755H91.4094ZM97.8467 238.755H100.725C102.214 238.755 103.252 239.782 103.252 241.277C103.252 242.777 102.193 243.809 100.688 243.809H99.0384V246.432H97.8467V238.755ZM99.0384 239.76V242.809H100.406C101.443 242.809 102.034 242.25 102.034 241.282C102.034 240.314 101.443 239.76 100.411 239.76H99.0384ZM107.535 246.559C105.38 246.559 104.018 245.038 104.018 242.591C104.018 240.159 105.391 238.627 107.535 238.627C109.274 238.627 110.588 239.696 110.79 241.298H109.609C109.397 240.314 108.577 239.67 107.535 239.67C106.141 239.67 105.236 240.814 105.236 242.591C105.236 244.383 106.13 245.517 107.54 245.517C108.609 245.517 109.37 244.969 109.609 244.043H110.796C110.503 245.628 109.301 246.559 107.535 246.559ZM115.057 243.835H111.567V242.798H115.057V243.835ZM116.206 241.005C116.206 239.622 117.318 238.611 118.845 238.611C120.308 238.611 121.399 239.542 121.399 240.76C121.399 241.654 120.92 242.319 119.797 243.468L117.877 245.4V245.426H121.521V246.432H116.27V245.623L119.042 242.798C119.978 241.824 120.223 241.42 120.223 240.819C120.223 240.138 119.606 239.595 118.808 239.595C117.967 239.595 117.334 240.202 117.334 241V241.016H116.206V241.005ZM124.521 246.432V239.936H124.495L122.489 241.362V240.191L124.511 238.755H125.687V246.432H124.521ZM131.209 246.432V244.915H127.368V243.873C128.027 242.633 128.9 241.255 130.629 238.755H132.353V243.915H133.406V244.915H132.353V246.432H131.209ZM128.48 243.905V243.931H131.219V239.675H131.198C129.868 241.596 129.091 242.793 128.48 243.905ZM135.997 242.958V242.021H136.922C137.752 242.021 138.322 241.5 138.322 240.776C138.322 240.064 137.832 239.59 136.922 239.59C136.093 239.59 135.539 240.069 135.47 240.824H134.348C134.438 239.478 135.454 238.611 136.976 238.611C138.428 238.611 139.487 239.436 139.487 240.617C139.487 241.574 138.859 242.261 137.907 242.431V242.452C139.061 242.532 139.806 243.24 139.806 244.314C139.806 245.655 138.588 246.575 136.986 246.575C135.332 246.575 134.268 245.666 134.193 244.341H135.337C135.412 245.075 136.018 245.58 136.986 245.58C137.923 245.58 138.593 245.048 138.593 244.298C138.593 243.468 137.965 242.958 136.954 242.958H135.997ZM140.859 241.005C140.859 239.622 141.971 238.611 143.498 238.611C144.961 238.611 146.052 239.542 146.052 240.76C146.052 241.654 145.573 242.319 144.45 243.468L142.53 245.4V245.426H146.174V246.432H140.923V245.623L143.695 242.798C144.631 241.824 144.876 241.42 144.876 240.819C144.876 240.138 144.259 239.595 143.461 239.595C142.62 239.595 141.987 240.202 141.987 241V241.016H140.859V241.005ZM149.308 246.527C147.892 246.527 146.956 245.4 146.956 243.633C146.956 241.867 147.892 240.745 149.297 240.745C150.1 240.745 150.739 241.149 151.053 241.766H151.074V238.755H152.228V246.432H151.111V245.479H151.09C150.76 246.118 150.122 246.527 149.308 246.527ZM149.611 241.713C148.701 241.713 148.132 242.458 148.132 243.633C148.132 244.814 148.701 245.554 149.611 245.554C150.494 245.554 151.084 244.804 151.084 243.633C151.084 242.474 150.494 241.713 149.611 241.713Z" fill="#20283B"/>
<path d="M36.9608 261.79H36.1947V255.648H39.923V256.338H36.9608V258.449H39.6804V259.13H36.9608V261.79ZM42.349 261.866C41.1232 261.866 40.2976 260.985 40.2976 259.577C40.2976 258.164 41.1232 257.287 42.349 257.287C43.5705 257.287 44.3961 258.164 44.3961 259.577C44.3961 260.985 43.5705 261.866 42.349 261.866ZM42.349 261.215C43.1321 261.215 43.6428 260.619 43.6428 259.577C43.6428 258.534 43.1321 257.938 42.349 257.938C41.5659 257.938 41.0509 258.534 41.0509 259.577C41.0509 260.619 41.5659 261.215 42.349 261.215ZM45.1452 261.79V257.364H45.8432V258.087H45.8602C46.0049 257.598 46.4135 257.287 46.9327 257.287C47.0604 257.287 47.1711 257.308 47.2307 257.317V258.036C47.1711 258.015 47.0136 257.993 46.8348 257.993C46.2603 257.993 45.8858 258.406 45.8858 259.032V261.79H45.1452ZM49.6226 261.79V257.364H50.3205V258.07H50.3376C50.5461 257.602 50.9973 257.287 51.5931 257.287C52.1975 257.287 52.6443 257.593 52.8359 258.13H52.8529C53.0997 257.602 53.619 257.287 54.2404 257.287C55.1171 257.287 55.6832 257.857 55.6832 258.734V261.79H54.9426V258.904C54.9426 258.3 54.6064 257.942 54.0233 257.942C53.436 257.942 53.0231 258.376 53.0231 258.977V261.79H52.2826V258.823C52.2826 258.291 51.9251 257.942 51.376 257.942C50.7887 257.942 50.3631 258.402 50.3631 259.015V261.79H49.6226ZM58.4624 261.866C57.2366 261.866 56.4109 260.985 56.4109 259.577C56.4109 258.164 57.2366 257.287 58.4624 257.287C59.6838 257.287 60.5095 258.164 60.5095 259.577C60.5095 260.985 59.6838 261.866 58.4624 261.866ZM58.4624 261.215C59.2455 261.215 59.7562 260.619 59.7562 259.577C59.7562 258.534 59.2455 257.938 58.4624 257.938C57.6792 257.938 57.1643 258.534 57.1643 259.577C57.1643 260.619 57.6792 261.215 58.4624 261.215ZM61.2586 261.79V257.364H61.9566V258.087H61.9736C62.1183 257.598 62.5269 257.287 63.0461 257.287C63.1738 257.287 63.2844 257.308 63.344 257.317V258.036C63.2844 258.015 63.127 257.993 62.9482 257.993C62.3737 257.993 61.9991 258.406 61.9991 259.032V261.79H61.2586ZM65.5104 257.93C64.8166 257.93 64.3314 258.462 64.2846 259.198H66.6893C66.6723 258.457 66.2084 257.93 65.5104 257.93ZM66.6723 260.521H67.4C67.2724 261.296 66.5233 261.866 65.5572 261.866C64.2889 261.866 63.5185 260.985 63.5185 259.594C63.5185 258.219 64.3016 257.287 65.5231 257.287C66.7191 257.287 67.4554 258.155 67.4554 259.496V259.777H64.2804V259.819C64.2804 260.666 64.7783 261.224 65.5742 261.224C66.136 261.224 66.5488 260.939 66.6723 260.521ZM70.0303 261.79V257.364H70.7708V261.79H70.0303ZM70.4006 256.619C70.1494 256.619 69.9409 256.41 69.9409 256.159C69.9409 255.904 70.1494 255.699 70.4006 255.699C70.6559 255.699 70.8645 255.904 70.8645 256.159C70.8645 256.41 70.6559 256.619 70.4006 256.619ZM71.771 261.79V257.364H72.469V258.07H72.486C72.7329 257.593 73.2053 257.287 73.8905 257.287C74.8609 257.287 75.4227 257.913 75.4227 258.917V261.79H74.6821V259.049C74.6821 258.334 74.3459 257.942 73.6649 257.942C72.9669 257.942 72.5115 258.436 72.5115 259.185V261.79H71.771ZM76.6059 261.79V257.972H75.9887V257.364H76.6059V256.87C76.6059 256.019 77.0017 255.614 77.8188 255.614C77.9848 255.614 78.1636 255.631 78.27 255.648V256.248C78.1806 256.236 78.0572 256.223 77.9337 256.223C77.5337 256.223 77.3422 256.436 77.3422 256.874V257.364H78.2487V257.972H77.3464V261.79H76.6059ZM80.6363 261.866C79.4106 261.866 78.5849 260.985 78.5849 259.577C78.5849 258.164 79.4106 257.287 80.6363 257.287C81.8578 257.287 82.6835 258.164 82.6835 259.577C82.6835 260.985 81.8578 261.866 80.6363 261.866ZM80.6363 261.215C81.4194 261.215 81.9302 260.619 81.9302 259.577C81.9302 258.534 81.4194 257.938 80.6363 257.938C79.8532 257.938 79.3382 258.534 79.3382 259.577C79.3382 260.619 79.8532 261.215 80.6363 261.215ZM83.4326 261.79V257.364H84.1305V258.087H84.1476C84.2923 257.598 84.7009 257.287 85.2201 257.287C85.3478 257.287 85.4584 257.308 85.518 257.317V258.036C85.4584 258.015 85.301 257.993 85.1222 257.993C84.5476 257.993 84.1731 258.406 84.1731 259.032V261.79H83.4326ZM86.1224 261.79V257.364H86.8204V258.07H86.8374C87.0459 257.602 87.4971 257.287 88.0929 257.287C88.6973 257.287 89.1442 257.593 89.3357 258.13H89.3527C89.5996 257.602 90.1188 257.287 90.7402 257.287C91.6169 257.287 92.183 257.857 92.183 258.734V261.79H91.4424V258.904C91.4424 258.3 91.1062 257.942 90.5231 257.942C89.9358 257.942 89.5229 258.376 89.5229 258.977V261.79H88.7824V258.823C88.7824 258.291 88.4249 257.942 87.8759 257.942C87.2885 257.942 86.8629 258.402 86.8629 259.015V261.79H86.1224ZM94.5876 261.237C95.2856 261.237 95.8219 260.747 95.8219 260.109V259.747L94.6387 259.819C94.0429 259.858 93.7024 260.121 93.7024 260.539C93.7024 260.96 94.0556 261.237 94.5876 261.237ZM94.4217 261.866C93.5406 261.866 92.9491 261.334 92.9491 260.539C92.9491 259.781 93.5321 259.304 94.5536 259.245L95.8219 259.172V258.802C95.8219 258.262 95.4644 257.938 94.8515 257.938C94.2812 257.938 93.9237 258.206 93.8301 258.64H93.115C93.1661 257.874 93.8215 257.287 94.8685 257.287C95.907 257.287 96.5624 257.849 96.5624 258.73V261.79H95.8602V261.028H95.8432C95.5793 261.534 95.0175 261.866 94.4217 261.866ZM97.7414 256.295H98.4819V257.364H99.3416V257.972H98.4819V260.602C98.4819 261.007 98.6522 261.19 99.0309 261.19C99.1161 261.19 99.2863 261.177 99.3374 261.168V261.79C99.248 261.811 99.0437 261.824 98.8692 261.824C98.0563 261.824 97.7414 261.492 97.7414 260.641V257.972H97.0817V257.364H97.7414V256.295ZM100.172 261.79V257.364H100.912V261.79H100.172ZM100.542 256.619C100.291 256.619 100.082 256.41 100.082 256.159C100.082 255.904 100.291 255.699 100.542 255.699C100.797 255.699 101.006 255.904 101.006 256.159C101.006 256.41 100.797 256.619 100.542 256.619ZM103.747 261.866C102.521 261.866 101.695 260.985 101.695 259.577C101.695 258.164 102.521 257.287 103.747 257.287C104.968 257.287 105.794 258.164 105.794 259.577C105.794 260.985 104.968 261.866 103.747 261.866ZM103.747 261.215C104.53 261.215 105.04 260.619 105.04 259.577C105.04 258.534 104.53 257.938 103.747 257.938C102.964 257.938 102.449 258.534 102.449 259.577C102.449 260.619 102.964 261.215 103.747 261.215ZM106.543 261.79V257.364H107.241V258.07H107.258C107.505 257.593 107.977 257.287 108.662 257.287C109.633 257.287 110.195 257.913 110.195 258.917V261.79H109.454V259.049C109.454 258.334 109.118 257.942 108.437 257.942C107.739 257.942 107.283 258.436 107.283 259.185V261.79H106.543ZM114.387 261.237C115.085 261.237 115.621 260.747 115.621 260.109V259.747L114.438 259.819C113.842 259.858 113.501 260.121 113.501 260.539C113.501 260.96 113.855 261.237 114.387 261.237ZM114.221 261.866C113.34 261.866 112.748 261.334 112.748 260.539C112.748 259.781 113.331 259.304 114.353 259.245L115.621 259.172V258.802C115.621 258.262 115.263 257.938 114.651 257.938C114.08 257.938 113.723 258.206 113.629 258.64H112.914C112.965 257.874 113.621 257.287 114.668 257.287C115.706 257.287 116.362 257.849 116.362 258.73V261.79H115.659V261.028H115.642C115.378 261.534 114.817 261.866 114.221 261.866ZM119.503 261.866C118.856 261.866 118.349 261.551 118.064 261.041H118.047V261.79H117.34V255.648H118.081V258.104H118.098C118.375 257.598 118.89 257.287 119.515 257.287C120.63 257.287 121.384 258.189 121.384 259.577C121.384 260.968 120.635 261.866 119.503 261.866ZM119.358 257.938C118.609 257.938 118.077 258.594 118.077 259.577C118.077 260.564 118.609 261.215 119.358 261.215C120.141 261.215 120.626 260.59 120.626 259.577C120.626 258.572 120.141 257.938 119.358 257.938ZM123.971 261.866C122.746 261.866 121.92 260.985 121.92 259.577C121.92 258.164 122.746 257.287 123.971 257.287C125.193 257.287 126.019 258.164 126.019 259.577C126.019 260.985 125.193 261.866 123.971 261.866ZM123.971 261.215C124.754 261.215 125.265 260.619 125.265 259.577C125.265 258.534 124.754 257.938 123.971 257.938C123.188 257.938 122.673 258.534 122.673 259.577C122.673 260.619 123.188 261.215 123.971 261.215ZM130.402 257.364V261.79H129.7V261.071H129.683C129.419 261.581 128.959 261.866 128.278 261.866C127.312 261.866 126.746 261.241 126.746 260.236V257.364H127.487V260.104C127.487 260.824 127.823 261.211 128.508 261.211C129.228 261.211 129.662 260.717 129.662 259.964V257.364H130.402ZM131.602 256.295H132.343V257.364H133.203V257.972H132.343V260.602C132.343 261.007 132.513 261.19 132.892 261.19C132.977 261.19 133.147 261.177 133.198 261.168V261.79C133.109 261.811 132.905 261.824 132.73 261.824C131.917 261.824 131.602 261.492 131.602 260.641V257.972H130.943V257.364H131.602V256.295ZM136.148 263.445C136.059 263.445 135.91 263.437 135.829 263.42V262.798C135.91 262.816 136.024 262.82 136.118 262.82C136.531 262.82 136.761 262.62 136.931 262.105L137.033 261.794L135.399 257.364H136.19L137.416 261.049H137.429L138.655 257.364H139.434L137.693 262.1C137.314 263.135 136.948 263.445 136.148 263.445ZM141.728 261.866C140.502 261.866 139.676 260.985 139.676 259.577C139.676 258.164 140.502 257.287 141.728 257.287C142.949 257.287 143.775 258.164 143.775 259.577C143.775 260.985 142.949 261.866 141.728 261.866ZM141.728 261.215C142.511 261.215 143.021 260.619 143.021 259.577C143.021 258.534 142.511 257.938 141.728 257.938C140.944 257.938 140.429 258.534 140.429 259.577C140.429 260.619 140.944 261.215 141.728 261.215ZM148.158 257.364V261.79H147.456V261.071H147.439C147.175 261.581 146.716 261.866 146.035 261.866C145.069 261.866 144.502 261.241 144.502 260.236V257.364H145.243V260.104C145.243 260.824 145.579 261.211 146.264 261.211C146.984 261.211 147.418 260.717 147.418 259.964V257.364H148.158ZM149.12 261.79V257.364H149.818V258.087H149.835C149.98 257.598 150.389 257.287 150.908 257.287C151.036 257.287 151.146 257.308 151.206 257.317V258.036C151.146 258.015 150.989 257.993 150.81 257.993C150.235 257.993 149.861 258.406 149.861 259.032V261.79H149.12ZM157.122 256.917L155.704 261.79H154.981L153.308 255.648H154.108L155.338 260.662H155.372L156.756 255.648H157.53L158.913 260.662H158.947L160.177 255.648H160.978L159.305 261.79H158.581L157.164 256.917H157.122ZM161.688 261.79V257.364H162.429V261.79H161.688ZM162.059 256.619C161.808 256.619 161.599 256.41 161.599 256.159C161.599 255.904 161.808 255.699 162.059 255.699C162.314 255.699 162.523 255.904 162.523 256.159C162.523 256.41 162.314 256.619 162.059 256.619ZM166.213 259.645H163.421V258.955H166.213V259.645ZM168.047 261.79H167.281V255.648H171.009V256.338H168.047V258.449H170.767V259.13H168.047V261.79ZM171.809 261.79V257.364H172.55V261.79H171.809ZM172.18 256.619C171.928 256.619 171.72 256.41 171.72 256.159C171.72 255.904 171.928 255.699 172.18 255.699C172.435 255.699 172.643 255.904 172.643 256.159C172.643 256.41 172.435 256.619 172.18 256.619ZM174.056 263.011H173.439L173.852 260.845H174.64L174.056 263.011ZM180.802 258.815H180.079C179.972 258.334 179.598 257.938 178.947 257.938C178.181 257.938 177.661 258.572 177.661 259.577C177.661 260.607 178.189 261.215 178.955 261.215C179.56 261.215 179.955 260.896 180.083 260.364H180.811C180.696 261.245 179.955 261.866 178.951 261.866C177.725 261.866 176.908 261.002 176.908 259.577C176.908 258.181 177.721 257.287 178.942 257.287C180.049 257.287 180.709 258.019 180.802 258.815ZM181.53 261.79V255.648H182.271V261.79H181.53ZM183.309 261.79V257.364H184.05V261.79H183.309ZM183.679 256.619C183.428 256.619 183.22 256.41 183.22 256.159C183.22 255.904 183.428 255.699 183.679 255.699C183.935 255.699 184.143 255.904 184.143 256.159C184.143 256.41 183.935 256.619 183.679 256.619ZM188.727 258.815H188.004C187.897 258.334 187.523 257.938 186.871 257.938C186.105 257.938 185.586 258.572 185.586 259.577C185.586 260.607 186.114 261.215 186.88 261.215C187.484 261.215 187.88 260.896 188.008 260.364H188.736C188.621 261.245 187.88 261.866 186.876 261.866C185.65 261.866 184.833 261.002 184.833 259.577C184.833 258.181 185.646 257.287 186.867 257.287C187.974 257.287 188.633 258.019 188.727 258.815ZM190.195 259.33L192.153 257.364H193.051L191.132 259.274L193.111 261.79H192.251L190.608 259.73L190.195 260.121V261.79H189.455V255.648H190.195V259.33ZM195.673 256.295H196.413V257.364H197.273V257.972H196.413V260.602C196.413 261.007 196.584 261.19 196.962 261.19C197.048 261.19 197.218 261.177 197.269 261.168V261.79C197.18 261.811 196.975 261.824 196.801 261.824C195.988 261.824 195.673 261.492 195.673 260.641V257.972H195.013V257.364H195.673V256.295ZM198.103 261.79V255.648H198.844V258.07H198.861C199.108 257.576 199.593 257.287 200.265 257.287C201.236 257.287 201.823 257.942 201.823 258.93V261.79H201.082V259.066C201.082 258.364 200.729 257.942 200.035 257.942C199.299 257.942 198.844 258.445 198.844 259.211V261.79H198.103ZM204.538 257.93C203.844 257.93 203.359 258.462 203.312 259.198H205.717C205.7 258.457 205.236 257.93 204.538 257.93ZM205.7 260.521H206.428C206.3 261.296 205.551 261.866 204.585 261.866C203.317 261.866 202.546 260.985 202.546 259.594C202.546 258.219 203.33 257.287 204.551 257.287C205.747 257.287 206.483 258.155 206.483 259.496V259.777H203.308V259.819C203.308 260.666 203.806 261.224 204.602 261.224C205.164 261.224 205.577 260.939 205.7 260.521ZM44.328 267.815H43.6471V265.648H44.328V267.815ZM45.9326 267.815H45.2516V265.648H45.9326V267.815ZM46.8136 270.1H47.5839C47.6563 270.764 48.2862 271.202 49.1629 271.202C49.9928 271.202 50.5972 270.764 50.5972 270.16C50.5972 269.64 50.2354 269.321 49.4098 269.108L48.6224 268.904C47.4903 268.615 46.9881 268.117 46.9881 267.283C46.9881 266.261 47.8818 265.546 49.1586 265.546C50.3801 265.546 51.2654 266.27 51.2994 267.3H50.5334C50.4653 266.64 49.9332 266.236 49.1331 266.236C48.3372 266.236 47.7839 266.648 47.7839 267.249C47.7839 267.713 48.1244 267.989 48.9586 268.206L49.6013 268.376C50.8738 268.696 51.3888 269.185 51.3888 270.066C51.3888 271.19 50.5036 271.892 49.0906 271.892C47.7882 271.892 46.8859 271.185 46.8136 270.1ZM52.406 266.295H53.1466V267.364H54.0063V267.972H53.1466V270.602C53.1466 271.007 53.3168 271.19 53.6956 271.19C53.7807 271.19 53.951 271.177 54.002 271.168V271.79C53.9126 271.811 53.7084 271.824 53.5339 271.824C52.721 271.824 52.406 271.492 52.406 270.641V267.972H51.7463V267.364H52.406V266.295ZM56.1726 271.237C56.8706 271.237 57.4069 270.747 57.4069 270.109V269.747L56.2237 269.819C55.6278 269.858 55.2873 270.121 55.2873 270.539C55.2873 270.96 55.6406 271.237 56.1726 271.237ZM56.0066 271.866C55.1256 271.866 54.534 271.334 54.534 270.539C54.534 269.781 55.1171 269.304 56.1386 269.245L57.4069 269.172V268.802C57.4069 268.262 57.0494 267.938 56.4365 267.938C55.8662 267.938 55.5087 268.206 55.415 268.64H54.7C54.7511 267.874 55.4065 267.287 56.4535 267.287C57.492 267.287 58.1474 267.849 58.1474 268.73V271.79H57.4452V271.028H57.4281C57.1643 271.534 56.6025 271.866 56.0066 271.866ZM59.088 271.79V267.364H59.786V268.087H59.803C59.9477 267.598 60.3563 267.287 60.8755 267.287C61.0032 267.287 61.1139 267.308 61.1735 267.317V268.036C61.1139 268.015 60.9564 267.993 60.7776 267.993C60.2031 267.993 59.8285 268.406 59.8285 269.032V271.79H59.088ZM62.0162 266.295H62.7567V267.364H63.6164V267.972H62.7567V270.602C62.7567 271.007 62.9269 271.19 63.3057 271.19C63.3909 271.19 63.5611 271.177 63.6122 271.168V271.79C63.5228 271.811 63.3185 271.824 63.144 271.824C62.3311 271.824 62.0162 271.492 62.0162 270.641V267.972H61.3565V267.364H62.0162V266.295ZM66.0168 270.1H66.7872C66.8595 270.764 67.4894 271.202 68.3662 271.202C69.1961 271.202 69.8005 270.764 69.8005 270.16C69.8005 269.64 69.4387 269.321 68.613 269.108L67.8256 268.904C66.6935 268.615 66.1913 268.117 66.1913 267.283C66.1913 266.261 67.0851 265.546 68.3619 265.546C69.5834 265.546 70.4687 266.27 70.5027 267.3H69.7366C69.6685 266.64 69.1365 266.236 68.3364 266.236C67.5405 266.236 66.9872 266.648 66.9872 267.249C66.9872 267.713 67.3277 267.989 68.1619 268.206L68.8045 268.376C70.0771 268.696 70.5921 269.185 70.5921 270.066C70.5921 271.19 69.7068 271.892 68.2938 271.892C66.9915 271.892 66.0892 271.185 66.0168 270.1ZM75.0482 268.815H74.3246C74.2182 268.334 73.8437 267.938 73.1925 267.938C72.4264 267.938 71.9072 268.572 71.9072 269.577C71.9072 270.607 72.4349 271.215 73.201 271.215C73.8054 271.215 74.2012 270.896 74.3289 270.364H75.0567C74.9418 271.245 74.2012 271.866 73.1968 271.866C71.971 271.866 71.1539 271.002 71.1539 269.577C71.1539 268.181 71.9668 267.287 73.1883 267.287C74.2948 267.287 74.9545 268.019 75.0482 268.815ZM77.1975 271.237C77.8954 271.237 78.4317 270.747 78.4317 270.109V269.747L77.2485 269.819C76.6527 269.858 76.3122 270.121 76.3122 270.539C76.3122 270.96 76.6654 271.237 77.1975 271.237ZM77.0315 271.866C76.1505 271.866 75.5589 271.334 75.5589 270.539C75.5589 269.781 76.142 269.304 77.1634 269.245L78.4317 269.172V268.802C78.4317 268.262 78.0742 267.938 77.4613 267.938C76.891 267.938 76.5335 268.206 76.4399 268.64H75.7249C75.7759 267.874 76.4314 267.287 77.4784 267.287C78.5168 267.287 79.1723 267.849 79.1723 268.73V271.79H78.47V271.028H78.453C78.1891 271.534 77.6273 271.866 77.0315 271.866ZM80.1128 271.79V267.364H80.8108V268.07H80.8279C81.0747 267.593 81.5471 267.287 82.2323 267.287C83.2027 267.287 83.7645 267.913 83.7645 268.917V271.79H83.024V269.049C83.024 268.334 82.6877 267.942 82.0068 267.942C81.3088 267.942 80.8534 268.436 80.8534 269.185V271.79H80.1128ZM84.7094 271.79V267.364H85.4074V268.07H85.4244C85.6712 267.593 86.1437 267.287 86.8289 267.287C87.7993 267.287 88.361 267.913 88.361 268.917V271.79H87.6205V269.049C87.6205 268.334 87.2843 267.942 86.6033 267.942C85.9053 267.942 85.4499 268.436 85.4499 269.185V271.79H84.7094ZM89.3442 271.79V267.364H90.0847V271.79H89.3442ZM89.7145 266.619C89.4634 266.619 89.2548 266.41 89.2548 266.159C89.2548 265.904 89.4634 265.699 89.7145 265.699C89.9698 265.699 90.1784 265.904 90.1784 266.159C90.1784 266.41 89.9698 266.619 89.7145 266.619ZM91.0849 271.79V267.364H91.7829V268.07H91.7999C92.0468 267.593 92.5192 267.287 93.2044 267.287C94.1748 267.287 94.7366 267.913 94.7366 268.917V271.79H93.9961V269.049C93.9961 268.334 93.6598 267.942 92.9789 267.942C92.2809 267.942 91.8255 268.436 91.8255 269.185V271.79H91.0849ZM97.4817 271.173C98.2521 271.173 98.7671 270.534 98.7671 269.56C98.7671 268.585 98.2521 267.938 97.4817 267.938C96.7199 267.938 96.222 268.568 96.222 269.56C96.222 270.551 96.7199 271.173 97.4817 271.173ZM97.5073 273.458C96.5326 273.458 95.7623 272.909 95.6389 272.156H96.4007C96.5454 272.56 96.9838 272.828 97.5371 272.828C98.3032 272.828 98.7671 272.386 98.7671 271.726V271.028H98.75C98.4777 271.509 97.9542 271.824 97.3328 271.824C96.2049 271.824 95.4644 270.934 95.4644 269.56C95.4644 268.172 96.2049 267.287 97.3498 267.287C97.9754 267.287 98.4947 267.593 98.7884 268.108H98.8011V267.364H99.5076V271.7C99.5076 272.756 98.7288 273.458 97.5073 273.458ZM101.248 267.815H100.567V265.648H101.248V267.815ZM102.853 267.815H102.172V265.648H102.853V267.815ZM107.901 271.866C107.254 271.866 106.747 271.551 106.462 271.041H106.445V271.79H105.738V265.648H106.479V268.104H106.496C106.773 267.598 107.288 267.287 107.913 267.287C109.028 267.287 109.782 268.189 109.782 269.577C109.782 270.968 109.033 271.866 107.901 271.866ZM107.756 267.938C107.007 267.938 106.475 268.594 106.475 269.577C106.475 270.564 107.007 271.215 107.756 271.215C108.539 271.215 109.024 270.59 109.024 269.577C109.024 268.572 108.539 267.938 107.756 267.938ZM114.17 267.364V271.79H113.467V271.071H113.45C113.187 271.581 112.727 271.866 112.046 271.866C111.08 271.866 110.514 271.241 110.514 270.236V267.364H111.254V270.104C111.254 270.824 111.591 271.211 112.276 271.211C112.995 271.211 113.429 270.717 113.429 269.964V267.364H114.17ZM115.37 266.295H116.11V267.364H116.97V267.972H116.11V270.602C116.11 271.007 116.281 271.19 116.659 271.19C116.745 271.19 116.915 271.177 116.966 271.168V271.79C116.877 271.811 116.672 271.824 116.498 271.824C115.685 271.824 115.37 271.492 115.37 270.641V267.972H114.71V267.364H115.37V266.295ZM118 266.295H118.741V267.364H119.6V267.972H118.741V270.602C118.741 271.007 118.911 271.19 119.29 271.19C119.375 271.19 119.545 271.177 119.596 271.168V271.79C119.507 271.811 119.302 271.824 119.128 271.824C118.315 271.824 118 271.492 118 270.641V267.972H117.34V267.364H118V266.295ZM122.099 271.866C120.873 271.866 120.047 270.985 120.047 269.577C120.047 268.164 120.873 267.287 122.099 267.287C123.32 267.287 124.146 268.164 124.146 269.577C124.146 270.985 123.32 271.866 122.099 271.866ZM122.099 271.215C122.882 271.215 123.393 270.619 123.393 269.577C123.393 268.534 122.882 267.938 122.099 267.938C121.316 267.938 120.801 268.534 120.801 269.577C120.801 270.619 121.316 271.215 122.099 271.215ZM124.895 271.79V267.364H125.593V268.07H125.61C125.857 267.593 126.329 267.287 127.014 267.287C127.985 267.287 128.547 267.913 128.547 268.917V271.79H127.806V269.049C127.806 268.334 127.47 267.942 126.789 267.942C126.091 267.942 125.635 268.436 125.635 269.185V271.79H124.895ZM132.739 271.237C133.437 271.237 133.973 270.747 133.973 270.109V269.747L132.79 269.819C132.194 269.858 131.854 270.121 131.854 270.539C131.854 270.96 132.207 271.237 132.739 271.237ZM132.573 271.866C131.692 271.866 131.1 271.334 131.1 270.539C131.1 269.781 131.683 269.304 132.705 269.245L133.973 269.172V268.802C133.973 268.262 133.616 267.938 133.003 267.938C132.432 267.938 132.075 268.206 131.981 268.64H131.266C131.317 267.874 131.973 267.287 133.02 267.287C134.058 267.287 134.714 267.849 134.714 268.73V271.79H134.011V271.028H133.994C133.73 271.534 133.169 271.866 132.573 271.866ZM135.654 271.79V267.364H136.352V268.07H136.369C136.616 267.593 137.088 267.287 137.774 267.287C138.744 267.287 139.306 267.913 139.306 268.917V271.79H138.565V269.049C138.565 268.334 138.229 267.942 137.548 267.942C136.85 267.942 136.395 268.436 136.395 269.185V271.79H135.654ZM141.928 271.866C140.8 271.866 140.034 270.964 140.034 269.577C140.034 268.189 140.795 267.287 141.911 267.287C142.545 267.287 143.055 267.598 143.319 268.083H143.336V265.648H144.077V271.79H143.37V271.041H143.358C143.072 271.551 142.566 271.866 141.928 271.866ZM142.068 267.938C141.285 267.938 140.791 268.576 140.791 269.577C140.791 270.581 141.285 271.215 142.068 271.215C142.83 271.215 143.341 270.568 143.341 269.577C143.341 268.589 142.83 267.938 142.068 267.938ZM146.788 268.585C146.788 267.827 147.465 267.287 148.439 267.287C149.354 267.287 150.027 267.832 150.061 268.581H149.354C149.303 268.155 148.959 267.891 148.414 267.891C147.873 267.891 147.516 268.159 147.516 268.547C147.516 268.853 147.75 269.057 148.252 269.185L148.937 269.351C149.831 269.577 150.155 269.9 150.155 270.551C150.155 271.322 149.427 271.866 148.393 271.866C147.422 271.866 146.745 271.339 146.669 270.556H147.409C147.49 271.015 147.839 271.262 148.439 271.262C149.039 271.262 149.41 271.007 149.41 270.607C149.41 270.292 149.227 270.121 148.729 269.989L147.95 269.789C147.171 269.589 146.788 269.189 146.788 268.585ZM154.602 268.815H153.879C153.772 268.334 153.398 267.938 152.746 267.938C151.98 267.938 151.461 268.572 151.461 269.577C151.461 270.607 151.989 271.215 152.755 271.215C153.359 271.215 153.755 270.896 153.883 270.364H154.611C154.496 271.245 153.755 271.866 152.751 271.866C151.525 271.866 150.708 271.002 150.708 269.577C150.708 268.181 151.521 267.287 152.742 267.287C153.849 267.287 154.508 268.019 154.602 268.815ZM156.751 271.237C157.449 271.237 157.986 270.747 157.986 270.109V269.747L156.802 269.819C156.207 269.858 155.866 270.121 155.866 270.539C155.866 270.96 156.219 271.237 156.751 271.237ZM156.585 271.866C155.704 271.866 155.113 271.334 155.113 270.539C155.113 269.781 155.696 269.304 156.717 269.245L157.986 269.172V268.802C157.986 268.262 157.628 267.938 157.015 267.938C156.445 267.938 156.087 268.206 155.994 268.64H155.279C155.33 267.874 155.985 267.287 157.032 267.287C158.071 267.287 158.726 267.849 158.726 268.73V271.79H158.024V271.028H158.007C157.743 271.534 157.181 271.866 156.585 271.866ZM159.667 271.79V267.364H160.365V268.07H160.382C160.629 267.593 161.101 267.287 161.786 267.287C162.757 267.287 163.318 267.913 163.318 268.917V271.79H162.578V269.049C162.578 268.334 162.242 267.942 161.561 267.942C160.863 267.942 160.407 268.436 160.407 269.185V271.79H159.667ZM166.289 271.79V267.972H165.672V267.364H166.289V266.87C166.289 266.019 166.685 265.614 167.502 265.614C167.668 265.614 167.847 265.631 167.953 265.648V266.248C167.864 266.236 167.74 266.223 167.617 266.223C167.217 266.223 167.025 266.436 167.025 266.874V267.364H167.932V267.972H167.03V271.79H166.289ZM170.32 271.866C169.094 271.866 168.268 270.985 168.268 269.577C168.268 268.164 169.094 267.287 170.32 267.287C171.541 267.287 172.367 268.164 172.367 269.577C172.367 270.985 171.541 271.866 170.32 271.866ZM170.32 271.215C171.103 271.215 171.613 270.619 171.613 269.577C171.613 268.534 171.103 267.938 170.32 267.938C169.537 267.938 169.022 268.534 169.022 269.577C169.022 270.619 169.537 271.215 170.32 271.215ZM173.116 271.79V267.364H173.814V268.087H173.831C173.976 267.598 174.384 267.287 174.903 267.287C175.031 267.287 175.142 267.308 175.201 267.317V268.036C175.142 268.015 174.984 267.993 174.806 267.993C174.231 267.993 173.856 268.406 173.856 269.032V271.79H173.116ZM181.117 266.917L179.7 271.79H178.976L177.304 265.648H178.104L179.334 270.662H179.368L180.751 265.648H181.526L182.909 270.662H182.943L184.173 265.648H184.973L183.301 271.79H182.577L181.16 266.917H181.117ZM185.684 271.79V267.364H186.425V271.79H185.684ZM186.054 266.619C185.803 266.619 185.595 266.41 185.595 266.159C185.595 265.904 185.803 265.699 186.054 265.699C186.31 265.699 186.518 265.904 186.518 266.159C186.518 266.41 186.31 266.619 186.054 266.619ZM190.208 269.645H187.416V268.955H190.208V269.645ZM192.042 271.79H191.276V265.648H195.005V266.338H192.042V268.449H194.762V269.13H192.042V271.79ZM195.805 271.79V267.364H196.545V271.79H195.805ZM196.175 266.619C195.924 266.619 195.715 266.41 195.715 266.159C195.715 265.904 195.924 265.699 196.175 265.699C196.43 265.699 196.639 265.904 196.639 266.159C196.639 266.41 196.43 266.619 196.175 266.619ZM198.171 271.832C197.899 271.832 197.686 271.62 197.686 271.347C197.686 271.075 197.899 270.862 198.171 270.862C198.444 270.862 198.656 271.075 198.656 271.347C198.656 271.62 198.444 271.832 198.171 271.832Z" fill="#0D152A" fill-opacity="0.64"/>
<rect x="101.836" y="166.783" width="39.2237" height="38.6789" rx="19.3395" fill="#E1E9E6"/>
<rect x="102.244" y="167.191" width="38.4065" height="37.8617" rx="18.9309" stroke="#0D152A" stroke-opacity="0.08" stroke-width="0.81716"/>
<path d="M121.448 191.933H121.455H121.448Z" fill="#00D599"/>
<path d="M121.448 191.933H121.455" stroke="#00D599" stroke-width="1.81591" stroke-linecap="round" stroke-linejoin="round"/>
<path d="M114.184 183.812C116.181 182.026 118.768 181.038 121.448 181.038C124.128 181.038 126.714 182.026 128.711 183.812" stroke="#00D599" stroke-width="1.81591" stroke-linecap="round" stroke-linejoin="round"/>
<path d="M116.363 186.746C117.721 185.415 119.546 184.67 121.448 184.67C123.349 184.67 125.174 185.415 126.532 186.746" stroke="#00D599" stroke-width="1.81591" stroke-linecap="round" stroke-linejoin="round"/>
<path d="M118.905 189.339C119.584 188.674 120.497 188.301 121.447 188.301C122.398 188.301 123.311 188.674 123.99 189.339" stroke="#00D599" stroke-width="1.81591" stroke-linecap="round" stroke-linejoin="round"/>
</g>
<rect x="17.5027" y="21.5985" width="206.165" height="444.515" rx="30.8854" stroke="black" stroke-width="3.03791"/>
<rect x="14.7241" y="18.8209" width="211.723" height="450.071" rx="33.6702" stroke="#424242" stroke-width="2.53159"/>
<rect x="85.9728" y="28.8406" width="63.1615" height="18.5229" rx="9.26143" fill="black"/>
<defs>
<filter id="filter0_d_18_3079" x="5.95559" y="39.3431" width="135.582" height="69.5819" filterUnits="userSpaceOnUse" color-interpolation-filters="sRGB">
<feFlood flood-opacity="0" result="BackgroundImageFix"/>
<feColorMatrix in="SourceAlpha" type="matrix" values="0 0 0 0 0 0 0 0 0 0 0 0 0 0 0 0 0 0 127 0" result="hardAlpha"/>
<feOffset dy="4.35819"/>
<feGaussianBlur stdDeviation="10.8955"/>
<feComposite in2="hardAlpha" operator="out"/>
<feColorMatrix type="matrix" values="0 0 0 0 0 0 0 0 0 0 0 0 0 0 0 0 0 0 0.12 0"/>
<feBlend mode="normal" in2="BackgroundImageFix" result="effect1_dropShadow_18_3079"/>
<feBlend mode="normal" in="SourceGraphic" in2="effect1_dropShadow_18_3079" result="shape"/>
</filter>
<clipPath id="clip0_18_3079">
<rect x="19.0302" y="23" width="204.29" height="442.356" rx="24" fill="white"/>
</clipPath>
</defs>
</svg>
