<svg width="241" height="295" viewBox="0 0 241 295" fill="none" xmlns="http://www.w3.org/2000/svg">
<g clip-path="url(#clip0_16_921)">
<rect x="18.7317" y="22.9166" width="204.293" height="442.362" rx="17.433" fill="#0D152A"/>
<path d="M47.7613 35.5104C48.111 35.5104 48.4426 35.5752 48.7561 35.7049C49.0697 35.8315 49.347 36.0305 49.5882 36.3018C49.8324 36.5701 50.0238 36.9153 50.1625 37.3373C50.3012 37.7564 50.3705 38.2614 50.3705 38.8523V38.8613C50.3705 39.5939 50.265 40.2209 50.054 40.7425C49.8429 41.264 49.54 41.665 49.145 41.9454C48.7531 42.2227 48.2843 42.3614 47.7387 42.3614C47.3377 42.3614 46.9759 42.2891 46.6534 42.1443C46.3338 41.9966 46.0685 41.7946 45.8575 41.5384C45.6495 41.2791 45.5093 40.9837 45.4369 40.652L45.4279 40.6023H46.572L46.59 40.6475C46.6473 40.7983 46.7287 40.9309 46.8342 41.0455C46.9428 41.16 47.0724 41.249 47.2231 41.3123C47.3769 41.3726 47.5487 41.4027 47.7387 41.4027C48.0823 41.4027 48.3627 41.3017 48.5798 41.0997C48.7998 40.8947 48.9642 40.6219 49.0727 40.2812C49.1842 39.9376 49.2475 39.5577 49.2626 39.1417C49.2656 39.0964 49.2671 39.0527 49.2671 39.0105C49.2671 38.9653 49.2671 38.9216 49.2671 38.8794L49.0636 37.7896C49.0636 37.5423 49.0064 37.3178 48.8918 37.1158C48.7772 36.9138 48.622 36.754 48.426 36.6364C48.2331 36.5188 48.0145 36.4601 47.7703 36.4601C47.5352 36.4601 47.3196 36.5173 47.1237 36.6319C46.9277 36.7465 46.7709 36.9032 46.6534 37.1022C46.5358 37.2982 46.477 37.5182 46.477 37.7624V37.7715C46.477 38.0247 46.5328 38.2493 46.6443 38.4453C46.7559 38.6382 46.9081 38.7904 47.101 38.902C47.294 39.0135 47.5141 39.0693 47.7613 39.0693C48.0085 39.0693 48.2301 39.015 48.426 38.9065C48.622 38.798 48.7772 38.6472 48.8918 38.4543C49.0064 38.2614 49.0636 38.0428 49.0636 37.7986V37.7896H49.335V38.9924H49.1767C49.0983 39.1643 48.9822 39.3241 48.8285 39.4718C48.6747 39.6195 48.4848 39.7386 48.2587 39.829C48.0356 39.9195 47.7733 39.9647 47.4719 39.9647C47.0558 39.9647 46.688 39.8712 46.3685 39.6843C46.0489 39.4974 45.7972 39.2412 45.6133 38.9156C45.4324 38.59 45.3419 38.2222 45.3419 37.8122V37.8031C45.3419 37.36 45.4444 36.9665 45.6495 36.6229C45.8575 36.2762 46.1439 36.0048 46.5087 35.8089C46.8764 35.6099 47.294 35.5104 47.7613 35.5104ZM52.4236 41.3213C52.2186 41.3213 52.0467 41.2535 51.908 41.1178C51.7724 40.9791 51.7045 40.8103 51.7045 40.6113C51.7045 40.4094 51.7724 40.2405 51.908 40.1049C52.0467 39.9662 52.2186 39.8969 52.4236 39.8969C52.6316 39.8969 52.8034 39.9662 52.9391 40.1049C53.0747 40.2405 53.1426 40.4094 53.1426 40.6113C53.1426 40.8103 53.0747 40.9791 52.9391 41.1178C52.8034 41.2535 52.6316 41.3213 52.4236 41.3213ZM52.4236 37.9659C52.2186 37.9659 52.0467 37.8981 51.908 37.7624C51.7724 37.6237 51.7045 37.4549 51.7045 37.2559C51.7045 37.054 51.7724 36.8851 51.908 36.7495C52.0467 36.6108 52.2186 36.5415 52.4236 36.5415C52.6316 36.5415 52.8034 36.6108 52.9391 36.7495C53.0747 36.8851 53.1426 37.054 53.1426 37.2559C53.1426 37.4549 53.0747 37.6237 52.9391 37.7624C52.8034 37.8981 52.6316 37.9659 52.4236 37.9659ZM57.6421 42.1986V40.946H54.4495V39.9918C54.6213 39.6994 54.7931 39.4055 54.965 39.11C55.1398 38.8146 55.3162 38.5206 55.4941 38.2282C55.675 37.9328 55.8543 37.6418 56.0322 37.3554C56.2131 37.066 56.3925 36.7811 56.5703 36.5008C56.7512 36.2174 56.9321 35.9415 57.113 35.6732H58.7545V39.9828H59.6363V40.946H58.7545V42.1986H57.6421ZM55.5348 40.0099H57.6602V36.6048H57.5923C57.4597 36.8098 57.3225 37.0208 57.1808 37.2379C57.0421 37.4549 56.902 37.6765 56.7603 37.9026C56.6186 38.1287 56.4784 38.3563 56.3397 38.5854C56.201 38.8116 56.0639 39.0392 55.9282 39.2683C55.7925 39.4944 55.6614 39.719 55.5348 39.9421V40.0099ZM62.336 42.1986V36.8218H62.2546L60.6312 37.9659V36.8716L62.336 35.6732H63.4982V42.1986H62.336Z" fill="white"/>
<rect opacity="0.35" x="191.954" y="36.0098" width="13.0747" height="6.53737" rx="2.07017" stroke="white" stroke-width="0.544781"/>
<path opacity="0.4" d="M205.846 38.342V40.5623C206.284 40.3742 206.569 39.9368 206.569 39.4522C206.569 38.9675 206.284 38.5301 205.846 38.342Z" fill="white"/>
<rect x="192.771" y="36.827" width="11.4404" height="4.90303" rx="1.36195" fill="white"/>
<path fill-rule="evenodd" clip-rule="evenodd" d="M183.112 37.4285C184.467 37.4286 185.77 37.9309 186.752 38.8317C186.826 38.9013 186.945 38.9004 187.017 38.8298L187.724 38.1414C187.761 38.1056 187.782 38.0571 187.781 38.0066C187.781 37.9561 187.76 37.9078 187.723 37.8724C185.145 35.4891 181.079 35.4891 178.502 37.8724C178.464 37.9078 178.443 37.9561 178.443 38.0066C178.443 38.057 178.463 38.1056 178.5 38.1414L179.207 38.8298C179.28 38.9005 179.398 38.9014 179.472 38.8317C180.454 37.9309 181.757 37.4285 183.112 37.4285ZM183.111 39.7277C183.85 39.7276 184.563 40.0064 185.111 40.5099C185.185 40.5813 185.302 40.5798 185.374 40.5064L186.076 39.7876C186.113 39.7499 186.133 39.6988 186.133 39.6456C186.132 39.5925 186.11 39.5418 186.073 39.5049C184.404 37.93 181.819 37.93 180.15 39.5049C180.112 39.5418 180.091 39.5925 180.09 39.6457C180.09 39.6988 180.11 39.75 180.147 39.7876L180.848 40.5064C180.92 40.5798 181.037 40.5813 181.111 40.5099C181.659 40.0067 182.372 39.728 183.111 39.7277ZM184.486 41.2495C184.487 41.3069 184.467 41.3623 184.43 41.4025L183.244 42.7398C183.209 42.7791 183.162 42.8012 183.113 42.8012C183.063 42.8012 183.016 42.7791 182.981 42.7398L181.795 41.4025C181.758 41.3622 181.738 41.3069 181.739 41.2495C181.74 41.1921 181.763 41.1378 181.801 41.0993C182.558 40.3835 183.667 40.3835 184.424 41.0993C184.463 41.1378 184.485 41.1921 184.486 41.2495Z" fill="white"/>
<path fill-rule="evenodd" clip-rule="evenodd" d="M174.357 36.6539C174.357 36.309 174.097 36.0294 173.776 36.0294H173.195C172.874 36.0294 172.614 36.309 172.614 36.6539V42.0657C172.614 42.4106 172.874 42.6901 173.195 42.6901H173.776C174.097 42.6901 174.357 42.4106 174.357 42.0657V36.6539ZM170.307 37.3616H170.889C171.21 37.3616 171.47 37.6478 171.47 38.001V42.0507C171.47 42.4039 171.21 42.6901 170.889 42.6901H170.307C169.987 42.6901 169.726 42.4039 169.726 42.0507V38.001C169.726 37.6478 169.987 37.3616 170.307 37.3616ZM167.948 38.8047H167.367C167.046 38.8047 166.785 39.0946 166.785 39.4523V42.0426C166.785 42.4002 167.046 42.6901 167.367 42.6901H167.948C168.269 42.6901 168.529 42.4002 168.529 42.0426V39.4523C168.529 39.0946 168.269 38.8047 167.948 38.8047ZM165.06 40.1369H164.479C164.158 40.1369 163.898 40.4226 163.898 40.7752V42.0518C163.898 42.4043 164.158 42.6901 164.479 42.6901H165.06C165.381 42.6901 165.641 42.4043 165.641 42.0518V40.7752C165.641 40.4226 165.381 40.1369 165.06 40.1369Z" fill="white"/>
<g opacity="0.67" filter="url(#filter0_d_16_921)">
<path d="M27.4482 69.6931C27.4482 62.5134 33.2685 56.6931 40.4482 56.6931H107.448C114.628 56.6931 120.448 62.5134 120.448 69.6931C120.448 76.8728 114.628 82.6931 107.448 82.6931H40.4482C33.2685 82.6931 27.4482 76.8728 27.4482 69.6931Z" fill="#CCCCCC" fill-opacity="0.5" style="mix-blend-mode:color-burn" shape-rendering="crispEdges"/>
<path d="M27.4482 69.6931C27.4482 62.5134 33.2685 56.6931 40.4482 56.6931H107.448C114.628 56.6931 120.448 62.5134 120.448 69.6931C120.448 76.8728 114.628 82.6931 107.448 82.6931H40.4482C33.2685 82.6931 27.4482 76.8728 27.4482 69.6931Z" fill="black" fill-opacity="0.6" shape-rendering="crispEdges"/>
<path d="M27.4482 69.6931C27.4482 62.5134 33.2685 56.6931 40.4482 56.6931H107.448C114.628 56.6931 120.448 62.5134 120.448 69.6931C120.448 76.8728 114.628 82.6931 107.448 82.6931H40.4482C33.2685 82.6931 27.4482 76.8728 27.4482 69.6931Z" fill="white" fill-opacity="0.06" shape-rendering="crispEdges"/>
</g>
<rect x="27.4482" y="56.6931" width="93" height="26" rx="13" fill="black" fill-opacity="0.2" style="mix-blend-mode:screen"/>
<path d="M42.4078 66.012L38.6519 69.7678L42.4078 73.5237C42.5674 73.6832 42.5674 73.942 42.4078 74.1015C42.2482 74.2611 41.9896 74.2611 41.83 74.1015L37.7852 70.0567C37.7086 69.9801 37.6655 69.8762 37.6655 69.7678C37.6655 69.6594 37.7086 69.5555 37.7852 69.4789L41.83 65.4341C41.8499 65.4142 41.8714 65.3967 41.8941 65.3818C42.0527 65.2771 42.2682 65.2945 42.4078 65.4341C42.5674 65.5937 42.5674 65.8524 42.4078 66.012Z" fill="white"/>
<path d="M59.2784 71.9421V72.7678H55.3798V66.6263H59.2784V67.4477H56.3332V69.2438H59.1209V70.0354H56.3332V71.9421H59.2784ZM60.1467 72.7678V68.2904H61.0234V69.0437H61.0447C61.2447 68.5458 61.7129 68.2138 62.3173 68.2138C62.9387 68.2138 63.3898 68.533 63.5686 69.0906H63.5898C63.8197 68.5458 64.3474 68.2138 64.9858 68.2138C65.8711 68.2138 66.4499 68.8011 66.4499 69.6907V72.7678H65.5264V69.912C65.5264 69.3332 65.2157 69.0012 64.6709 69.0012C64.1261 69.0012 63.7473 69.4055 63.7473 69.9716V72.7678H62.845V69.8439C62.845 69.3289 62.5173 69.0012 61.9981 69.0012C61.4533 69.0012 61.066 69.4268 61.066 70.0014V72.7678H60.1467ZM68.9057 72.1166C69.5484 72.1166 70.0506 71.674 70.0506 71.0909V70.7377L68.9483 70.8058C68.3992 70.8441 68.0885 71.0867 68.0885 71.4697C68.0885 71.8613 68.412 72.1166 68.9057 72.1166ZM68.6503 72.8444C67.7736 72.8444 67.1607 72.2997 67.1607 71.4952C67.1607 70.7121 67.7608 70.2312 68.8248 70.1716L70.0506 70.0992V69.7545C70.0506 69.2565 69.7144 68.9586 69.1526 68.9586C68.6206 68.9586 68.2886 69.214 68.2077 69.6141H67.3395C67.3905 68.8054 68.08 68.2095 69.1866 68.2095C70.2719 68.2095 70.9657 68.7841 70.9657 69.6822V72.7678H70.0847V72.0315H70.0634C69.8037 72.5295 69.2377 72.8444 68.6503 72.8444ZM71.8892 72.7678V68.2904H72.8086V72.7678H71.8892ZM72.3489 67.635C72.0552 67.635 71.8169 67.4009 71.8169 67.1115C71.8169 66.8178 72.0552 66.5837 72.3489 66.5837C72.6468 66.5837 72.8852 66.8178 72.8852 67.1115C72.8852 67.4009 72.6468 67.635 72.3489 67.635ZM73.7832 72.7678V66.6263H74.7025V72.7678H73.7832ZM81.342 71.9421V72.7678H77.5286V66.6263H78.4819V71.9421H81.342ZM83.8191 68.9501C83.1764 68.9501 82.7253 69.4396 82.6784 70.1163H84.9172C84.8959 69.431 84.4617 68.9501 83.8191 68.9501ZM84.9129 71.4527H85.7854C85.6577 72.2699 84.8831 72.8529 83.8574 72.8529C82.5422 72.8529 81.7464 71.9634 81.7464 70.5504C81.7464 69.1459 82.555 68.2095 83.8191 68.2095C85.0619 68.2095 85.8365 69.0863 85.8365 70.444V70.7589H82.6742V70.8143C82.6742 71.5931 83.1424 72.1081 83.8787 72.1081C84.4022 72.1081 84.7895 71.8442 84.9129 71.4527ZM88.1177 72.1166C88.7604 72.1166 89.2626 71.674 89.2626 71.0909V70.7377L88.1603 70.8058C87.6113 70.8441 87.3006 71.0867 87.3006 71.4697C87.3006 71.8613 87.624 72.1166 88.1177 72.1166ZM87.8624 72.8444C86.9856 72.8444 86.3727 72.2997 86.3727 71.4952C86.3727 70.7121 86.9728 70.2312 88.0369 70.1716L89.2626 70.0992V69.7545C89.2626 69.2565 88.9264 68.9586 88.3646 68.9586C87.8326 68.9586 87.5006 69.214 87.4197 69.6141H86.5515C86.6026 68.8054 87.2921 68.2095 88.3986 68.2095C89.4839 68.2095 90.1777 68.7841 90.1777 69.6822V72.7678H89.2967V72.0315H89.2754C89.0158 72.5295 88.4497 72.8444 87.8624 72.8444ZM92.0333 70.2099L93.8422 68.2904H94.9232L93.0676 70.2184L94.9956 72.7678H93.9273L92.4079 70.7802L92.0248 71.159V72.7678H91.1055V66.6263H92.0248V70.2099H92.0333ZM97.0385 72.1166C97.6812 72.1166 98.1834 71.674 98.1834 71.0909V70.7377L97.0811 70.8058C96.532 70.8441 96.2213 71.0867 96.2213 71.4697C96.2213 71.8613 96.5448 72.1166 97.0385 72.1166ZM96.7832 72.8444C95.9064 72.8444 95.2935 72.2997 95.2935 71.4952C95.2935 70.7121 95.8936 70.2312 96.9577 70.1716L98.1834 70.0992V69.7545C98.1834 69.2565 97.8472 68.9586 97.2854 68.9586C96.7534 68.9586 96.4214 69.214 96.3405 69.6141H95.4723C95.5233 68.8054 96.2128 68.2095 97.3194 68.2095C98.4047 68.2095 99.0985 68.7841 99.0985 69.6822V72.7678H98.2175V72.0315H98.1962C97.9366 72.5295 97.3705 72.8444 96.7832 72.8444ZM101.899 72.023C102.618 72.023 103.091 71.4399 103.091 70.5163C103.091 69.597 102.618 68.9927 101.899 68.9927C101.192 68.9927 100.733 69.5843 100.733 70.5163C100.733 71.4527 101.192 72.023 101.899 72.023ZM101.907 74.4532C100.852 74.4532 100.069 73.8914 99.9539 73.1168H100.878C101.009 73.4914 101.418 73.7382 101.942 73.7382C102.661 73.7382 103.086 73.3296 103.086 72.7167V71.9804H103.069C102.818 72.4656 102.291 72.7848 101.652 72.7848C100.529 72.7848 99.7922 71.9081 99.7922 70.5121C99.7922 69.1033 100.524 68.2181 101.673 68.2181C102.308 68.2181 102.827 68.5373 103.099 69.0565H103.116V68.2904H104.01V72.687C104.01 73.7552 103.184 74.4532 101.907 74.4532ZM106.793 68.9501C106.151 68.9501 105.7 69.4396 105.653 70.1163H107.892C107.87 69.431 107.436 68.9501 106.793 68.9501ZM107.887 71.4527H108.76C108.632 72.2699 107.858 72.8529 106.832 72.8529C105.517 72.8529 104.721 71.9634 104.721 70.5504C104.721 69.1459 105.529 68.2095 106.793 68.2095C108.036 68.2095 108.811 69.0863 108.811 70.444V70.7589H105.649V70.8143C105.649 71.5931 106.117 72.1081 106.853 72.1081C107.377 72.1081 107.764 71.8442 107.887 71.4527Z" fill="white"/>
<rect x="27.4482" y="89.3799" width="186.86" height="37.433" rx="9.80605" fill="url(#paint0_linear_16_921)"/>
<rect x="28.2654" y="90.1971" width="185.225" height="35.7986" rx="8.98888" stroke="#7BEDCD" stroke-opacity="0.72" stroke-width="1.63434"/>
<path d="M38.646 104.407H39.4163C39.4887 105.071 40.1186 105.509 40.9954 105.509C41.8253 105.509 42.4297 105.071 42.4297 104.466C42.4297 103.947 42.0679 103.628 41.2422 103.415L40.4548 103.211C39.3227 102.921 38.8205 102.423 38.8205 101.589C38.8205 100.568 39.7143 99.8526 40.9911 99.8526C42.2126 99.8526 43.0979 100.576 43.1319 101.606H42.3658C42.2977 100.946 41.7657 100.542 40.9656 100.542C40.1697 100.542 39.6164 100.955 39.6164 101.555C39.6164 102.019 39.9569 102.296 40.7911 102.513L41.4337 102.683C42.7063 103.002 43.2213 103.492 43.2213 104.373C43.2213 105.496 42.336 106.198 40.923 106.198C39.6206 106.198 38.7183 105.492 38.646 104.407ZM47.6774 103.121H46.9539C46.8475 102.64 46.473 102.245 45.8218 102.245C45.0557 102.245 44.5364 102.879 44.5364 103.883C44.5364 104.913 45.0642 105.522 45.8303 105.522C46.4347 105.522 46.8305 105.203 46.9582 104.671H47.6859C47.571 105.552 46.8305 106.173 45.826 106.173C44.6003 106.173 43.7831 105.309 43.7831 103.883C43.7831 102.487 44.596 101.593 45.8175 101.593C46.9241 101.593 47.5838 102.325 47.6774 103.121ZM49.8268 105.543C50.5248 105.543 51.061 105.054 51.061 104.415V104.053L49.8778 104.126C49.282 104.164 48.9415 104.428 48.9415 104.845C48.9415 105.266 49.2948 105.543 49.8268 105.543ZM49.6608 106.173C48.7798 106.173 48.1882 105.641 48.1882 104.845C48.1882 104.087 48.7713 103.611 49.7927 103.551L51.061 103.479V103.109C51.061 102.568 50.7035 102.245 50.0906 102.245C49.5203 102.245 49.1628 102.513 49.0692 102.947H48.3542C48.4052 102.181 49.0607 101.593 50.1077 101.593C51.1462 101.593 51.8016 102.155 51.8016 103.036V106.096H51.0993V105.334H51.0823C50.8184 105.841 50.2566 106.173 49.6608 106.173ZM52.7422 106.096V101.67H53.4402V102.376H53.4572C53.7041 101.9 54.1765 101.593 54.8617 101.593C55.8321 101.593 56.3939 102.219 56.3939 103.223V106.096H55.6534V103.355C55.6534 102.64 55.3171 102.249 54.6362 102.249C53.9382 102.249 53.4828 102.743 53.4828 103.492V106.096H52.7422ZM59.4924 107.752C59.403 107.752 59.254 107.743 59.1732 107.726V107.105C59.254 107.122 59.3689 107.126 59.4626 107.126C59.8754 107.126 60.1052 106.926 60.2755 106.411L60.3776 106.101L58.7433 101.67H59.5349L60.7607 105.356H60.7734L61.9992 101.67H62.7781L61.0373 106.407C60.6585 107.441 60.2925 107.752 59.4924 107.752ZM65.0721 106.173C63.8463 106.173 63.0207 105.292 63.0207 103.883C63.0207 102.47 63.8463 101.593 65.0721 101.593C66.2936 101.593 67.1193 102.47 67.1193 103.883C67.1193 105.292 66.2936 106.173 65.0721 106.173ZM65.0721 105.522C65.8552 105.522 66.366 104.926 66.366 103.883C66.366 102.84 65.8552 102.245 65.0721 102.245C64.289 102.245 63.774 102.84 63.774 103.883C63.774 104.926 64.289 105.522 65.0721 105.522ZM71.5031 101.67V106.096H70.8008V105.377H70.7838C70.5199 105.888 70.0603 106.173 69.3793 106.173C68.4131 106.173 67.8471 105.547 67.8471 104.543V101.67H68.5876V104.411C68.5876 105.13 68.9239 105.517 69.6091 105.517C70.3284 105.517 70.7625 105.024 70.7625 104.27V101.67H71.5031ZM72.4649 106.096V101.67H73.1629V102.394H73.18C73.3247 101.904 73.7333 101.593 74.2525 101.593C74.3802 101.593 74.4909 101.615 74.5504 101.623V102.342C74.4909 102.321 74.3334 102.3 74.1546 102.3C73.58 102.3 73.2055 102.713 73.2055 103.338V106.096H72.4649ZM78.7172 102.236C78.0234 102.236 77.5382 102.768 77.4914 103.504H79.8961C79.8791 102.764 79.4152 102.236 78.7172 102.236ZM79.8791 104.828H80.6069C80.4792 105.603 79.7301 106.173 78.764 106.173C77.4957 106.173 76.7253 105.292 76.7253 103.9C76.7253 102.525 77.5084 101.593 78.7299 101.593C79.9259 101.593 80.6622 102.462 80.6622 103.802V104.083H77.4871V104.126C77.4871 104.973 77.9851 105.53 78.781 105.53C79.3428 105.53 79.7556 105.245 79.8791 104.828ZM81.4113 106.096V101.67H82.1093V102.376H82.1263C82.3348 101.908 82.786 101.593 83.3818 101.593C83.9862 101.593 84.4331 101.9 84.6246 102.436H84.6416C84.8885 101.908 85.4077 101.593 86.0291 101.593C86.9059 101.593 87.472 102.164 87.472 103.04V106.096H86.7314V103.211C86.7314 102.606 86.3952 102.249 85.8121 102.249C85.2247 102.249 84.8119 102.683 84.8119 103.283V106.096H84.0713V103.13C84.0713 102.598 83.7138 102.249 83.1648 102.249C82.5774 102.249 82.1518 102.708 82.1518 103.321V106.096H81.4113ZM89.8766 105.543C90.5746 105.543 91.1109 105.054 91.1109 104.415V104.053L89.9277 104.126C89.3319 104.164 88.9914 104.428 88.9914 104.845C88.9914 105.266 89.3446 105.543 89.8766 105.543ZM89.7107 106.173C88.8296 106.173 88.238 105.641 88.238 104.845C88.238 104.087 88.8211 103.611 89.8426 103.551L91.1109 103.479V103.109C91.1109 102.568 90.7534 102.245 90.1405 102.245C89.5702 102.245 89.2127 102.513 89.1191 102.947H88.404C88.4551 102.181 89.1105 101.593 90.1575 101.593C91.196 101.593 91.8515 102.155 91.8515 103.036V106.096H91.1492V105.334H91.1322C90.8683 105.841 90.3065 106.173 89.7107 106.173ZM92.8304 106.096V101.67H93.5709V106.096H92.8304ZM93.2007 100.925C92.9495 100.925 92.741 100.717 92.741 100.465C92.741 100.21 92.9495 100.006 93.2007 100.006C93.456 100.006 93.6646 100.21 93.6646 100.465C93.6646 100.717 93.456 100.925 93.2007 100.925ZM94.6094 106.096V99.9548H95.35V106.096H94.6094ZM98.3761 100.602H99.1166V101.67H99.9764V102.279H99.1166V104.909C99.1166 105.313 99.2869 105.496 99.6657 105.496C99.7508 105.496 99.921 105.483 99.9721 105.475V106.096C99.8827 106.118 99.6784 106.13 99.5039 106.13C98.691 106.13 98.3761 105.798 98.3761 104.947V102.279H97.7164V101.67H98.3761V100.602ZM102.475 106.173C101.249 106.173 100.423 105.292 100.423 103.883C100.423 102.47 101.249 101.593 102.475 101.593C103.696 101.593 104.522 102.47 104.522 103.883C104.522 105.292 103.696 106.173 102.475 106.173ZM102.475 105.522C103.258 105.522 103.769 104.926 103.769 103.883C103.769 102.84 103.258 102.245 102.475 102.245C101.692 102.245 101.177 102.84 101.177 103.883C101.177 104.926 101.692 105.522 102.475 105.522ZM107.297 106.096V102.279H106.68V101.67H107.297V101.176C107.297 100.325 107.693 99.9207 108.51 99.9207C108.676 99.9207 108.855 99.9377 108.961 99.9548V100.555C108.872 100.542 108.748 100.529 108.625 100.529C108.225 100.529 108.033 100.742 108.033 101.181V101.67H108.94V102.279H108.037V106.096H107.297ZM109.744 106.096V101.67H110.485V106.096H109.744ZM110.114 100.925C109.863 100.925 109.655 100.717 109.655 100.465C109.655 100.21 109.863 100.006 110.114 100.006C110.37 100.006 110.578 100.21 110.578 100.465C110.578 100.717 110.37 100.925 110.114 100.925ZM111.485 106.096V101.67H112.183V102.376H112.2C112.447 101.9 112.919 101.593 113.604 101.593C114.575 101.593 115.137 102.219 115.137 103.223V106.096H114.396V103.355C114.396 102.64 114.06 102.249 113.379 102.249C112.681 102.249 112.225 102.743 112.225 103.492V106.096H111.485ZM117.758 106.173C116.63 106.173 115.864 105.271 115.864 103.883C115.864 102.496 116.626 101.593 117.741 101.593C118.375 101.593 118.886 101.904 119.15 102.389H119.167V99.9548H119.908V106.096H119.201V105.347H119.188C118.903 105.858 118.397 106.173 117.758 106.173ZM117.899 102.245C117.116 102.245 116.622 102.883 116.622 103.883C116.622 104.888 117.116 105.522 117.899 105.522C118.661 105.522 119.171 104.875 119.171 103.883C119.171 102.896 118.661 102.245 117.899 102.245ZM124.372 106.173C123.244 106.173 122.478 105.271 122.478 103.883C122.478 102.496 123.24 101.593 124.355 101.593C124.989 101.593 125.5 101.904 125.764 102.389H125.781V99.9548H126.522V106.096H125.815V105.347H125.802C125.517 105.858 125.011 106.173 124.372 106.173ZM124.513 102.245C123.73 102.245 123.236 102.883 123.236 103.883C123.236 104.888 123.73 105.522 124.513 105.522C125.275 105.522 125.785 104.875 125.785 103.883C125.785 102.896 125.275 102.245 124.513 102.245ZM128.982 105.543C129.68 105.543 130.216 105.054 130.216 104.415V104.053L129.033 104.126C128.437 104.164 128.096 104.428 128.096 104.845C128.096 105.266 128.45 105.543 128.982 105.543ZM128.816 106.173C127.935 106.173 127.343 105.641 127.343 104.845C127.343 104.087 127.926 103.611 128.948 103.551L130.216 103.479V103.109C130.216 102.568 129.858 102.245 129.246 102.245C128.675 102.245 128.318 102.513 128.224 102.947H127.509C127.56 102.181 128.216 101.593 129.263 101.593C130.301 101.593 130.957 102.155 130.957 103.036V106.096H130.254V105.334H130.237C129.973 105.841 129.412 106.173 128.816 106.173ZM132.135 100.602H132.876V101.67H133.736V102.279H132.876V104.909C132.876 105.313 133.046 105.496 133.425 105.496C133.51 105.496 133.68 105.483 133.731 105.475V106.096C133.642 106.118 133.438 106.13 133.263 106.13C132.45 106.13 132.135 105.798 132.135 104.947V102.279H131.476V101.67H132.135V100.602ZM135.902 105.543C136.6 105.543 137.136 105.054 137.136 104.415V104.053L135.953 104.126C135.357 104.164 135.017 104.428 135.017 104.845C135.017 105.266 135.37 105.543 135.902 105.543ZM135.736 106.173C134.855 106.173 134.263 105.641 134.263 104.845C134.263 104.087 134.847 103.611 135.868 103.551L137.136 103.479V103.109C137.136 102.568 136.779 102.245 136.166 102.245C135.596 102.245 135.238 102.513 135.145 102.947H134.429C134.481 102.181 135.136 101.593 136.183 101.593C137.221 101.593 137.877 102.155 137.877 103.036V106.096H137.175V105.334H137.158C136.894 105.841 136.332 106.173 135.736 106.173ZM140.643 106.096V99.9548H141.384V106.096H140.643ZM144.159 102.236C143.465 102.236 142.98 102.768 142.933 103.504H145.338C145.321 102.764 144.857 102.236 144.159 102.236ZM145.321 104.828H146.049C145.921 105.603 145.172 106.173 144.206 106.173C142.937 106.173 142.167 105.292 142.167 103.9C142.167 102.525 142.95 101.593 144.172 101.593C145.368 101.593 146.104 102.462 146.104 103.802V104.083H142.929V104.126C142.929 104.973 143.427 105.53 144.223 105.53C144.785 105.53 145.197 105.245 145.321 104.828ZM148.313 105.543C149.011 105.543 149.547 105.054 149.547 104.415V104.053L148.364 104.126C147.768 104.164 147.428 104.428 147.428 104.845C147.428 105.266 147.781 105.543 148.313 105.543ZM148.147 106.173C147.266 106.173 146.674 105.641 146.674 104.845C146.674 104.087 147.257 103.611 148.279 103.551L149.547 103.479V103.109C149.547 102.568 149.19 102.245 148.577 102.245C148.006 102.245 147.649 102.513 147.555 102.947H146.84C146.891 102.181 147.547 101.593 148.594 101.593C149.632 101.593 150.288 102.155 150.288 103.036V106.096H149.585V105.334H149.568C149.305 105.841 148.743 106.173 148.147 106.173ZM152.007 103.636L153.965 101.67H154.863L152.944 103.581L154.923 106.096H154.063L152.42 104.036L152.007 104.428V106.096H151.267V99.9548H152.007V103.636ZM155.212 102.891C155.212 102.134 155.889 101.593 156.863 101.593C157.778 101.593 158.451 102.138 158.485 102.887H157.778C157.727 102.462 157.383 102.198 156.838 102.198C156.297 102.198 155.94 102.466 155.94 102.853C155.94 103.16 156.174 103.364 156.676 103.492L157.361 103.658C158.255 103.883 158.579 104.207 158.579 104.858C158.579 105.628 157.851 106.173 156.817 106.173C155.846 106.173 155.169 105.645 155.093 104.862H155.833C155.914 105.322 156.263 105.569 156.863 105.569C157.463 105.569 157.834 105.313 157.834 104.913C157.834 104.598 157.651 104.428 157.153 104.296L156.374 104.096C155.595 103.896 155.212 103.496 155.212 102.891ZM162.596 105.543C163.294 105.543 163.831 105.054 163.831 104.415V104.053L162.647 104.126C162.052 104.164 161.711 104.428 161.711 104.845C161.711 105.266 162.064 105.543 162.596 105.543ZM162.43 106.173C161.549 106.173 160.958 105.641 160.958 104.845C160.958 104.087 161.541 103.611 162.562 103.551L163.831 103.479V103.109C163.831 102.568 163.473 102.245 162.86 102.245C162.29 102.245 161.932 102.513 161.839 102.947H161.124C161.175 102.181 161.83 101.593 162.877 101.593C163.916 101.593 164.571 102.155 164.571 103.036V106.096H163.869V105.334H163.852C163.588 105.841 163.026 106.173 162.43 106.173ZM165.512 106.096V101.67H166.21V102.376H166.227C166.474 101.9 166.946 101.593 167.631 101.593C168.602 101.593 169.163 102.219 169.163 103.223V106.096H168.423V103.355C168.423 102.64 168.087 102.249 167.406 102.249C166.708 102.249 166.252 102.743 166.252 103.492V106.096H165.512ZM171.785 106.173C170.657 106.173 169.891 105.271 169.891 103.883C169.891 102.496 170.653 101.593 171.768 101.593C172.402 101.593 172.913 101.904 173.177 102.389H173.194V99.9548H173.935V106.096H173.228V105.347H173.215C172.93 105.858 172.424 106.173 171.785 106.173ZM171.926 102.245C171.143 102.245 170.649 102.883 170.649 103.883C170.649 104.888 171.143 105.522 171.926 105.522C172.688 105.522 173.198 104.875 173.198 103.883C173.198 102.896 172.688 102.245 171.926 102.245ZM177.501 103.636L179.459 101.67H180.357L178.438 103.581L180.417 106.096H179.557L177.914 104.036L177.501 104.428V106.096H176.761V99.9548H177.501V103.636ZM182.515 102.236C181.821 102.236 181.336 102.768 181.289 103.504H183.694C183.677 102.764 183.213 102.236 182.515 102.236ZM183.677 104.828H184.405C184.277 105.603 183.528 106.173 182.562 106.173C181.293 106.173 180.523 105.292 180.523 103.9C180.523 102.525 181.306 101.593 182.528 101.593C183.724 101.593 184.46 102.462 184.46 103.802V104.083H181.285V104.126C181.285 104.973 181.783 105.53 182.579 105.53C183.141 105.53 183.553 105.245 183.677 104.828ZM186.984 102.236C186.29 102.236 185.805 102.768 185.758 103.504H188.163C188.146 102.764 187.682 102.236 186.984 102.236ZM188.146 104.828H188.873C188.746 105.603 187.997 106.173 187.031 106.173C185.762 106.173 184.992 105.292 184.992 103.9C184.992 102.525 185.775 101.593 186.997 101.593C188.193 101.593 188.929 102.462 188.929 103.802V104.083H185.754V104.126C185.754 104.973 186.252 105.53 187.048 105.53C187.609 105.53 188.022 105.245 188.146 104.828ZM191.827 101.593C192.955 101.593 193.721 102.496 193.721 103.883C193.721 105.271 192.959 106.173 191.844 106.173C191.21 106.173 190.699 105.862 190.435 105.377H190.418V107.573H189.678V101.67H190.38V102.419H190.397C190.67 101.921 191.185 101.593 191.827 101.593ZM191.683 105.522C192.47 105.522 192.964 104.888 192.964 103.883C192.964 102.883 192.47 102.245 191.683 102.245C190.925 102.245 190.414 102.9 190.414 103.883C190.414 104.871 190.925 105.522 191.683 105.522ZM39.1908 117.752C39.1014 117.752 38.9524 117.743 38.8716 117.726V117.105C38.9524 117.122 39.0673 117.126 39.161 117.126C39.5738 117.126 39.8037 116.926 39.9739 116.411L40.076 116.101L38.4417 111.67H39.2333L40.4591 115.356H40.4719L41.6976 111.67H42.4765L40.7357 116.407C40.3569 117.441 39.9909 117.752 39.1908 117.752ZM44.7705 116.173C43.5448 116.173 42.7191 115.292 42.7191 113.883C42.7191 112.47 43.5448 111.593 44.7705 111.593C45.992 111.593 46.8177 112.47 46.8177 113.883C46.8177 115.292 45.992 116.173 44.7705 116.173ZM44.7705 115.522C45.5536 115.522 46.0644 114.926 46.0644 113.883C46.0644 112.84 45.5536 112.245 44.7705 112.245C43.9874 112.245 43.4724 112.84 43.4724 113.883C43.4724 114.926 43.9874 115.522 44.7705 115.522ZM51.2015 111.67V116.096H50.4992V115.377H50.4822C50.2183 115.888 49.7587 116.173 49.0777 116.173C48.1116 116.173 47.5455 115.547 47.5455 114.543V111.67H48.2861V114.411C48.2861 115.13 48.6223 115.517 49.3075 115.517C50.0268 115.517 50.4609 115.024 50.4609 114.27V111.67H51.2015ZM52.1634 116.096V111.67H52.8614V112.394H52.8784C53.0231 111.904 53.4317 111.593 53.9509 111.593C54.0786 111.593 54.1893 111.615 54.2488 111.623V112.342C54.1893 112.321 54.0318 112.3 53.853 112.3C53.2785 112.3 52.9039 112.713 52.9039 113.338V116.096H52.1634ZM58.7901 111.593C59.918 111.593 60.6841 112.496 60.6841 113.883C60.6841 115.271 59.9222 116.173 58.8071 116.173C58.173 116.173 57.6622 115.862 57.3984 115.377H57.3813V117.573H56.6408V111.67H57.343V112.419H57.3601C57.6324 111.921 58.1474 111.593 58.7901 111.593ZM58.6454 115.522C59.4328 115.522 59.9265 114.888 59.9265 113.883C59.9265 112.883 59.4328 112.245 58.6454 112.245C57.8878 112.245 57.3771 112.9 57.3771 113.883C57.3771 114.871 57.8878 115.522 58.6454 115.522ZM61.4331 116.096V111.67H62.1311V112.394H62.1482C62.2929 111.904 62.7015 111.593 63.2207 111.593C63.3484 111.593 63.459 111.615 63.5186 111.623V112.342C63.459 112.321 63.3016 112.3 63.1228 112.3C62.5482 112.3 62.1737 112.713 62.1737 113.338V116.096H61.4331ZM64.1613 116.096V111.67H64.9019V116.096H64.1613ZM64.5316 110.925C64.2805 110.925 64.0719 110.717 64.0719 110.465C64.0719 110.21 64.2805 110.006 64.5316 110.006C64.7869 110.006 64.9955 110.21 64.9955 110.465C64.9955 110.717 64.7869 110.925 64.5316 110.925ZM69.5325 111.67L67.9067 116.096H67.1491L65.519 111.67H66.2979L67.5194 115.309H67.5364L68.7621 111.67H69.5325ZM71.4903 115.543C72.1883 115.543 72.7246 115.054 72.7246 114.415V114.053L71.5414 114.126C70.9455 114.164 70.605 114.428 70.605 114.845C70.605 115.266 70.9583 115.543 71.4903 115.543ZM71.3243 116.173C70.4433 116.173 69.8517 115.641 69.8517 114.845C69.8517 114.087 70.4348 113.611 71.4563 113.551L72.7246 113.479V113.109C72.7246 112.568 72.3671 112.245 71.7542 112.245C71.1839 112.245 70.8264 112.513 70.7327 112.947H70.0177C70.0688 112.181 70.7242 111.593 71.7712 111.593C72.8097 111.593 73.4651 112.155 73.4651 113.036V116.096H72.7629V115.334H72.7459C72.482 115.841 71.9202 116.173 71.3243 116.173ZM74.6441 110.602H75.3846V111.67H76.2444V112.279H75.3846V114.909C75.3846 115.313 75.5549 115.496 75.9337 115.496C76.0188 115.496 76.189 115.483 76.2401 115.475V116.096C76.1507 116.118 75.9464 116.13 75.7719 116.13C74.959 116.13 74.6441 115.798 74.6441 114.947V112.279H73.9844V111.67H74.6441V110.602ZM78.6831 112.236C77.9894 112.236 77.5042 112.768 77.4574 113.504H79.862C79.845 112.764 79.3811 112.236 78.6831 112.236ZM79.845 114.828H80.5728C80.4451 115.603 79.6961 116.173 78.7299 116.173C77.4616 116.173 76.6913 115.292 76.6913 113.9C76.6913 112.525 77.4744 111.593 78.6959 111.593C79.8918 111.593 80.6281 112.462 80.6281 113.802V114.083H77.4531V114.126C77.4531 114.973 77.9511 115.53 78.7469 115.53C79.3088 115.53 79.7216 115.245 79.845 114.828ZM84.8417 116.173C83.7138 116.173 82.9477 115.271 82.9477 113.883C82.9477 112.496 83.7096 111.593 84.8247 111.593C85.4588 111.593 85.9695 111.904 86.2334 112.389H86.2505V109.955H86.991V116.096H86.2845V115.347H86.2717C85.9866 115.858 85.4801 116.173 84.8417 116.173ZM84.9821 112.245C84.199 112.245 83.7053 112.883 83.7053 113.883C83.7053 114.888 84.199 115.522 84.9821 115.522C85.744 115.522 86.2547 114.875 86.2547 113.883C86.2547 112.896 85.744 112.245 84.9821 112.245ZM89.766 112.236C89.0722 112.236 88.587 112.768 88.5402 113.504H90.9449C90.9279 112.764 90.464 112.236 89.766 112.236ZM90.9279 114.828H91.6557C91.528 115.603 90.7789 116.173 89.8128 116.173C88.5445 116.173 87.7741 115.292 87.7741 113.9C87.7741 112.525 88.5573 111.593 89.7788 111.593C90.9747 111.593 91.711 112.462 91.711 113.802V114.083H88.536V114.126C88.536 114.973 89.0339 115.53 89.8298 115.53C90.3916 115.53 90.8045 115.245 90.9279 114.828ZM92.6984 110.602H93.439V111.67H94.2987V112.279H93.439V114.909C93.439 115.313 93.6092 115.496 93.988 115.496C94.0732 115.496 94.2434 115.483 94.2945 115.475V116.096C94.2051 116.118 94.0008 116.13 93.8263 116.13C93.0134 116.13 92.6984 115.798 92.6984 114.947V112.279H92.0387V111.67H92.6984V110.602ZM96.4651 115.543C97.1631 115.543 97.6994 115.054 97.6994 114.415V114.053L96.5162 114.126C95.9203 114.164 95.5798 114.428 95.5798 114.845C95.5798 115.266 95.9331 115.543 96.4651 115.543ZM96.2991 116.173C95.4181 116.173 94.8265 115.641 94.8265 114.845C94.8265 114.087 95.4096 113.611 96.431 113.551L97.6994 113.479V113.109C97.6994 112.568 97.3418 112.245 96.729 112.245C96.1586 112.245 95.8011 112.513 95.7075 112.947H94.9925C95.0436 112.181 95.699 111.593 96.746 111.593C97.7845 111.593 98.4399 112.155 98.4399 113.036V116.096H97.7377V115.334H97.7206C97.4568 115.841 96.895 116.173 96.2991 116.173ZM99.4188 116.096V111.67H100.159V116.096H99.4188ZM99.7891 110.925C99.538 110.925 99.3294 110.717 99.3294 110.465C99.3294 110.21 99.538 110.006 99.7891 110.006C100.044 110.006 100.253 110.21 100.253 110.465C100.253 110.717 100.044 110.925 99.7891 110.925ZM101.198 116.096V109.955H101.938V116.096H101.198ZM102.862 112.891C102.862 112.134 103.539 111.593 104.513 111.593C105.428 111.593 106.101 112.138 106.135 112.887H105.428C105.377 112.462 105.033 112.198 104.488 112.198C103.947 112.198 103.59 112.466 103.59 112.853C103.59 113.16 103.824 113.364 104.326 113.492L105.011 113.658C105.905 113.883 106.229 114.207 106.229 114.858C106.229 115.628 105.501 116.173 104.467 116.173C103.496 116.173 102.819 115.645 102.743 114.862H103.483C103.564 115.322 103.913 115.569 104.513 115.569C105.113 115.569 105.484 115.313 105.484 114.913C105.484 114.598 105.301 114.428 104.803 114.296L104.024 114.096C103.245 113.896 102.862 113.496 102.862 112.891ZM108.71 112.891C108.71 112.134 109.387 111.593 110.361 111.593C111.276 111.593 111.949 112.138 111.983 112.887H111.276C111.225 112.462 110.88 112.198 110.336 112.198C109.795 112.198 109.438 112.466 109.438 112.853C109.438 113.16 109.672 113.364 110.174 113.492L110.859 113.658C111.753 113.883 112.076 114.207 112.076 114.858C112.076 115.628 111.349 116.173 110.314 116.173C109.344 116.173 108.667 115.645 108.591 114.862H109.331C109.412 115.322 109.761 115.569 110.361 115.569C110.961 115.569 111.332 115.313 111.332 114.913C111.332 114.598 111.149 114.428 110.651 114.296L109.872 114.096C109.093 113.896 108.71 113.496 108.71 112.891ZM114.307 115.543C115.005 115.543 115.541 115.054 115.541 114.415V114.053L114.358 114.126C113.762 114.164 113.421 114.428 113.421 114.845C113.421 115.266 113.775 115.543 114.307 115.543ZM114.141 116.173C113.26 116.173 112.668 115.641 112.668 114.845C112.668 114.087 113.251 113.611 114.273 113.551L115.541 113.479V113.109C115.541 112.568 115.183 112.245 114.571 112.245C114 112.245 113.643 112.513 113.549 112.947H112.834C112.885 112.181 113.541 111.593 114.588 111.593C115.626 111.593 116.281 112.155 116.281 113.036V116.096H115.579V115.334H115.562C115.298 115.841 114.737 116.173 114.141 116.173ZM117.46 116.096V112.279H116.843V111.67H117.46V111.176C117.46 110.325 117.856 109.921 118.673 109.921C118.839 109.921 119.018 109.938 119.125 109.955V110.555C119.035 110.542 118.912 110.529 118.788 110.529C118.388 110.529 118.197 110.742 118.197 111.181V111.67H119.103V112.279H118.201V116.096H117.46ZM121.431 112.236C120.738 112.236 120.252 112.768 120.206 113.504H122.61C122.593 112.764 122.129 112.236 121.431 112.236ZM122.593 114.828H123.321C123.193 115.603 122.444 116.173 121.478 116.173C120.21 116.173 119.44 115.292 119.44 113.9C119.44 112.525 120.223 111.593 121.444 111.593C122.64 111.593 123.376 112.462 123.376 113.802V114.083H120.201V114.126C120.201 114.973 120.699 115.53 121.495 115.53C122.057 115.53 122.47 115.245 122.593 114.828ZM124.751 116.139C124.479 116.139 124.266 115.926 124.266 115.654C124.266 115.381 124.479 115.168 124.751 115.168C125.024 115.168 125.236 115.381 125.236 115.654C125.236 115.926 125.024 116.139 124.751 116.139Z" fill="white"/>
<rect x="27.4482" y="144.947" width="186.86" height="32.6868" rx="8.71649" fill="#1D2634"/>
<rect x="27.8568" y="145.356" width="186.043" height="31.8697" rx="8.3079" stroke="white" stroke-opacity="0.16" stroke-width="0.817171"/>
<path d="M37.2862 156.139V156.656H34.4325V152.05H37.2862V152.567H35.0071V154.045H37.1681V154.556H35.0071V156.139H37.2862ZM37.9597 156.656V153.337H38.4832V153.867H38.496C38.6524 153.515 38.9908 153.279 39.4377 153.279C39.8909 153.279 40.2261 153.509 40.3697 153.911H40.3825C40.5677 153.515 40.9571 153.279 41.4231 153.279C42.0807 153.279 42.5052 153.707 42.5052 154.365V156.656H41.9498V154.492C41.9498 154.039 41.6976 153.771 41.2603 153.771C40.8198 153.771 40.5102 154.096 40.5102 154.547V156.656H39.9548V154.432C39.9548 154.033 39.6866 153.771 39.2749 153.771C38.8344 153.771 38.5151 154.116 38.5151 154.575V156.656H37.9597ZM44.3088 156.242C44.8323 156.242 45.2345 155.874 45.2345 155.396V155.124L44.3471 155.179C43.9002 155.207 43.6448 155.405 43.6448 155.718C43.6448 156.034 43.9098 156.242 44.3088 156.242ZM44.1843 156.714C43.5235 156.714 43.0798 156.315 43.0798 155.718C43.0798 155.15 43.5171 154.792 44.2832 154.748L45.2345 154.693V154.416C45.2345 154.01 44.9663 153.768 44.5067 153.768C44.0789 153.768 43.8108 153.969 43.7406 154.294H43.2043C43.2426 153.72 43.7342 153.279 44.5194 153.279C45.2983 153.279 45.7899 153.701 45.7899 154.361V156.656H45.2632V156.085H45.2504C45.0525 156.465 44.6312 156.714 44.1843 156.714ZM46.5241 156.656V153.337H47.0795V156.656H46.5241ZM46.8018 152.778C46.6134 152.778 46.457 152.622 46.457 152.433C46.457 152.242 46.6134 152.089 46.8018 152.089C46.9933 152.089 47.1497 152.242 47.1497 152.433C47.1497 152.622 46.9933 152.778 46.8018 152.778ZM47.8583 156.656V152.05H48.4138V156.656H47.8583Z" fill="white" fill-opacity="0.72"/>
<path d="M38.4502 169.099V169.925H34.5517V163.784H38.4502V164.605H35.505V166.401H38.2928V167.193H35.505V169.099H38.4502ZM39.3185 169.925V165.448H40.1952V166.197H40.2165C40.4591 165.686 40.9358 165.371 41.6253 165.371C42.6127 165.371 43.1788 166.001 43.1788 167.027V169.925H42.2552V167.206C42.2552 166.533 41.9402 166.163 41.3018 166.163C40.6549 166.163 40.2378 166.622 40.2378 167.316V169.925H39.3185ZM44.3364 164.388H45.26V165.448H46.1112V166.176H45.26V168.644C45.26 169.031 45.4302 169.206 45.8048 169.206C45.8984 169.206 46.0474 169.197 46.107 169.185V169.912C46.0048 169.938 45.8005 169.955 45.5962 169.955C44.6897 169.955 44.3364 169.61 44.3364 168.746V166.176H43.6852V165.448H44.3364V164.388ZM48.6393 166.107C47.9967 166.107 47.5455 166.597 47.4987 167.274H49.7374C49.7161 166.588 49.282 166.107 48.6393 166.107ZM49.7332 168.61H50.6057C50.478 169.427 49.7034 170.01 48.6776 170.01C47.3625 170.01 46.5666 169.121 46.5666 167.708C46.5666 166.303 47.3753 165.367 48.6393 165.367C49.8821 165.367 50.6567 166.244 50.6567 167.601V167.916H47.4945V167.972C47.4945 168.75 47.9626 169.265 48.6989 169.265C49.2224 169.265 49.6097 169.002 49.7332 168.61ZM51.3718 169.925V165.448H52.2485V166.21H52.2698C52.4188 165.686 52.8188 165.375 53.3466 165.375C53.4785 165.375 53.5934 165.397 53.6615 165.409V166.265C53.5892 166.235 53.4275 166.214 53.2487 166.214C52.6571 166.214 52.2911 166.61 52.2911 167.244V169.925H51.3718ZM56.445 171.594C56.3727 171.594 56.1386 171.585 56.0705 171.572V170.827C56.1386 170.844 56.2918 170.844 56.3684 170.844C56.7983 170.844 57.0239 170.666 57.1643 170.206C57.1643 170.198 57.2452 169.934 57.2452 169.929L55.6279 165.448H56.6238L57.7602 169.091H57.7729L58.9093 165.448H59.8797L58.1985 170.159C57.8155 171.245 57.3771 171.594 56.445 171.594ZM62.2163 170.01C60.9352 170.01 60.0925 169.129 60.0925 167.686C60.0925 166.248 60.9395 165.367 62.2163 165.367C63.4931 165.367 64.3401 166.248 64.3401 167.686C64.3401 169.129 63.4974 170.01 62.2163 170.01ZM62.2163 169.253C62.9398 169.253 63.4037 168.682 63.4037 167.686C63.4037 166.695 62.9356 166.124 62.2163 166.124C61.497 166.124 61.0288 166.695 61.0288 167.686C61.0288 168.682 61.497 169.253 62.2163 169.253ZM68.8899 165.448V169.925H68.0088V169.168H67.9876C67.7407 169.704 67.2853 170.006 66.6001 170.006C65.6254 170.006 65.0296 169.372 65.0296 168.346V165.448H65.9489V168.167C65.9489 168.848 66.2724 169.214 66.9065 169.214C67.5705 169.214 67.9705 168.755 67.9705 168.057V165.448H68.8899ZM69.8007 169.925V165.448H70.6774V166.21H70.6987C70.8477 165.686 71.2477 165.375 71.7755 165.375C71.9074 165.375 72.0223 165.397 72.0904 165.409V166.265C72.0181 166.235 71.8564 166.214 71.6776 166.214C71.086 166.214 70.72 166.61 70.72 167.244V169.925H69.8007ZM76.304 166.107C75.6613 166.107 75.2102 166.597 75.1633 167.274H77.4021C77.3808 166.588 76.9467 166.107 76.304 166.107ZM77.3978 168.61H78.2703C78.1426 169.427 77.368 170.01 76.3423 170.01C75.0272 170.01 74.2313 169.121 74.2313 167.708C74.2313 166.303 75.0399 165.367 76.304 165.367C77.5468 165.367 78.3214 166.244 78.3214 167.601V167.916H75.1591V167.972C75.1591 168.75 75.6273 169.265 76.3636 169.265C76.8871 169.265 77.2744 169.002 77.3978 168.61ZM79.0364 169.925V165.448H79.9131V166.201H79.9344C80.1345 165.703 80.6026 165.371 81.207 165.371C81.8284 165.371 82.2795 165.69 82.4583 166.248H82.4796C82.7094 165.703 83.2372 165.371 83.8756 165.371C84.7608 165.371 85.3397 165.958 85.3397 166.848V169.925H84.4161V167.069C84.4161 166.49 84.1054 166.159 83.5606 166.159C83.0158 166.159 82.6371 166.563 82.6371 167.129V169.925H81.7348V167.001C81.7348 166.486 81.407 166.159 80.8878 166.159C80.343 166.159 79.9557 166.584 79.9557 167.159V169.925H79.0364ZM87.7954 169.274C88.4381 169.274 88.9403 168.831 88.9403 168.248V167.895L87.838 167.963C87.289 168.001 86.9783 168.244 86.9783 168.627C86.9783 169.019 87.3017 169.274 87.7954 169.274ZM87.5401 170.002C86.6633 170.002 86.0504 169.457 86.0504 168.653C86.0504 167.869 86.6506 167.389 87.7146 167.329L88.9403 167.257V166.912C88.9403 166.414 88.6041 166.116 88.0423 166.116C87.5103 166.116 87.1783 166.371 87.0974 166.771H86.2292C86.2803 165.963 86.9698 165.367 88.0763 165.367C89.1617 165.367 89.8554 165.941 89.8554 166.839V169.925H88.9744V169.189H88.9531C88.6935 169.687 88.1274 170.002 87.5401 170.002ZM90.779 169.925V165.448H91.6983V169.925H90.779ZM91.2386 164.792C90.945 164.792 90.7066 164.558 90.7066 164.269C90.7066 163.975 90.945 163.741 91.2386 163.741C91.5366 163.741 91.7749 163.975 91.7749 164.269C91.7749 164.558 91.5366 164.792 91.2386 164.792ZM92.6729 169.925V163.784H93.5922V169.925H92.6729Z" fill="white" fill-opacity="0.72"/>
<path d="M28.9677 197.726V199.935H30.3041C31.0404 199.935 31.4617 199.531 31.4617 198.828C31.4617 198.143 31.0149 197.726 30.2785 197.726H28.9677ZM28.9677 200.705V203.067H28.0143V196.926H30.3935C31.6575 196.926 32.4449 197.658 32.4449 198.803C32.4449 199.633 32.0023 200.305 31.2532 200.556L32.6279 203.067H31.5298L30.2785 200.705H28.9677ZM35.1135 199.25C34.4708 199.25 34.0197 199.739 33.9728 200.416H36.2115C36.1903 199.731 35.7561 199.25 35.1135 199.25ZM36.2073 201.752H37.0798C36.9521 202.569 36.1775 203.153 35.1518 203.153C33.8366 203.153 33.0408 202.263 33.0408 200.85C33.0408 199.445 33.8494 198.509 35.1135 198.509C36.3563 198.509 37.1309 199.386 37.1309 200.744V201.059H33.9686V201.114C33.9686 201.893 34.4368 202.408 35.1731 202.408C35.6966 202.408 36.0839 202.144 36.2073 201.752ZM37.765 199.858C37.765 199.058 38.4715 198.509 39.5185 198.509C40.5145 198.509 41.2125 199.067 41.2423 199.863H40.3783C40.3357 199.458 40.008 199.207 39.493 199.207C38.995 199.207 38.6631 199.45 38.6631 199.803C38.6631 200.08 38.8844 200.267 39.3483 200.382L40.1016 200.556C41.0039 200.773 41.3444 201.114 41.3444 201.774C41.3444 202.591 40.5826 203.153 39.4845 203.153C38.4247 203.153 37.7225 202.603 37.6501 201.782H38.5609C38.6333 202.212 38.9652 202.45 39.527 202.45C40.0803 202.45 40.4208 202.22 40.4208 201.859C40.4208 201.573 40.2506 201.416 39.7824 201.297L38.9823 201.101C38.1736 200.905 37.765 200.484 37.765 199.858ZM43.9321 199.25C43.2894 199.25 42.8383 199.739 42.7915 200.416H45.0302C45.0089 199.731 44.5748 199.25 43.9321 199.25ZM45.0259 201.752H45.8984C45.7707 202.569 44.9961 203.153 43.9704 203.153C42.6553 203.153 41.8594 202.263 41.8594 200.85C41.8594 199.445 42.668 198.509 43.9321 198.509C45.1749 198.509 45.9495 199.386 45.9495 200.744V201.059H42.7872V201.114C42.7872 201.893 43.2554 202.408 43.9917 202.408C44.5152 202.408 44.9025 202.144 45.0259 201.752ZM46.6645 203.067V198.59H47.5413V199.339H47.5626C47.8052 198.828 48.2818 198.513 48.9713 198.513C49.9587 198.513 50.5248 199.143 50.5248 200.169V203.067H49.6012V200.348C49.6012 199.675 49.2863 199.305 48.6479 199.305C48.0009 199.305 47.5838 199.765 47.5838 200.458V203.067H46.6645ZM51.6825 197.53H52.606V198.59H53.4573V199.318H52.606V201.786C52.606 202.174 52.7763 202.348 53.1508 202.348C53.2445 202.348 53.3934 202.34 53.453 202.327V203.055C53.3509 203.08 53.1466 203.097 52.9423 203.097C52.0357 203.097 51.6825 202.752 51.6825 201.888V199.318H51.0313V198.59H51.6825V197.53ZM59.8286 200.131H58.9519C58.8582 199.654 58.5007 199.275 57.9006 199.275C57.1899 199.275 56.7217 199.867 56.7217 200.829C56.7217 201.812 57.1941 202.382 57.9091 202.382C58.4752 202.382 58.8455 202.071 58.9519 201.552H59.8371C59.7393 202.506 58.9774 203.153 57.9006 203.153C56.6195 203.153 55.7853 202.276 55.7853 200.829C55.7853 199.407 56.6195 198.509 57.8921 198.509C59.0455 198.509 59.7478 199.25 59.8286 200.131ZM60.5224 203.067V196.926H61.4332V199.339H61.4545C61.7013 198.816 62.1908 198.513 62.8717 198.513C63.8549 198.513 64.4422 199.169 64.4422 200.182V203.067H63.5187V200.361C63.5187 199.701 63.1867 199.305 62.5398 199.305C61.8588 199.305 61.4417 199.773 61.4417 200.48V203.067H60.5224ZM67.2045 199.25C66.5618 199.25 66.1106 199.739 66.0638 200.416H68.3025C68.2812 199.731 67.8471 199.25 67.2045 199.25ZM68.2983 201.752H69.1708C69.0431 202.569 68.2685 203.153 67.2428 203.153C65.9276 203.153 65.1317 202.263 65.1317 200.85C65.1317 199.445 65.9404 198.509 67.2045 198.509C68.4472 198.509 69.2218 199.386 69.2218 200.744V201.059H66.0596V201.114C66.0596 201.893 66.5277 202.408 67.264 202.408C67.7875 202.408 68.1748 202.144 68.2983 201.752ZM73.7801 200.131H72.9034C72.8097 199.654 72.4522 199.275 71.8521 199.275C71.1413 199.275 70.6732 199.867 70.6732 200.829C70.6732 201.812 71.1456 202.382 71.8606 202.382C72.4267 202.382 72.797 202.071 72.9034 201.552H73.7886C73.6907 202.506 72.9289 203.153 71.8521 203.153C70.571 203.153 69.7368 202.276 69.7368 200.829C69.7368 199.407 70.571 198.509 71.8436 198.509C72.997 198.509 73.6993 199.25 73.7801 200.131ZM75.4017 200.509L77.2105 198.59H78.2916L76.4359 200.518L78.3639 203.067H77.2957L75.7762 201.08L75.3932 201.459V203.067H74.4739V196.926H75.3932V200.509H75.4017ZM79.5301 203.114C79.2194 203.114 78.9726 202.867 78.9726 202.557C78.9726 202.246 79.2194 201.999 79.5301 201.999C79.8408 201.999 80.0877 202.246 80.0877 202.557C80.0877 202.867 79.8408 203.114 79.5301 203.114ZM79.5301 200.012C79.2194 200.012 78.9726 199.769 78.9726 199.454C78.9726 199.143 79.2194 198.896 79.5301 198.896C79.8408 198.896 80.0877 199.143 80.0877 199.454C80.0877 199.769 79.8408 200.012 79.5301 200.012Z" fill="white"/>
<path d="M188.121 200.288V199.539H188.862C189.526 199.539 189.981 199.122 189.981 198.543C189.981 197.973 189.589 197.594 188.862 197.594C188.198 197.594 187.755 197.977 187.7 198.581H186.802C186.874 197.505 187.687 196.811 188.904 196.811C190.066 196.811 190.913 197.471 190.913 198.415C190.913 199.182 190.411 199.731 189.649 199.867V199.884C190.573 199.948 191.168 200.514 191.168 201.373C191.168 202.446 190.194 203.182 188.913 203.182C187.589 203.182 186.738 202.455 186.678 201.395H187.593C187.653 201.982 188.138 202.386 188.913 202.386C189.662 202.386 190.198 201.961 190.198 201.361C190.198 200.697 189.696 200.288 188.887 200.288H188.121ZM194.875 203.067H193.922V196.926H194.875V203.067ZM196.165 197.53H197.089V198.59H197.94V199.318H197.089V201.786C197.089 202.174 197.259 202.348 197.633 202.348C197.727 202.348 197.876 202.34 197.936 202.327V203.055C197.833 203.08 197.629 203.097 197.425 203.097C196.518 203.097 196.165 202.752 196.165 201.888V199.318H195.514V198.59H196.165V197.53ZM200.468 199.25C199.825 199.25 199.374 199.739 199.327 200.416H201.566C201.545 199.731 201.111 199.25 200.468 199.25ZM201.562 201.752H202.434C202.307 202.569 201.532 203.153 200.506 203.153C199.191 203.153 198.395 202.263 198.395 200.85C198.395 199.445 199.204 198.509 200.468 198.509C201.711 198.509 202.485 199.386 202.485 200.744V201.059H199.323V201.114C199.323 201.893 199.791 202.408 200.528 202.408C201.051 202.408 201.438 202.144 201.562 201.752ZM203.2 203.067V198.59H204.077V199.343H204.098C204.298 198.845 204.767 198.513 205.371 198.513C205.992 198.513 206.444 198.833 206.622 199.39H206.644C206.873 198.845 207.401 198.513 208.04 198.513C208.925 198.513 209.504 199.101 209.504 199.99V203.067H208.58V200.212C208.58 199.633 208.269 199.301 207.725 199.301C207.18 199.301 206.801 199.705 206.801 200.271V203.067H205.899V200.143C205.899 199.628 205.571 199.301 205.052 199.301C204.507 199.301 204.12 199.726 204.12 200.301V203.067H203.2ZM210.312 199.858C210.312 199.058 211.019 198.509 212.066 198.509C213.062 198.509 213.76 199.067 213.79 199.863H212.926C212.883 199.458 212.555 199.207 212.04 199.207C211.542 199.207 211.21 199.45 211.21 199.803C211.21 200.08 211.432 200.267 211.896 200.382L212.649 200.556C213.551 200.773 213.892 201.114 213.892 201.774C213.892 202.591 213.13 203.153 212.032 203.153C210.972 203.153 210.27 202.603 210.197 201.782H211.108C211.181 202.212 211.513 202.45 212.074 202.45C212.628 202.45 212.968 202.22 212.968 201.859C212.968 201.573 212.798 201.416 212.33 201.297L211.53 201.101C210.721 200.905 210.312 200.484 210.312 199.858Z" fill="white" fill-opacity="0.72"/>
<rect x="27.4482" y="214.135" width="186.86" height="32.6868" rx="8.71649" fill="#1D2634"/>
<rect x="27.8568" y="214.543" width="186.043" height="31.8697" rx="8.3079" stroke="white" stroke-opacity="0.16" stroke-width="0.817171"/>
<path d="M35.3901 223.366V228.057C35.3901 228.967 34.9177 229.402 33.926 229.402C33.8834 229.402 33.7387 229.402 33.7132 229.393V228.67C33.7302 228.67 33.8281 228.674 33.8451 228.674C34.3005 228.674 34.4708 228.504 34.4708 228.052V223.366H35.3901ZM34.9304 222.711C34.6368 222.711 34.3984 222.477 34.3984 222.188C34.3984 221.894 34.6368 221.66 34.9304 221.66C35.2284 221.66 35.4667 221.894 35.4667 222.188C35.4667 222.477 35.2284 222.711 34.9304 222.711ZM38.2545 227.929C36.9734 227.929 36.1307 227.048 36.1307 225.605C36.1307 224.167 36.9776 223.286 38.2545 223.286C39.5313 223.286 40.3783 224.167 40.3783 225.605C40.3783 227.048 39.5355 227.929 38.2545 227.929ZM38.2545 227.171C38.978 227.171 39.4419 226.601 39.4419 225.605C39.4419 224.613 38.9737 224.043 38.2545 224.043C37.5352 224.043 37.067 224.613 37.067 225.605C37.067 226.601 37.5352 227.171 38.2545 227.171ZM41.1231 227.844V221.702H42.0339V224.116H42.0552C42.302 223.592 42.7915 223.29 43.4724 223.29C44.4556 223.29 45.0429 223.945 45.0429 224.958V227.844H44.1194V225.137C44.1194 224.477 43.7874 224.081 43.1405 224.081C42.4595 224.081 42.0424 224.55 42.0424 225.256V227.844H41.1231ZM45.9325 227.844V223.366H46.8092V224.116H46.8305C47.0731 223.605 47.5498 223.29 48.2393 223.29C49.2267 223.29 49.7927 223.92 49.7927 224.945V227.844H48.8692V225.124C48.8692 224.452 48.5542 224.081 47.9158 224.081C47.2689 224.081 46.8518 224.541 46.8518 225.235V227.844H45.9325ZM51.3718 227.891C51.0611 227.891 50.8142 227.644 50.8142 227.333C50.8142 227.022 51.0611 226.776 51.3718 226.776C51.6825 226.776 51.9293 227.022 51.9293 227.333C51.9293 227.644 51.6825 227.891 51.3718 227.891ZM52.8912 224.635C52.8912 223.835 53.5977 223.286 54.6447 223.286C55.6406 223.286 56.3386 223.843 56.3684 224.639H55.5044C55.4619 224.235 55.1341 223.984 54.6192 223.984C54.1212 223.984 53.7892 224.226 53.7892 224.579C53.7892 224.856 54.0105 225.043 54.4745 225.158L55.2278 225.333C56.1301 225.55 56.4706 225.89 56.4706 226.55C56.4706 227.367 55.7087 227.929 54.6106 227.929C53.5509 227.929 52.8486 227.38 52.7763 226.559H53.6871C53.7594 226.988 54.0914 227.227 54.6532 227.227C55.2065 227.227 55.547 226.997 55.547 226.635C55.547 226.35 55.3767 226.193 54.9086 226.073L54.1084 225.878C53.2998 225.682 52.8912 225.26 52.8912 224.635ZM57.1856 227.844V223.366H58.0623V224.12H58.0836C58.2837 223.622 58.7518 223.29 59.3562 223.29C59.9776 223.29 60.4287 223.609 60.6075 224.167H60.6288C60.8586 223.622 61.3864 223.29 62.0248 223.29C62.91 223.29 63.4889 223.877 63.4889 224.767V227.844H62.5653V224.988C62.5653 224.409 62.2546 224.077 61.7098 224.077C61.165 224.077 60.7862 224.482 60.7862 225.048V227.844H59.884V224.92C59.884 224.405 59.5562 224.077 59.037 224.077C58.4922 224.077 58.1049 224.503 58.1049 225.077V227.844H57.1856ZM64.4082 227.844V223.366H65.3275V227.844H64.4082ZM64.8678 222.711C64.5742 222.711 64.3358 222.477 64.3358 222.188C64.3358 221.894 64.5742 221.66 64.8678 221.66C65.1658 221.66 65.4041 221.894 65.4041 222.188C65.4041 222.477 65.1658 222.711 64.8678 222.711ZM66.5362 222.307H67.4598V223.366H68.311V224.094H67.4598V226.563C67.4598 226.95 67.6301 227.125 68.0046 227.125C68.0982 227.125 68.2472 227.116 68.3068 227.103V227.831C68.2046 227.857 68.0003 227.874 67.796 227.874C66.8895 227.874 66.5362 227.529 66.5362 226.665V224.094H65.8851V223.366H66.5362V222.307ZM69.1027 227.844V221.702H70.0135V224.116H70.0347C70.2816 223.592 70.7711 223.29 71.452 223.29C72.4352 223.29 73.0225 223.945 73.0225 224.958V227.844H72.099V225.137C72.099 224.477 71.767 224.081 71.1201 224.081C70.4391 224.081 70.022 224.55 70.022 225.256V227.844H69.1027ZM77.2446 224.171C76.7211 224.171 76.4061 224.588 76.4061 225.29C76.4061 225.984 76.7211 226.41 77.2403 226.41C77.7766 226.41 78.1213 225.975 78.1213 225.29C78.1213 224.605 77.7808 224.171 77.2446 224.171ZM77.3935 221.715C79.3854 221.715 80.8112 222.975 80.8112 224.856C80.8112 226.214 80.1983 227.103 79.1854 227.103C78.6874 227.103 78.2746 226.827 78.2065 226.405H78.1639C77.9851 226.835 77.6021 227.074 77.1041 227.074C76.2189 227.074 75.623 226.35 75.623 225.269C75.623 224.235 76.2231 223.52 77.0871 223.52C77.5425 223.52 77.9468 223.754 78.1086 224.12H78.1554V223.605H78.8747V226.022C78.8747 226.303 79.0236 226.495 79.3301 226.495C79.8025 226.495 80.1472 225.907 80.1472 224.877C80.1472 223.328 79.0109 222.302 77.3467 222.302C75.6954 222.302 74.5122 223.537 74.5122 225.29C74.5122 227.167 75.7635 228.223 77.4914 228.223C78.0192 228.223 78.5597 228.15 78.8236 228.04V228.627C78.4618 228.746 77.9809 228.814 77.4616 228.814C75.3591 228.814 73.8482 227.52 73.8482 225.265C73.8482 223.145 75.3038 221.715 77.3935 221.715ZM83.4713 227.099C84.1905 227.099 84.663 226.516 84.663 225.592C84.663 224.673 84.1905 224.069 83.4713 224.069C82.7647 224.069 82.3051 224.66 82.3051 225.592C82.3051 226.529 82.7647 227.099 83.4713 227.099ZM83.4798 229.529C82.4242 229.529 81.6411 228.967 81.5262 228.193H82.4498C82.5817 228.567 82.9903 228.814 83.5138 228.814C84.2331 228.814 84.6587 228.406 84.6587 227.793V227.056H84.6417C84.3906 227.542 83.8628 227.861 83.2244 227.861C82.1008 227.861 81.3645 226.984 81.3645 225.588C81.3645 224.179 82.0965 223.294 83.2457 223.294C83.8798 223.294 84.3991 223.613 84.6715 224.133H84.6885V223.366H85.5823V227.763C85.5823 228.831 84.7566 229.529 83.4798 229.529ZM86.4931 227.844V223.366H87.3698V224.12H87.3911C87.5911 223.622 88.0593 223.29 88.6637 223.29C89.2851 223.29 89.7362 223.609 89.915 224.167H89.9363C90.1661 223.622 90.6938 223.29 91.3323 223.29C92.2175 223.29 92.7964 223.877 92.7964 224.767V227.844H91.8728V224.988C91.8728 224.409 91.5621 224.077 91.0173 224.077C90.4725 224.077 90.0937 224.482 90.0937 225.048V227.844H89.1914V224.92C89.1914 224.405 88.8637 224.077 88.3445 224.077C87.7997 224.077 87.4124 224.503 87.4124 225.077V227.844H86.4931ZM95.2521 227.193C95.8948 227.193 96.397 226.75 96.397 226.167V225.814L95.2947 225.882C94.7457 225.92 94.435 226.163 94.435 226.546C94.435 226.937 94.7584 227.193 95.2521 227.193ZM94.9968 227.92C94.12 227.92 93.5071 227.376 93.5071 226.571C93.5071 225.788 94.1072 225.307 95.1713 225.248L96.397 225.175V224.831C96.397 224.333 96.0608 224.035 95.499 224.035C94.967 224.035 94.635 224.29 94.5541 224.69H93.6859C93.737 223.881 94.4264 223.286 95.533 223.286C96.6183 223.286 97.3121 223.86 97.3121 224.758V227.844H96.4311V227.108H96.4098C96.1502 227.606 95.5841 227.92 94.9968 227.92ZM98.2357 227.844V223.366H99.155V227.844H98.2357ZM98.6953 222.711C98.4016 222.711 98.1633 222.477 98.1633 222.188C98.1633 221.894 98.4016 221.66 98.6953 221.66C98.9932 221.66 99.2316 221.894 99.2316 222.188C99.2316 222.477 98.9932 222.711 98.6953 222.711ZM100.13 227.844V221.702H101.049V227.844H100.13ZM102.683 227.891C102.373 227.891 102.126 227.644 102.126 227.333C102.126 227.022 102.373 226.776 102.683 226.776C102.994 226.776 103.241 227.022 103.241 227.333C103.241 227.644 102.994 227.891 102.683 227.891ZM107.897 224.907H107.02C106.927 224.43 106.569 224.052 105.969 224.052C105.258 224.052 104.79 224.643 104.79 225.605C104.79 226.588 105.262 227.159 105.977 227.159C106.544 227.159 106.914 226.848 107.02 226.329H107.906C107.808 227.282 107.046 227.929 105.969 227.929C104.688 227.929 103.854 227.052 103.854 225.605C103.854 224.184 104.688 223.286 105.96 223.286C107.114 223.286 107.816 224.026 107.897 224.907ZM110.48 227.929C109.199 227.929 108.357 227.048 108.357 225.605C108.357 224.167 109.204 223.286 110.48 223.286C111.757 223.286 112.604 224.167 112.604 225.605C112.604 227.048 111.762 227.929 110.48 227.929ZM110.48 227.171C111.204 227.171 111.668 226.601 111.668 225.605C111.668 224.613 111.2 224.043 110.48 224.043C109.761 224.043 109.293 224.613 109.293 225.605C109.293 226.601 109.761 227.171 110.48 227.171ZM113.315 227.844V223.366H114.192V224.12H114.213C114.413 223.622 114.881 223.29 115.486 223.29C116.107 223.29 116.558 223.609 116.737 224.167H116.758C116.988 223.622 117.516 223.29 118.154 223.29C119.039 223.29 119.618 223.877 119.618 224.767V227.844H118.695V224.988C118.695 224.409 118.384 224.077 117.839 224.077C117.294 224.077 116.916 224.482 116.916 225.048V227.844H116.013V224.92C116.013 224.405 115.686 224.077 115.166 224.077C114.622 224.077 114.234 224.503 114.234 225.077V227.844H113.315Z" fill="white"/>
<path d="M35.0007 239.113H34.4325V234.506H34.9911L37.5128 238.123H37.5416V234.506H38.1098V239.113H37.5511L35.0294 235.509H35.0007V239.113ZM40.2931 239.17C39.3738 239.17 38.7546 238.509 38.7546 237.453C38.7546 236.393 39.3738 235.735 40.2931 235.735C41.2093 235.735 41.8285 236.393 41.8285 237.453C41.8285 238.509 41.2093 239.17 40.2931 239.17ZM40.2931 238.682C40.8805 238.682 41.2635 238.235 41.2635 237.453C41.2635 236.671 40.8805 236.224 40.2931 236.224C39.7058 236.224 39.3196 236.671 39.3196 237.453C39.3196 238.235 39.7058 238.682 40.2931 238.682ZM43.7597 239.113V234.506H44.3151V239.113H43.7597ZM46.3964 236.217C45.8761 236.217 45.5122 236.616 45.4771 237.169H47.2806C47.2678 236.613 46.9199 236.217 46.3964 236.217ZM47.2678 238.161H47.8137C47.7179 238.742 47.1561 239.17 46.4315 239.17C45.4803 239.17 44.9025 238.509 44.9025 237.465C44.9025 236.434 45.4898 235.735 46.406 235.735C47.3029 235.735 47.8552 236.387 47.8552 237.392V237.603H45.4739V237.635C45.4739 238.27 45.8473 238.688 46.4443 238.688C46.8656 238.688 47.1752 238.474 47.2678 238.161ZM49.5118 238.698C50.0353 238.698 50.4375 238.33 50.4375 237.852V237.58L49.5501 237.635C49.1033 237.663 48.8479 237.861 48.8479 238.174C48.8479 238.49 49.1128 238.698 49.5118 238.698ZM49.3873 239.17C48.7266 239.17 48.2829 238.771 48.2829 238.174C48.2829 237.606 48.7202 237.248 49.4863 237.204L50.4375 237.149V236.872C50.4375 236.466 50.1694 236.224 49.7097 236.224C49.282 236.224 49.0139 236.425 48.9437 236.75H48.4074C48.4457 236.176 48.9373 235.735 49.7225 235.735C50.5014 235.735 50.993 236.157 50.993 236.817V239.113H50.4663V238.541H50.4535C50.2556 238.921 49.8342 239.17 49.3873 239.17ZM52.2826 237.268L53.7509 235.793H54.4244L52.9848 237.226L54.4691 239.113H53.8243L52.5922 237.568L52.2826 237.861V239.113H51.7271V234.506H52.2826V237.268ZM54.6862 236.709C54.6862 236.141 55.1937 235.735 55.9247 235.735C56.611 235.735 57.1154 236.144 57.1409 236.706H56.611C56.5727 236.387 56.3142 236.189 55.9056 236.189C55.5002 236.189 55.232 236.39 55.232 236.68C55.232 236.91 55.4076 237.063 55.7843 237.159L56.2982 237.283C56.9685 237.453 57.2111 237.695 57.2111 238.184C57.2111 238.761 56.6653 239.17 55.8896 239.17C55.1618 239.17 54.6543 238.774 54.5968 238.187H55.1522C55.2129 238.532 55.4746 238.717 55.9247 238.717C56.3748 238.717 56.6525 238.525 56.6525 238.225C56.6525 237.989 56.5153 237.861 56.1418 237.762L55.5576 237.612C54.9735 237.462 54.6862 237.162 54.6862 236.709ZM60.3872 239.17C59.5413 239.17 58.9668 238.493 58.9668 237.453C58.9668 236.412 59.5381 235.735 60.3745 235.735C60.8501 235.735 61.2331 235.968 61.431 236.332H61.4438V234.506H61.9992V239.113H61.4693V238.551H61.4598C61.2459 238.934 60.866 239.17 60.3872 239.17ZM60.4926 236.224C59.9052 236.224 59.535 236.703 59.535 237.453C59.535 238.206 59.9052 238.682 60.4926 238.682C61.064 238.682 61.447 238.196 61.447 237.453C61.447 236.712 61.064 236.224 60.4926 236.224ZM64.0805 236.217C63.5602 236.217 63.1963 236.616 63.1611 237.169H64.9647C64.9519 236.613 64.604 236.217 64.0805 236.217ZM64.9519 238.161H65.4977C65.402 238.742 64.8402 239.17 64.1156 239.17C63.1643 239.17 62.5866 238.509 62.5866 237.465C62.5866 236.434 63.1739 235.735 64.09 235.735C64.987 235.735 65.5392 236.387 65.5392 237.392V237.603H63.158V237.635C63.158 238.27 63.5314 238.688 64.1283 238.688C64.5497 238.688 64.8593 238.474 64.9519 238.161ZM66.2798 234.992H66.8352V235.793H67.48V236.249H66.8352V238.222C66.8352 238.525 66.9629 238.662 67.247 238.662C67.3108 238.662 67.4385 238.653 67.4768 238.647V239.113C67.4098 239.129 67.2566 239.138 67.1257 239.138C66.516 239.138 66.2798 238.889 66.2798 238.251V236.249H65.785V235.793H66.2798V234.992ZM69.3091 236.217C68.7888 236.217 68.4249 236.616 68.3898 237.169H70.1933C70.1805 236.613 69.8326 236.217 69.3091 236.217ZM70.1805 238.161H70.7264C70.6306 238.742 70.0688 239.17 69.3442 239.17C68.393 239.17 67.8152 238.509 67.8152 237.465C67.8152 236.434 68.4025 235.735 69.3187 235.735C70.2156 235.735 70.7679 236.387 70.7679 237.392V237.603H68.3866V237.635C68.3866 238.27 68.76 238.688 69.357 238.688C69.7783 238.688 70.0879 238.474 70.1805 238.161ZM74.0876 236.881H73.545C73.4652 236.521 73.1843 236.224 72.6959 236.224C72.1213 236.224 71.7319 236.699 71.7319 237.453C71.7319 238.225 72.1277 238.682 72.7023 238.682C73.1555 238.682 73.4524 238.442 73.5482 238.043H74.094C74.0078 238.704 73.4524 239.17 72.6991 239.17C71.7797 239.17 71.1669 238.522 71.1669 237.453C71.1669 236.406 71.7766 235.735 72.6927 235.735C73.5226 235.735 74.0174 236.284 74.0876 236.881ZM74.7835 234.992H75.3389V235.793H75.9837V236.249H75.3389V238.222C75.3389 238.525 75.4666 238.662 75.7507 238.662C75.8145 238.662 75.9422 238.653 75.9805 238.647V239.113C75.9135 239.129 75.7603 239.138 75.6294 239.138C75.0197 239.138 74.7835 238.889 74.7835 238.251V236.249H74.2887V235.793H74.7835V234.992ZM77.8128 236.217C77.2925 236.217 76.9286 236.616 76.8934 237.169H78.697C78.6842 236.613 78.3363 236.217 77.8128 236.217ZM78.6842 238.161H79.23C79.1343 238.742 78.5725 239.17 77.8479 239.17C76.8966 239.17 76.3189 238.509 76.3189 237.465C76.3189 236.434 76.9062 235.735 77.8223 235.735C78.7193 235.735 79.2715 236.387 79.2715 237.392V237.603H76.8903V237.635C76.8903 238.27 77.2637 238.688 77.8606 238.688C78.282 238.688 78.5916 238.474 78.6842 238.161ZM81.091 239.17C80.2451 239.17 79.6705 238.493 79.6705 237.453C79.6705 236.412 80.2419 235.735 81.0783 235.735C81.5539 235.735 81.9369 235.968 82.1348 236.332H82.1476V234.506H82.703V239.113H82.1731V238.551H82.1636C81.9497 238.934 81.5698 239.17 81.091 239.17ZM81.1964 236.224C80.609 236.224 80.2387 236.703 80.2387 237.453C80.2387 238.206 80.609 238.682 81.1964 238.682C81.7677 238.682 82.1508 238.196 82.1508 237.453C82.1508 236.712 81.7677 236.224 81.1964 236.224Z" fill="#00D599"/>
<path d="M200.149 232.624L202.295 230.478L200.149 228.332C199.989 228.172 199.989 227.914 200.149 227.754C200.308 227.595 200.567 227.595 200.727 227.754L203.162 230.189C203.238 230.266 203.281 230.37 203.281 230.478C203.281 230.586 203.238 230.69 203.162 230.767L200.727 233.202C200.567 233.361 200.308 233.361 200.149 233.202C199.989 233.042 199.989 232.784 200.149 232.624Z" fill="white"/>
<rect x="27.4482" y="250.09" width="186.86" height="32.6868" rx="8.71649" fill="#1D2634"/>
<rect x="27.8568" y="250.499" width="186.043" height="31.8697" rx="8.3079" stroke="white" stroke-opacity="0.16" stroke-width="0.817171"/>
<path d="M34.475 263.799V257.658H35.3859V260.071H35.4071C35.654 259.547 36.1434 259.245 36.8244 259.245C37.8076 259.245 38.3949 259.901 38.3949 260.914V263.799H37.4713V261.092C37.4713 260.433 37.1394 260.037 36.4924 260.037C35.8115 260.037 35.3944 260.505 35.3944 261.212V263.799H34.475ZM40.8507 263.148C41.4934 263.148 41.9956 262.705 41.9956 262.122V261.769L40.8932 261.837C40.3442 261.876 40.0335 262.118 40.0335 262.501C40.0335 262.893 40.357 263.148 40.8507 263.148ZM40.5953 263.876C39.7186 263.876 39.1057 263.331 39.1057 262.527C39.1057 261.744 39.7058 261.263 40.7698 261.203L41.9956 261.131V260.786C41.9956 260.288 41.6593 259.99 41.0975 259.99C40.5655 259.99 40.2335 260.245 40.1527 260.646H39.2844C39.3355 259.837 40.025 259.241 41.1316 259.241C42.2169 259.241 42.9106 259.816 42.9106 260.714V263.799H42.0296V263.063H42.0083C41.7487 263.561 41.1827 263.876 40.5953 263.876ZM43.8044 263.799V259.322H44.6812V260.071H44.7025C44.945 259.56 45.4217 259.245 46.1112 259.245C47.0986 259.245 47.6647 259.875 47.6647 260.901V263.799H46.7411V261.08C46.7411 260.407 46.4262 260.037 45.7878 260.037C45.1408 260.037 44.7237 260.497 44.7237 261.19V263.799H43.8044ZM48.5542 263.799V259.322H49.431V260.071H49.4523C49.6949 259.56 50.1715 259.245 50.861 259.245C51.8484 259.245 52.4145 259.875 52.4145 260.901V263.799H51.4909V261.08C51.4909 260.407 51.176 260.037 50.5376 260.037C49.8906 260.037 49.4735 260.497 49.4735 261.19V263.799H48.5542ZM54.8703 263.148C55.5129 263.148 56.0152 262.705 56.0152 262.122V261.769L54.9128 261.837C54.3638 261.876 54.0531 262.118 54.0531 262.501C54.0531 262.893 54.3766 263.148 54.8703 263.148ZM54.6149 263.876C53.7381 263.876 53.1253 263.331 53.1253 262.527C53.1253 261.744 53.7254 261.263 54.7894 261.203L56.0152 261.131V260.786C56.0152 260.288 55.6789 259.99 55.1171 259.99C54.5851 259.99 54.2531 260.245 54.1723 260.646H53.304C53.3551 259.837 54.0446 259.241 55.1512 259.241C56.2365 259.241 56.9302 259.816 56.9302 260.714V263.799H56.0492V263.063H56.0279C55.7683 263.561 55.2022 263.876 54.6149 263.876ZM58.5135 263.846C58.2028 263.846 57.9559 263.599 57.9559 263.289C57.9559 262.978 58.2028 262.731 58.5135 262.731C58.8242 262.731 59.071 262.978 59.071 263.289C59.071 263.599 58.8242 263.846 58.5135 263.846ZM60.0329 260.59C60.0329 259.79 60.7394 259.241 61.7864 259.241C62.7824 259.241 63.4804 259.799 63.5101 260.594H62.6462C62.6036 260.19 62.2759 259.939 61.7609 259.939C61.2629 259.939 60.931 260.182 60.931 260.535C60.931 260.812 61.1523 260.999 61.6162 261.114L62.3695 261.288C63.2718 261.505 63.6123 261.846 63.6123 262.505C63.6123 263.323 62.8505 263.884 61.7524 263.884C60.6926 263.884 59.9904 263.335 59.918 262.514H60.8288C60.9012 262.944 61.2331 263.182 61.7949 263.182C62.3482 263.182 62.6887 262.952 62.6887 262.591C62.6887 262.305 62.5185 262.148 62.0503 262.029L61.2502 261.833C60.4415 261.637 60.0329 261.216 60.0329 260.59ZM64.3273 263.799V259.322H65.2041V260.075H65.2254C65.4254 259.577 65.8936 259.245 66.4979 259.245C67.1193 259.245 67.5705 259.564 67.7492 260.122H67.7705C68.0003 259.577 68.5281 259.245 69.1665 259.245C70.0518 259.245 70.6306 259.833 70.6306 260.722V263.799H69.707V260.943C69.707 260.365 69.3963 260.033 68.8516 260.033C68.3068 260.033 67.928 260.437 67.928 261.003V263.799H67.0257V260.875C67.0257 260.36 66.698 260.033 66.1787 260.033C65.6339 260.033 65.2466 260.458 65.2466 261.033V263.799H64.3273ZM71.5499 263.799V259.322H72.4692V263.799H71.5499ZM72.0096 258.666C71.7159 258.666 71.4776 258.432 71.4776 258.143C71.4776 257.849 71.7159 257.615 72.0096 257.615C72.3075 257.615 72.5458 257.849 72.5458 258.143C72.5458 258.432 72.3075 258.666 72.0096 258.666ZM73.678 258.262H74.6015V259.322H75.4528V260.05H74.6015V262.518C74.6015 262.906 74.7718 263.08 75.1463 263.08C75.24 263.08 75.3889 263.072 75.4485 263.059V263.787C75.3464 263.812 75.1421 263.829 74.9378 263.829C74.0312 263.829 73.678 263.484 73.678 262.62V260.05H73.0268V259.322H73.678V258.262ZM76.2444 263.799V257.658H77.1552V260.071H77.1765C77.4233 259.547 77.9128 259.245 78.5938 259.245C79.5769 259.245 80.1643 259.901 80.1643 260.914V263.799H79.2407V261.092C79.2407 260.433 78.9087 260.037 78.2618 260.037C77.5808 260.037 77.1637 260.505 77.1637 261.212V263.799H76.2444ZM84.3863 260.126C83.8628 260.126 83.5479 260.543 83.5479 261.246C83.5479 261.939 83.8628 262.365 84.3821 262.365C84.9183 262.365 85.2631 261.931 85.2631 261.246C85.2631 260.56 84.9226 260.126 84.3863 260.126ZM84.5353 257.671C86.5271 257.671 87.9529 258.93 87.9529 260.812C87.9529 262.169 87.34 263.059 86.3271 263.059C85.8291 263.059 85.4163 262.782 85.3482 262.361H85.3056C85.1269 262.791 84.7438 263.029 84.2459 263.029C83.3606 263.029 82.7647 262.305 82.7647 261.224C82.7647 260.19 83.3648 259.475 84.2288 259.475C84.6842 259.475 85.0886 259.709 85.2503 260.075H85.2971V259.56H86.0164V261.978C86.0164 262.259 86.1654 262.45 86.4718 262.45C86.9442 262.45 87.289 261.863 87.289 260.833C87.289 259.284 86.1526 258.258 84.4885 258.258C82.8371 258.258 81.6539 259.492 81.6539 261.246C81.6539 263.123 82.9052 264.178 84.6332 264.178C85.1609 264.178 85.7014 264.106 85.9653 263.995V264.582C85.6036 264.702 85.1226 264.77 84.6034 264.77C82.5009 264.77 80.9899 263.476 80.9899 261.22C80.9899 259.101 82.4455 257.671 84.5353 257.671ZM90.613 263.054C91.3323 263.054 91.8047 262.471 91.8047 261.548C91.8047 260.629 91.3323 260.024 90.613 260.024C89.9065 260.024 89.4468 260.616 89.4468 261.548C89.4468 262.484 89.9065 263.054 90.613 263.054ZM90.6215 265.485C89.566 265.485 88.7829 264.923 88.6679 264.148H89.5915C89.7235 264.523 90.132 264.77 90.6555 264.77C91.3748 264.77 91.8004 264.361 91.8004 263.748V263.012H91.7834C91.5323 263.497 91.0045 263.816 90.3661 263.816C89.2425 263.816 88.5062 262.94 88.5062 261.544C88.5062 260.135 89.2383 259.25 90.3874 259.25C91.0216 259.25 91.5408 259.569 91.8132 260.088H91.8302V259.322H92.724V263.718C92.724 264.787 91.8983 265.485 90.6215 265.485ZM93.6348 263.799V259.322H94.5116V260.075H94.5328C94.7329 259.577 95.2011 259.245 95.8054 259.245C96.4268 259.245 96.878 259.564 97.0567 260.122H97.078C97.3078 259.577 97.8356 259.245 98.474 259.245C99.3593 259.245 99.9381 259.833 99.9381 260.722V263.799H99.0145V260.943C99.0145 260.365 98.7038 260.033 98.159 260.033C97.6143 260.033 97.2355 260.437 97.2355 261.003V263.799H96.3332V260.875C96.3332 260.36 96.0055 260.033 95.4862 260.033C94.9414 260.033 94.5541 260.458 94.5541 261.033V263.799H93.6348ZM102.394 263.148C103.037 263.148 103.539 262.705 103.539 262.122V261.769L102.436 261.837C101.887 261.876 101.577 262.118 101.577 262.501C101.577 262.893 101.9 263.148 102.394 263.148ZM102.138 263.876C101.262 263.876 100.649 263.331 100.649 262.527C100.649 261.744 101.249 261.263 102.313 261.203L103.539 261.131V260.786C103.539 260.288 103.203 259.99 102.641 259.99C102.109 259.99 101.777 260.245 101.696 260.646H100.828C100.879 259.837 101.568 259.241 102.675 259.241C103.76 259.241 104.454 259.816 104.454 260.714V263.799H103.573V263.063H103.552C103.292 263.561 102.726 263.876 102.138 263.876ZM105.377 263.799V259.322H106.297V263.799H105.377ZM105.837 258.666C105.543 258.666 105.305 258.432 105.305 258.143C105.305 257.849 105.543 257.615 105.837 257.615C106.135 257.615 106.373 257.849 106.373 258.143C106.373 258.432 106.135 258.666 105.837 258.666ZM107.271 263.799V257.658H108.191V263.799H107.271ZM109.825 263.846C109.514 263.846 109.267 263.599 109.267 263.289C109.267 262.978 109.514 262.731 109.825 262.731C110.136 262.731 110.383 262.978 110.383 263.289C110.383 263.599 110.136 263.846 109.825 263.846ZM115.039 260.863H114.162C114.068 260.386 113.711 260.007 113.111 260.007C112.4 260.007 111.932 260.599 111.932 261.561C111.932 262.544 112.404 263.114 113.119 263.114C113.685 263.114 114.056 262.803 114.162 262.284H115.047C114.949 263.238 114.188 263.884 113.111 263.884C111.83 263.884 110.995 263.008 110.995 261.561C110.995 260.139 111.83 259.241 113.102 259.241C114.256 259.241 114.958 259.982 115.039 260.863ZM117.622 263.884C116.341 263.884 115.498 263.003 115.498 261.561C115.498 260.122 116.345 259.241 117.622 259.241C118.899 259.241 119.746 260.122 119.746 261.561C119.746 263.003 118.903 263.884 117.622 263.884ZM117.622 263.127C118.346 263.127 118.81 262.557 118.81 261.561C118.81 260.569 118.341 259.999 117.622 259.999C116.903 259.999 116.435 260.569 116.435 261.561C116.435 262.557 116.903 263.127 117.622 263.127ZM120.457 263.799V259.322H121.333V260.075H121.355C121.555 259.577 122.023 259.245 122.627 259.245C123.249 259.245 123.7 259.564 123.879 260.122H123.9C124.13 259.577 124.658 259.245 125.296 259.245C126.181 259.245 126.76 259.833 126.76 260.722V263.799H125.836V260.943C125.836 260.365 125.526 260.033 124.981 260.033C124.436 260.033 124.057 260.437 124.057 261.003V263.799H123.155V260.875C123.155 260.36 122.827 260.033 122.308 260.033C121.763 260.033 121.376 260.458 121.376 261.033V263.799H120.457Z" fill="white"/>
<path d="M35.0007 275.068H34.4325V270.462H34.9911L37.5128 274.078H37.5416V270.462H38.1098V275.068H37.5511L35.0294 271.464H35.0007V275.068ZM40.2931 275.125C39.3738 275.125 38.7546 274.465 38.7546 273.408C38.7546 272.348 39.3738 271.691 40.2931 271.691C41.2093 271.691 41.8285 272.348 41.8285 273.408C41.8285 274.465 41.2093 275.125 40.2931 275.125ZM40.2931 274.637C40.8805 274.637 41.2635 274.19 41.2635 273.408C41.2635 272.626 40.8805 272.179 40.2931 272.179C39.7058 272.179 39.3196 272.626 39.3196 273.408C39.3196 274.19 39.7058 274.637 40.2931 274.637ZM43.7597 275.068V270.462H44.3151V275.068H43.7597ZM46.3964 272.173C45.8761 272.173 45.5122 272.572 45.4771 273.124H47.2806C47.2678 272.569 46.9199 272.173 46.3964 272.173ZM47.2678 274.117H47.8137C47.7179 274.698 47.1561 275.125 46.4315 275.125C45.4803 275.125 44.9025 274.465 44.9025 273.421C44.9025 272.39 45.4898 271.691 46.406 271.691C47.3029 271.691 47.8552 272.342 47.8552 273.347V273.558H45.4739V273.59C45.4739 274.225 45.8473 274.643 46.4443 274.643C46.8656 274.643 47.1752 274.43 47.2678 274.117ZM49.5118 274.653C50.0353 274.653 50.4375 274.286 50.4375 273.807V273.536L49.5501 273.59C49.1033 273.619 48.8479 273.817 48.8479 274.13C48.8479 274.446 49.1128 274.653 49.5118 274.653ZM49.3873 275.125C48.7266 275.125 48.2829 274.726 48.2829 274.13C48.2829 273.561 48.7202 273.204 49.4863 273.159L50.4375 273.105V272.827C50.4375 272.422 50.1694 272.179 49.7097 272.179C49.282 272.179 49.0139 272.38 48.9437 272.706H48.4074C48.4457 272.131 48.9373 271.691 49.7225 271.691C50.5014 271.691 50.993 272.112 50.993 272.773V275.068H50.4663V274.497H50.4535C50.2556 274.876 49.8342 275.125 49.3873 275.125ZM52.2826 273.223L53.7509 271.748H54.4244L52.9848 273.181L54.4691 275.068H53.8243L52.5922 273.523L52.2826 273.817V275.068H51.7271V270.462H52.2826V273.223ZM54.6862 272.664C54.6862 272.096 55.1937 271.691 55.9247 271.691C56.611 271.691 57.1154 272.099 57.1409 272.661H56.611C56.5727 272.342 56.3142 272.144 55.9056 272.144C55.5002 272.144 55.232 272.345 55.232 272.636C55.232 272.865 55.4076 273.019 55.7843 273.114L56.2982 273.239C56.9685 273.408 57.2111 273.651 57.2111 274.139C57.2111 274.717 56.6653 275.125 55.8896 275.125C55.1618 275.125 54.6543 274.73 54.5968 274.142H55.1522C55.2129 274.487 55.4746 274.672 55.9247 274.672C56.3748 274.672 56.6525 274.481 56.6525 274.181C56.6525 273.944 56.5153 273.817 56.1418 273.718L55.5576 273.568C54.9735 273.418 54.6862 273.118 54.6862 272.664ZM60.3872 275.125C59.5413 275.125 58.9668 274.449 58.9668 273.408C58.9668 272.367 59.5381 271.691 60.3745 271.691C60.8501 271.691 61.2331 271.924 61.431 272.288H61.4438V270.462H61.9992V275.068H61.4693V274.506H61.4598C61.2459 274.889 60.866 275.125 60.3872 275.125ZM60.4926 272.179C59.9052 272.179 59.535 272.658 59.535 273.408C59.535 274.161 59.9052 274.637 60.4926 274.637C61.064 274.637 61.447 274.152 61.447 273.408C61.447 272.668 61.064 272.179 60.4926 272.179ZM64.0805 272.173C63.5602 272.173 63.1963 272.572 63.1611 273.124H64.9647C64.9519 272.569 64.604 272.173 64.0805 272.173ZM64.9519 274.117H65.4977C65.402 274.698 64.8402 275.125 64.1156 275.125C63.1643 275.125 62.5866 274.465 62.5866 273.421C62.5866 272.39 63.1739 271.691 64.09 271.691C64.987 271.691 65.5392 272.342 65.5392 273.347V273.558H63.158V273.59C63.158 274.225 63.5314 274.643 64.1283 274.643C64.5497 274.643 64.8593 274.43 64.9519 274.117ZM66.2798 270.947H66.8352V271.748H67.48V272.205H66.8352V274.177C66.8352 274.481 66.9629 274.618 67.247 274.618C67.3108 274.618 67.4385 274.608 67.4768 274.602V275.068C67.4098 275.084 67.2566 275.094 67.1257 275.094C66.516 275.094 66.2798 274.845 66.2798 274.206V272.205H65.785V271.748H66.2798V270.947ZM69.3091 272.173C68.7888 272.173 68.4249 272.572 68.3898 273.124H70.1933C70.1805 272.569 69.8326 272.173 69.3091 272.173ZM70.1805 274.117H70.7264C70.6306 274.698 70.0688 275.125 69.3442 275.125C68.393 275.125 67.8152 274.465 67.8152 273.421C67.8152 272.39 68.4025 271.691 69.3187 271.691C70.2156 271.691 70.7679 272.342 70.7679 273.347V273.558H68.3866V273.59C68.3866 274.225 68.76 274.643 69.357 274.643C69.7783 274.643 70.0879 274.43 70.1805 274.117ZM74.0876 272.837H73.545C73.4652 272.476 73.1843 272.179 72.6959 272.179C72.1213 272.179 71.7319 272.655 71.7319 273.408C71.7319 274.181 72.1277 274.637 72.7023 274.637C73.1555 274.637 73.4524 274.398 73.5482 273.999H74.094C74.0078 274.659 73.4524 275.125 72.6991 275.125C71.7797 275.125 71.1669 274.477 71.1669 273.408C71.1669 272.361 71.7766 271.691 72.6927 271.691C73.5226 271.691 74.0174 272.24 74.0876 272.837ZM74.7835 270.947H75.3389V271.748H75.9837V272.205H75.3389V274.177C75.3389 274.481 75.4666 274.618 75.7507 274.618C75.8145 274.618 75.9422 274.608 75.9805 274.602V275.068C75.9135 275.084 75.7603 275.094 75.6294 275.094C75.0197 275.094 74.7835 274.845 74.7835 274.206V272.205H74.2887V271.748H74.7835V270.947ZM77.8128 272.173C77.2925 272.173 76.9286 272.572 76.8934 273.124H78.697C78.6842 272.569 78.3363 272.173 77.8128 272.173ZM78.6842 274.117H79.23C79.1343 274.698 78.5725 275.125 77.8479 275.125C76.8966 275.125 76.3189 274.465 76.3189 273.421C76.3189 272.39 76.9062 271.691 77.8223 271.691C78.7193 271.691 79.2715 272.342 79.2715 273.347V273.558H76.8903V273.59C76.8903 274.225 77.2637 274.643 77.8606 274.643C78.282 274.643 78.5916 274.43 78.6842 274.117ZM81.091 275.125C80.2451 275.125 79.6705 274.449 79.6705 273.408C79.6705 272.367 80.2419 271.691 81.0783 271.691C81.5539 271.691 81.9369 271.924 82.1348 272.288H82.1476V270.462H82.703V275.068H82.1731V274.506H82.1636C81.9497 274.889 81.5698 275.125 81.091 275.125ZM81.1964 272.179C80.609 272.179 80.2387 272.658 80.2387 273.408C80.2387 274.161 80.609 274.637 81.1964 274.637C81.7677 274.637 82.1508 274.152 82.1508 273.408C82.1508 272.668 81.7677 272.179 81.1964 272.179Z" fill="#00D599"/>
<path d="M200.149 268.58L202.295 266.434L200.149 264.288C199.989 264.128 199.989 263.869 200.149 263.71C200.308 263.55 200.567 263.55 200.727 263.71L203.162 266.145C203.238 266.221 203.281 266.325 203.281 266.434C203.281 266.542 203.238 266.646 203.162 266.723L200.727 269.158C200.567 269.317 200.308 269.317 200.149 269.158C199.989 268.998 199.989 268.739 200.149 268.58Z" fill="white"/>
<rect x="27.4482" y="286.046" width="186.86" height="32.6868" rx="8.71649" fill="#1D2634"/>
<rect x="27.8568" y="286.454" width="186.043" height="31.8697" rx="8.3079" stroke="white" stroke-opacity="0.16" stroke-width="0.817171"/>
<path d="M35.3901 295.277V299.968C35.3901 300.878 34.9177 301.312 33.926 301.312C33.8834 301.312 33.7387 301.312 33.7132 301.304V300.58C33.7302 300.58 33.8281 300.585 33.8451 300.585C34.3005 300.585 34.4708 300.414 34.4708 299.963V295.277H35.3901ZM34.9304 294.622C34.6368 294.622 34.3984 294.388 34.3984 294.098C34.3984 293.805 34.6368 293.571 34.9304 293.571C35.2284 293.571 35.4667 293.805 35.4667 294.098C35.4667 294.388 35.2284 294.622 34.9304 294.622ZM38.2545 299.84C36.9734 299.84 36.1307 298.959 36.1307 297.516C36.1307 296.077 36.9776 295.196 38.2545 295.196C39.5313 295.196 40.3783 296.077 40.3783 297.516C40.3783 298.959 39.5355 299.84 38.2545 299.84ZM38.2545 299.082C38.978 299.082 39.4419 298.512 39.4419 297.516C39.4419 296.524 38.9737 295.954 38.2545 295.954C37.5352 295.954 37.067 296.524 37.067 297.516C37.067 298.512 37.5352 299.082 38.2545 299.082ZM41.1231 299.755V293.613H42.0339V296.026H42.0552C42.302 295.503 42.7915 295.201 43.4724 295.201C44.4556 295.201 45.0429 295.856 45.0429 296.869V299.755H44.1194V297.048C44.1194 296.388 43.7874 295.992 43.1405 295.992C42.4595 295.992 42.0424 296.461 42.0424 297.167V299.755H41.1231ZM45.9325 299.755V295.277H46.8092V296.026H46.8305C47.0731 295.516 47.5498 295.201 48.2393 295.201C49.2267 295.201 49.7927 295.831 49.7927 296.856V299.755H48.8692V297.035C48.8692 296.363 48.5542 295.992 47.9158 295.992C47.2689 295.992 46.8518 296.452 46.8518 297.146V299.755H45.9325ZM50.6014 296.546C50.6014 295.746 51.3079 295.196 52.3549 295.196C53.3508 295.196 54.0488 295.754 54.0786 296.55H53.2146C53.1721 296.146 52.8444 295.894 52.3294 295.894C51.8314 295.894 51.4994 296.137 51.4994 296.49C51.4994 296.767 51.7208 296.954 52.1847 297.069L52.938 297.244C53.8403 297.461 54.1808 297.801 54.1808 298.461C54.1808 299.278 53.4189 299.84 52.3209 299.84C51.2611 299.84 50.5588 299.291 50.4865 298.469H51.3973C51.4696 298.899 51.8016 299.138 52.3634 299.138C52.9167 299.138 53.2572 298.908 53.2572 298.546C53.2572 298.261 53.087 298.103 52.6188 297.984L51.8186 297.788C51.01 297.593 50.6014 297.171 50.6014 296.546ZM54.8958 299.755V295.277H55.7726V296.031H55.7938C55.9939 295.533 56.462 295.201 57.0664 295.201C57.6878 295.201 58.139 295.52 58.3177 296.077H58.339C58.5688 295.533 59.0966 295.201 59.735 295.201C60.6203 295.201 61.1991 295.788 61.1991 296.678V299.755H60.2755V296.899C60.2755 296.32 59.9648 295.988 59.42 295.988C58.8753 295.988 58.4965 296.392 58.4965 296.959V299.755H57.5942V296.831C57.5942 296.316 57.2665 295.988 56.7472 295.988C56.2024 295.988 55.8151 296.414 55.8151 296.988V299.755H54.8958ZM62.1184 299.755V295.277H63.0377V299.755H62.1184ZM62.5781 294.622C62.2844 294.622 62.0461 294.388 62.0461 294.098C62.0461 293.805 62.2844 293.571 62.5781 293.571C62.876 293.571 63.1143 293.805 63.1143 294.098C63.1143 294.388 62.876 294.622 62.5781 294.622ZM64.2465 294.218H65.17V295.277H66.0212V296.005H65.17V298.474C65.17 298.861 65.3403 299.035 65.7148 299.035C65.8084 299.035 65.9574 299.027 66.017 299.014V299.742C65.9148 299.768 65.7106 299.785 65.5063 299.785C64.5997 299.785 64.2465 299.44 64.2465 298.576V296.005H63.5953V295.277H64.2465V294.218ZM66.8129 299.755V293.613H67.7237V296.026H67.745C67.9918 295.503 68.4813 295.201 69.1622 295.201C70.1454 295.201 70.7327 295.856 70.7327 296.869V299.755H69.8092V297.048C69.8092 296.388 69.4772 295.992 68.8303 295.992C68.1493 295.992 67.7322 296.461 67.7322 297.167V299.755H66.8129ZM74.9548 296.082C74.4313 296.082 74.1163 296.499 74.1163 297.201C74.1163 297.895 74.4313 298.32 74.9505 298.32C75.4868 298.32 75.8316 297.886 75.8316 297.201C75.8316 296.516 75.4911 296.082 74.9548 296.082ZM75.1038 293.626C77.0956 293.626 78.5214 294.886 78.5214 296.767C78.5214 298.125 77.9085 299.014 76.8956 299.014C76.3976 299.014 75.9848 298.738 75.9167 298.316H75.8741C75.6954 298.746 75.3123 298.984 74.8143 298.984C73.9291 298.984 73.3332 298.261 73.3332 297.18C73.3332 296.146 73.9333 295.431 74.7973 295.431C75.2527 295.431 75.6571 295.665 75.8188 296.031H75.8656V295.516H76.5849V297.933C76.5849 298.214 76.7338 298.406 77.0403 298.406C77.5127 298.406 77.8575 297.818 77.8575 296.788C77.8575 295.239 76.7211 294.213 75.0569 294.213C73.4056 294.213 72.2224 295.448 72.2224 297.201C72.2224 299.078 73.4737 300.134 75.2017 300.134C75.7294 300.134 76.2699 300.061 76.5338 299.951V300.538C76.172 300.657 75.6911 300.725 75.1719 300.725C73.0693 300.725 71.5584 299.431 71.5584 297.176C71.5584 295.056 73.014 293.626 75.1038 293.626ZM81.1815 299.01C81.9007 299.01 82.3732 298.427 82.3732 297.503C82.3732 296.584 81.9007 295.98 81.1815 295.98C80.475 295.98 80.0153 296.571 80.0153 297.503C80.0153 298.44 80.475 299.01 81.1815 299.01ZM81.19 301.44C80.1345 301.44 79.3513 300.878 79.2364 300.104H80.16C80.2919 300.478 80.7005 300.725 81.224 300.725C81.9433 300.725 82.3689 300.317 82.3689 299.704V298.967H82.3519C82.1008 299.453 81.573 299.772 80.9346 299.772C79.811 299.772 79.0747 298.895 79.0747 297.499C79.0747 296.09 79.8067 295.205 80.9559 295.205C81.5901 295.205 82.1093 295.524 82.3817 296.043H82.3987V295.277H83.2925V299.674C83.2925 300.742 82.4668 301.44 81.19 301.44ZM84.2033 299.755V295.277H85.0801V296.031H85.1013C85.3014 295.533 85.7695 295.201 86.3739 295.201C86.9953 295.201 87.4464 295.52 87.6252 296.077H87.6465C87.8763 295.533 88.4041 295.201 89.0425 295.201C89.9277 295.201 90.5066 295.788 90.5066 296.678V299.755H89.583V296.899C89.583 296.32 89.2723 295.988 88.7275 295.988C88.1827 295.988 87.804 296.392 87.804 296.959V299.755H86.9017V296.831C86.9017 296.316 86.5739 295.988 86.0547 295.988C85.5099 295.988 85.1226 296.414 85.1226 296.988V299.755H84.2033ZM92.9623 299.104C93.605 299.104 94.1072 298.661 94.1072 298.078V297.725L93.0049 297.793C92.4559 297.831 92.1452 298.074 92.1452 298.457C92.1452 298.848 92.4686 299.104 92.9623 299.104ZM92.707 299.831C91.8302 299.831 91.2173 299.287 91.2173 298.482C91.2173 297.699 91.8175 297.218 92.8815 297.159L94.1072 297.086V296.741C94.1072 296.243 93.771 295.946 93.2092 295.946C92.6772 295.946 92.3452 296.201 92.2643 296.601H91.3961C91.4472 295.792 92.1367 295.196 93.2432 295.196C94.3286 295.196 95.0223 295.771 95.0223 296.669V299.755H94.1413V299.018H94.12C93.8604 299.516 93.2943 299.831 92.707 299.831ZM95.9459 299.755V295.277H96.8652V299.755H95.9459ZM96.4055 294.622C96.1119 294.622 95.8735 294.388 95.8735 294.098C95.8735 293.805 96.1119 293.571 96.4055 293.571C96.7035 293.571 96.9418 293.805 96.9418 294.098C96.9418 294.388 96.7035 294.622 96.4055 294.622ZM97.8398 299.755V293.613H98.7592V299.755H97.8398ZM100.393 299.802C100.083 299.802 99.8359 299.555 99.8359 299.244C99.8359 298.933 100.083 298.686 100.393 298.686C100.704 298.686 100.951 298.933 100.951 299.244C100.951 299.555 100.704 299.802 100.393 299.802ZM105.607 296.818H104.73C104.637 296.341 104.279 295.963 103.679 295.963C102.968 295.963 102.5 296.554 102.5 297.516C102.5 298.499 102.973 299.07 103.688 299.07C104.254 299.07 104.624 298.759 104.73 298.24H105.616C105.518 299.193 104.756 299.84 103.679 299.84C102.398 299.84 101.564 298.963 101.564 297.516C101.564 296.095 102.398 295.196 103.671 295.196C104.824 295.196 105.526 295.937 105.607 296.818ZM108.191 299.84C106.91 299.84 106.067 298.959 106.067 297.516C106.067 296.077 106.914 295.196 108.191 295.196C109.467 295.196 110.314 296.077 110.314 297.516C110.314 298.959 109.472 299.84 108.191 299.84ZM108.191 299.082C108.914 299.082 109.378 298.512 109.378 297.516C109.378 296.524 108.91 295.954 108.191 295.954C107.471 295.954 107.003 296.524 107.003 297.516C107.003 298.512 107.471 299.082 108.191 299.082ZM111.025 299.755V295.277H111.902V296.031H111.923C112.123 295.533 112.591 295.201 113.196 295.201C113.817 295.201 114.268 295.52 114.447 296.077H114.468C114.698 295.533 115.226 295.201 115.864 295.201C116.75 295.201 117.329 295.788 117.329 296.678V299.755H116.405V296.899C116.405 296.32 116.094 295.988 115.549 295.988C115.005 295.988 114.626 296.392 114.626 296.959V299.755H113.724V296.831C113.724 296.316 113.396 295.988 112.877 295.988C112.332 295.988 111.945 296.414 111.945 296.988V299.755H111.025Z" fill="white"/>
</g>
<rect x="17.5027" y="21.5982" width="206.165" height="444.515" rx="30.8854" stroke="black" stroke-width="3.03791"/>
<rect x="14.7241" y="18.8208" width="211.723" height="450.071" rx="33.6702" stroke="#424242" stroke-width="2.53159"/>
<rect x="85.9728" y="28.8403" width="63.1615" height="18.5229" rx="9.26143" fill="black"/>
<defs>
<filter id="filter0_d_16_921" x="5.65702" y="39.2601" width="136.582" height="69.5824" filterUnits="userSpaceOnUse" color-interpolation-filters="sRGB">
<feFlood flood-opacity="0" result="BackgroundImageFix"/>
<feColorMatrix in="SourceAlpha" type="matrix" values="0 0 0 0 0 0 0 0 0 0 0 0 0 0 0 0 0 0 127 0" result="hardAlpha"/>
<feOffset dy="4.35824"/>
<feGaussianBlur stdDeviation="10.8956"/>
<feComposite in2="hardAlpha" operator="out"/>
<feColorMatrix type="matrix" values="0 0 0 0 0 0 0 0 0 0 0 0 0 0 0 0 0 0 0.12 0"/>
<feBlend mode="normal" in2="BackgroundImageFix" result="effect1_dropShadow_16_921"/>
<feBlend mode="normal" in="SourceGraphic" in2="effect1_dropShadow_16_921" result="shape"/>
</filter>
<linearGradient id="paint0_linear_16_921" x1="117.337" y1="143.862" x2="116.707" y2="85.851" gradientUnits="userSpaceOnUse">
<stop stop-color="#2BB58B"/>
<stop offset="0.504808" stop-color="#1B936F"/>
<stop offset="1" stop-color="#41C89F"/>
</linearGradient>
<clipPath id="clip0_16_921">
<rect x="18.7317" y="22.9166" width="204.293" height="442.362" rx="17.433" fill="white"/>
</clipPath>
</defs>
</svg>
