<svg width="241" height="295" viewBox="0 0 241 295" fill="none" xmlns="http://www.w3.org/2000/svg">
<g clip-path="url(#clip0_18_3099)">
<rect x="19" y="23" width="204.29" height="442.356" rx="24" fill="#0D152A"/>
<path d="M48.0293 35.5939C48.379 35.5939 48.7106 35.6587 49.0242 35.7883C49.3377 35.9149 49.615 36.1139 49.8562 36.3852C50.1004 36.6535 50.2918 36.9987 50.4305 37.4208C50.5692 37.8398 50.6385 38.3448 50.6385 38.9357V38.9447C50.6385 39.6773 50.533 40.3043 50.322 40.8259C50.111 41.3474 49.808 41.7484 49.4131 42.0287C49.0211 42.3061 48.5524 42.4448 48.0067 42.4448C47.6057 42.4448 47.244 42.3724 46.9214 42.2277C46.6019 42.08 46.3366 41.878 46.1255 41.6218C45.9175 41.3625 45.7773 41.0671 45.705 40.7354L45.6959 40.6857H46.84L46.8581 40.7309C46.9154 40.8817 46.9968 41.0143 47.1023 41.1289C47.2108 41.2434 47.3405 41.3324 47.4912 41.3957C47.6449 41.456 47.8168 41.4861 48.0067 41.4861C48.3504 41.4861 48.6307 41.3851 48.8478 41.1831C49.0679 40.9781 49.2322 40.7053 49.3407 40.3646C49.4522 40.021 49.5156 39.6411 49.5306 39.2251C49.5336 39.1799 49.5352 39.1361 49.5352 39.0939C49.5352 39.0487 49.5352 39.005 49.5352 38.9628L49.3317 37.873C49.3317 37.6258 49.2744 37.4012 49.1598 37.1992C49.0453 36.9972 48.89 36.8374 48.6941 36.7199C48.5011 36.6023 48.2825 36.5435 48.0384 36.5435C47.8032 36.5435 47.5877 36.6008 47.3917 36.7153C47.1957 36.8299 47.039 36.9867 46.9214 37.1856C46.8038 37.3816 46.745 37.6017 46.745 37.8459V37.8549C46.745 38.1081 46.8008 38.3327 46.9124 38.5287C47.0239 38.7216 47.1762 38.8739 47.3691 38.9854C47.562 39.097 47.7821 39.1527 48.0293 39.1527C48.2765 39.1527 48.4981 39.0985 48.6941 38.9899C48.89 38.8814 49.0453 38.7307 49.1598 38.5377C49.2744 38.3448 49.3317 38.1262 49.3317 37.882V37.873H49.603V39.0759H49.4447C49.3663 39.2477 49.2503 39.4075 49.0965 39.5552C48.9428 39.7029 48.7528 39.822 48.5267 39.9124C48.3036 40.0029 48.0414 40.0481 47.7399 40.0481C47.3239 40.0481 46.9561 39.9546 46.6365 39.7677C46.317 39.5808 46.0652 39.3246 45.8813 38.999C45.7005 38.6734 45.61 38.3056 45.61 37.8956V37.8866C45.61 37.4434 45.7125 37.05 45.9175 36.7063C46.1255 36.3596 46.4119 36.0883 46.7767 35.8923C47.1445 35.6934 47.562 35.5939 48.0293 35.5939ZM52.6915 41.4047C52.4865 41.4047 52.3147 41.3369 52.176 41.2012C52.0404 41.0625 51.9725 40.8937 51.9725 40.6947C51.9725 40.4928 52.0404 40.3239 52.176 40.1883C52.3147 40.0496 52.4865 39.9803 52.6915 39.9803C52.8996 39.9803 53.0714 40.0496 53.2071 40.1883C53.3427 40.3239 53.4105 40.4928 53.4105 40.6947C53.4105 40.8937 53.3427 41.0625 53.2071 41.2012C53.0714 41.3369 52.8996 41.4047 52.6915 41.4047ZM52.6915 38.0493C52.4865 38.0493 52.3147 37.9815 52.176 37.8459C52.0404 37.7072 51.9725 37.5384 51.9725 37.3394C51.9725 37.1374 52.0404 36.9686 52.176 36.8329C52.3147 36.6942 52.4865 36.6249 52.6915 36.6249C52.8996 36.6249 53.0714 36.6942 53.2071 36.8329C53.3427 36.9686 53.4105 37.1374 53.4105 37.3394C53.4105 37.5384 53.3427 37.7072 53.2071 37.8459C53.0714 37.9815 52.8996 38.0493 52.6915 38.0493ZM57.91 42.282V41.0294H54.7174V40.0752C54.8893 39.7828 55.0611 39.4889 55.2329 39.1934C55.4078 38.898 55.5841 38.6041 55.762 38.3116C55.9429 38.0162 56.1223 37.7253 56.3001 37.4389C56.481 37.1495 56.6604 36.8646 56.8383 36.5842C57.0191 36.3008 57.2 36.025 57.3809 35.7567H59.0224V40.0662H59.9042V41.0294H59.0224V42.282H57.91ZM55.8027 40.0933H57.9281V36.6882H57.8602C57.7276 36.8932 57.5904 37.1042 57.4487 37.3213C57.3101 37.5384 57.1699 37.7599 57.0282 37.986C56.8865 38.2121 56.7463 38.4398 56.6076 38.6689C56.469 38.895 56.3318 39.1226 56.1961 39.3517C56.0605 39.5778 55.9293 39.8024 55.8027 40.0255V40.0933ZM62.6039 42.282V36.9053H62.5225L60.899 38.0493V36.955L62.6039 35.7567H63.766V42.282H62.6039Z" fill="white"/>
<rect opacity="0.35" x="192.22" y="36.0932" width="13.0746" height="6.53728" rx="2.07014" stroke="white" stroke-width="0.544773"/>
<path opacity="0.4" d="M206.112 38.4255V40.6457C206.55 40.4577 206.836 40.0203 206.836 39.5356C206.836 39.051 206.55 38.6136 206.112 38.4255Z" fill="white"/>
<rect x="193.038" y="36.9104" width="11.4402" height="4.90296" rx="1.36193" fill="white"/>
<path fill-rule="evenodd" clip-rule="evenodd" d="M183.379 37.5118C184.734 37.5118 186.037 38.0142 187.019 38.9149C187.093 38.9845 187.211 38.9836 187.284 38.913L187.991 38.2247C188.028 38.1888 188.048 38.1403 188.048 38.0898C188.048 38.0393 188.026 37.991 187.989 37.9556C185.412 35.5724 181.346 35.5724 178.768 37.9556C178.731 37.991 178.71 38.0393 178.71 38.0898C178.709 38.1403 178.73 38.1888 178.767 38.2247L179.474 38.913C179.546 38.9837 179.665 38.9846 179.739 38.9149C180.721 38.0141 182.024 37.5118 183.379 37.5118ZM183.377 39.8109C184.117 39.8108 184.83 40.0896 185.378 40.593C185.452 40.6645 185.569 40.6629 185.641 40.5896L186.342 39.8708C186.379 39.8331 186.4 39.782 186.399 39.7288C186.399 39.6757 186.377 39.625 186.339 39.5881C184.67 38.0132 182.085 38.0132 180.416 39.5881C180.379 39.625 180.357 39.6757 180.357 39.7289C180.356 39.7821 180.377 39.8332 180.414 39.8708L181.115 40.5896C181.187 40.6629 181.304 40.6645 181.378 40.593C181.926 40.0899 182.638 39.8112 183.377 39.8109ZM184.752 41.3327C184.753 41.3901 184.733 41.4454 184.697 41.4857L183.511 42.8229C183.476 42.8622 183.429 42.8843 183.379 42.8843C183.33 42.8843 183.282 42.8622 183.248 42.8229L182.062 41.4857C182.025 41.4454 182.005 41.3901 182.006 41.3327C182.007 41.2753 182.029 41.2209 182.067 41.1825C182.825 40.4667 183.934 40.4667 184.691 41.1825C184.729 41.221 184.751 41.2753 184.752 41.3327Z" fill="white"/>
<path fill-rule="evenodd" clip-rule="evenodd" d="M174.624 36.7372C174.624 36.3924 174.364 36.1128 174.043 36.1128H173.462C173.141 36.1128 172.881 36.3924 172.881 36.7372V42.149C172.881 42.4938 173.141 42.7734 173.462 42.7734H174.043C174.364 42.7734 174.624 42.4938 174.624 42.149V36.7372ZM170.574 37.4449H171.155C171.476 37.4449 171.736 37.7312 171.736 38.0843V42.134C171.736 42.4871 171.476 42.7734 171.155 42.7734H170.574C170.253 42.7734 169.993 42.4871 169.993 42.134V38.0843C169.993 37.7312 170.253 37.4449 170.574 37.4449ZM168.214 38.888H167.633C167.312 38.888 167.052 39.178 167.052 39.5356V42.1259C167.052 42.4835 167.312 42.7734 167.633 42.7734H168.214C168.535 42.7734 168.796 42.4835 168.796 42.1259V39.5356C168.796 39.178 168.535 38.888 168.214 38.888ZM165.327 40.2202H164.746C164.425 40.2202 164.165 40.506 164.165 40.8585V42.1351C164.165 42.4876 164.425 42.7734 164.746 42.7734H165.327C165.648 42.7734 165.908 42.4876 165.908 42.1351V40.8585C165.908 40.506 165.648 40.2202 165.327 40.2202Z" fill="white"/>
<g opacity="0.67" filter="url(#filter0_d_18_3099)">
<path d="M27.7164 69.7759C27.7164 62.5962 33.5367 56.7759 40.7164 56.7759H106.716C113.896 56.7759 119.716 62.5962 119.716 69.7759C119.716 76.9556 113.896 82.7759 106.716 82.7759H40.7164C33.5367 82.7759 27.7164 76.9556 27.7164 69.7759Z" fill="#CCCCCC" fill-opacity="0.5" style="mix-blend-mode:color-burn" shape-rendering="crispEdges"/>
<path d="M27.7164 69.7759C27.7164 62.5962 33.5367 56.7759 40.7164 56.7759H106.716C113.896 56.7759 119.716 62.5962 119.716 69.7759C119.716 76.9556 113.896 82.7759 106.716 82.7759H40.7164C33.5367 82.7759 27.7164 76.9556 27.7164 69.7759Z" fill="black" fill-opacity="0.6" shape-rendering="crispEdges"/>
<path d="M27.7164 69.7759C27.7164 62.5962 33.5367 56.7759 40.7164 56.7759H106.716C113.896 56.7759 119.716 62.5962 119.716 69.7759C119.716 76.9556 113.896 82.7759 106.716 82.7759H40.7164C33.5367 82.7759 27.7164 76.9556 27.7164 69.7759Z" fill="white" fill-opacity="0.06" shape-rendering="crispEdges"/>
</g>
<rect x="27.7164" y="56.7759" width="92" height="26" rx="13" fill="black" fill-opacity="0.2" style="mix-blend-mode:screen"/>
<path d="M42.6757 66.0947L38.9199 69.8506L42.6757 73.6064C42.8353 73.7659 42.8353 74.0246 42.6757 74.1842C42.5162 74.3437 42.2575 74.3437 42.098 74.1842L38.0532 70.1394C37.9766 70.0628 37.9335 69.9589 37.9335 69.8506C37.9335 69.7421 37.9766 69.6383 38.0532 69.5616L42.098 65.5169C42.1179 65.4969 42.1394 65.4795 42.162 65.4645C42.3206 65.3598 42.5361 65.3773 42.6757 65.5169C42.8353 65.6764 42.8353 65.9351 42.6757 66.0947Z" fill="white"/>
<path d="M59.1273 68.2198L57.8037 72.8503H56.9014L55.2458 66.7089H56.2375L57.3739 71.5182H57.4079L58.706 66.7089H59.5913L60.8936 71.5182H60.9276L62.064 66.7089H63.0557L61.3958 72.8503H60.4978L59.1699 68.2198H59.1273ZM63.7324 72.8503V68.373H64.6517V72.8503H63.7324ZM64.192 67.7176C63.8984 67.7176 63.66 67.4835 63.66 67.1941C63.66 66.9004 63.8984 66.6663 64.192 66.6663C64.49 66.6663 64.7283 66.9004 64.7283 67.1941C64.7283 67.4835 64.49 67.7176 64.192 67.7176ZM68.4225 70.7734H65.6306V69.9435H68.4225V70.7734ZM70.4356 72.8503H69.4823V66.7089H73.317V67.5303H70.4356V69.4753H73.0744V70.2797H70.4356V72.8503ZM74.066 72.8503V68.373H74.9854V72.8503H74.066ZM74.5257 67.7176C74.232 67.7176 73.9937 67.4835 73.9937 67.1941C73.9937 66.9004 74.232 66.6663 74.5257 66.6663C74.8236 66.6663 75.062 66.9004 75.062 67.1941C75.062 67.4835 74.8236 67.7176 74.5257 67.7176ZM77.5347 71.1394H78.4753C78.5434 71.748 79.135 72.1481 79.9436 72.1481C80.7182 72.1481 81.2758 71.748 81.2758 71.199C81.2758 70.7223 80.9396 70.4372 80.1437 70.2414L79.3478 70.0499C78.2199 69.7775 77.6965 69.2497 77.6965 68.3943C77.6965 67.3345 78.62 66.6067 79.9309 66.6067C81.229 66.6067 82.1185 67.3345 82.1483 68.3943H81.2205C81.1651 67.7814 80.6587 67.4111 79.9181 67.4111C79.1776 67.4111 78.6711 67.7857 78.6711 68.3304C78.6711 68.7645 78.9945 69.0199 79.7862 69.2157L80.4629 69.3817C81.7227 69.6796 82.2462 70.1861 82.2462 71.0841C82.2462 72.2332 81.3311 72.9525 79.8755 72.9525C78.5136 72.9525 77.5943 72.2502 77.5347 71.1394ZM84.8636 69.0327C84.221 69.0327 83.7698 69.5221 83.723 70.1988H85.9617C85.9404 69.5136 85.5063 69.0327 84.8636 69.0327ZM85.9574 71.5352H86.8299C86.7022 72.3524 85.9276 72.9355 84.9019 72.9355C83.5868 72.9355 82.7909 72.0459 82.7909 70.6329C82.7909 69.2285 83.5996 68.2921 84.8636 68.2921C86.1064 68.2921 86.881 69.1689 86.881 70.5265V70.8415H83.7188V70.8968C83.7188 71.6757 84.1869 72.1907 84.9232 72.1907C85.4467 72.1907 85.834 71.9268 85.9574 71.5352ZM91.4392 69.9137H90.5625C90.4688 69.437 90.1113 69.0582 89.5112 69.0582C88.8005 69.0582 88.3323 69.6498 88.3323 70.6117C88.3323 71.5948 88.8047 72.1651 89.5197 72.1651C90.0858 72.1651 90.4561 71.8544 90.5625 71.3352H91.4477C91.3498 72.2885 90.588 72.9355 89.5112 72.9355C88.2302 72.9355 87.396 72.0587 87.396 70.6117C87.396 69.1901 88.2302 68.2921 89.5027 68.2921C90.6561 68.2921 91.3583 69.0327 91.4392 69.9137ZM95.9378 68.373V72.8503H95.0568V72.0928H95.0356C94.7887 72.629 94.3333 72.9312 93.6481 72.9312C92.6735 72.9312 92.0776 72.2971 92.0776 71.2714V68.373H92.9969V71.0926C92.9969 71.7736 93.3204 72.1396 93.9545 72.1396C94.6185 72.1396 95.0185 71.6799 95.0185 70.9819V68.373H95.9378ZM96.8486 72.8503V68.373H97.7254V69.1348H97.7467C97.8956 68.6113 98.2957 68.3006 98.8234 68.3006C98.9554 68.3006 99.0703 68.3219 99.1384 68.3347V69.1901C99.066 69.1604 98.9043 69.1391 98.7256 69.1391C98.134 69.1391 97.7679 69.5349 97.7679 70.169V72.8503H96.8486ZM99.7385 72.8503V68.373H100.658V72.8503H99.7385ZM100.198 67.7176C99.9045 67.7176 99.6661 67.4835 99.6661 67.1941C99.6661 66.9004 99.9045 66.6663 100.198 66.6663C100.496 66.6663 100.734 66.9004 100.734 67.1941C100.734 67.4835 100.496 67.7176 100.198 67.7176ZM101.867 67.3132H102.79V68.373H103.641V69.1008H102.79V71.5693C102.79 71.9566 102.96 72.1311 103.335 72.1311C103.428 72.1311 103.577 72.1226 103.637 72.1098V72.8376C103.535 72.8631 103.331 72.8801 103.126 72.8801C102.22 72.8801 101.867 72.5354 101.867 71.6714V69.1008H101.215V68.373H101.867V67.3132ZM104.841 74.5187C104.769 74.5187 104.535 74.5102 104.467 74.4974V73.7526C104.535 73.7696 104.688 73.7696 104.765 73.7696C105.195 73.7696 105.42 73.5909 105.561 73.1312C105.561 73.1227 105.642 72.8589 105.642 72.8546L104.024 68.373H105.02L106.157 72.0162H106.169L107.306 68.373H108.276L106.595 73.0844C106.212 74.1697 105.774 74.5187 104.841 74.5187Z" fill="white" style="mix-blend-mode:plus-lighter"/>
<g filter="url(#filter2_ii_18_3099)">
<rect x="190.604" y="57.8655" width="23.97" height="23.97" rx="11.985" fill="#0D152A"/>
<rect x="191.012" y="58.2741" width="23.1529" height="23.1529" rx="11.5764" stroke="#7BEDCD" stroke-opacity="0.72" stroke-width="0.81716"/>
<g clip-path="url(#clip1_18_3099)">
<path fill-rule="evenodd" clip-rule="evenodd" d="M203.99 65.7036C204.005 65.5103 203.98 65.316 203.917 65.1328C203.853 64.9496 203.752 64.7815 203.621 64.6391C203.489 64.4967 203.33 64.383 203.152 64.3053C202.974 64.2276 202.782 64.1875 202.589 64.1875C202.395 64.1875 202.203 64.2276 202.025 64.3053C201.848 64.383 201.688 64.4967 201.556 64.6391C201.425 64.7815 201.324 64.9496 201.261 65.1328C201.197 65.316 201.172 65.5103 201.187 65.7036L201.634 71.184C201.652 71.4247 201.761 71.6496 201.938 71.8137C202.115 71.9779 202.347 72.069 202.589 72.069C202.83 72.069 203.062 71.9779 203.239 71.8137C203.416 71.6496 203.525 71.4247 203.543 71.184L203.99 65.7036ZM200.446 66.6243C200.468 66.691 200.476 66.7613 200.47 66.8312C200.465 66.9011 200.445 66.9692 200.413 67.0316C200.381 67.094 200.338 67.1496 200.284 67.195C200.231 67.2405 200.169 67.275 200.102 67.2965C198.977 67.66 197.945 68.2667 197.08 69.0736C196.976 69.1685 196.839 69.2186 196.698 69.213C196.558 69.2073 196.425 69.1464 196.329 69.0434C196.233 68.9405 196.182 68.8038 196.186 68.6632C196.19 68.5225 196.25 68.3893 196.352 68.2924C197.332 67.3796 198.499 66.6928 199.773 66.2805C199.84 66.259 199.91 66.2507 199.98 66.2563C200.05 66.2619 200.118 66.2813 200.181 66.3132C200.243 66.3451 200.298 66.389 200.344 66.4424C200.389 66.4958 200.424 66.5576 200.445 66.6243M204.731 66.6243C204.752 66.5576 204.787 66.4957 204.832 66.4424C204.878 66.389 204.933 66.3451 204.996 66.3133C205.058 66.2814 205.127 66.2621 205.196 66.2566C205.266 66.2511 205.337 66.2594 205.403 66.2811C206.677 66.6932 207.845 67.3798 208.825 68.2924C208.927 68.3893 208.986 68.5225 208.991 68.6632C208.995 68.8038 208.944 68.9405 208.848 69.0434C208.752 69.1464 208.619 69.2073 208.478 69.213C208.338 69.2186 208.201 69.1685 208.097 69.0736C207.232 68.2667 206.2 67.66 205.074 67.2965C204.94 67.2529 204.828 67.1575 204.764 67.0315C204.699 66.9054 204.687 66.7589 204.731 66.6243ZM200.494 69.6494C200.623 69.5955 200.726 69.4934 200.78 69.3649C200.834 69.2364 200.836 69.0918 200.785 68.9619C200.734 68.8321 200.634 68.7273 200.507 68.6701C200.38 68.6129 200.235 68.6077 200.104 68.6557C199.234 68.9977 198.443 69.5152 197.781 70.1762C197.681 70.2763 197.625 70.4121 197.625 70.5537C197.625 70.6953 197.681 70.8311 197.781 70.9313C197.882 71.0314 198.017 71.0876 198.159 71.0876C198.301 71.0876 198.436 71.0314 198.537 70.9313C199.094 70.3736 199.76 69.9372 200.494 69.6494ZM205.073 68.6557C205.007 68.6283 204.937 68.6142 204.866 68.6143C204.794 68.6144 204.724 68.6287 204.659 68.6564C204.593 68.6841 204.534 68.7246 204.484 68.7756C204.434 68.8265 204.395 68.8869 204.37 68.9531C204.344 69.0193 204.331 69.09 204.333 69.1611C204.334 69.2322 204.35 69.3023 204.38 69.3671C204.409 69.432 204.451 69.4904 204.503 69.5389C204.555 69.5873 204.616 69.6249 204.683 69.6494C205.417 69.9372 206.083 70.3736 206.641 70.9313C206.69 70.9828 206.749 71.0241 206.814 71.0525C206.879 71.081 206.95 71.0961 207.021 71.097C207.092 71.0978 207.163 71.0844 207.229 71.0575C207.295 71.0307 207.355 70.9909 207.405 70.9405C207.455 70.8901 207.495 70.8302 207.522 70.7642C207.549 70.6982 207.562 70.6275 207.561 70.5563C207.56 70.4851 207.545 70.4147 207.517 70.3495C207.488 70.2842 207.447 70.2253 207.395 70.1762C206.734 69.5153 205.943 68.9977 205.073 68.6557ZM200.961 72.0186C201.022 71.9849 201.077 71.9394 201.12 71.8847C201.164 71.83 201.197 71.7672 201.217 71.6999C201.236 71.6325 201.242 71.562 201.235 71.4923C201.227 71.4226 201.206 71.355 201.172 71.2935C201.138 71.232 201.093 71.1778 201.038 71.1339C200.984 71.09 200.921 71.0573 200.853 71.0377C200.786 71.018 200.716 71.0119 200.646 71.0195C200.576 71.0271 200.509 71.0484 200.447 71.0822C200.078 71.285 199.739 71.539 199.441 71.8367C199.39 71.8857 199.349 71.9447 199.32 72.0099C199.292 72.0752 199.276 72.1455 199.275 72.2168C199.275 72.288 199.288 72.3587 199.315 72.4246C199.342 72.4906 199.381 72.5506 199.432 72.601C199.482 72.6513 199.542 72.6911 199.608 72.718C199.674 72.7449 199.745 72.7583 199.816 72.7574C199.887 72.7566 199.957 72.7415 200.023 72.713C200.088 72.6845 200.147 72.6433 200.196 72.5917C200.425 72.3635 200.682 72.1712 200.961 72.0186ZM204.727 71.0822C204.603 71.014 204.456 70.998 204.32 71.0377C204.185 71.0773 204.07 71.1693 204.002 71.2935C203.934 71.4177 203.918 71.5639 203.957 71.6999C203.997 71.8358 204.089 71.9505 204.213 72.0186C204.491 72.1712 204.749 72.3635 204.978 72.5917C205.079 72.6877 205.213 72.7404 205.353 72.7386C205.492 72.7369 205.625 72.6807 205.723 72.5822C205.822 72.4837 205.878 72.3505 205.88 72.2113C205.881 72.072 205.829 71.9376 205.732 71.8367C205.434 71.539 205.096 71.285 204.727 71.0822ZM203.772 74.3334C203.772 74.6472 203.647 74.9481 203.425 75.17C203.203 75.392 202.902 75.5166 202.589 75.5166C202.275 75.5166 201.974 75.392 201.752 75.17C201.53 74.9481 201.405 74.6472 201.405 74.3334C201.405 74.0196 201.53 73.7186 201.752 73.4967C201.974 73.2748 202.275 73.1501 202.589 73.1501C202.902 73.1501 203.203 73.2748 203.425 73.4967C203.647 73.7186 203.772 74.0196 203.772 74.3334Z" fill="white"/>
</g>
</g>
<rect x="27.7164" y="89.4624" width="186.857" height="41.7909" rx="9.80592" fill="url(#paint0_linear_18_3099)"/>
<rect x="28.5335" y="90.2796" width="185.223" height="40.1566" rx="8.98876" stroke="#7BEDCD" stroke-opacity="0.72" stroke-width="1.63432"/>
<path d="M42.6168 101.306L41.1995 106.179H40.476L38.8033 100.037H39.6035L40.8335 105.051H40.8675L42.2507 100.037H43.0253L44.4085 105.051H44.4426L45.6726 100.037H46.4727L44.8001 106.179H44.0766L42.6593 101.306H42.6168ZM47.1835 106.179V101.752H47.924V106.179H47.1835ZM47.5538 101.008C47.3027 101.008 47.0941 100.799 47.0941 100.548C47.0941 100.293 47.3027 100.088 47.5538 100.088C47.8091 100.088 48.0177 100.293 48.0177 100.548C48.0177 100.799 47.8091 101.008 47.5538 101.008ZM51.7077 104.034H48.9157V103.344H51.7077V104.034ZM53.542 106.179H52.7759V100.037H56.5042V100.727H53.542V102.838H56.2616V103.519H53.542V106.179ZM57.3044 106.179V101.752H58.0449V106.179H57.3044ZM57.6746 101.008C57.4235 101.008 57.215 100.799 57.215 100.548C57.215 100.293 57.4235 100.088 57.6746 100.088C57.93 100.088 58.1385 100.293 58.1385 100.548C58.1385 100.799 57.93 101.008 57.6746 101.008ZM63.4756 106.281C61.7817 106.281 60.7092 105.051 60.7092 103.106C60.7092 101.178 61.7945 99.9351 63.4756 99.9351C64.812 99.9351 65.8292 100.748 66.025 101.974H65.2504C65.0546 101.169 64.3524 100.642 63.4756 100.642C62.2754 100.642 61.4966 101.612 61.4966 103.106C61.4966 104.612 62.2669 105.574 63.4799 105.574C64.3821 105.574 65.0291 105.14 65.2504 104.391H66.025C65.7441 105.604 64.8333 106.281 63.4756 106.281ZM68.651 106.255C67.4252 106.255 66.5995 105.374 66.5995 103.966C66.5995 102.553 67.4252 101.676 68.651 101.676C69.8724 101.676 70.6981 102.553 70.6981 103.966C70.6981 105.374 69.8724 106.255 68.651 106.255ZM68.651 105.604C69.4341 105.604 69.9448 105.008 69.9448 103.966C69.9448 102.923 69.4341 102.327 68.651 102.327C67.8678 102.327 67.3529 102.923 67.3529 103.966C67.3529 105.008 67.8678 105.604 68.651 105.604ZM71.4472 106.179V101.752H72.1452V102.459H72.1622C72.409 101.982 72.8815 101.676 73.5667 101.676C74.5371 101.676 75.0989 102.301 75.0989 103.306V106.179H74.3583V103.438C74.3583 102.723 74.0221 102.331 73.3411 102.331C72.6431 102.331 72.1877 102.825 72.1877 103.574V106.179H71.4472ZM76.0437 106.179V101.752H76.7417V102.459H76.7587C77.0056 101.982 77.478 101.676 78.1632 101.676C79.1336 101.676 79.6954 102.301 79.6954 103.306V106.179H78.9548V103.438C78.9548 102.723 78.6186 102.331 77.9376 102.331C77.2397 102.331 76.7843 102.825 76.7843 103.574V106.179H76.0437ZM82.415 102.318C81.7213 102.318 81.2361 102.85 81.1893 103.587H83.5939C83.5769 102.846 83.113 102.318 82.415 102.318ZM83.5769 104.91H84.3047C84.177 105.685 83.4279 106.255 82.4618 106.255C81.1935 106.255 80.4232 105.374 80.4232 103.983C80.4232 102.608 81.2063 101.676 82.4278 101.676C83.6237 101.676 84.36 102.544 84.36 103.885V104.166H81.185V104.208C81.185 105.055 81.683 105.613 82.4788 105.613C83.0406 105.613 83.4535 105.328 83.5769 104.91ZM88.7863 103.204H88.0628C87.9564 102.723 87.5818 102.327 86.9307 102.327C86.1646 102.327 85.6453 102.961 85.6453 103.966C85.6453 104.996 86.1731 105.604 86.9392 105.604C87.5435 105.604 87.9393 105.285 88.067 104.753H88.7948C88.6799 105.634 87.9393 106.255 86.9349 106.255C85.7092 106.255 84.892 105.391 84.892 103.966C84.892 102.57 85.7049 101.676 86.9264 101.676C88.033 101.676 88.6927 102.408 88.7863 103.204ZM89.7141 100.684H90.4547V101.752H91.3144V102.361H90.4547V104.991C90.4547 105.396 90.6249 105.579 91.0037 105.579C91.0888 105.579 91.2591 105.566 91.3101 105.557V106.179C91.2207 106.2 91.0165 106.213 90.842 106.213C90.0291 106.213 89.7141 105.881 89.7141 105.03V102.361H89.0544V101.752H89.7141V100.684ZM93.7531 102.318C93.0594 102.318 92.5742 102.85 92.5274 103.587H94.932C94.915 102.846 94.4511 102.318 93.7531 102.318ZM94.915 104.91H95.6428C95.5151 105.685 94.766 106.255 93.7999 106.255C92.5316 106.255 91.7613 105.374 91.7613 103.983C91.7613 102.608 92.5444 101.676 93.7659 101.676C94.9618 101.676 95.6981 102.544 95.6981 103.885V104.166H92.5231V104.208C92.5231 105.055 93.0211 105.613 93.8169 105.613C94.3787 105.613 94.7916 105.328 94.915 104.91ZM98.124 106.255C96.9962 106.255 96.2301 105.353 96.2301 103.966C96.2301 102.578 96.9919 101.676 98.107 101.676C98.7412 101.676 99.2519 101.987 99.5158 102.472H99.5328V100.037H100.273V106.179H99.5668V105.43H99.5541C99.2689 105.94 98.7625 106.255 98.124 106.255ZM98.2645 102.327C97.4814 102.327 96.9877 102.965 96.9877 103.966C96.9877 104.97 97.4814 105.604 98.2645 105.604C99.0263 105.604 99.5371 104.957 99.5371 103.966C99.5371 102.978 99.0263 102.327 98.2645 102.327ZM101.899 106.221C101.627 106.221 101.414 106.008 101.414 105.736C101.414 105.464 101.627 105.251 101.899 105.251C102.172 105.251 102.384 105.464 102.384 105.736C102.384 106.008 102.172 106.221 101.899 106.221ZM101.899 103.089C101.627 103.089 101.414 102.876 101.414 102.604C101.414 102.331 101.627 102.118 101.899 102.118C102.172 102.118 102.384 102.331 102.384 102.604C102.384 102.876 102.172 103.089 101.899 103.089Z" fill="white" fill-opacity="0.72"/>
<path d="M39.9737 114.395V118.332C39.9737 119.26 40.5824 119.933 41.6464 119.933C42.7104 119.933 43.319 119.26 43.319 118.332V114.395H44.0851V118.383C44.0851 119.694 43.17 120.639 41.6464 120.639C40.1227 120.639 39.2077 119.694 39.2077 118.383V114.395H39.9737ZM45.2768 114.395H47.4686C48.622 114.395 49.4349 115.204 49.4349 116.366C49.4349 117.532 48.6135 118.345 47.4601 118.345H46.0429V120.537H45.2768V114.395ZM46.0429 115.076V117.664H47.2686C48.1454 117.664 48.6476 117.183 48.6476 116.366C48.6476 115.553 48.1496 115.076 47.2686 115.076H46.0429ZM52.844 120.639C51.1501 120.639 50.0776 119.409 50.0776 117.464C50.0776 115.536 51.1629 114.293 52.844 114.293C54.1804 114.293 55.1976 115.106 55.3934 116.332H54.6188C54.423 115.528 53.7208 115 52.844 115C51.6438 115 50.865 115.97 50.865 117.464C50.865 118.971 51.6353 119.933 52.8483 119.933C53.7506 119.933 54.3975 119.498 54.6188 118.749H55.3934C55.1125 119.962 54.2017 120.639 52.844 120.639ZM58.7557 118.392H55.9637V117.702H58.7557V118.392ZM59.6877 116.166C59.6877 115.093 60.556 114.293 61.7136 114.293C62.8117 114.293 63.6756 115.038 63.6756 115.979C63.6756 116.664 63.365 117.175 62.3392 118.234L60.7858 119.839V119.856H63.7778V120.537H59.726V120.009L61.8881 117.732C62.7138 116.864 62.9096 116.536 62.9096 116.025C62.9096 115.434 62.369 114.961 61.6923 114.961C60.9731 114.961 60.4283 115.481 60.4283 116.166V116.17H59.6877V116.166ZM66.2293 120.537V115.208H66.2122L64.5864 116.379V115.57L66.2208 114.395H66.9698V120.537H66.2293ZM71.4472 120.537V119.26H68.3615V118.566C68.885 117.596 69.6043 116.477 71.0556 114.395H72.1877V118.588H73.056V119.26H72.1877V120.537H71.4472ZM69.1191 118.571V118.588H71.4472V115.034H71.4344C70.2725 116.694 69.6043 117.719 69.1191 118.571ZM75.0563 117.702V117.055H75.7926C76.4991 117.055 76.9928 116.6 76.9928 115.979C76.9928 115.37 76.58 114.957 75.8011 114.957C75.0946 114.957 74.6264 115.362 74.5583 116.004H73.822C73.9072 114.961 74.6818 114.293 75.8352 114.293C76.9332 114.293 77.7631 114.953 77.7631 115.876C77.7631 116.647 77.2694 117.2 76.5034 117.336V117.353C77.4312 117.409 78.027 117.983 78.027 118.847C78.027 119.903 77.0652 120.639 75.8607 120.639C74.5754 120.639 73.754 119.928 73.6986 118.911H74.4349C74.503 119.541 75.0265 119.975 75.8522 119.975C76.6651 119.975 77.2482 119.515 77.2482 118.873C77.2482 118.149 76.7034 117.702 75.8266 117.702H75.0563ZM78.925 116.166C78.925 115.093 79.7933 114.293 80.9509 114.293C82.049 114.293 82.913 115.038 82.913 115.979C82.913 116.664 82.6023 117.175 81.5766 118.234L80.0231 119.839V119.856H83.0151V120.537H78.9633V120.009L81.1254 117.732C81.9511 116.864 82.1469 116.536 82.1469 116.025C82.1469 115.434 81.6064 114.961 80.9296 114.961C80.2104 114.961 79.6656 115.481 79.6656 116.166V116.17H78.925V116.166ZM85.5602 120.613C84.4324 120.613 83.6663 119.711 83.6663 118.324C83.6663 116.936 84.4281 116.034 85.5432 116.034C86.1773 116.034 86.6881 116.345 86.9519 116.83H86.969V114.395H87.7095V120.537H87.003V119.788H86.9902C86.7051 120.299 86.1986 120.613 85.5602 120.613ZM85.7007 116.685C84.9176 116.685 84.4239 117.324 84.4239 118.324C84.4239 119.328 84.9176 119.962 85.7007 119.962C86.4625 119.962 86.9732 119.315 86.9732 118.324C86.9732 117.336 86.4625 116.685 85.7007 116.685Z" fill="white"/>
<path d="M30.7594 153.029H29.8061V147.709H27.9249V146.888H32.6364V147.709H30.7594V153.029ZM33.3386 153.029V146.888H34.2494V149.301H34.2707C34.5175 148.778 35.007 148.475 35.6879 148.475C36.6711 148.475 37.2584 149.131 37.2584 150.144V153.029H36.3349V150.322C36.3349 149.663 36.0029 149.267 35.356 149.267C34.675 149.267 34.2579 149.735 34.2579 150.442V153.029H33.3386ZM38.1777 153.029V148.552H39.097V153.029H38.1777ZM38.6374 147.897C38.3437 147.897 38.1054 147.662 38.1054 147.373C38.1054 147.079 38.3437 146.845 38.6374 146.845C38.9353 146.845 39.1736 147.079 39.1736 147.373C39.1736 147.662 38.9353 147.897 38.6374 147.897ZM39.9567 149.82C39.9567 149.02 40.6632 148.471 41.7102 148.471C42.7061 148.471 43.4041 149.029 43.4339 149.824H42.57C42.5274 149.42 42.1997 149.169 41.6847 149.169C41.1867 149.169 40.8548 149.412 40.8548 149.765C40.8548 150.042 41.0761 150.229 41.54 150.344L42.2933 150.518C43.1956 150.735 43.5361 151.076 43.5361 151.735C43.5361 152.553 42.7742 153.114 41.6762 153.114C40.6164 153.114 39.9142 152.565 39.8418 151.744H40.7526C40.825 152.174 41.1569 152.412 41.7187 152.412C42.272 152.412 42.6125 152.182 42.6125 151.821C42.6125 151.535 42.4423 151.378 41.9741 151.259L41.174 151.063C40.3653 150.867 39.9567 150.446 39.9567 149.82ZM46.1323 146.888H48.2986C50.1244 146.888 51.2055 148.011 51.2055 149.948C51.2055 151.889 50.1287 153.029 48.2986 153.029H46.1323V146.888ZM47.0856 147.709V152.204H48.2092C49.5116 152.204 50.2308 151.408 50.2308 149.956C50.2308 148.509 49.5073 147.709 48.2092 147.709H47.0856ZM53.8783 149.212C53.2356 149.212 52.7845 149.701 52.7376 150.378H54.9763C54.955 149.693 54.5209 149.212 53.8783 149.212ZM54.9721 151.714H55.8445C55.7169 152.531 54.9423 153.114 53.9166 153.114C52.6014 153.114 51.8056 152.225 51.8056 150.812C51.8056 149.407 52.6142 148.471 53.8783 148.471C55.121 148.471 55.8956 149.348 55.8956 150.705V151.02H52.7334V151.076C52.7334 151.855 53.2015 152.37 53.9378 152.37C54.4613 152.37 54.8486 152.106 54.9721 151.714ZM60.4155 148.552L58.811 153.029H57.8236L56.2106 148.552H57.1895L58.3131 152.131H58.3301L59.4537 148.552H60.4155ZM60.9731 153.029V148.552H61.8924V153.029H60.9731ZM61.4327 147.897C61.1391 147.897 60.9007 147.662 60.9007 147.373C60.9007 147.079 61.1391 146.845 61.4327 146.845C61.7307 146.845 61.969 147.079 61.969 147.373C61.969 147.662 61.7307 147.897 61.4327 147.897ZM66.6762 150.093H65.7994C65.7058 149.616 65.3483 149.237 64.7482 149.237C64.0374 149.237 63.5693 149.829 63.5693 150.791C63.5693 151.774 64.0417 152.344 64.7567 152.344C65.3228 152.344 65.693 152.033 65.7994 151.514H66.6847C66.5868 152.467 65.825 153.114 64.7482 153.114C63.4671 153.114 62.6329 152.238 62.6329 150.791C62.6329 149.369 63.4671 148.471 64.7397 148.471C65.8931 148.471 66.5953 149.212 66.6762 150.093ZM69.2085 149.212C68.5659 149.212 68.1147 149.701 68.0679 150.378H70.3066C70.2853 149.693 69.8512 149.212 69.2085 149.212ZM70.3023 151.714H71.1748C71.0471 152.531 70.2725 153.114 69.2468 153.114C67.9317 153.114 67.1358 152.225 67.1358 150.812C67.1358 149.407 67.9445 148.471 69.2085 148.471C70.4513 148.471 71.2259 149.348 71.2259 150.705V151.02H68.0636V151.076C68.0636 151.855 68.5318 152.37 69.2681 152.37C69.7916 152.37 70.1789 152.106 70.3023 151.714ZM72.6304 153.076C72.3197 153.076 72.0728 152.829 72.0728 152.519C72.0728 152.208 72.3197 151.961 72.6304 151.961C72.9411 151.961 73.1879 152.208 73.1879 152.519C73.1879 152.829 72.9411 153.076 72.6304 153.076ZM72.6304 149.973C72.3197 149.973 72.0728 149.731 72.0728 149.416C72.0728 149.105 72.3197 148.858 72.6304 148.858C72.9411 148.858 73.1879 149.105 73.1879 149.416C73.1879 149.731 72.9411 149.973 72.6304 149.973Z" fill="white"/>
<rect x="27.7164" y="163.746" width="186.857" height="45.6118" rx="8.71637" fill="#1D2634"/>
<rect x="28.1249" y="164.154" width="186.04" height="44.7947" rx="8.30779" stroke="white" stroke-opacity="0.16" stroke-width="0.81716"/>
<path d="M34.7389 178.283V173.806H35.6582V178.283H34.7389ZM35.1985 173.15C34.9048 173.15 34.6665 172.916 34.6665 172.627C34.6665 172.333 34.9048 172.099 35.1985 172.099C35.4964 172.099 35.7348 172.333 35.7348 172.627C35.7348 172.916 35.4964 173.15 35.1985 173.15ZM36.7094 172.141H39.0119C40.2036 172.141 41.0335 172.963 41.0335 174.159C41.0335 175.359 40.1866 176.185 38.9821 176.185H37.6628V178.283H36.7094V172.141ZM37.6628 172.946V175.385H38.7566C39.5865 175.385 40.0589 174.938 40.0589 174.163C40.0589 173.389 39.5865 172.946 38.7608 172.946H37.6628ZM41.7911 178.283V172.141H42.7019V174.555H42.7232C42.97 174.031 43.4595 173.729 44.1404 173.729C45.1236 173.729 45.7109 174.384 45.7109 175.397V178.283H44.7874V175.576C44.7874 174.916 44.4554 174.521 43.8085 174.521C43.1275 174.521 42.7104 174.989 42.7104 175.695V178.283H41.7911ZM48.5242 178.368C47.2431 178.368 46.4004 177.487 46.4004 176.044C46.4004 174.606 47.2474 173.725 48.5242 173.725C49.801 173.725 50.6479 174.606 50.6479 176.044C50.6479 177.487 49.8052 178.368 48.5242 178.368ZM48.5242 177.611C49.2477 177.611 49.7116 177.04 49.7116 176.044C49.7116 175.053 49.2434 174.482 48.5242 174.482C47.8049 174.482 47.3367 175.053 47.3367 176.044C47.3367 177.04 47.8049 177.611 48.5242 177.611ZM51.3587 178.283V173.806H52.2354V174.555H52.2567C52.4993 174.044 52.976 173.729 53.6655 173.729C54.6529 173.729 55.2189 174.359 55.2189 175.385V178.283H54.2954V175.563C54.2954 174.891 53.9804 174.521 53.342 174.521C52.6951 174.521 52.278 174.98 52.278 175.674V178.283H51.3587ZM57.9811 174.465C57.3384 174.465 56.8873 174.955 56.8405 175.631H59.0792C59.0579 174.946 58.6238 174.465 57.9811 174.465ZM59.0749 176.968H59.9474C59.8197 177.785 59.0451 178.368 58.0194 178.368C56.7043 178.368 55.9084 177.479 55.9084 176.066C55.9084 174.661 56.7171 173.725 57.9811 173.725C59.2239 173.725 59.9985 174.601 59.9985 175.959V176.274H56.8362V176.329C56.8362 177.108 57.3044 177.623 58.0407 177.623C58.5642 177.623 58.9515 177.359 59.0749 176.968ZM62.1903 176.708H63.1266C63.1394 177.219 63.5097 177.568 64.0417 177.568C64.6673 177.568 65.0078 177.193 65.0078 176.491V172.141H65.9612V176.495C65.9612 177.713 65.2462 178.419 64.0502 178.419C62.9436 178.419 62.1903 177.73 62.1903 176.708ZM68.9191 178.368C67.6381 178.368 66.7954 177.487 66.7954 176.044C66.7954 174.606 67.6423 173.725 68.9191 173.725C70.1959 173.725 71.0429 174.606 71.0429 176.044C71.0429 177.487 70.2002 178.368 68.9191 178.368ZM68.9191 177.611C69.6426 177.611 70.1066 177.04 70.1066 176.044C70.1066 175.053 69.6384 174.482 68.9191 174.482C68.1998 174.482 67.7317 175.053 67.7317 176.044C67.7317 177.04 68.1998 177.611 68.9191 177.611ZM71.7877 178.283V172.141H72.6985V174.555H72.7198C72.9666 174.031 73.4561 173.729 74.137 173.729C75.1202 173.729 75.7075 174.384 75.7075 175.397V178.283H74.7839V175.576C74.7839 174.916 74.452 174.521 73.8051 174.521C73.1241 174.521 72.707 174.989 72.707 175.695V178.283H71.7877ZM76.597 178.283V173.806H77.4738V174.555H77.495C77.7376 174.044 78.2143 173.729 78.9038 173.729C79.8912 173.729 80.4573 174.359 80.4573 175.385V178.283H79.5337V175.563C79.5337 174.891 79.2187 174.521 78.5803 174.521C77.9334 174.521 77.5163 174.98 77.5163 175.674V178.283H76.597ZM82.9555 176.572H83.8961C83.9642 177.181 84.5558 177.581 85.3645 177.581C86.1391 177.581 86.6966 177.181 86.6966 176.632C86.6966 176.155 86.3604 175.87 85.5645 175.674L84.7686 175.482C83.6408 175.21 83.1173 174.682 83.1173 173.827C83.1173 172.767 84.0408 172.039 85.3517 172.039C86.6498 172.039 87.5393 172.767 87.5691 173.827H86.6413C86.586 173.214 86.0795 172.844 85.3389 172.844C84.5984 172.844 84.0919 173.218 84.0919 173.763C84.0919 174.197 84.4154 174.453 85.207 174.648L85.8837 174.814C87.1435 175.112 87.667 175.619 87.667 176.517C87.667 177.666 86.7519 178.385 85.2964 178.385C83.9344 178.385 83.0151 177.683 82.9555 176.572ZM88.4118 178.283V173.806H89.2885V174.559H89.3098C89.5099 174.061 89.978 173.729 90.5824 173.729C91.2038 173.729 91.6549 174.048 91.8337 174.606H91.8549C92.0848 174.061 92.6125 173.729 93.2509 173.729C94.1362 173.729 94.715 174.316 94.715 175.206V178.283H93.7914V175.427C93.7914 174.848 93.4807 174.516 92.936 174.516C92.3912 174.516 92.0124 174.921 92.0124 175.487V178.283H91.1101V175.359C91.1101 174.844 90.7824 174.516 90.2632 174.516C89.7184 174.516 89.3311 174.942 89.3311 175.517V178.283H88.4118ZM95.6343 178.283V173.806H96.5536V178.283H95.6343ZM96.0939 173.15C95.8003 173.15 95.5619 172.916 95.5619 172.627C95.5619 172.333 95.8003 172.099 96.0939 172.099C96.3919 172.099 96.6302 172.333 96.6302 172.627C96.6302 172.916 96.3919 173.15 96.0939 173.15ZM97.7623 172.746H98.6859V173.806H99.5371V174.533H98.6859V177.002C98.6859 177.389 98.8561 177.564 99.2306 177.564C99.3243 177.564 99.4732 177.555 99.5328 177.542V178.27C99.4307 178.296 99.2264 178.313 99.0221 178.313C98.1156 178.313 97.7623 177.968 97.7623 177.104V174.533H97.1111V173.806H97.7623V172.746ZM100.329 178.283V172.141H101.24V174.555H101.261C101.508 174.031 101.997 173.729 102.678 173.729C103.661 173.729 104.249 174.384 104.249 175.397V178.283H103.325V175.576C103.325 174.916 102.993 174.521 102.346 174.521C101.665 174.521 101.248 174.989 101.248 175.695V178.283H100.329Z" fill="white"/>
<path d="M36.4402 189.552H35.8656V185.463H34.4133V184.945H37.8926V185.463H36.4402V189.552ZM37.9213 190.793C37.8543 190.793 37.7426 190.787 37.6819 190.774V190.308C37.7426 190.321 37.8287 190.324 37.899 190.324C38.2086 190.324 38.381 190.174 38.5086 189.788L38.5852 189.555L37.3595 186.232H37.9532L38.8725 188.996H38.8821L39.8014 186.232H40.3856L39.08 189.785C38.7959 190.56 38.5214 190.793 37.9213 190.793ZM42.438 186.174C43.2839 186.174 43.8585 186.851 43.8585 187.892C43.8585 188.932 43.2871 189.609 42.4508 189.609C41.9752 189.609 41.5921 189.376 41.3942 189.012H41.3815V190.659H40.8261V186.232H41.3527V186.794H41.3655C41.5698 186.42 41.956 186.174 42.438 186.174ZM42.3295 189.121C42.92 189.121 43.2903 188.645 43.2903 187.892C43.2903 187.142 42.92 186.663 42.3295 186.663C41.7613 186.663 41.3783 187.154 41.3783 187.892C41.3783 188.632 41.7613 189.121 42.3295 189.121ZM45.7514 186.656C45.2311 186.656 44.8672 187.055 44.8321 187.608H46.6356C46.6228 187.052 46.2749 186.656 45.7514 186.656ZM46.6228 188.6H47.1686C47.0729 189.181 46.5111 189.609 45.7865 189.609C44.8352 189.609 44.2575 188.948 44.2575 187.904C44.2575 186.873 44.8448 186.174 45.7609 186.174C46.6579 186.174 47.2101 186.826 47.2101 187.831V188.042H44.8289V188.074C44.8289 188.709 45.2023 189.127 45.7992 189.127C46.2206 189.127 46.5302 188.913 46.6228 188.6ZM48.2411 189.583C48.0369 189.583 47.8773 189.424 47.8773 189.22C47.8773 189.015 48.0369 188.856 48.2411 188.856C48.4454 188.856 48.605 189.015 48.605 189.22C48.605 189.424 48.4454 189.583 48.2411 189.583ZM48.2411 187.234C48.0369 187.234 47.8773 187.074 47.8773 186.87C47.8773 186.666 48.0369 186.506 48.2411 186.506C48.4454 186.506 48.605 186.666 48.605 186.87C48.605 187.074 48.4454 187.234 48.2411 187.234Z" fill="white" fill-opacity="0.72"/>
<path d="M51.8796 184.945H53.5235C54.3886 184.945 54.9982 185.552 54.9982 186.423C54.9982 187.298 54.3822 187.908 53.5171 187.908H52.4542V189.552H51.8796V184.945ZM52.4542 185.456V187.397H53.3735C54.0311 187.397 54.4077 187.036 54.4077 186.423C54.4077 185.814 54.0342 185.456 53.3735 185.456H52.4542ZM55.6015 189.552V184.945H56.1569V186.762H56.1697C56.3549 186.391 56.7187 186.174 57.2231 186.174C57.9509 186.174 58.3914 186.666 58.3914 187.406V189.552H57.836V187.509C57.836 186.982 57.571 186.666 57.0507 186.666C56.4985 186.666 56.1569 187.043 56.1569 187.617V189.552H55.6015ZM60.4726 189.609C59.5533 189.609 58.934 188.948 58.934 187.892C58.934 186.832 59.5533 186.174 60.4726 186.174C61.3887 186.174 62.0079 186.832 62.0079 187.892C62.0079 188.948 61.3887 189.609 60.4726 189.609ZM60.4726 189.121C61.0599 189.121 61.4429 188.674 61.4429 187.892C61.4429 187.11 61.0599 186.663 60.4726 186.663C59.8852 186.663 59.499 187.11 59.499 187.892C59.499 188.674 59.8852 189.121 60.4726 189.121ZM62.5697 189.552V186.232H63.0932V186.762H63.106C63.2911 186.404 63.6455 186.174 64.1594 186.174C64.8872 186.174 65.3085 186.644 65.3085 187.397V189.552H64.7531V187.496C64.7531 186.96 64.5009 186.666 63.9902 186.666C63.4667 186.666 63.1251 187.036 63.1251 187.598V189.552H62.5697ZM67.3482 186.656C66.8279 186.656 66.464 187.055 66.4289 187.608H68.2324C68.2196 187.052 67.8717 186.656 67.3482 186.656ZM68.2196 188.6H68.7655C68.6697 189.181 68.1079 189.609 67.3833 189.609C66.4321 189.609 65.8543 188.948 65.8543 187.904C65.8543 186.873 66.4417 186.174 67.3578 186.174C68.2547 186.174 68.807 186.826 68.807 187.831V188.042H66.4257V188.074C66.4257 188.709 66.7992 189.127 67.3961 189.127C67.8174 189.127 68.1271 188.913 68.2196 188.6Z" fill="white"/>
<path d="M35.8018 200.82V196.824H35.789L34.5697 197.702V197.095L35.7954 196.214H36.3572V200.82H35.8018ZM38.9906 200.897C38.2054 200.897 37.6021 200.425 37.4617 199.703H38.0458C38.1671 200.121 38.5406 200.396 38.997 200.396C39.7631 200.396 40.2036 199.7 40.2196 198.477H40.2164C40.2132 198.477 40.2132 198.477 40.21 198.477C40.0153 198.934 39.5109 199.231 38.9236 199.231C38.0458 199.231 37.3946 198.583 37.3946 197.708C37.3946 196.798 38.0809 196.134 39.0257 196.134C39.7184 196.134 40.2674 196.508 40.5483 197.169C40.7016 197.523 40.775 197.938 40.775 198.439C40.775 199.99 40.1174 200.897 38.9906 200.897ZM39.0226 198.726C39.6322 198.726 40.0855 198.292 40.0855 197.705C40.0855 197.114 39.6259 196.652 39.0321 196.652C38.4416 196.652 37.9756 197.111 37.9756 197.689C37.9756 198.289 38.4193 198.726 39.0226 198.726ZM41.3464 197.542C41.3464 196.738 41.9975 196.138 42.8658 196.138C43.6893 196.138 44.3373 196.696 44.3373 197.402C44.3373 197.916 44.1043 198.299 43.335 199.093L42.1699 200.297V200.31H44.4139V200.82H41.3751V200.425L42.9966 198.717C43.6159 198.066 43.7627 197.82 43.7627 197.437C43.7627 196.993 43.3573 196.639 42.8498 196.639C42.3103 196.639 41.9018 197.028 41.9018 197.542V197.545H41.3464V197.542ZM45.5343 200.852C45.33 200.852 45.1704 200.693 45.1704 200.488C45.1704 200.284 45.33 200.124 45.5343 200.124C45.7386 200.124 45.8982 200.284 45.8982 200.488C45.8982 200.693 45.7386 200.852 45.5343 200.852ZM48.3209 200.897C47.3474 200.897 46.6515 200.345 46.6515 199.575C46.6515 199.001 47.0473 198.528 47.641 198.391V198.378C47.1431 198.225 46.8335 197.833 46.8335 197.347C46.8335 196.652 47.4655 196.138 48.3209 196.138C49.1828 196.138 49.8052 196.648 49.8052 197.351C49.8052 197.829 49.502 198.219 49.0008 198.378V198.391C49.5978 198.532 49.9936 199.004 49.9936 199.575C49.9936 200.348 49.2977 200.897 48.3209 200.897ZM48.3209 200.396C48.9562 200.396 49.4062 200.035 49.4062 199.534C49.4062 199.026 48.9562 198.669 48.3209 198.669C47.6889 198.669 47.2357 199.03 47.2357 199.534C47.2357 200.035 47.6889 200.396 48.3209 200.396ZM48.3209 198.165C48.8572 198.165 49.2371 197.849 49.2371 197.402C49.2371 196.948 48.8604 196.632 48.3209 196.632C47.7815 196.632 47.4048 196.952 47.4048 197.402C47.4048 197.849 47.7815 198.165 48.3209 198.165ZM51.0182 200.852C50.8139 200.852 50.6543 200.693 50.6543 200.488C50.6543 200.284 50.8139 200.124 51.0182 200.124C51.2225 200.124 51.3821 200.284 51.3821 200.488C51.3821 200.693 51.2225 200.852 51.0182 200.852ZM53.0132 200.82V196.824H53.0005L51.7811 197.702V197.095L53.0068 196.214H53.5686V200.82H53.0132ZM56.4032 200.9C55.7137 200.9 55.1647 200.527 54.8806 199.863C54.7274 199.508 54.6539 199.093 54.6539 198.595C54.6539 197.044 55.3147 196.134 56.4415 196.134C57.2235 196.134 57.8236 196.604 57.9705 197.328H57.3863C57.2618 196.91 56.8915 196.642 56.4351 196.642C55.6658 196.642 55.2285 197.325 55.2093 198.551H55.2189C55.4264 198.101 55.9339 197.804 56.5053 197.804C57.3831 197.804 58.0343 198.452 58.0343 199.326C58.0343 200.236 57.348 200.9 56.4032 200.9ZM56.3968 200.389C56.9841 200.389 57.4502 199.927 57.4502 199.346C57.4502 198.742 57.016 198.308 56.4064 198.308C55.7967 198.308 55.3466 198.742 55.3466 199.33C55.3466 199.92 55.8063 200.389 56.3968 200.389ZM60.2336 200.897C59.26 200.897 58.5642 200.345 58.5642 199.575C58.5642 199.001 58.96 198.528 59.5537 198.391V198.378C59.0557 198.225 58.7461 197.833 58.7461 197.347C58.7461 196.652 59.3781 196.138 60.2336 196.138C61.0955 196.138 61.7179 196.648 61.7179 197.351C61.7179 197.829 61.4147 198.219 60.9135 198.378V198.391C61.5104 198.532 61.9062 199.004 61.9062 199.575C61.9062 200.348 61.2104 200.897 60.2336 200.897ZM60.2336 200.396C60.8688 200.396 61.3189 200.035 61.3189 199.534C61.3189 199.026 60.8688 198.669 60.2336 198.669C59.6016 198.669 59.1483 199.03 59.1483 199.534C59.1483 200.035 59.6016 200.396 60.2336 200.396ZM60.2336 198.165C60.7699 198.165 61.1497 197.849 61.1497 197.402C61.1497 196.948 60.7731 196.632 60.2336 196.632C59.6942 196.632 59.3175 196.952 59.3175 197.402C59.3175 197.849 59.6942 198.165 60.2336 198.165ZM62.9309 200.852C62.7266 200.852 62.567 200.693 62.567 200.488C62.567 200.284 62.7266 200.124 62.9309 200.124C63.1352 200.124 63.2948 200.284 63.2948 200.488C63.2948 200.693 63.1352 200.852 62.9309 200.852ZM64.9259 200.82V196.824H64.9131L63.6938 197.702V197.095L64.9195 196.214H65.4813V200.82H64.9259ZM68.2328 200.897C67.3518 200.897 66.7007 200.348 66.6528 199.563H67.2178C67.2688 200.054 67.687 200.393 68.2392 200.393C68.8649 200.393 69.299 199.958 69.299 199.339C69.299 198.72 68.8617 198.276 68.2488 198.276C67.8179 198.276 67.4508 198.471 67.2625 198.793H66.723L66.9752 196.214H69.6118V196.725H67.4476L67.3071 198.225H67.3199C67.5274 197.947 67.9104 197.781 68.3509 197.781C69.2351 197.781 69.8735 198.429 69.8735 199.323C69.8735 200.249 69.1936 200.897 68.2328 200.897Z" fill="white" fill-opacity="0.72"/>
<path d="M200.415 188.698L202.561 186.552L200.415 184.405C200.255 184.246 200.255 183.987 200.415 183.828C200.574 183.668 200.833 183.668 200.993 183.828L203.428 186.263C203.504 186.339 203.547 186.443 203.547 186.552C203.547 186.66 203.504 186.764 203.428 186.84L200.993 189.275C200.833 189.435 200.574 189.435 200.415 189.275C200.255 189.116 200.255 188.857 200.415 188.698Z" fill="white"/>
<path d="M30.9382 219.83C32.7045 219.83 33.8153 221.052 33.8153 223.005C33.8153 224.959 32.7045 226.176 30.9382 226.176C29.1677 226.176 28.0611 224.959 28.0611 223.005C28.0611 221.052 29.1677 219.83 30.9382 219.83ZM30.9382 220.669C29.772 220.669 29.0357 221.571 29.0357 223.005C29.0357 224.435 29.772 225.338 30.9382 225.338C32.1043 225.338 32.8364 224.435 32.8364 223.005C32.8364 221.571 32.1043 220.669 30.9382 220.669ZM34.8835 220.537H35.8071V221.597H36.6583V222.324H35.8071V224.793C35.8071 225.18 35.9773 225.355 36.3519 225.355C36.4455 225.355 36.5945 225.346 36.6541 225.333V226.061C36.5519 226.087 36.3476 226.104 36.1433 226.104C35.2368 226.104 34.8835 225.759 34.8835 224.895V222.324H34.2324V221.597H34.8835V220.537ZM37.4499 226.074V219.933H38.3607V222.346H38.382C38.6289 221.822 39.1183 221.52 39.7993 221.52C40.7824 221.52 41.3698 222.175 41.3698 223.188V226.074H40.4462V223.367C40.4462 222.707 40.1142 222.312 39.4673 222.312C38.7863 222.312 38.3692 222.78 38.3692 223.486V226.074H37.4499ZM44.1319 222.256C43.4893 222.256 43.0381 222.746 42.9913 223.422H45.23C45.2087 222.737 44.7746 222.256 44.1319 222.256ZM45.2257 224.759H46.0982C45.9705 225.576 45.1959 226.159 44.1702 226.159C42.8551 226.159 42.0592 225.27 42.0592 223.857C42.0592 222.452 42.8679 221.516 44.1319 221.516C45.3747 221.516 46.1493 222.392 46.1493 223.75V224.065H42.987V224.12C42.987 224.899 43.4552 225.414 44.1915 225.414C44.715 225.414 45.1023 225.15 45.2257 224.759ZM46.8643 226.074V221.597H47.741V222.358H47.7623C47.9113 221.835 48.3114 221.524 48.8391 221.524C48.971 221.524 49.086 221.546 49.1541 221.558V222.414C49.0817 222.384 48.92 222.363 48.7412 222.363C48.1496 222.363 47.7836 222.759 47.7836 223.393V226.074H46.8643ZM51.6055 219.933H53.7719C55.5977 219.933 56.6787 221.056 56.6787 222.993C56.6787 224.933 55.602 226.074 53.7719 226.074H51.6055V219.933ZM52.5589 220.754V225.248H53.6825C54.9848 225.248 55.7041 224.452 55.7041 223.001C55.7041 221.554 54.9806 220.754 53.6825 220.754H52.5589ZM59.3515 222.256C58.7089 222.256 58.2577 222.746 58.2109 223.422H60.4496C60.4283 222.737 59.9942 222.256 59.3515 222.256ZM60.4453 224.759H61.3178C61.1901 225.576 60.4155 226.159 59.3898 226.159C58.0747 226.159 57.2788 225.27 57.2788 223.857C57.2788 222.452 58.0875 221.516 59.3515 221.516C60.5943 221.516 61.3689 222.392 61.3689 223.75V224.065H58.2067V224.12C58.2067 224.899 58.6748 225.414 59.4111 225.414C59.9346 225.414 60.3219 225.15 60.4453 224.759ZM65.8888 221.597L64.2843 226.074H63.2969L61.6838 221.597H62.6627L63.7863 225.176H63.8033L64.9269 221.597H65.8888ZM66.4464 226.074V221.597H67.3657V226.074H66.4464ZM66.906 220.941C66.6123 220.941 66.374 220.707 66.374 220.418C66.374 220.124 66.6123 219.89 66.906 219.89C67.2039 219.89 67.4423 220.124 67.4423 220.418C67.4423 220.707 67.2039 220.941 66.906 220.941ZM72.1494 223.137H71.2727C71.1791 222.661 70.8216 222.282 70.2215 222.282C69.5107 222.282 69.0425 222.873 69.0425 223.835C69.0425 224.818 69.515 225.389 70.23 225.389C70.796 225.389 71.1663 225.078 71.2727 224.559H72.158C72.0601 225.512 71.2982 226.159 70.2215 226.159C68.9404 226.159 68.1062 225.282 68.1062 223.835C68.1062 222.414 68.9404 221.516 70.2129 221.516C71.3663 221.516 72.0686 222.256 72.1494 223.137ZM74.6818 222.256C74.0391 222.256 73.588 222.746 73.5412 223.422H75.7799C75.7586 222.737 75.3245 222.256 74.6818 222.256ZM75.7756 224.759H76.6481C76.5204 225.576 75.7458 226.159 74.7201 226.159C73.405 226.159 72.6091 225.27 72.6091 223.857C72.6091 222.452 73.4177 221.516 74.6818 221.516C75.9246 221.516 76.6992 222.392 76.6992 223.75V224.065H73.5369V224.12C73.5369 224.899 74.0051 225.414 74.7414 225.414C75.2649 225.414 75.6522 225.15 75.7756 224.759ZM77.3333 222.865C77.3333 222.065 78.0398 221.516 79.0868 221.516C80.0827 221.516 80.7807 222.073 80.8105 222.869H79.9465C79.904 222.465 79.5762 222.214 79.0613 222.214C78.5633 222.214 78.2313 222.456 78.2313 222.81C78.2313 223.086 78.4526 223.273 78.9165 223.388L79.6699 223.563C80.5722 223.78 80.9126 224.12 80.9126 224.78C80.9126 225.597 80.1508 226.159 79.0527 226.159C77.993 226.159 77.2907 225.61 77.2184 224.789H78.1292C78.2015 225.219 78.5335 225.457 79.0953 225.457C79.6486 225.457 79.9891 225.227 79.9891 224.865C79.9891 224.58 79.8188 224.423 79.3507 224.303L78.5505 224.108C77.7419 223.912 77.3333 223.491 77.3333 222.865ZM82.3171 226.121C82.0064 226.121 81.7596 225.874 81.7596 225.563C81.7596 225.253 82.0064 225.006 82.3171 225.006C82.6278 225.006 82.8747 225.253 82.8747 225.563C82.8747 225.874 82.6278 226.121 82.3171 226.121ZM82.3171 223.018C82.0064 223.018 81.7596 222.776 81.7596 222.461C81.7596 222.15 82.0064 221.903 82.3171 221.903C82.6278 221.903 82.8747 222.15 82.8747 222.461C82.8747 222.776 82.6278 223.018 82.3171 223.018Z" fill="white"/>
<path d="M184.604 226.074V220.877H184.582L182.978 222.018V221.082L184.595 219.933H185.536V226.074H184.604ZM189.273 226.189C187.8 226.189 186.928 224.955 186.928 222.997C186.928 221.052 187.809 219.818 189.273 219.818C190.741 219.818 191.609 221.048 191.609 222.993C191.609 224.95 190.745 226.189 189.273 226.189ZM189.273 225.389C190.149 225.389 190.647 224.482 190.647 222.997C190.647 221.533 190.141 220.618 189.273 220.618C188.404 220.618 187.894 221.537 187.894 222.997C187.894 224.478 188.396 225.389 189.273 225.389ZM195.278 226.074H194.325V219.933H195.278V226.074ZM196.567 220.537H197.491V221.597H198.342V222.324H197.491V224.793C197.491 225.18 197.661 225.355 198.036 225.355C198.129 225.355 198.278 225.346 198.338 225.333V226.061C198.236 226.087 198.032 226.104 197.827 226.104C196.921 226.104 196.567 225.759 196.567 224.895V222.324H195.916V221.597H196.567V220.537ZM200.87 222.256C200.228 222.256 199.777 222.746 199.73 223.422H201.968C201.947 222.737 201.513 222.256 200.87 222.256ZM201.964 224.759H202.837C202.709 225.576 201.934 226.159 200.909 226.159C199.594 226.159 198.798 225.27 198.798 223.857C198.798 222.452 199.606 221.516 200.87 221.516C202.113 221.516 202.888 222.392 202.888 223.75V224.065H199.725V224.12C199.725 224.899 200.194 225.414 200.93 225.414C201.453 225.414 201.841 225.15 201.964 224.759ZM203.603 226.074V221.597H204.479V222.35H204.501C204.701 221.852 205.169 221.52 205.773 221.52C206.395 221.52 206.846 221.839 207.025 222.397H207.046C207.276 221.852 207.803 221.52 208.442 221.52C209.327 221.52 209.906 222.107 209.906 222.997V226.074H208.982V223.218C208.982 222.639 208.672 222.307 208.127 222.307C207.582 222.307 207.203 222.712 207.203 223.278V226.074H206.301V223.15C206.301 222.635 205.973 222.307 205.454 222.307C204.909 222.307 204.522 222.733 204.522 223.308V226.074H203.603ZM210.715 222.865C210.715 222.065 211.421 221.516 212.468 221.516C213.464 221.516 214.162 222.073 214.192 222.869H213.328C213.285 222.465 212.957 222.214 212.443 222.214C211.945 222.214 211.613 222.456 211.613 222.81C211.613 223.086 211.834 223.273 212.298 223.388L213.051 223.563C213.953 223.78 214.294 224.12 214.294 224.78C214.294 225.597 213.532 226.159 212.434 226.159C211.374 226.159 210.672 225.61 210.6 224.789H211.51C211.583 225.219 211.915 225.457 212.477 225.457C213.03 225.457 213.37 225.227 213.37 224.865C213.37 224.58 213.2 224.423 212.732 224.303L211.932 224.108C211.123 223.912 210.715 223.491 210.715 222.865Z" fill="white" fill-opacity="0.72"/>
<rect x="27.7164" y="236.79" width="186.857" height="45.6118" rx="8.71637" fill="#1D2634"/>
<rect x="28.1249" y="237.199" width="186.04" height="44.7947" rx="8.30779" stroke="white" stroke-opacity="0.16" stroke-width="0.81716"/>
<path d="M34.7389 251.328V246.85H35.6582V251.328H34.7389ZM35.1985 246.195C34.9048 246.195 34.6665 245.961 34.6665 245.671C34.6665 245.378 34.9048 245.144 35.1985 245.144C35.4964 245.144 35.7348 245.378 35.7348 245.671C35.7348 245.961 35.4964 246.195 35.1985 246.195ZM36.7094 245.186H39.0119C40.2036 245.186 41.0335 246.008 41.0335 247.204C41.0335 248.404 40.1866 249.229 38.9821 249.229H37.6628V251.328H36.7094V245.186ZM37.6628 245.991V248.429H38.7566C39.5865 248.429 40.0589 247.982 40.0589 247.208C40.0589 246.433 39.5865 245.991 38.7608 245.991H37.6628ZM42.9743 250.676C43.617 250.676 44.1192 250.234 44.1192 249.651V249.298L43.0169 249.366C42.4678 249.404 42.1571 249.647 42.1571 250.03C42.1571 250.421 42.4806 250.676 42.9743 250.676ZM42.7189 251.404C41.8422 251.404 41.2293 250.859 41.2293 250.055C41.2293 249.272 41.8294 248.791 42.8934 248.731L44.1192 248.659V248.314C44.1192 247.816 43.7829 247.518 43.2211 247.518C42.6891 247.518 42.3572 247.774 42.2763 248.174H41.4081C41.4591 247.365 42.1486 246.769 43.2552 246.769C44.3405 246.769 45.0342 247.344 45.0342 248.242V251.328H44.1532V250.591H44.1319C43.8723 251.089 43.3063 251.404 42.7189 251.404ZM47.6091 251.404C46.477 251.404 45.728 250.502 45.728 249.089C45.728 247.676 46.477 246.778 47.6006 246.778C48.2433 246.778 48.754 247.101 49.0051 247.595H49.0221V245.186H49.9457V251.328H49.0519V250.566H49.0349C48.771 251.077 48.2603 251.404 47.6091 251.404ZM47.8517 247.553C47.1239 247.553 46.6685 248.148 46.6685 249.089C46.6685 250.034 47.1239 250.625 47.8517 250.625C48.5582 250.625 49.0306 250.025 49.0306 249.089C49.0306 248.161 48.5582 247.553 47.8517 247.553ZM55.2359 251.328H52.7717V245.186H55.2232C56.3127 245.186 57.0277 245.791 57.0277 246.718C57.0277 247.37 56.5468 247.953 55.9339 248.055V248.089C56.7681 248.182 57.3299 248.774 57.3299 249.591C57.3299 250.672 56.5426 251.328 55.2359 251.328ZM53.7251 245.965V247.799H54.7933C55.619 247.799 56.0744 247.459 56.0744 246.85C56.0744 246.28 55.6828 245.965 54.9934 245.965H53.7251ZM53.7251 250.549H55.0402C55.8999 250.549 56.3553 250.196 56.3553 249.532C56.3553 248.868 55.8871 248.527 54.9848 248.527H53.7251V250.549ZM58.0705 251.328V246.85H58.9898V251.328H58.0705ZM58.5301 246.195C58.2365 246.195 57.9981 245.961 57.9981 245.671C57.9981 245.378 58.2365 245.144 58.5301 245.144C58.828 245.144 59.0664 245.378 59.0664 245.671C59.0664 245.961 58.828 246.195 58.5301 246.195ZM59.9644 251.328V245.186H60.8837V251.328H59.9644ZM61.8626 251.328V245.186H62.7819V251.328H61.8626ZM64.1694 252.996C64.097 252.996 63.8629 252.987 63.7948 252.975V252.23C63.8629 252.247 64.0162 252.247 64.0928 252.247C64.5226 252.247 64.7482 252.068 64.8887 251.609C64.8887 251.6 64.9695 251.336 64.9695 251.332L63.3522 246.85H64.3481L65.4845 250.493H65.4973L66.6336 246.85H67.604L65.9229 251.562C65.5398 252.647 65.1015 252.996 64.1694 252.996ZM69.7533 249.617H70.6939C70.762 250.225 71.3536 250.625 72.1622 250.625C72.9368 250.625 73.4944 250.225 73.4944 249.676C73.4944 249.2 73.1581 248.914 72.3623 248.719L71.5664 248.527C70.4385 248.255 69.915 247.727 69.915 246.872C69.915 245.812 70.8386 245.084 72.1495 245.084C73.4476 245.084 74.3371 245.812 74.3669 246.872H73.439C73.3837 246.259 72.8772 245.888 72.1367 245.888C71.3961 245.888 70.8897 246.263 70.8897 246.808C70.8897 247.242 71.2131 247.497 72.0048 247.693L72.6815 247.859C73.9413 248.157 74.4647 248.663 74.4647 249.561C74.4647 250.711 73.5497 251.43 72.0941 251.43C70.7322 251.43 69.8129 250.728 69.7533 249.617ZM75.2096 251.328V246.85H76.0863V247.604H76.1076C76.3076 247.106 76.7758 246.774 77.3801 246.774C78.0015 246.774 78.4527 247.093 78.6314 247.65H78.6527C78.8825 247.106 79.4103 246.774 80.0487 246.774C80.9339 246.774 81.5127 247.361 81.5127 248.251V251.328H80.5892V248.472C80.5892 247.893 80.2785 247.561 79.7337 247.561C79.1889 247.561 78.8102 247.965 78.8102 248.531V251.328H77.9079V248.404C77.9079 247.889 77.5802 247.561 77.0609 247.561C76.5162 247.561 76.1289 247.987 76.1289 248.561V251.328H75.2096ZM82.4321 251.328V246.85H83.3514V251.328H82.4321ZM82.8917 246.195C82.598 246.195 82.3597 245.961 82.3597 245.671C82.3597 245.378 82.598 245.144 82.8917 245.144C83.1896 245.144 83.428 245.378 83.428 245.671C83.428 245.961 83.1896 246.195 82.8917 246.195ZM84.5601 245.791H85.4836V246.85H86.3348V247.578H85.4836V250.047C85.4836 250.434 85.6539 250.608 86.0284 250.608C86.122 250.608 86.271 250.6 86.3306 250.587V251.315C86.2284 251.34 86.0242 251.357 85.8199 251.357C84.9133 251.357 84.5601 251.013 84.5601 250.149V247.578H83.9089V246.85H84.5601V245.791ZM87.1265 251.328V245.186H88.0373V247.599H88.0585C88.3054 247.076 88.7948 246.774 89.4758 246.774C90.4589 246.774 91.0463 247.429 91.0463 248.442V251.328H90.1227V248.621C90.1227 247.961 89.7908 247.565 89.1438 247.565C88.4629 247.565 88.0458 248.033 88.0458 248.74V251.328H87.1265Z" fill="white"/>
<path d="M36.4402 262.596H35.8656V258.507H34.4133V257.99H37.8926V258.507H36.4402V262.596ZM37.9213 263.838C37.8543 263.838 37.7426 263.832 37.6819 263.819V263.353C37.7426 263.365 37.8287 263.369 37.899 263.369C38.2086 263.369 38.381 263.219 38.5086 262.832L38.5852 262.599L37.3595 259.276H37.9532L38.8725 262.041H38.8821L39.8014 259.276H40.3856L39.08 262.829C38.7959 263.605 38.5214 263.838 37.9213 263.838ZM42.438 259.219C43.2839 259.219 43.8585 259.896 43.8585 260.936C43.8585 261.977 43.2871 262.654 42.4508 262.654C41.9752 262.654 41.5921 262.421 41.3942 262.057H41.3815V263.704H40.8261V259.276H41.3527V259.838H41.3655C41.5698 259.465 41.956 259.219 42.438 259.219ZM42.3295 262.165C42.92 262.165 43.2903 261.69 43.2903 260.936C43.2903 260.186 42.92 259.707 42.3295 259.707C41.7613 259.707 41.3783 260.199 41.3783 260.936C41.3783 261.677 41.7613 262.165 42.3295 262.165ZM45.7514 259.701C45.2311 259.701 44.8672 260.1 44.8321 260.652H46.6356C46.6228 260.097 46.2749 259.701 45.7514 259.701ZM46.6228 261.645H47.1686C47.0729 262.226 46.5111 262.654 45.7865 262.654C44.8352 262.654 44.2575 261.993 44.2575 260.949C44.2575 259.918 44.8448 259.219 45.7609 259.219C46.6579 259.219 47.2101 259.87 47.2101 260.876V261.086H44.8289V261.118C44.8289 261.753 45.2023 262.172 45.7992 262.172C46.2206 262.172 46.5302 261.958 46.6228 261.645ZM48.2411 262.628C48.0369 262.628 47.8773 262.469 47.8773 262.264C47.8773 262.06 48.0369 261.9 48.2411 261.9C48.4454 261.9 48.605 262.06 48.605 262.264C48.605 262.469 48.4454 262.628 48.2411 262.628ZM48.2411 260.279C48.0369 260.279 47.8773 260.119 47.8773 259.915C47.8773 259.711 48.0369 259.551 48.2411 259.551C48.4454 259.551 48.605 259.711 48.605 259.915C48.605 260.119 48.4454 260.279 48.2411 260.279Z" fill="white" fill-opacity="0.72"/>
<path d="M51.8222 262.596V259.276H52.3776V262.596H51.8222ZM52.0999 258.718C51.9115 258.718 51.7551 258.561 51.7551 258.373C51.7551 258.182 51.9115 258.028 52.0999 258.028C52.2914 258.028 52.4478 258.182 52.4478 258.373C52.4478 258.561 52.2914 258.718 52.0999 258.718ZM53.2139 257.99H54.8578C55.7228 257.99 56.3325 258.597 56.3325 259.468C56.3325 260.343 55.7164 260.952 54.8514 260.952H53.7885V262.596H53.2139V257.99ZM53.7885 258.501V260.442H54.7078C55.3653 260.442 55.742 260.081 55.742 259.468C55.742 258.858 55.3685 258.501 54.7078 258.501H53.7885ZM57.7147 262.181C58.2381 262.181 58.6403 261.814 58.6403 261.335V261.064L57.753 261.118C57.3061 261.147 57.0507 261.345 57.0507 261.658C57.0507 261.974 57.3157 262.181 57.7147 262.181ZM57.5902 262.654C56.9294 262.654 56.4857 262.255 56.4857 261.658C56.4857 261.09 56.923 260.732 57.6891 260.687L58.6403 260.633V260.355C58.6403 259.95 58.3722 259.707 57.9126 259.707C57.4848 259.707 57.2167 259.909 57.1465 260.234H56.6102C56.6485 259.66 57.1401 259.219 57.9253 259.219C58.7042 259.219 59.1958 259.64 59.1958 260.301V262.596H58.6691V262.025H58.6563C58.4584 262.405 58.0371 262.654 57.5902 262.654ZM61.1589 262.654C60.313 262.654 59.7384 261.977 59.7384 260.936C59.7384 259.896 60.3098 259.219 61.1461 259.219C61.6217 259.219 62.0047 259.452 62.2027 259.816H62.2154V257.99H62.7708V262.596H62.241V262.034H62.2314C62.0175 262.417 61.6377 262.654 61.1589 262.654ZM61.2642 259.707C60.6769 259.707 60.3066 260.186 60.3066 260.936C60.3066 261.69 60.6769 262.165 61.2642 262.165C61.8356 262.165 62.2186 261.68 62.2186 260.936C62.2186 260.196 61.8356 259.707 61.2642 259.707Z" fill="white"/>
<path d="M35.8018 273.865V269.869H35.789L34.5697 270.746V270.14L35.7954 269.259H36.3572V273.865H35.8018ZM38.9906 273.942C38.2054 273.942 37.6021 273.469 37.4617 272.748H38.0458C38.1671 273.166 38.5406 273.44 38.997 273.44C39.7631 273.44 40.2036 272.745 40.2196 271.522H40.2164C40.2132 271.522 40.2132 271.522 40.21 271.522C40.0153 271.978 39.5109 272.275 38.9236 272.275C38.0458 272.275 37.3946 271.627 37.3946 270.753C37.3946 269.843 38.0809 269.179 39.0257 269.179C39.7184 269.179 40.2674 269.553 40.5483 270.213C40.7016 270.568 40.775 270.983 40.775 271.484C40.775 273.035 40.1174 273.942 38.9906 273.942ZM39.0226 271.771C39.6322 271.771 40.0855 271.337 40.0855 270.75C40.0855 270.159 39.6259 269.696 39.0321 269.696C38.4416 269.696 37.9756 270.156 37.9756 270.734C37.9756 271.334 38.4193 271.771 39.0226 271.771ZM41.3464 270.587C41.3464 269.782 41.9975 269.182 42.8658 269.182C43.6893 269.182 44.3373 269.741 44.3373 270.446C44.3373 270.96 44.1043 271.343 43.335 272.138L42.1699 273.341V273.354H44.4139V273.865H41.3751V273.469L42.9966 271.761C43.6159 271.11 43.7627 270.864 43.7627 270.481C43.7627 270.038 43.3573 269.683 42.8498 269.683C42.3103 269.683 41.9018 270.073 41.9018 270.587V270.59H41.3464V270.587ZM45.5343 273.897C45.33 273.897 45.1704 273.737 45.1704 273.533C45.1704 273.329 45.33 273.169 45.5343 273.169C45.7386 273.169 45.8982 273.329 45.8982 273.533C45.8982 273.737 45.7386 273.897 45.5343 273.897ZM48.3209 273.942C47.3474 273.942 46.6515 273.389 46.6515 272.62C46.6515 272.046 47.0473 271.573 47.641 271.436V271.423C47.1431 271.27 46.8335 270.877 46.8335 270.392C46.8335 269.696 47.4655 269.182 48.3209 269.182C49.1828 269.182 49.8052 269.693 49.8052 270.395C49.8052 270.874 49.502 271.263 49.0008 271.423V271.436C49.5978 271.576 49.9936 272.049 49.9936 272.62C49.9936 273.393 49.2977 273.942 48.3209 273.942ZM48.3209 273.44C48.9562 273.44 49.4062 273.08 49.4062 272.579C49.4062 272.071 48.9562 271.714 48.3209 271.714C47.6889 271.714 47.2357 272.074 47.2357 272.579C47.2357 273.08 47.6889 273.44 48.3209 273.44ZM48.3209 271.209C48.8572 271.209 49.2371 270.893 49.2371 270.446C49.2371 269.993 48.8604 269.677 48.3209 269.677C47.7815 269.677 47.4048 269.996 47.4048 270.446C47.4048 270.893 47.7815 271.209 48.3209 271.209ZM51.0182 273.897C50.8139 273.897 50.6543 273.737 50.6543 273.533C50.6543 273.329 50.8139 273.169 51.0182 273.169C51.2225 273.169 51.3821 273.329 51.3821 273.533C51.3821 273.737 51.2225 273.897 51.0182 273.897ZM53.0132 273.865V269.869H53.0005L51.7811 270.746V270.14L53.0068 269.259H53.5686V273.865H53.0132ZM56.4032 273.945C55.7137 273.945 55.1647 273.571 54.8806 272.907C54.7274 272.553 54.6539 272.138 54.6539 271.64C54.6539 270.089 55.3147 269.179 56.4415 269.179C57.2235 269.179 57.8236 269.648 57.9705 270.373H57.3863C57.2618 269.955 56.8915 269.687 56.4351 269.687C55.6658 269.687 55.2285 270.37 55.2093 271.595H55.2189C55.4264 271.145 55.9339 270.849 56.5053 270.849C57.3831 270.849 58.0343 271.497 58.0343 272.371C58.0343 273.281 57.348 273.945 56.4032 273.945ZM56.3968 273.434C56.9841 273.434 57.4502 272.971 57.4502 272.39C57.4502 271.787 57.016 271.353 56.4064 271.353C55.7967 271.353 55.3466 271.787 55.3466 272.374C55.3466 272.965 55.8063 273.434 56.3968 273.434ZM60.2336 273.942C59.26 273.942 58.5642 273.389 58.5642 272.62C58.5642 272.046 58.96 271.573 59.5537 271.436V271.423C59.0557 271.27 58.7461 270.877 58.7461 270.392C58.7461 269.696 59.3781 269.182 60.2336 269.182C61.0955 269.182 61.7179 269.693 61.7179 270.395C61.7179 270.874 61.4147 271.263 60.9135 271.423V271.436C61.5104 271.576 61.9062 272.049 61.9062 272.62C61.9062 273.393 61.2104 273.942 60.2336 273.942ZM60.2336 273.44C60.8688 273.44 61.3189 273.08 61.3189 272.579C61.3189 272.071 60.8688 271.714 60.2336 271.714C59.6016 271.714 59.1483 272.074 59.1483 272.579C59.1483 273.08 59.6016 273.44 60.2336 273.44ZM60.2336 271.209C60.7699 271.209 61.1497 270.893 61.1497 270.446C61.1497 269.993 60.7731 269.677 60.2336 269.677C59.6942 269.677 59.3175 269.996 59.3175 270.446C59.3175 270.893 59.6942 271.209 60.2336 271.209ZM62.9309 273.897C62.7266 273.897 62.567 273.737 62.567 273.533C62.567 273.329 62.7266 273.169 62.9309 273.169C63.1352 273.169 63.2948 273.329 63.2948 273.533C63.2948 273.737 63.1352 273.897 62.9309 273.897ZM64.9259 273.865V269.869H64.9131L63.6938 270.746V270.14L64.9195 269.259H65.4813V273.865H64.9259ZM68.2328 273.942C67.3518 273.942 66.7007 273.393 66.6528 272.607H67.2178C67.2688 273.099 67.687 273.437 68.2392 273.437C68.8649 273.437 69.299 273.003 69.299 272.384C69.299 271.765 68.8617 271.321 68.2488 271.321C67.8179 271.321 67.4508 271.516 67.2625 271.838H66.723L66.9752 269.259H69.6118V269.77H67.4476L67.3071 271.27H67.3199C67.5274 270.992 67.9104 270.826 68.3509 270.826C69.2351 270.826 69.8735 271.474 69.8735 272.368C69.8735 273.294 69.1936 273.942 68.2328 273.942Z" fill="white" fill-opacity="0.72"/>
<path d="M200.415 261.742L202.561 259.596L200.415 257.45C200.255 257.291 200.255 257.032 200.415 256.872C200.574 256.713 200.833 256.713 200.993 256.872L203.428 259.307C203.504 259.384 203.547 259.488 203.547 259.596C203.547 259.705 203.504 259.808 203.428 259.885L200.993 262.32C200.833 262.48 200.574 262.48 200.415 262.32C200.255 262.161 200.255 261.902 200.415 261.742Z" fill="white"/>
<rect x="27.7164" y="287.85" width="186.857" height="45.6118" rx="8.71637" fill="#1D2634"/>
<rect x="28.1249" y="288.258" width="186.04" height="44.7947" rx="8.30779" stroke="white" stroke-opacity="0.16" stroke-width="0.81716"/>
</g>
<rect x="17.5027" y="21.5985" width="206.165" height="444.515" rx="30.8854" stroke="black" stroke-width="3.03791"/>
<rect x="14.7241" y="18.8209" width="211.723" height="450.071" rx="33.6702" stroke="#424242" stroke-width="2.53159"/>
<rect x="85.9728" y="28.8406" width="63.1615" height="18.5229" rx="9.26143" fill="black"/>
<defs>
<filter id="filter0_d_18_3099" x="5.92544" y="39.3431" width="135.582" height="69.5819" filterUnits="userSpaceOnUse" color-interpolation-filters="sRGB">
<feFlood flood-opacity="0" result="BackgroundImageFix"/>
<feColorMatrix in="SourceAlpha" type="matrix" values="0 0 0 0 0 0 0 0 0 0 0 0 0 0 0 0 0 0 127 0" result="hardAlpha"/>
<feOffset dy="4.35819"/>
<feGaussianBlur stdDeviation="10.8955"/>
<feComposite in2="hardAlpha" operator="out"/>
<feColorMatrix type="matrix" values="0 0 0 0 0 0 0 0 0 0 0 0 0 0 0 0 0 0 0.12 0"/>
<feBlend mode="normal" in2="BackgroundImageFix" result="effect1_dropShadow_18_3099"/>
<feBlend mode="normal" in="SourceGraphic" in2="effect1_dropShadow_18_3099" result="shape"/>
</filter>
<filter id="filter2_ii_18_3099" x="189.514" y="56.7759" width="26.1491" height="26.1491" filterUnits="userSpaceOnUse" color-interpolation-filters="sRGB">
<feFlood flood-opacity="0" result="BackgroundImageFix"/>
<feBlend mode="normal" in="SourceGraphic" in2="BackgroundImageFix" result="shape"/>
<feColorMatrix in="SourceAlpha" type="matrix" values="0 0 0 0 0 0 0 0 0 0 0 0 0 0 0 0 0 0 127 0" result="hardAlpha"/>
<feOffset dx="1.08955" dy="1.08955"/>
<feGaussianBlur stdDeviation="2.72387"/>
<feComposite in2="hardAlpha" operator="arithmetic" k2="-1" k3="1"/>
<feColorMatrix type="matrix" values="0 0 0 0 0 0 0 0 0 0.836107 0 0 0 0 0.600838 0 0 0 1 0"/>
<feBlend mode="normal" in2="shape" result="effect1_innerShadow_18_3099"/>
<feColorMatrix in="SourceAlpha" type="matrix" values="0 0 0 0 0 0 0 0 0 0 0 0 0 0 0 0 0 0 127 0" result="hardAlpha"/>
<feOffset dx="-1.08955" dy="-1.08955"/>
<feGaussianBlur stdDeviation="2.72387"/>
<feComposite in2="hardAlpha" operator="arithmetic" k2="-1" k3="1"/>
<feColorMatrix type="matrix" values="0 0 0 0 0 0 0 0 0 0.836107 0 0 0 0 0.600838 0 0 0 1 0"/>
<feBlend mode="normal" in2="effect1_innerShadow_18_3099" result="effect2_innerShadow_18_3099"/>
</filter>
<linearGradient id="paint0_linear_18_3099" x1="117.604" y1="150.287" x2="116.818" y2="85.5246" gradientUnits="userSpaceOnUse">
<stop stop-color="#2BB58B"/>
<stop offset="0.504808" stop-color="#1B936F"/>
<stop offset="1" stop-color="#41C89F"/>
</linearGradient>
<clipPath id="clip0_18_3099">
<rect x="19" y="23" width="204.29" height="442.356" rx="24" fill="white"/>
</clipPath>
<clipPath id="clip1_18_3099">
<rect width="13.0746" height="13.0746" fill="white" transform="translate(196.051 63.3132)"/>
</clipPath>
</defs>
</svg>
